<svg width="380" height="360" viewBox="0 0 380 360" fill="none" xmlns="http://www.w3.org/2000/svg">
<path d="M15 197.894C15 224.565 25.5949 250.144 44.454 269.003C63.3131 287.862 88.8916 298.457 115.562 298.457C142.233 298.457 167.812 287.862 186.671 269.003C205.53 250.144 216.125 224.565 216.125 197.894C216.125 171.224 205.53 145.645 186.671 126.786C167.812 107.927 142.233 97.332 115.562 97.332C88.8916 97.332 63.3131 107.927 44.454 126.786C25.5949 145.645 15 171.224 15 197.894Z" fill="#FFB612" fill-opacity="0.6" stroke="white" stroke-width="2"/>
<path d="M49.258 217.198C48.418 217.198 47.746 216.988 47.242 216.568C46.738 216.148 46.486 215.572 46.486 214.84C46.486 213.784 46.978 213.022 47.962 212.554C48.958 212.074 50.116 211.78 51.436 211.672V211.15C51.436 210.334 51.322 209.776 51.094 209.476C50.866 209.164 50.482 209.008 49.942 209.008C49.69 209.008 49.402 209.056 49.078 209.152C48.766 209.248 48.49 209.35 48.25 209.458C48.022 209.566 47.872 209.638 47.8 209.674L47.566 208.522C47.638 208.486 47.806 208.414 48.07 208.306C48.346 208.186 48.688 208.072 49.096 207.964C49.516 207.856 49.936 207.802 50.356 207.802C51.484 207.802 52.342 208.042 52.93 208.522C53.53 208.99 53.83 209.8 53.83 210.952V215.038C53.83 215.674 53.956 215.992 54.208 215.992C54.304 215.992 54.418 215.974 54.55 215.938C54.682 215.902 54.772 215.878 54.82 215.866L54.892 216.802C54.832 216.826 54.688 216.868 54.46 216.928C54.232 216.988 53.968 217.048 53.668 217.108C53.38 217.168 53.122 217.198 52.894 217.198C52.546 217.198 52.276 217.114 52.084 216.946C51.892 216.766 51.766 216.478 51.706 216.082H51.616C51.616 216.118 51.532 216.232 51.364 216.424C51.208 216.604 50.956 216.778 50.608 216.946C50.26 217.114 49.81 217.198 49.258 217.198ZM50.05 215.992C50.338 215.992 50.584 215.92 50.788 215.776C51.004 215.632 51.166 215.476 51.274 215.308C51.382 215.128 51.436 215.026 51.436 215.002V212.626C50.632 212.71 50.02 212.902 49.6 213.202C49.192 213.49 48.988 213.934 48.988 214.534C48.988 215.014 49.084 215.38 49.276 215.632C49.468 215.872 49.726 215.992 50.05 215.992ZM56.3085 208H58.2345L58.5405 208.738H58.6125C58.6125 208.714 58.7085 208.624 58.9005 208.468C59.1045 208.312 59.3925 208.168 59.7645 208.036C60.1365 207.892 60.5985 207.82 61.1505 207.82C62.0745 207.82 62.7645 208.072 63.2205 208.576C63.6885 209.068 63.9225 209.842 63.9225 210.898V217H61.5285V211.384C61.5285 210.58 61.4385 210.034 61.2585 209.746C61.0905 209.458 60.7785 209.314 60.3225 209.314C60.0105 209.314 59.7345 209.362 59.4945 209.458C59.2545 209.554 59.0625 209.662 58.9185 209.782C58.7745 209.89 58.7025 209.95 58.7025 209.962V217H56.3085V208ZM67.2001 206.65C66.8401 206.65 66.5221 206.53 66.2461 206.29C65.9701 206.014 65.8321 205.672 65.8321 205.264C65.8321 204.868 65.9701 204.532 66.2461 204.256C66.4981 204.016 66.8161 203.896 67.2001 203.896C67.5721 203.896 67.8781 204.01 68.1181 204.238C68.3821 204.514 68.5141 204.856 68.5141 205.264C68.5141 205.684 68.3821 206.032 68.1181 206.308C67.8541 206.536 67.5481 206.65 67.2001 206.65ZM65.9941 217V208H68.3881V217H65.9941ZM70.5468 208H72.4728L72.7788 208.81H72.8328C72.8328 208.786 72.9408 208.69 73.1568 208.522C73.3728 208.342 73.6548 208.18 74.0028 208.036C74.3628 207.892 74.7648 207.82 75.2088 207.82C75.7008 207.82 76.1088 207.898 76.4328 208.054C76.7568 208.21 77.0088 208.45 77.1888 208.774C77.3928 208.606 77.5668 208.474 77.7108 208.378C77.8668 208.27 78.1248 208.15 78.4848 208.018C78.8568 207.886 79.2768 207.82 79.7448 207.82C80.5968 207.82 81.2088 208.048 81.5808 208.504C81.9528 208.948 82.1388 209.686 82.1388 210.718V217H79.7448V210.898C79.7448 210.25 79.6668 209.824 79.5108 209.62C79.3668 209.404 79.1268 209.296 78.7908 209.296C78.4908 209.296 78.2328 209.374 78.0168 209.53C77.8008 209.674 77.6328 209.824 77.5128 209.98C77.5368 210.268 77.5488 210.502 77.5488 210.682V217H75.1548V210.898C75.1548 210.262 75.0768 209.836 74.9208 209.62C74.7768 209.404 74.5428 209.296 74.2188 209.296C73.9068 209.296 73.6368 209.374 73.4088 209.53C73.1808 209.686 73.0248 209.824 72.9408 209.944V217H70.5468V208ZM86.4006 217.198C85.5606 217.198 84.8886 216.988 84.3846 216.568C83.8806 216.148 83.6286 215.572 83.6286 214.84C83.6286 213.784 84.1206 213.022 85.1046 212.554C86.1006 212.074 87.2586 211.78 88.5786 211.672V211.15C88.5786 210.334 88.4646 209.776 88.2366 209.476C88.0086 209.164 87.6246 209.008 87.0846 209.008C86.8326 209.008 86.5446 209.056 86.2206 209.152C85.9086 209.248 85.6326 209.35 85.3926 209.458C85.1646 209.566 85.0146 209.638 84.9426 209.674L84.7086 208.522C84.7806 208.486 84.9486 208.414 85.2126 208.306C85.4886 208.186 85.8306 208.072 86.2386 207.964C86.6586 207.856 87.0786 207.802 87.4986 207.802C88.6266 207.802 89.4846 208.042 90.0726 208.522C90.6726 208.99 90.9726 209.8 90.9726 210.952V215.038C90.9726 215.674 91.0986 215.992 91.3506 215.992C91.4466 215.992 91.5606 215.974 91.6926 215.938C91.8246 215.902 91.9146 215.878 91.9626 215.866L92.0346 216.802C91.9746 216.826 91.8306 216.868 91.6026 216.928C91.3746 216.988 91.1106 217.048 90.8106 217.108C90.5226 217.168 90.2646 217.198 90.0366 217.198C89.6886 217.198 89.4186 217.114 89.2266 216.946C89.0346 216.766 88.9086 216.478 88.8486 216.082H88.7586C88.7586 216.118 88.6746 216.232 88.5066 216.424C88.3506 216.604 88.0986 216.778 87.7506 216.946C87.4026 217.114 86.9526 217.198 86.4006 217.198ZM87.1926 215.992C87.4806 215.992 87.7266 215.92 87.9306 215.776C88.1466 215.632 88.3086 215.476 88.4166 215.308C88.5246 215.128 88.5786 215.026 88.5786 215.002V212.626C87.7746 212.71 87.1626 212.902 86.7426 213.202C86.3346 213.49 86.1306 213.934 86.1306 214.534C86.1306 215.014 86.2266 215.38 86.4186 215.632C86.6106 215.872 86.8686 215.992 87.1926 215.992ZM93.4511 217V203.572L95.8451 203.428V217H93.4511ZM100.541 217.198C99.8454 217.198 99.2634 217.102 98.7954 216.91C98.3274 216.706 97.9734 216.49 97.7334 216.262C97.4934 216.034 97.3734 215.896 97.3734 215.848L98.0394 214.912C98.0394 214.936 98.1354 215.044 98.3274 215.236C98.5194 215.428 98.7594 215.608 99.0474 215.776C99.3474 215.932 99.6774 216.01 100.037 216.01C100.481 216.01 100.823 215.896 101.063 215.668C101.303 215.44 101.423 215.14 101.423 214.768C101.423 214.408 101.297 214.126 101.045 213.922C100.793 213.706 100.415 213.484 99.9114 213.256C99.4434 213.028 99.0654 212.824 98.7774 212.644C98.5014 212.452 98.2614 212.194 98.0574 211.87C97.8534 211.534 97.7514 211.108 97.7514 210.592C97.7514 209.704 98.0574 209.02 98.6694 208.54C99.2814 208.048 100.037 207.802 100.937 207.802C101.321 207.802 101.705 207.85 102.089 207.946C102.473 208.042 102.791 208.138 103.043 208.234C103.295 208.33 103.457 208.396 103.529 208.432L103.205 209.638C103.145 209.602 103.007 209.53 102.791 209.422C102.575 209.314 102.311 209.212 101.999 209.116C101.699 209.02 101.423 208.972 101.171 208.972C100.799 208.972 100.511 209.062 100.307 209.242C100.103 209.422 100.001 209.662 100.001 209.962C100.001 210.322 100.133 210.616 100.397 210.844C100.673 211.06 101.087 211.294 101.639 211.546C102.131 211.786 102.527 212.008 102.827 212.212C103.127 212.404 103.385 212.668 103.601 213.004C103.817 213.34 103.925 213.76 103.925 214.264C103.925 215.14 103.631 215.848 103.043 216.388C102.467 216.928 101.633 217.198 100.541 217.198ZM48.618 234V225.712L46.938 226.65L46.7 226.104L48.786 224.9H49.626V234H48.618ZM51.77 233.16C51.9846 233.076 52.428 232.712 53.1 232.068C53.7813 231.424 54.402 230.682 54.962 229.842C55.522 228.993 55.802 228.176 55.802 227.392C55.802 226.729 55.6666 226.244 55.396 225.936C55.1346 225.619 54.682 225.46 54.038 225.46C53.73 225.46 53.4266 225.516 53.128 225.628C52.8386 225.74 52.5866 225.866 52.372 226.006C52.1573 226.146 52.05 226.221 52.05 226.23L51.938 225.6C51.938 225.581 52.05 225.502 52.274 225.362C52.5073 225.213 52.792 225.077 53.128 224.956C53.464 224.835 53.8186 224.774 54.192 224.774C55.1253 224.774 55.8113 225.003 56.25 225.46C56.698 225.908 56.922 226.524 56.922 227.308C56.922 228.316 56.502 229.329 55.662 230.346C54.822 231.354 53.8933 232.255 52.876 233.048H57.174V234H51.77V233.16ZM63.6561 234L61.2621 227H62.4661L64.2861 232.894L66.2181 227H66.9881L64.5801 234H63.6561ZM68.7181 225.586C68.5501 225.586 68.4147 225.535 68.3121 225.432C68.1907 225.311 68.1301 225.161 68.1301 224.984C68.1301 224.807 68.1907 224.657 68.3121 224.536C68.4147 224.433 68.5501 224.382 68.7181 224.382C68.8954 224.382 69.0354 224.429 69.1381 224.522C69.2501 224.643 69.3061 224.797 69.3061 224.984C69.3061 225.152 69.2501 225.301 69.1381 225.432C69.0074 225.535 68.8674 225.586 68.7181 225.586ZM68.2001 234V227H69.2221V234H68.2001ZM73.5996 234.14C72.7502 234.14 72.0689 233.837 71.5556 233.23C71.0422 232.623 70.7856 231.779 70.7856 230.696C70.7856 229.529 71.0329 228.601 71.5276 227.91C72.0316 227.21 72.7362 226.86 73.6416 226.86C74.0242 226.86 74.3462 226.911 74.6076 227.014C74.8689 227.107 75.0696 227.215 75.2096 227.336C75.3496 227.448 75.4196 227.513 75.4196 227.532H75.4336V223.528L76.4416 223.472V234H75.5736L75.4616 233.174C75.3589 233.379 75.1582 233.594 74.8596 233.818C74.5609 234.033 74.1409 234.14 73.5996 234.14ZM73.8236 233.454C74.1596 233.454 74.4489 233.384 74.6916 233.244C74.9342 233.095 75.1162 232.936 75.2376 232.768C75.3682 232.6 75.4336 232.502 75.4336 232.474V228.176C75.4336 228.157 75.3682 228.092 75.2376 227.98C75.1162 227.868 74.9436 227.765 74.7196 227.672C74.5049 227.579 74.2482 227.532 73.9496 227.532C73.2309 227.532 72.7036 227.798 72.3676 228.33C72.0316 228.853 71.8636 229.632 71.8636 230.668C71.8636 231.648 72.0269 232.357 72.3536 232.796C72.6896 233.235 73.1796 233.454 73.8236 233.454ZM81.0003 234.14C80.067 234.14 79.3343 233.851 78.8023 233.272C78.2703 232.684 78.0043 231.807 78.0043 230.64C78.0043 229.464 78.261 228.54 78.7743 227.868C79.2877 227.196 79.9877 226.86 80.8743 226.86C81.677 226.86 82.293 227.14 82.7223 227.7C83.161 228.251 83.3803 229.035 83.3803 230.052C83.3803 230.229 83.371 230.374 83.3523 230.486C83.3337 230.598 83.3197 230.668 83.3103 230.696H79.0683C79.0683 232.581 79.7497 233.524 81.1123 233.524C81.4857 233.524 81.803 233.459 82.0643 233.328C82.335 233.188 82.545 233.043 82.6943 232.894C82.8437 232.735 82.9183 232.642 82.9183 232.614L83.3243 232.95C83.3243 232.987 83.2357 233.109 83.0583 233.314C82.881 233.51 82.6197 233.697 82.2743 233.874C81.929 234.051 81.5043 234.14 81.0003 234.14ZM82.4283 230.108L82.4423 229.842C82.4423 228.255 81.9197 227.462 80.8743 227.462C80.3237 227.462 79.899 227.681 79.6003 228.12C79.3017 228.549 79.129 229.212 79.0823 230.108H82.4283ZM87.3301 234.14C86.3594 234.14 85.6174 233.823 85.1041 233.188C84.6001 232.553 84.3481 231.657 84.3481 230.5C84.3481 229.343 84.6001 228.447 85.1041 227.812C85.6174 227.177 86.3594 226.86 87.3301 226.86C88.3007 226.86 89.0381 227.177 89.5421 227.812C90.0554 228.447 90.3121 229.343 90.3121 230.5C90.3121 231.648 90.0507 232.544 89.5281 233.188C89.0147 233.823 88.2821 234.14 87.3301 234.14ZM87.3301 233.524C87.9834 233.524 88.4641 233.277 88.7721 232.782C89.0801 232.278 89.2341 231.517 89.2341 230.5C89.2341 229.492 89.0801 228.736 88.7721 228.232C88.4641 227.728 87.9834 227.476 87.3301 227.476C86.6767 227.476 86.1961 227.728 85.8881 228.232C85.5801 228.727 85.4261 229.483 85.4261 230.5C85.4261 231.517 85.5801 232.278 85.8881 232.782C86.1961 233.277 86.6767 233.524 87.3301 233.524ZM93.6298 234.14C93.1351 234.14 92.7151 234.065 92.3698 233.916C92.0338 233.757 91.7771 233.589 91.5998 233.412C91.4318 233.235 91.3478 233.132 91.3478 233.104L91.6978 232.614C91.6978 232.633 91.7724 232.721 91.9218 232.88C92.0711 233.039 92.2764 233.188 92.5378 233.328C92.7991 233.459 93.1071 233.524 93.4618 233.524C93.9844 233.524 94.3764 233.393 94.6378 233.132C94.9084 232.871 95.0438 232.553 95.0438 232.18C95.0438 231.909 94.9738 231.685 94.8338 231.508C94.7031 231.331 94.5351 231.195 94.3298 231.102C94.1338 230.999 93.8584 230.887 93.5038 230.766C93.0931 230.617 92.7664 230.481 92.5238 230.36C92.2811 230.229 92.0711 230.038 91.8938 229.786C91.7258 229.534 91.6418 229.207 91.6418 228.806C91.6418 228.209 91.8564 227.737 92.2858 227.392C92.7244 227.037 93.2844 226.86 93.9658 226.86C94.2644 226.86 94.5491 226.902 94.8198 226.986C95.0998 227.061 95.3238 227.145 95.4918 227.238C95.6598 227.322 95.7671 227.378 95.8138 227.406L95.6458 228.008C95.6084 227.98 95.5151 227.924 95.3658 227.84C95.2164 227.747 95.0204 227.658 94.7778 227.574C94.5444 227.49 94.3018 227.448 94.0498 227.448C93.6204 227.448 93.2704 227.555 92.9998 227.77C92.7384 227.985 92.6078 228.255 92.6078 228.582C92.6078 228.853 92.6778 229.081 92.8178 229.268C92.9578 229.445 93.1304 229.585 93.3358 229.688C93.5504 229.791 93.8351 229.907 94.1898 230.038C94.6004 230.178 94.9318 230.318 95.1838 230.458C95.4451 230.589 95.6644 230.78 95.8418 231.032C96.0191 231.284 96.1078 231.611 96.1078 232.012C96.1078 232.619 95.8978 233.127 95.4778 233.538C95.0578 233.939 94.4418 234.14 93.6298 234.14Z" fill="#222222"/>
<path d="M136.998 197.894C136.998 208.677 139.122 219.354 143.248 229.316C147.375 239.278 153.423 248.33 161.047 255.954C168.672 263.579 177.724 269.627 187.685 273.753C197.647 277.879 208.324 280.003 219.107 280.003C229.89 280.003 240.567 277.879 250.529 273.753C260.491 269.627 269.542 263.579 277.167 255.954C284.791 248.33 290.839 239.278 294.966 229.316C299.092 219.354 301.216 208.677 301.216 197.894C301.216 176.118 292.565 155.233 277.167 139.835C261.768 124.436 240.884 115.786 219.107 115.786C197.331 115.786 176.446 124.436 161.047 139.835C145.649 155.233 136.998 176.118 136.998 197.894" fill="#013369" fill-opacity="0.6"/>
<path d="M136.998 197.894C136.998 208.677 139.122 219.354 143.248 229.316C147.375 239.278 153.423 248.33 161.047 255.954C168.672 263.579 177.724 269.627 187.685 273.753C197.647 277.879 208.324 280.003 219.107 280.003C229.89 280.003 240.567 277.879 250.529 273.753C260.491 269.627 269.542 263.579 277.167 255.954C284.791 248.33 290.839 239.278 294.966 229.316C299.092 219.354 301.216 208.677 301.216 197.894C301.216 176.118 292.565 155.233 277.167 139.835C261.768 124.436 240.884 115.786 219.107 115.786C197.331 115.786 176.446 124.436 161.047 139.835C145.649 155.233 136.998 176.118 136.998 197.894" stroke="white" stroke-width="2"/>
<path d="M281.539 239.386H280.657V238.306L281.539 238.054V236.722C281.539 235.642 281.761 234.808 282.205 234.22C282.649 233.62 283.375 233.32 284.383 233.32C284.683 233.32 284.983 233.368 285.283 233.464C285.583 233.548 285.829 233.638 286.021 233.734C286.225 233.83 286.351 233.896 286.399 233.932L286.093 234.958C286.057 234.934 285.967 234.892 285.823 234.832C285.679 234.76 285.511 234.694 285.319 234.634C285.127 234.562 284.959 234.526 284.815 234.526C284.587 234.526 284.413 234.586 284.293 234.706C284.173 234.826 284.083 235.066 284.023 235.426C283.963 235.774 283.933 236.296 283.933 236.992V238H286.183V239.386H283.933V247H281.539V239.386ZM290.03 247.198C289.106 247.198 288.41 246.952 287.942 246.46C287.486 245.956 287.258 245.176 287.258 244.12V238H289.652V243.616C289.652 244.408 289.748 244.954 289.94 245.254C290.132 245.554 290.444 245.704 290.876 245.704C291.164 245.704 291.422 245.656 291.65 245.56C291.878 245.452 292.058 245.344 292.19 245.236C292.322 245.128 292.406 245.056 292.442 245.02V238H294.836V247H292.91L292.568 246.208H292.532C292.532 246.232 292.436 246.334 292.244 246.514C292.052 246.682 291.77 246.838 291.398 246.982C291.026 247.126 290.57 247.198 290.03 247.198ZM297.016 238H298.942L299.248 238.738H299.32C299.32 238.714 299.416 238.624 299.608 238.468C299.812 238.312 300.1 238.168 300.472 238.036C300.844 237.892 301.306 237.82 301.858 237.82C302.782 237.82 303.472 238.072 303.928 238.576C304.396 239.068 304.63 239.842 304.63 240.898V247H302.236V241.384C302.236 240.58 302.146 240.034 301.966 239.746C301.798 239.458 301.486 239.314 301.03 239.314C300.718 239.314 300.442 239.362 300.202 239.458C299.962 239.554 299.77 239.662 299.626 239.782C299.482 239.89 299.41 239.95 299.41 239.962V247H297.016V238ZM306.701 238H308.627L308.933 238.738H309.005C309.005 238.714 309.101 238.624 309.293 238.468C309.497 238.312 309.785 238.168 310.157 238.036C310.529 237.892 310.991 237.82 311.543 237.82C312.467 237.82 313.157 238.072 313.613 238.576C314.081 239.068 314.315 239.842 314.315 240.898V247H311.921V241.384C311.921 240.58 311.831 240.034 311.651 239.746C311.483 239.458 311.171 239.314 310.715 239.314C310.403 239.314 310.127 239.362 309.887 239.458C309.647 239.554 309.455 239.662 309.311 239.782C309.167 239.89 309.095 239.95 309.095 239.962V247H306.701V238ZM317.107 251.698C316.831 251.698 316.585 251.674 316.369 251.626C316.165 251.59 316.009 251.548 315.901 251.5C315.793 251.464 315.727 251.44 315.703 251.428L315.901 250.024C315.949 250.048 316.069 250.084 316.261 250.132C316.453 250.192 316.645 250.222 316.837 250.222C317.377 250.222 317.815 250.006 318.151 249.574C318.487 249.154 318.859 248.416 319.267 247.36L315.433 238H318.331L320.527 244.408L322.381 238H323.875L320.761 247.198C320.389 248.218 320.035 249.046 319.699 249.682C319.375 250.318 319.003 250.81 318.583 251.158C318.163 251.518 317.671 251.698 317.107 251.698ZM284.011 263.13C283.179 263.13 282.529 262.939 282.061 262.558C281.602 262.177 281.372 261.587 281.372 260.79C281.372 260.218 281.537 259.763 281.866 259.425C282.204 259.087 282.611 258.84 283.088 258.684C282.663 258.554 282.299 258.324 281.996 257.995C281.693 257.666 281.541 257.198 281.541 256.591C281.541 255.915 281.762 255.386 282.204 255.005C282.646 254.624 283.248 254.433 284.011 254.433C284.774 254.433 285.376 254.628 285.818 255.018C286.269 255.399 286.494 255.937 286.494 256.63C286.494 257.202 286.338 257.648 286.026 257.969C285.723 258.29 285.35 258.524 284.908 258.671C285.385 258.801 285.796 259.031 286.143 259.36C286.49 259.689 286.663 260.175 286.663 260.816C286.663 261.605 286.429 262.19 285.961 262.571C285.493 262.944 284.843 263.13 284.011 263.13ZM284.024 258.45C284.371 258.415 284.7 258.272 285.012 258.021C285.324 257.761 285.48 257.306 285.48 256.656C285.48 255.529 284.99 254.966 284.011 254.966C283.032 254.966 282.542 255.521 282.542 256.63C282.542 257.28 282.698 257.735 283.01 257.995C283.322 258.255 283.66 258.407 284.024 258.45ZM284.011 262.597C284.522 262.597 284.917 262.45 285.194 262.155C285.471 261.852 285.61 261.392 285.61 260.777C285.61 260.118 285.432 259.659 285.077 259.399C284.73 259.13 284.362 258.974 283.972 258.931C283.599 258.974 283.244 259.13 282.906 259.399C282.577 259.659 282.412 260.114 282.412 260.764C282.412 261.388 282.551 261.852 282.828 262.155C283.105 262.45 283.5 262.597 284.011 262.597ZM292.7 263L290.477 256.5H291.595L293.285 261.973L295.079 256.5H295.794L293.558 263H292.7ZM297.4 255.187C297.244 255.187 297.118 255.139 297.023 255.044C296.91 254.931 296.854 254.793 296.854 254.628C296.854 254.463 296.91 254.325 297.023 254.212C297.118 254.117 297.244 254.069 297.4 254.069C297.565 254.069 297.695 254.112 297.79 254.199C297.894 254.312 297.946 254.455 297.946 254.628C297.946 254.784 297.894 254.923 297.79 255.044C297.669 255.139 297.539 255.187 297.4 255.187ZM296.919 263V256.5H297.868V263H296.919ZM301.933 263.13C301.144 263.13 300.512 262.848 300.035 262.285C299.558 261.722 299.32 260.937 299.32 259.932C299.32 258.849 299.55 257.986 300.009 257.345C300.477 256.695 301.131 256.37 301.972 256.37C302.327 256.37 302.626 256.418 302.869 256.513C303.112 256.6 303.298 256.699 303.428 256.812C303.558 256.916 303.623 256.977 303.623 256.994H303.636V253.276L304.572 253.224V263H303.766L303.662 262.233C303.567 262.424 303.38 262.623 303.103 262.831C302.826 263.03 302.436 263.13 301.933 263.13ZM302.141 262.493C302.453 262.493 302.722 262.428 302.947 262.298C303.172 262.159 303.341 262.012 303.454 261.856C303.575 261.7 303.636 261.609 303.636 261.583V257.592C303.636 257.575 303.575 257.514 303.454 257.41C303.341 257.306 303.181 257.211 302.973 257.124C302.774 257.037 302.535 256.994 302.258 256.994C301.591 256.994 301.101 257.241 300.789 257.735C300.477 258.22 300.321 258.944 300.321 259.906C300.321 260.816 300.473 261.475 300.776 261.882C301.088 262.289 301.543 262.493 302.141 262.493ZM308.805 263.13C307.938 263.13 307.258 262.861 306.764 262.324C306.27 261.778 306.023 260.963 306.023 259.88C306.023 258.788 306.261 257.93 306.738 257.306C307.215 256.682 307.865 256.37 308.688 256.37C309.433 256.37 310.005 256.63 310.404 257.15C310.811 257.661 311.015 258.389 311.015 259.334C311.015 259.499 311.006 259.633 310.989 259.737C310.972 259.841 310.959 259.906 310.95 259.932H307.011C307.011 261.683 307.644 262.558 308.909 262.558C309.256 262.558 309.55 262.497 309.793 262.376C310.044 262.246 310.239 262.112 310.378 261.973C310.517 261.826 310.586 261.739 310.586 261.713L310.963 262.025C310.963 262.06 310.881 262.172 310.716 262.363C310.551 262.545 310.309 262.718 309.988 262.883C309.667 263.048 309.273 263.13 308.805 263.13ZM310.131 259.386L310.144 259.139C310.144 257.666 309.659 256.929 308.688 256.929C308.177 256.929 307.782 257.133 307.505 257.54C307.228 257.939 307.067 258.554 307.024 259.386H310.131ZM314.683 263.13C313.781 263.13 313.092 262.835 312.616 262.246C312.148 261.657 311.914 260.825 311.914 259.75C311.914 258.675 312.148 257.843 312.616 257.254C313.092 256.665 313.781 256.37 314.683 256.37C315.584 256.37 316.269 256.665 316.737 257.254C317.213 257.843 317.452 258.675 317.452 259.75C317.452 260.816 317.209 261.648 316.724 262.246C316.247 262.835 315.567 263.13 314.683 263.13ZM314.683 262.558C315.289 262.558 315.736 262.328 316.022 261.869C316.308 261.401 316.451 260.695 316.451 259.75C316.451 258.814 316.308 258.112 316.022 257.644C315.736 257.176 315.289 256.942 314.683 256.942C314.076 256.942 313.63 257.176 313.344 257.644C313.058 258.103 312.915 258.805 312.915 259.75C312.915 260.695 313.058 261.401 313.344 261.869C313.63 262.328 314.076 262.558 314.683 262.558ZM320.532 263.13C320.073 263.13 319.683 263.061 319.362 262.922C319.05 262.775 318.812 262.619 318.647 262.454C318.491 262.289 318.413 262.194 318.413 262.168L318.738 261.713C318.738 261.73 318.808 261.813 318.946 261.96C319.085 262.107 319.276 262.246 319.518 262.376C319.761 262.497 320.047 262.558 320.376 262.558C320.862 262.558 321.226 262.437 321.468 262.194C321.72 261.951 321.845 261.657 321.845 261.31C321.845 261.059 321.78 260.851 321.65 260.686C321.529 260.521 321.373 260.396 321.182 260.309C321 260.214 320.745 260.11 320.415 259.997C320.034 259.858 319.731 259.733 319.505 259.62C319.28 259.499 319.085 259.321 318.92 259.087C318.764 258.853 318.686 258.55 318.686 258.177C318.686 257.622 318.886 257.185 319.284 256.864C319.692 256.535 320.212 256.37 320.844 256.37C321.122 256.37 321.386 256.409 321.637 256.487C321.897 256.556 322.105 256.634 322.261 256.721C322.417 256.799 322.517 256.851 322.56 256.877L322.404 257.436C322.37 257.41 322.283 257.358 322.144 257.28C322.006 257.193 321.824 257.111 321.598 257.033C321.382 256.955 321.156 256.916 320.922 256.916C320.524 256.916 320.199 257.016 319.947 257.215C319.705 257.414 319.583 257.666 319.583 257.969C319.583 258.22 319.648 258.433 319.778 258.606C319.908 258.771 320.069 258.901 320.259 258.996C320.459 259.091 320.723 259.2 321.052 259.321C321.434 259.451 321.741 259.581 321.975 259.711C322.218 259.832 322.422 260.01 322.586 260.244C322.751 260.478 322.833 260.781 322.833 261.154C322.833 261.717 322.638 262.19 322.248 262.571C321.858 262.944 321.286 263.13 320.532 263.13Z" fill="#222222"/>
<path d="M114.14 224.321C114.14 243.18 121.632 261.266 134.967 274.602C148.302 287.937 166.389 295.429 185.248 295.429C204.107 295.429 222.194 287.937 235.529 274.602C248.865 261.266 256.356 243.18 256.356 224.321C256.356 205.461 248.865 187.375 235.529 174.039C222.194 160.704 204.107 153.212 185.248 153.212C166.389 153.212 148.302 160.704 134.967 174.039C121.632 187.375 114.14 205.461 114.14 224.321" fill="#A8001C" fill-opacity="0.6"/>
<path d="M114.14 224.321C114.14 243.18 121.632 261.266 134.967 274.602C148.302 287.937 166.389 295.429 185.248 295.429C204.107 295.429 222.194 287.937 235.529 274.602C248.865 261.266 256.356 243.18 256.356 224.321C256.356 205.461 248.865 187.375 235.529 174.039C222.194 160.704 204.107 153.212 185.248 153.212C166.389 153.212 148.302 160.704 134.967 174.039C121.632 187.375 114.14 205.461 114.14 224.321" stroke="white" stroke-width="2"/>
<path d="M156.222 252.176C155.561 252.176 154.974 252.011 154.462 251.68C153.961 251.349 153.571 250.885 153.294 250.288C153.017 249.68 152.878 248.976 152.878 248.176C152.878 247.312 153.011 246.555 153.278 245.904C153.545 245.243 153.923 244.736 154.414 244.384C154.905 244.021 155.475 243.84 156.126 243.84C156.542 243.84 156.889 243.888 157.166 243.984C157.443 244.069 157.651 244.165 157.79 244.272C157.929 244.368 157.998 244.427 157.998 244.448H158.046V240.064L160.174 239.936V252H158.398L158.158 251.28H158.142C158.142 251.312 158.078 251.403 157.95 251.552C157.822 251.701 157.614 251.845 157.326 251.984C157.049 252.112 156.681 252.176 156.222 252.176ZM156.702 250.928C156.969 250.928 157.198 250.875 157.39 250.768C157.593 250.661 157.753 250.544 157.87 250.416C157.987 250.288 158.046 250.213 158.046 250.192V245.584C158.025 245.552 157.961 245.499 157.854 245.424C157.758 245.339 157.614 245.259 157.422 245.184C157.241 245.099 157.027 245.056 156.782 245.056C156.206 245.056 155.79 245.285 155.534 245.744C155.289 246.203 155.166 246.992 155.166 248.112C155.166 248.859 155.219 249.435 155.326 249.84C155.443 250.245 155.609 250.528 155.822 250.688C156.046 250.848 156.339 250.928 156.702 250.928ZM164.029 252.176C163.282 252.176 162.685 251.989 162.237 251.616C161.789 251.243 161.565 250.731 161.565 250.08C161.565 249.141 162.002 248.464 162.877 248.048C163.762 247.621 164.791 247.36 165.965 247.264V246.8C165.965 246.075 165.863 245.579 165.661 245.312C165.458 245.035 165.117 244.896 164.637 244.896C164.413 244.896 164.157 244.939 163.869 245.024C163.591 245.109 163.346 245.2 163.133 245.296C162.93 245.392 162.797 245.456 162.733 245.488L162.525 244.464C162.589 244.432 162.738 244.368 162.973 244.272C163.218 244.165 163.522 244.064 163.885 243.968C164.258 243.872 164.631 243.824 165.005 243.824C166.007 243.824 166.77 244.037 167.293 244.464C167.826 244.88 168.093 245.6 168.093 246.624V250.256C168.093 250.821 168.205 251.104 168.429 251.104C168.514 251.104 168.615 251.088 168.733 251.056C168.85 251.024 168.93 251.003 168.973 250.992L169.037 251.824C168.983 251.845 168.855 251.883 168.653 251.936C168.45 251.989 168.215 252.043 167.949 252.096C167.693 252.149 167.463 252.176 167.261 252.176C166.951 252.176 166.711 252.101 166.541 251.952C166.37 251.792 166.258 251.536 166.205 251.184H166.125C166.125 251.216 166.05 251.317 165.901 251.488C165.762 251.648 165.538 251.803 165.229 251.952C164.919 252.101 164.519 252.176 164.029 252.176ZM164.733 251.104C164.989 251.104 165.207 251.04 165.389 250.912C165.581 250.784 165.725 250.645 165.821 250.496C165.917 250.336 165.965 250.245 165.965 250.224V248.112C165.25 248.187 164.706 248.357 164.333 248.624C163.97 248.88 163.789 249.275 163.789 249.808C163.789 250.235 163.874 250.56 164.045 250.784C164.215 250.997 164.445 251.104 164.733 251.104ZM170.296 244H172.008L172.28 244.656H172.344C172.344 244.635 172.429 244.555 172.6 244.416C172.781 244.277 173.037 244.149 173.368 244.032C173.699 243.904 174.109 243.84 174.6 243.84C175.421 243.84 176.035 244.064 176.44 244.512C176.856 244.949 177.064 245.637 177.064 246.576V252H174.936V247.008C174.936 246.293 174.856 245.808 174.696 245.552C174.547 245.296 174.269 245.168 173.864 245.168C173.587 245.168 173.341 245.211 173.128 245.296C172.915 245.381 172.744 245.477 172.616 245.584C172.488 245.68 172.424 245.733 172.424 245.744V252H170.296V244ZM181.689 256.192C180.484 256.192 179.583 255.952 178.985 255.472C178.399 254.992 178.105 254.341 178.105 253.52C178.105 252.624 178.441 251.968 179.113 251.552C178.996 251.296 178.937 251.008 178.937 250.688C178.937 250.048 179.172 249.525 179.641 249.12C179.257 248.875 178.953 248.549 178.729 248.144C178.516 247.739 178.409 247.264 178.409 246.72C178.409 245.76 178.719 245.04 179.337 244.56C179.956 244.08 180.745 243.84 181.705 243.84C182.132 243.84 182.537 243.899 182.921 244.016L185.081 244.032V244.976L184.313 245.024C184.612 245.472 184.761 246.037 184.761 246.72C184.761 247.669 184.479 248.395 183.913 248.896C183.359 249.397 182.607 249.648 181.657 249.648C181.295 249.648 180.927 249.605 180.553 249.52C180.351 249.68 180.249 249.877 180.249 250.112C180.249 250.325 180.372 250.491 180.617 250.608C180.863 250.715 181.284 250.768 181.881 250.768C183.055 250.768 183.924 250.981 184.489 251.408C185.055 251.835 185.337 252.464 185.337 253.296C185.337 254.235 185.028 254.949 184.409 255.44C183.801 255.941 182.895 256.192 181.689 256.192ZM181.609 248.672C181.972 248.672 182.244 248.517 182.425 248.208C182.607 247.899 182.697 247.392 182.697 246.688C182.697 245.984 182.607 245.504 182.425 245.248C182.244 244.992 181.967 244.864 181.593 244.864C181.22 244.864 180.937 244.997 180.745 245.264C180.553 245.52 180.457 246.005 180.457 246.72C180.457 247.413 180.553 247.915 180.745 248.224C180.948 248.523 181.236 248.672 181.609 248.672ZM181.689 255.104C182.319 255.104 182.788 254.992 183.097 254.768C183.407 254.544 183.561 254.219 183.561 253.792C183.561 253.365 183.391 253.056 183.049 252.864C182.719 252.672 182.217 252.576 181.545 252.576C180.916 252.576 180.399 252.491 179.993 252.32C179.727 252.608 179.593 252.992 179.593 253.472C179.593 253.995 179.764 254.395 180.105 254.672C180.457 254.96 180.985 255.104 181.689 255.104ZM189.528 252.176C188.344 252.176 187.422 251.851 186.76 251.2C186.11 250.539 185.784 249.52 185.784 248.144C185.784 246.757 186.104 245.696 186.744 244.96C187.384 244.213 188.248 243.84 189.336 243.84C190.328 243.84 191.096 244.155 191.64 244.784C192.195 245.403 192.472 246.293 192.472 247.456C192.472 247.723 192.451 247.947 192.408 248.128C192.376 248.309 192.355 248.421 192.344 248.464H188.04C188.051 249.424 188.19 250.107 188.456 250.512C188.734 250.907 189.176 251.104 189.784 251.104C190.147 251.104 190.467 251.029 190.744 250.88C191.022 250.72 191.24 250.549 191.4 250.368C191.56 250.176 191.64 250.069 191.64 250.048L192.36 250.608C192.36 250.651 192.248 250.805 192.024 251.072C191.811 251.339 191.491 251.589 191.064 251.824C190.648 252.059 190.136 252.176 189.528 252.176ZM190.488 247.424V247.056C190.488 246.245 190.403 245.68 190.232 245.36C190.062 245.029 189.763 244.864 189.336 244.864C189.038 244.864 188.798 244.939 188.616 245.088C188.446 245.237 188.312 245.499 188.216 245.872C188.12 246.235 188.062 246.752 188.04 247.424H190.488ZM193.858 244H195.362L195.714 245.344H195.778C195.778 245.28 195.821 245.125 195.906 244.88C195.992 244.624 196.146 244.384 196.37 244.16C196.605 243.936 196.914 243.824 197.298 243.824C197.512 243.824 197.752 243.856 198.018 243.92C198.296 243.984 198.477 244.027 198.562 244.048L198.37 245.536C198.285 245.515 198.093 245.472 197.794 245.408C197.506 245.344 197.256 245.312 197.042 245.312C196.797 245.312 196.594 245.387 196.434 245.536C196.285 245.675 196.173 245.824 196.098 245.984C196.024 246.144 195.986 246.24 195.986 246.272V252H193.858V244ZM157.637 268.13C156.753 268.13 156.072 267.84 155.596 267.259C155.119 266.678 154.881 265.842 154.881 264.75C154.881 264.403 154.894 264.087 154.92 263.801C155.006 262.336 155.297 261.244 155.791 260.525C156.285 259.797 156.939 259.433 157.754 259.433C158.022 259.433 158.278 259.468 158.521 259.537C158.772 259.598 158.971 259.663 159.119 259.732C159.275 259.801 159.374 259.849 159.418 259.875L159.288 260.447C159.253 260.421 159.166 260.378 159.028 260.317C158.889 260.248 158.711 260.183 158.495 260.122C158.278 260.061 158.057 260.031 157.832 260.031C156.566 260.031 155.895 261.179 155.817 263.476C156.337 262.939 156.965 262.67 157.702 262.67C158.49 262.67 159.11 262.908 159.561 263.385C160.02 263.862 160.25 264.499 160.25 265.296C160.25 265.825 160.15 266.306 159.951 266.739C159.76 267.164 159.465 267.502 159.067 267.753C158.677 268.004 158.2 268.13 157.637 268.13ZM157.637 267.558C158.2 267.558 158.612 267.35 158.872 266.934C159.132 266.509 159.262 265.959 159.262 265.283C159.262 264.659 159.123 264.156 158.846 263.775C158.568 263.394 158.148 263.203 157.585 263.203C157.177 263.203 156.839 263.303 156.571 263.502C156.302 263.693 156.085 263.909 155.921 264.152L155.934 264.165C155.916 264.26 155.899 264.39 155.882 264.555C155.873 264.72 155.869 264.884 155.869 265.049C155.869 266.722 156.458 267.558 157.637 267.558ZM166.295 268L164.072 261.5H165.19L166.88 266.973L168.674 261.5H169.389L167.153 268H166.295ZM170.995 260.187C170.839 260.187 170.714 260.139 170.618 260.044C170.506 259.931 170.449 259.793 170.449 259.628C170.449 259.463 170.506 259.325 170.618 259.212C170.714 259.117 170.839 259.069 170.995 259.069C171.16 259.069 171.29 259.112 171.385 259.199C171.489 259.312 171.541 259.455 171.541 259.628C171.541 259.784 171.489 259.923 171.385 260.044C171.264 260.139 171.134 260.187 170.995 260.187ZM170.514 268V261.5H171.463V268H170.514ZM175.528 268.13C174.739 268.13 174.107 267.848 173.63 267.285C173.153 266.722 172.915 265.937 172.915 264.932C172.915 263.849 173.145 262.986 173.604 262.345C174.072 261.695 174.726 261.37 175.567 261.37C175.922 261.37 176.221 261.418 176.464 261.513C176.707 261.6 176.893 261.699 177.023 261.812C177.153 261.916 177.218 261.977 177.218 261.994H177.231V258.276L178.167 258.224V268H177.361L177.257 267.233C177.162 267.424 176.975 267.623 176.698 267.831C176.421 268.03 176.031 268.13 175.528 268.13ZM175.736 267.493C176.048 267.493 176.317 267.428 176.542 267.298C176.767 267.159 176.936 267.012 177.049 266.856C177.17 266.7 177.231 266.609 177.231 266.583V262.592C177.231 262.575 177.17 262.514 177.049 262.41C176.936 262.306 176.776 262.211 176.568 262.124C176.369 262.037 176.13 261.994 175.853 261.994C175.186 261.994 174.696 262.241 174.384 262.735C174.072 263.22 173.916 263.944 173.916 264.906C173.916 265.816 174.068 266.475 174.371 266.882C174.683 267.289 175.138 267.493 175.736 267.493ZM182.4 268.13C181.534 268.13 180.853 267.861 180.359 267.324C179.865 266.778 179.618 265.963 179.618 264.88C179.618 263.788 179.857 262.93 180.333 262.306C180.81 261.682 181.46 261.37 182.283 261.37C183.029 261.37 183.601 261.63 183.999 262.15C184.407 262.661 184.61 263.389 184.61 264.334C184.61 264.499 184.602 264.633 184.584 264.737C184.567 264.841 184.554 264.906 184.545 264.932H180.606C180.606 266.683 181.239 267.558 182.504 267.558C182.851 267.558 183.146 267.497 183.388 267.376C183.64 267.246 183.835 267.112 183.973 266.973C184.112 266.826 184.181 266.739 184.181 266.713L184.558 267.025C184.558 267.06 184.476 267.172 184.311 267.363C184.147 267.545 183.904 267.718 183.583 267.883C183.263 268.048 182.868 268.13 182.4 268.13ZM183.726 264.386L183.739 264.139C183.739 262.666 183.254 261.929 182.283 261.929C181.772 261.929 181.378 262.133 181.1 262.54C180.823 262.939 180.663 263.554 180.619 264.386H183.726ZM188.278 268.13C187.376 268.13 186.687 267.835 186.211 267.246C185.743 266.657 185.509 265.825 185.509 264.75C185.509 263.675 185.743 262.843 186.211 262.254C186.687 261.665 187.376 261.37 188.278 261.37C189.179 261.37 189.864 261.665 190.332 262.254C190.808 262.843 191.047 263.675 191.047 264.75C191.047 265.816 190.804 266.648 190.319 267.246C189.842 267.835 189.162 268.13 188.278 268.13ZM188.278 267.558C188.884 267.558 189.331 267.328 189.617 266.869C189.903 266.401 190.046 265.695 190.046 264.75C190.046 263.814 189.903 263.112 189.617 262.644C189.331 262.176 188.884 261.942 188.278 261.942C187.671 261.942 187.225 262.176 186.939 262.644C186.653 263.103 186.51 263.805 186.51 264.75C186.51 265.695 186.653 266.401 186.939 266.869C187.225 267.328 187.671 267.558 188.278 267.558ZM194.128 268.13C193.668 268.13 193.278 268.061 192.958 267.922C192.646 267.775 192.407 267.619 192.243 267.454C192.087 267.289 192.009 267.194 192.009 267.168L192.334 266.713C192.334 266.73 192.403 266.813 192.542 266.96C192.68 267.107 192.871 267.246 193.114 267.376C193.356 267.497 193.642 267.558 193.972 267.558C194.457 267.558 194.821 267.437 195.064 267.194C195.315 266.951 195.441 266.657 195.441 266.31C195.441 266.059 195.376 265.851 195.246 265.686C195.124 265.521 194.968 265.396 194.778 265.309C194.596 265.214 194.34 265.11 194.011 264.997C193.629 264.858 193.326 264.733 193.101 264.62C192.875 264.499 192.68 264.321 192.516 264.087C192.36 263.853 192.282 263.55 192.282 263.177C192.282 262.622 192.481 262.185 192.88 261.864C193.287 261.535 193.807 261.37 194.44 261.37C194.717 261.37 194.981 261.409 195.233 261.487C195.493 261.556 195.701 261.634 195.857 261.721C196.013 261.799 196.112 261.851 196.156 261.877L196 262.436C195.965 262.41 195.878 262.358 195.74 262.28C195.601 262.193 195.419 262.111 195.194 262.033C194.977 261.955 194.752 261.916 194.518 261.916C194.119 261.916 193.794 262.016 193.543 262.215C193.3 262.414 193.179 262.666 193.179 262.969C193.179 263.22 193.244 263.433 193.374 263.606C193.504 263.771 193.664 263.901 193.855 263.996C194.054 264.091 194.318 264.2 194.648 264.321C195.029 264.451 195.337 264.581 195.571 264.711C195.813 264.832 196.017 265.01 196.182 265.244C196.346 265.478 196.429 265.781 196.429 266.154C196.429 266.717 196.234 267.19 195.844 267.571C195.454 267.944 194.882 268.13 194.128 268.13Z" fill="#EEEEEE"/>
<path d="M83.6484 126.456C83.6484 143.672 90.4874 160.183 102.661 172.356C114.834 184.53 131.345 191.369 148.561 191.369C165.777 191.369 182.288 184.53 194.461 172.356C206.635 160.183 213.474 143.672 213.474 126.456C213.474 109.24 206.635 92.7292 194.461 80.5557C182.288 68.3823 165.777 61.5433 148.561 61.5433C131.345 61.5433 114.834 68.3823 102.661 80.5557C90.4874 92.7292 83.6484 109.24 83.6484 126.456Z" fill="#198143" fill-opacity="0.6" stroke="white" stroke-width="2"/>
<path d="M117.96 102H119.672L119.96 102.72H120.008C120.008 102.699 120.099 102.613 120.28 102.464C120.461 102.304 120.712 102.16 121.032 102.032C121.352 101.893 121.736 101.824 122.184 101.824C123.133 101.824 123.88 102.187 124.424 102.912C124.968 103.637 125.24 104.613 125.24 105.84C125.24 106.704 125.112 107.467 124.856 108.128C124.6 108.779 124.232 109.285 123.752 109.648C123.283 110 122.723 110.176 122.072 110.176C121.656 110.176 121.304 110.128 121.016 110.032C120.728 109.947 120.509 109.856 120.36 109.76C120.211 109.653 120.136 109.589 120.136 109.568H120.088V114L117.96 114.064V102ZM121.272 108.96C121.677 108.96 121.997 108.864 122.232 108.672C122.477 108.48 122.659 108.165 122.776 107.728C122.893 107.28 122.952 106.667 122.952 105.888C122.952 105.152 122.893 104.581 122.776 104.176C122.669 103.76 122.504 103.472 122.28 103.312C122.067 103.152 121.784 103.072 121.432 103.072C121.176 103.072 120.947 103.12 120.744 103.216C120.552 103.312 120.397 103.413 120.28 103.52C120.173 103.627 120.109 103.707 120.088 103.76V108.432C120.109 108.464 120.163 108.523 120.248 108.608C120.333 108.683 120.461 108.763 120.632 108.848C120.813 108.923 121.027 108.96 121.272 108.96ZM128.615 110.176C127.868 110.176 127.271 109.989 126.823 109.616C126.375 109.243 126.151 108.731 126.151 108.08C126.151 107.141 126.588 106.464 127.463 106.048C128.348 105.621 129.377 105.36 130.551 105.264V104.8C130.551 104.075 130.449 103.579 130.247 103.312C130.044 103.035 129.703 102.896 129.223 102.896C128.999 102.896 128.743 102.939 128.455 103.024C128.177 103.109 127.932 103.2 127.719 103.296C127.516 103.392 127.383 103.456 127.319 103.488L127.111 102.464C127.175 102.432 127.324 102.368 127.559 102.272C127.804 102.165 128.108 102.064 128.471 101.968C128.844 101.872 129.217 101.824 129.591 101.824C130.593 101.824 131.356 102.037 131.879 102.464C132.412 102.88 132.679 103.6 132.679 104.624V108.256C132.679 108.821 132.791 109.104 133.015 109.104C133.1 109.104 133.201 109.088 133.319 109.056C133.436 109.024 133.516 109.003 133.559 108.992L133.623 109.824C133.569 109.845 133.441 109.883 133.239 109.936C133.036 109.989 132.801 110.043 132.535 110.096C132.279 110.149 132.049 110.176 131.847 110.176C131.537 110.176 131.297 110.101 131.127 109.952C130.956 109.792 130.844 109.536 130.791 109.184H130.711C130.711 109.216 130.636 109.317 130.487 109.488C130.348 109.648 130.124 109.803 129.815 109.952C129.505 110.101 129.105 110.176 128.615 110.176ZM129.319 109.104C129.575 109.104 129.793 109.04 129.975 108.912C130.167 108.784 130.311 108.645 130.407 108.496C130.503 108.336 130.551 108.245 130.551 108.224V106.112C129.836 106.187 129.292 106.357 128.919 106.624C128.556 106.88 128.375 107.275 128.375 107.808C128.375 108.235 128.46 108.56 128.631 108.784C128.801 108.997 129.031 109.104 129.319 109.104ZM137.394 110.176C136.637 110.176 136.077 109.989 135.714 109.616C135.351 109.243 135.17 108.613 135.17 107.728V103.232H134.402V102.272L135.186 102.048L136.21 99.344H137.298V102H139.058V103.232H137.298V107.184C137.298 107.685 137.319 108.069 137.362 108.336C137.415 108.592 137.495 108.773 137.602 108.88C137.709 108.976 137.858 109.024 138.05 109.024C138.263 109.024 138.455 109.003 138.626 108.96C138.797 108.917 138.882 108.891 138.882 108.88L139.01 109.792C139.01 109.803 138.951 109.84 138.834 109.904C138.717 109.968 138.535 110.027 138.29 110.08C138.055 110.144 137.757 110.176 137.394 110.176ZM140.523 102H142.027L142.379 103.344H142.443C142.443 103.28 142.485 103.125 142.571 102.88C142.656 102.624 142.811 102.384 143.035 102.16C143.269 101.936 143.579 101.824 143.963 101.824C144.176 101.824 144.416 101.856 144.683 101.92C144.96 101.984 145.141 102.027 145.227 102.048L145.035 103.536C144.949 103.515 144.757 103.472 144.459 103.408C144.171 103.344 143.92 103.312 143.707 103.312C143.461 103.312 143.259 103.387 143.099 103.536C142.949 103.675 142.837 103.824 142.763 103.984C142.688 104.144 142.651 104.24 142.651 104.272V110H140.523V102ZM147.282 100.8C146.962 100.8 146.679 100.693 146.434 100.48C146.189 100.235 146.066 99.9307 146.066 99.568C146.066 99.216 146.189 98.9173 146.434 98.672C146.658 98.4587 146.941 98.352 147.282 98.352C147.613 98.352 147.885 98.4533 148.098 98.656C148.333 98.9013 148.45 99.2053 148.45 99.568C148.45 99.9413 148.333 100.251 148.098 100.496C147.863 100.699 147.591 100.8 147.282 100.8ZM146.21 110V102H148.338V110H146.21ZM153.489 110.176C152.294 110.176 151.372 109.813 150.721 109.088C150.081 108.363 149.761 107.333 149.761 106C149.761 104.667 150.081 103.637 150.721 102.912C151.372 102.187 152.294 101.824 153.489 101.824C154.694 101.824 155.617 102.187 156.257 102.912C156.908 103.637 157.233 104.667 157.233 106C157.233 107.323 156.897 108.352 156.225 109.088C155.564 109.813 154.652 110.176 153.489 110.176ZM153.489 109.12C153.841 109.12 154.118 109.019 154.321 108.816C154.534 108.613 154.689 108.288 154.785 107.84C154.881 107.392 154.929 106.779 154.929 106C154.929 105.221 154.881 104.608 154.785 104.16C154.689 103.712 154.54 103.392 154.337 103.2C154.134 102.997 153.852 102.896 153.489 102.896C153.126 102.896 152.844 102.997 152.641 103.2C152.438 103.392 152.289 103.712 152.193 104.16C152.097 104.608 152.049 105.216 152.049 105.984C152.049 106.763 152.097 107.381 152.193 107.84C152.289 108.288 152.438 108.613 152.641 108.816C152.854 109.019 153.137 109.12 153.489 109.12ZM161.175 110.176C160.418 110.176 159.858 109.989 159.495 109.616C159.132 109.243 158.951 108.613 158.951 107.728V103.232H158.183V102.272L158.967 102.048L159.991 99.344H161.079V102H162.839V103.232H161.079V107.184C161.079 107.685 161.1 108.069 161.143 108.336C161.196 108.592 161.276 108.773 161.383 108.88C161.49 108.976 161.639 109.024 161.831 109.024C162.044 109.024 162.236 109.003 162.407 108.96C162.578 108.917 162.663 108.891 162.663 108.88L162.791 109.792C162.791 109.803 162.732 109.84 162.615 109.904C162.498 109.968 162.316 110.027 162.071 110.08C161.836 110.144 161.538 110.176 161.175 110.176ZM165.376 100.8C165.056 100.8 164.773 100.693 164.528 100.48C164.282 100.235 164.16 99.9307 164.16 99.568C164.16 99.216 164.282 98.9173 164.528 98.672C164.752 98.4587 165.034 98.352 165.376 98.352C165.706 98.352 165.978 98.4533 166.192 98.656C166.426 98.9013 166.544 99.2053 166.544 99.568C166.544 99.9413 166.426 100.251 166.192 100.496C165.957 100.699 165.685 100.8 165.376 100.8ZM164.304 110V102H166.432V110H164.304ZM171.663 110.176C170.436 110.176 169.492 109.824 168.831 109.12C168.18 108.416 167.855 107.392 167.855 106.048C167.855 104.747 168.196 103.717 168.879 102.96C169.561 102.203 170.505 101.824 171.711 101.824C172.041 101.824 172.377 101.872 172.719 101.968C173.071 102.053 173.364 102.149 173.599 102.256C173.833 102.352 173.983 102.416 174.047 102.448L173.839 103.472C173.785 103.44 173.652 103.381 173.439 103.296C173.225 103.2 172.98 103.109 172.703 103.024C172.425 102.939 172.175 102.896 171.951 102.896C171.545 102.896 171.215 102.981 170.959 103.152C170.703 103.323 170.505 103.637 170.367 104.096C170.228 104.544 170.159 105.184 170.159 106.016C170.159 107.2 170.308 108.011 170.607 108.448C170.905 108.885 171.332 109.104 171.887 109.104C172.26 109.104 172.58 109.024 172.847 108.864C173.124 108.693 173.337 108.517 173.487 108.336C173.636 108.144 173.711 108.032 173.711 108L174.463 108.48C174.463 108.544 174.367 108.72 174.175 109.008C173.983 109.285 173.679 109.552 173.263 109.808C172.847 110.053 172.313 110.176 171.663 110.176ZM119.483 126.13C119.041 126.13 118.66 126.065 118.339 125.935C118.027 125.796 117.78 125.649 117.598 125.493C117.425 125.337 117.338 125.246 117.338 125.22L117.676 124.739C117.676 124.756 117.75 124.834 117.897 124.973C118.053 125.103 118.261 125.224 118.521 125.337C118.781 125.45 119.084 125.506 119.431 125.506C120.064 125.506 120.562 125.32 120.926 124.947C121.29 124.566 121.472 124.033 121.472 123.348C121.472 122.741 121.307 122.26 120.978 121.905C120.649 121.55 120.211 121.372 119.665 121.372C119.396 121.372 119.158 121.415 118.95 121.502C118.751 121.58 118.616 121.658 118.547 121.736L118.534 121.775L118.144 121.723L118.534 117.55H122.07L122.031 118.46H119.028L118.807 120.995C119.11 120.882 119.422 120.826 119.743 120.826C120.558 120.826 121.212 121.051 121.706 121.502C122.209 121.953 122.46 122.564 122.46 123.335C122.46 123.907 122.326 124.405 122.057 124.83C121.788 125.255 121.429 125.58 120.978 125.805C120.527 126.022 120.029 126.13 119.483 126.13ZM128.469 126L126.246 119.5H127.364L129.054 124.973L130.848 119.5H131.563L129.327 126H128.469ZM133.17 118.187C133.014 118.187 132.888 118.139 132.793 118.044C132.68 117.931 132.624 117.793 132.624 117.628C132.624 117.463 132.68 117.325 132.793 117.212C132.888 117.117 133.014 117.069 133.17 117.069C133.334 117.069 133.464 117.112 133.56 117.199C133.664 117.312 133.716 117.455 133.716 117.628C133.716 117.784 133.664 117.923 133.56 118.044C133.438 118.139 133.308 118.187 133.17 118.187ZM132.689 126V119.5H133.638V126H132.689ZM137.702 126.13C136.914 126.13 136.281 125.848 135.804 125.285C135.328 124.722 135.089 123.937 135.089 122.932C135.089 121.849 135.319 120.986 135.778 120.345C136.246 119.695 136.901 119.37 137.741 119.37C138.097 119.37 138.396 119.418 138.638 119.513C138.881 119.6 139.067 119.699 139.197 119.812C139.327 119.916 139.392 119.977 139.392 119.994H139.405V116.276L140.341 116.224V126H139.535L139.431 125.233C139.336 125.424 139.15 125.623 138.872 125.831C138.595 126.03 138.205 126.13 137.702 126.13ZM137.91 125.493C138.222 125.493 138.491 125.428 138.716 125.298C138.942 125.159 139.111 125.012 139.223 124.856C139.345 124.7 139.405 124.609 139.405 124.583V120.592C139.405 120.575 139.345 120.514 139.223 120.41C139.111 120.306 138.95 120.211 138.742 120.124C138.543 120.037 138.305 119.994 138.027 119.994C137.36 119.994 136.87 120.241 136.558 120.735C136.246 121.22 136.09 121.944 136.09 122.906C136.09 123.816 136.242 124.475 136.545 124.882C136.857 125.289 137.312 125.493 137.91 125.493ZM144.575 126.13C143.708 126.13 143.028 125.861 142.534 125.324C142.04 124.778 141.793 123.963 141.793 122.88C141.793 121.788 142.031 120.93 142.508 120.306C142.984 119.682 143.634 119.37 144.458 119.37C145.203 119.37 145.775 119.63 146.174 120.15C146.581 120.661 146.785 121.389 146.785 122.334C146.785 122.499 146.776 122.633 146.759 122.737C146.741 122.841 146.728 122.906 146.72 122.932H142.781C142.781 124.683 143.413 125.558 144.679 125.558C145.025 125.558 145.32 125.497 145.563 125.376C145.814 125.246 146.009 125.112 146.148 124.973C146.286 124.826 146.356 124.739 146.356 124.713L146.733 125.025C146.733 125.06 146.65 125.172 146.486 125.363C146.321 125.545 146.078 125.718 145.758 125.883C145.437 126.048 145.043 126.13 144.575 126.13ZM145.901 122.386L145.914 122.139C145.914 120.666 145.428 119.929 144.458 119.929C143.946 119.929 143.552 120.133 143.275 120.54C142.997 120.939 142.837 121.554 142.794 122.386H145.901ZM150.452 126.13C149.551 126.13 148.862 125.835 148.385 125.246C147.917 124.657 147.683 123.825 147.683 122.75C147.683 121.675 147.917 120.843 148.385 120.254C148.862 119.665 149.551 119.37 150.452 119.37C151.353 119.37 152.038 119.665 152.506 120.254C152.983 120.843 153.221 121.675 153.221 122.75C153.221 123.816 152.978 124.648 152.493 125.246C152.016 125.835 151.336 126.13 150.452 126.13ZM150.452 125.558C151.059 125.558 151.505 125.328 151.791 124.869C152.077 124.401 152.22 123.695 152.22 122.75C152.22 121.814 152.077 121.112 151.791 120.644C151.505 120.176 151.059 119.942 150.452 119.942C149.845 119.942 149.399 120.176 149.113 120.644C148.827 121.103 148.684 121.805 148.684 122.75C148.684 123.695 148.827 124.401 149.113 124.869C149.399 125.328 149.845 125.558 150.452 125.558ZM156.302 126.13C155.843 126.13 155.453 126.061 155.132 125.922C154.82 125.775 154.582 125.619 154.417 125.454C154.261 125.289 154.183 125.194 154.183 125.168L154.508 124.713C154.508 124.73 154.577 124.813 154.716 124.96C154.855 125.107 155.045 125.246 155.288 125.376C155.531 125.497 155.817 125.558 156.146 125.558C156.631 125.558 156.995 125.437 157.238 125.194C157.489 124.951 157.615 124.657 157.615 124.31C157.615 124.059 157.55 123.851 157.42 123.686C157.299 123.521 157.143 123.396 156.952 123.309C156.77 123.214 156.514 123.11 156.185 122.997C155.804 122.858 155.5 122.733 155.275 122.62C155.05 122.499 154.855 122.321 154.69 122.087C154.534 121.853 154.456 121.55 154.456 121.177C154.456 120.622 154.655 120.185 155.054 119.864C155.461 119.535 155.981 119.37 156.614 119.37C156.891 119.37 157.156 119.409 157.407 119.487C157.667 119.556 157.875 119.634 158.031 119.721C158.187 119.799 158.287 119.851 158.33 119.877L158.174 120.436C158.139 120.41 158.053 120.358 157.914 120.28C157.775 120.193 157.593 120.111 157.368 120.033C157.151 119.955 156.926 119.916 156.692 119.916C156.293 119.916 155.968 120.016 155.717 120.215C155.474 120.414 155.353 120.666 155.353 120.969C155.353 121.22 155.418 121.433 155.548 121.606C155.678 121.771 155.838 121.901 156.029 121.996C156.228 122.091 156.493 122.2 156.822 122.321C157.203 122.451 157.511 122.581 157.745 122.711C157.988 122.832 158.191 123.01 158.356 123.244C158.521 123.478 158.603 123.781 158.603 124.154C158.603 124.717 158.408 125.19 158.018 125.571C157.628 125.944 157.056 126.13 156.302 126.13Z" fill="#EEEEEE"/>
<path d="M293 115.03C293 122.729 296.058 130.113 301.503 135.557C306.947 141.001 314.331 144.06 322.03 144.06C329.729 144.06 337.113 141.001 342.557 135.557C348.001 130.113 351.06 122.729 351.06 115.03C351.06 107.331 348.001 99.9468 342.557 94.5026C337.113 89.0585 329.729 86 322.03 86C314.331 86 306.947 89.0585 301.503 94.5026C296.058 99.9468 293 107.331 293 115.03" fill="white" fill-opacity="0.6"/>
<path d="M293 115.03C293 122.729 296.058 130.113 301.503 135.557C306.947 141.001 314.331 144.06 322.03 144.06C329.729 144.06 337.113 141.001 342.557 135.557C348.001 130.113 351.06 122.729 351.06 115.03C351.06 107.331 348.001 99.9468 342.557 94.5026C337.113 89.0585 329.729 86 322.03 86C314.331 86 306.947 89.0585 301.503 94.5026C296.058 99.9468 293 107.331 293 115.03" stroke="white" stroke-width="2"/>
<path d="M305.42 105.206C304.598 105.206 303.98 104.987 303.564 104.55C303.158 104.102 302.956 103.409 302.956 102.47V97.0298H305.084V102.022C305.084 102.726 305.169 103.211 305.34 103.478C305.51 103.745 305.788 103.878 306.172 103.878C306.428 103.878 306.657 103.835 306.86 103.75C307.062 103.654 307.222 103.558 307.34 103.462C307.457 103.366 307.532 103.302 307.564 103.27V97.0298H309.692V105.03H307.98L307.676 104.326H307.644C307.644 104.347 307.558 104.438 307.388 104.598C307.217 104.747 306.966 104.886 306.636 105.014C306.305 105.142 305.9 105.206 305.42 105.206ZM313.869 105.206C313.25 105.206 312.733 105.121 312.317 104.95C311.901 104.769 311.586 104.577 311.373 104.374C311.16 104.171 311.053 104.049 311.053 104.006L311.645 103.174C311.645 103.195 311.73 103.291 311.901 103.462C312.072 103.633 312.285 103.793 312.541 103.942C312.808 104.081 313.101 104.15 313.421 104.15C313.816 104.15 314.12 104.049 314.333 103.846C314.546 103.643 314.653 103.377 314.653 103.046C314.653 102.726 314.541 102.475 314.317 102.294C314.093 102.102 313.757 101.905 313.309 101.702C312.893 101.499 312.557 101.318 312.301 101.158C312.056 100.987 311.842 100.758 311.661 100.47C311.48 100.171 311.389 99.7925 311.389 99.3338C311.389 98.5445 311.661 97.9365 312.205 97.5098C312.749 97.0725 313.421 96.8538 314.221 96.8538C314.562 96.8538 314.904 96.8965 315.245 96.9818C315.586 97.0672 315.869 97.1525 316.093 97.2378C316.317 97.3232 316.461 97.3818 316.525 97.4138L316.237 98.4858C316.184 98.4538 316.061 98.3898 315.869 98.2938C315.677 98.1978 315.442 98.1072 315.165 98.0218C314.898 97.9365 314.653 97.8938 314.429 97.8938C314.098 97.8938 313.842 97.9738 313.661 98.1338C313.48 98.2938 313.389 98.5072 313.389 98.7738C313.389 99.0938 313.506 99.3552 313.741 99.5578C313.986 99.7498 314.354 99.9578 314.845 100.182C315.282 100.395 315.634 100.593 315.901 100.774C316.168 100.945 316.397 101.179 316.589 101.478C316.781 101.777 316.877 102.15 316.877 102.598C316.877 103.377 316.616 104.006 316.093 104.486C315.581 104.966 314.84 105.206 313.869 105.206ZM321.549 105.206C320.365 105.206 319.442 104.881 318.781 104.23C318.13 103.569 317.805 102.55 317.805 101.174C317.805 99.7872 318.125 98.7258 318.765 97.9898C319.405 97.2432 320.269 96.8698 321.357 96.8698C322.349 96.8698 323.117 97.1845 323.661 97.8138C324.216 98.4325 324.493 99.3232 324.493 100.486C324.493 100.753 324.472 100.977 324.429 101.158C324.397 101.339 324.376 101.451 324.365 101.494H320.061C320.072 102.454 320.21 103.137 320.477 103.542C320.754 103.937 321.197 104.134 321.805 104.134C322.168 104.134 322.488 104.059 322.765 103.91C323.042 103.75 323.261 103.579 323.421 103.398C323.581 103.206 323.661 103.099 323.661 103.078L324.381 103.638C324.381 103.681 324.269 103.835 324.045 104.102C323.832 104.369 323.512 104.619 323.085 104.854C322.669 105.089 322.157 105.206 321.549 105.206ZM322.509 100.454V100.086C322.509 99.2752 322.424 98.7098 322.253 98.3898C322.082 98.0592 321.784 97.8938 321.357 97.8938C321.058 97.8938 320.818 97.9685 320.637 98.1178C320.466 98.2672 320.333 98.5285 320.237 98.9018C320.141 99.2645 320.082 99.7818 320.061 100.454H322.509ZM332.197 105.206C331.579 105.206 331.061 105.121 330.645 104.95C330.229 104.769 329.915 104.577 329.701 104.374C329.488 104.171 329.381 104.049 329.381 104.006L329.973 103.174C329.973 103.195 330.059 103.291 330.229 103.462C330.4 103.633 330.613 103.793 330.869 103.942C331.136 104.081 331.429 104.15 331.749 104.15C332.144 104.15 332.448 104.049 332.661 103.846C332.875 103.643 332.981 103.377 332.981 103.046C332.981 102.726 332.869 102.475 332.645 102.294C332.421 102.102 332.085 101.905 331.637 101.702C331.221 101.499 330.885 101.318 330.629 101.158C330.384 100.987 330.171 100.758 329.989 100.47C329.808 100.171 329.717 99.7925 329.717 99.3338C329.717 98.5445 329.989 97.9365 330.533 97.5098C331.077 97.0725 331.749 96.8538 332.549 96.8538C332.891 96.8538 333.232 96.8965 333.573 96.9818C333.915 97.0672 334.197 97.1525 334.421 97.2378C334.645 97.3232 334.789 97.3818 334.853 97.4138L334.565 98.4858C334.512 98.4538 334.389 98.3898 334.197 98.2938C334.005 98.1978 333.771 98.1072 333.493 98.0218C333.227 97.9365 332.981 97.8938 332.757 97.8938C332.427 97.8938 332.171 97.9738 331.989 98.1338C331.808 98.2938 331.717 98.5072 331.717 98.7738C331.717 99.0938 331.835 99.3552 332.069 99.5578C332.315 99.7498 332.683 99.9578 333.173 100.182C333.611 100.395 333.963 100.593 334.229 100.774C334.496 100.945 334.725 101.179 334.917 101.478C335.109 101.777 335.205 102.15 335.205 102.598C335.205 103.377 334.944 104.006 334.421 104.486C333.909 104.966 333.168 105.206 332.197 105.206ZM339.877 105.206C338.693 105.206 337.77 104.881 337.109 104.23C336.458 103.569 336.133 102.55 336.133 101.174C336.133 99.7872 336.453 98.7258 337.093 97.9898C337.733 97.2432 338.597 96.8698 339.685 96.8698C340.677 96.8698 341.445 97.1845 341.989 97.8138C342.544 98.4325 342.821 99.3232 342.821 100.486C342.821 100.753 342.8 100.977 342.757 101.158C342.725 101.339 342.704 101.451 342.693 101.494H338.389C338.4 102.454 338.538 103.137 338.805 103.542C339.082 103.937 339.525 104.134 340.133 104.134C340.496 104.134 340.816 104.059 341.093 103.91C341.37 103.75 341.589 103.579 341.749 103.398C341.909 103.206 341.989 103.099 341.989 103.078L342.709 103.638C342.709 103.681 342.597 103.835 342.373 104.102C342.16 104.369 341.84 104.619 341.413 104.854C340.997 105.089 340.485 105.206 339.877 105.206ZM340.837 100.454V100.086C340.837 99.2752 340.752 98.7098 340.581 98.3898C340.41 98.0592 340.112 97.8938 339.685 97.8938C339.386 97.8938 339.146 97.9685 338.965 98.1178C338.794 98.2672 338.661 98.5285 338.565 98.9018C338.469 99.2645 338.41 99.7818 338.389 100.454H340.837ZM343.391 105.03L345.855 101.158L343.519 97.0298H346.063L347.391 99.8618L348.895 97.0298H350.351L348.127 100.662L350.671 105.03H348.127L346.623 102.038L344.879 105.03H343.391ZM304.491 121.03V113.334L302.931 114.205L302.71 113.698L304.647 112.58H305.427V121.03H304.491ZM312.285 121.03L310.062 114.53H311.18L312.87 120.003L314.664 114.53H315.379L313.143 121.03H312.285ZM316.985 113.217C316.829 113.217 316.703 113.169 316.608 113.074C316.495 112.961 316.439 112.823 316.439 112.658C316.439 112.493 316.495 112.355 316.608 112.242C316.703 112.147 316.829 112.099 316.985 112.099C317.15 112.099 317.28 112.142 317.375 112.229C317.479 112.342 317.531 112.485 317.531 112.658C317.531 112.814 317.479 112.953 317.375 113.074C317.254 113.169 317.124 113.217 316.985 113.217ZM316.504 121.03V114.53H317.453V121.03H316.504ZM321.518 121.16C320.729 121.16 320.097 120.878 319.62 120.315C319.143 119.752 318.905 118.967 318.905 117.962C318.905 116.879 319.135 116.016 319.594 115.375C320.062 114.725 320.716 114.4 321.557 114.4C321.912 114.4 322.211 114.448 322.454 114.543C322.697 114.63 322.883 114.729 323.013 114.842C323.143 114.946 323.208 115.007 323.208 115.024H323.221V111.306L324.157 111.254V121.03H323.351L323.247 120.263C323.152 120.454 322.965 120.653 322.688 120.861C322.411 121.06 322.021 121.16 321.518 121.16ZM321.726 120.523C322.038 120.523 322.307 120.458 322.532 120.328C322.757 120.189 322.926 120.042 323.039 119.886C323.16 119.73 323.221 119.639 323.221 119.613V115.622C323.221 115.605 323.16 115.544 323.039 115.44C322.926 115.336 322.766 115.241 322.558 115.154C322.359 115.067 322.12 115.024 321.843 115.024C321.176 115.024 320.686 115.271 320.374 115.765C320.062 116.25 319.906 116.974 319.906 117.936C319.906 118.846 320.058 119.505 320.361 119.912C320.673 120.319 321.128 120.523 321.726 120.523ZM328.39 121.16C327.523 121.16 326.843 120.891 326.349 120.354C325.855 119.808 325.608 118.993 325.608 117.91C325.608 116.818 325.846 115.96 326.323 115.336C326.8 114.712 327.45 114.4 328.273 114.4C329.018 114.4 329.59 114.66 329.989 115.18C330.396 115.691 330.6 116.419 330.6 117.364C330.6 117.529 330.591 117.663 330.574 117.767C330.557 117.871 330.544 117.936 330.535 117.962H326.596C326.596 119.713 327.229 120.588 328.494 120.588C328.841 120.588 329.135 120.527 329.378 120.406C329.629 120.276 329.824 120.142 329.963 120.003C330.102 119.856 330.171 119.769 330.171 119.743L330.548 120.055C330.548 120.09 330.466 120.202 330.301 120.393C330.136 120.575 329.894 120.748 329.573 120.913C329.252 121.078 328.858 121.16 328.39 121.16ZM329.716 117.416L329.729 117.169C329.729 115.696 329.244 114.959 328.273 114.959C327.762 114.959 327.367 115.163 327.09 115.57C326.813 115.969 326.652 116.584 326.609 117.416H329.716ZM334.268 121.16C333.366 121.16 332.677 120.865 332.201 120.276C331.733 119.687 331.499 118.855 331.499 117.78C331.499 116.705 331.733 115.873 332.201 115.284C332.677 114.695 333.366 114.4 334.268 114.4C335.169 114.4 335.854 114.695 336.322 115.284C336.798 115.873 337.037 116.705 337.037 117.78C337.037 118.846 336.794 119.678 336.309 120.276C335.832 120.865 335.152 121.16 334.268 121.16ZM334.268 120.588C334.874 120.588 335.321 120.358 335.607 119.899C335.893 119.431 336.036 118.725 336.036 117.78C336.036 116.844 335.893 116.142 335.607 115.674C335.321 115.206 334.874 114.972 334.268 114.972C333.661 114.972 333.215 115.206 332.929 115.674C332.643 116.133 332.5 116.835 332.5 117.78C332.5 118.725 332.643 119.431 332.929 119.899C333.215 120.358 333.661 120.588 334.268 120.588Z" fill="#222222"/>
<path d="M157.285 174.393C157.285 183.731 159.124 192.978 162.697 201.605C166.271 210.232 171.509 218.071 178.112 224.674C184.715 231.277 192.554 236.515 201.181 240.088C209.808 243.662 219.055 245.501 228.393 245.501C237.731 245.501 246.978 243.662 255.605 240.088C264.232 236.515 272.071 231.277 278.674 224.674C285.277 218.071 290.515 210.232 294.088 201.605C297.662 192.978 299.501 183.731 299.501 174.393C299.501 165.055 297.662 155.808 294.088 147.181C290.515 138.554 285.277 130.715 278.674 124.112C272.071 117.509 264.232 112.271 255.605 108.697C246.978 105.124 237.731 103.284 228.393 103.284C219.055 103.284 209.808 105.124 201.181 108.697C192.554 112.271 184.715 117.509 178.112 124.112C171.509 130.715 166.271 138.554 162.697 147.181C159.124 155.808 157.285 165.055 157.285 174.393" fill="#D3BC8D" fill-opacity="0.6"/>
<path d="M157.285 174.393C157.285 183.731 159.124 192.978 162.697 201.605C166.271 210.232 171.509 218.071 178.112 224.674C184.715 231.277 192.554 236.515 201.181 240.088C209.808 243.662 219.055 245.501 228.393 245.501C237.731 245.501 246.978 243.662 255.605 240.088C264.232 236.515 272.071 231.277 278.674 224.674C285.277 218.071 290.515 210.232 294.088 201.605C297.662 192.978 299.501 183.731 299.501 174.393C299.501 165.055 297.662 155.808 294.088 147.181C290.515 138.554 285.277 130.715 278.674 124.112C272.071 117.509 264.232 112.271 255.605 108.697C246.978 105.124 237.731 103.284 228.393 103.284C219.055 103.284 209.808 105.124 201.181 108.697C192.554 112.271 184.715 117.509 178.112 124.112C171.509 130.715 166.271 138.554 162.697 147.181C159.124 155.808 157.285 165.055 157.285 174.393" stroke="white" stroke-width="2"/>
<path d="M223.272 166.176C222.045 166.176 221.101 165.824 220.44 165.12C219.789 164.416 219.464 163.392 219.464 162.048C219.464 160.747 219.805 159.717 220.488 158.96C221.171 158.203 222.115 157.824 223.32 157.824C223.651 157.824 223.987 157.872 224.328 157.968C224.68 158.053 224.973 158.149 225.208 158.256C225.443 158.352 225.592 158.416 225.656 158.448L225.448 159.472C225.395 159.44 225.261 159.381 225.048 159.296C224.835 159.2 224.589 159.109 224.312 159.024C224.035 158.939 223.784 158.896 223.56 158.896C223.155 158.896 222.824 158.981 222.568 159.152C222.312 159.323 222.115 159.637 221.976 160.096C221.837 160.544 221.768 161.184 221.768 162.016C221.768 163.2 221.917 164.011 222.216 164.448C222.515 164.885 222.941 165.104 223.496 165.104C223.869 165.104 224.189 165.024 224.456 164.864C224.733 164.693 224.947 164.517 225.096 164.336C225.245 164.144 225.32 164.032 225.32 164L226.072 164.48C226.072 164.544 225.976 164.72 225.784 165.008C225.592 165.285 225.288 165.552 224.872 165.808C224.456 166.053 223.923 166.176 223.272 166.176ZM230.349 166.176C229.165 166.176 228.242 165.851 227.581 165.2C226.93 164.539 226.605 163.52 226.605 162.144C226.605 160.757 226.925 159.696 227.565 158.96C228.205 158.213 229.069 157.84 230.157 157.84C231.149 157.84 231.917 158.155 232.461 158.784C233.015 159.403 233.293 160.293 233.293 161.456C233.293 161.723 233.271 161.947 233.229 162.128C233.197 162.309 233.175 162.421 233.165 162.464H228.861C228.871 163.424 229.01 164.107 229.277 164.512C229.554 164.907 229.997 165.104 230.605 165.104C230.967 165.104 231.287 165.029 231.565 164.88C231.842 164.72 232.061 164.549 232.221 164.368C232.381 164.176 232.461 164.069 232.461 164.048L233.181 164.608C233.181 164.651 233.069 164.805 232.845 165.072C232.631 165.339 232.311 165.589 231.885 165.824C231.469 166.059 230.957 166.176 230.349 166.176ZM231.309 161.424V161.056C231.309 160.245 231.223 159.68 231.053 159.36C230.882 159.029 230.583 158.864 230.157 158.864C229.858 158.864 229.618 158.939 229.437 159.088C229.266 159.237 229.133 159.499 229.037 159.872C228.941 160.235 228.882 160.752 228.861 161.424H231.309ZM234.679 166V154.064L236.807 153.936V166H234.679ZM241.989 166.176C240.805 166.176 239.883 165.851 239.221 165.2C238.571 164.539 238.245 163.52 238.245 162.144C238.245 160.757 238.565 159.696 239.205 158.96C239.845 158.213 240.709 157.84 241.797 157.84C242.789 157.84 243.557 158.155 244.101 158.784C244.656 159.403 244.933 160.293 244.933 161.456C244.933 161.723 244.912 161.947 244.869 162.128C244.837 162.309 244.816 162.421 244.805 162.464H240.501C240.512 163.424 240.651 164.107 240.917 164.512C241.195 164.907 241.637 165.104 242.245 165.104C242.608 165.104 242.928 165.029 243.205 164.88C243.483 164.72 243.701 164.549 243.861 164.368C244.021 164.176 244.101 164.069 244.101 164.048L244.821 164.608C244.821 164.651 244.709 164.805 244.485 165.072C244.272 165.339 243.952 165.589 243.525 165.824C243.109 166.059 242.597 166.176 241.989 166.176ZM242.949 161.424V161.056C242.949 160.245 242.864 159.68 242.693 159.36C242.523 159.029 242.224 158.864 241.797 158.864C241.499 158.864 241.259 158.939 241.077 159.088C240.907 159.237 240.773 159.499 240.677 159.872C240.581 160.235 240.523 160.752 240.501 161.424H242.949ZM250.271 166.24C249.845 166.24 249.471 166.181 249.151 166.064C248.842 165.947 248.597 165.824 248.415 165.696C248.245 165.557 248.159 165.477 248.159 165.456H248.127L247.775 166H246.319V154.064L248.447 153.936V158.528H248.511C248.511 158.507 248.581 158.432 248.719 158.304C248.858 158.165 249.071 158.043 249.359 157.936C249.647 157.819 250.005 157.76 250.431 157.76C251.061 157.76 251.615 157.931 252.095 158.272C252.575 158.613 252.949 159.093 253.215 159.712C253.482 160.331 253.615 161.04 253.615 161.84C253.615 163.163 253.317 164.229 252.719 165.04C252.133 165.84 251.317 166.24 250.271 166.24ZM249.711 165.024C250.298 165.024 250.714 164.789 250.959 164.32C251.205 163.84 251.327 163.029 251.327 161.888C251.327 161.152 251.274 160.576 251.167 160.16C251.071 159.744 250.911 159.451 250.687 159.28C250.463 159.099 250.165 159.008 249.791 159.008C249.514 159.008 249.274 159.072 249.071 159.2C248.869 159.317 248.714 159.451 248.607 159.6C248.501 159.739 248.447 159.819 248.447 159.84V164.432C248.447 164.453 248.495 164.517 248.591 164.624C248.687 164.72 248.826 164.811 249.007 164.896C249.199 164.981 249.434 165.024 249.711 165.024ZM255.038 158H256.542L256.894 159.344H256.958C256.958 159.28 257.001 159.125 257.086 158.88C257.171 158.624 257.326 158.384 257.55 158.16C257.785 157.936 258.094 157.824 258.478 157.824C258.691 157.824 258.931 157.856 259.198 157.92C259.475 157.984 259.657 158.027 259.742 158.048L259.55 159.536C259.465 159.515 259.273 159.472 258.974 159.408C258.686 159.344 258.435 159.312 258.222 159.312C257.977 159.312 257.774 159.387 257.614 159.536C257.465 159.675 257.353 159.824 257.278 159.984C257.203 160.144 257.166 160.24 257.166 160.272V166H255.038V158ZM261.798 156.8C261.478 156.8 261.195 156.693 260.95 156.48C260.704 156.235 260.582 155.931 260.582 155.568C260.582 155.216 260.704 154.917 260.95 154.672C261.174 154.459 261.456 154.352 261.798 154.352C262.128 154.352 262.4 154.453 262.614 154.656C262.848 154.901 262.966 155.205 262.966 155.568C262.966 155.941 262.848 156.251 262.614 156.496C262.379 156.699 262.107 156.8 261.798 156.8ZM260.726 166V158H262.854V166H260.726ZM267.285 166.176C266.527 166.176 265.967 165.989 265.605 165.616C265.242 165.243 265.061 164.613 265.061 163.728V159.232H264.293V158.272L265.077 158.048L266.101 155.344H267.189V158H268.949V159.232H267.189V163.184C267.189 163.685 267.21 164.069 267.253 164.336C267.306 164.592 267.386 164.773 267.493 164.88C267.599 164.976 267.749 165.024 267.941 165.024C268.154 165.024 268.346 165.003 268.516 164.96C268.687 164.917 268.773 164.891 268.773 164.88L268.901 165.792C268.901 165.803 268.842 165.84 268.725 165.904C268.607 165.968 268.426 166.027 268.181 166.08C267.946 166.144 267.647 166.176 267.285 166.176ZM271.053 170.176C270.808 170.176 270.589 170.155 270.397 170.112C270.216 170.08 270.077 170.043 269.981 170C269.885 169.968 269.826 169.947 269.805 169.936L269.981 168.688C270.024 168.709 270.13 168.741 270.301 168.784C270.472 168.837 270.642 168.864 270.813 168.864C271.293 168.864 271.682 168.672 271.981 168.288C272.28 167.915 272.61 167.259 272.973 166.32L269.565 158H272.141L274.093 163.696L275.741 158H277.069L274.301 166.176C273.97 167.083 273.656 167.819 273.357 168.384C273.069 168.949 272.738 169.387 272.365 169.696C271.992 170.016 271.554 170.176 271.053 170.176ZM222.484 182.13C221.6 182.13 220.92 181.84 220.443 181.259C219.966 180.678 219.728 179.842 219.728 178.75C219.728 178.403 219.741 178.087 219.767 177.801C219.854 176.336 220.144 175.244 220.638 174.525C221.132 173.797 221.786 173.433 222.601 173.433C222.87 173.433 223.125 173.468 223.368 173.537C223.619 173.598 223.819 173.663 223.966 173.732C224.122 173.801 224.222 173.849 224.265 173.875L224.135 174.447C224.1 174.421 224.014 174.378 223.875 174.317C223.736 174.248 223.559 174.183 223.342 174.122C223.125 174.061 222.904 174.031 222.679 174.031C221.414 174.031 220.742 175.179 220.664 177.476C221.184 176.939 221.812 176.67 222.549 176.67C223.338 176.67 223.957 176.908 224.408 177.385C224.867 177.862 225.097 178.499 225.097 179.296C225.097 179.825 224.997 180.306 224.798 180.739C224.607 181.164 224.313 181.502 223.914 181.753C223.524 182.004 223.047 182.13 222.484 182.13ZM222.484 181.558C223.047 181.558 223.459 181.35 223.719 180.934C223.979 180.509 224.109 179.959 224.109 179.283C224.109 178.659 223.97 178.156 223.693 177.775C223.416 177.394 222.995 177.203 222.432 177.203C222.025 177.203 221.687 177.303 221.418 177.502C221.149 177.693 220.933 177.909 220.768 178.152L220.781 178.165C220.764 178.26 220.746 178.39 220.729 178.555C220.72 178.72 220.716 178.884 220.716 179.049C220.716 180.722 221.305 181.558 222.484 181.558ZM231.142 182L228.919 175.5H230.037L231.727 180.973L233.521 175.5H234.236L232 182H231.142ZM235.842 174.187C235.686 174.187 235.561 174.139 235.465 174.044C235.353 173.931 235.296 173.793 235.296 173.628C235.296 173.463 235.353 173.325 235.465 173.212C235.561 173.117 235.686 173.069 235.842 173.069C236.007 173.069 236.137 173.112 236.232 173.199C236.336 173.312 236.388 173.455 236.388 173.628C236.388 173.784 236.336 173.923 236.232 174.044C236.111 174.139 235.981 174.187 235.842 174.187ZM235.361 182V175.5H236.31V182H235.361ZM240.375 182.13C239.587 182.13 238.954 181.848 238.477 181.285C238.001 180.722 237.762 179.937 237.762 178.932C237.762 177.849 237.992 176.986 238.451 176.345C238.919 175.695 239.574 175.37 240.414 175.37C240.77 175.37 241.069 175.418 241.311 175.513C241.554 175.6 241.74 175.699 241.87 175.812C242 175.916 242.065 175.977 242.065 175.994H242.078V172.276L243.014 172.224V182H242.208L242.104 181.233C242.009 181.424 241.823 181.623 241.545 181.831C241.268 182.03 240.878 182.13 240.375 182.13ZM240.583 181.493C240.895 181.493 241.164 181.428 241.389 181.298C241.615 181.159 241.784 181.012 241.896 180.856C242.018 180.7 242.078 180.609 242.078 180.583V176.592C242.078 176.575 242.018 176.514 241.896 176.41C241.784 176.306 241.623 176.211 241.415 176.124C241.216 176.037 240.978 175.994 240.7 175.994C240.033 175.994 239.543 176.241 239.231 176.735C238.919 177.22 238.763 177.944 238.763 178.906C238.763 179.816 238.915 180.475 239.218 180.882C239.53 181.289 239.985 181.493 240.583 181.493ZM247.247 182.13C246.381 182.13 245.7 181.861 245.206 181.324C244.712 180.778 244.465 179.963 244.465 178.88C244.465 177.788 244.704 176.93 245.18 176.306C245.657 175.682 246.307 175.37 247.13 175.37C247.876 175.37 248.448 175.63 248.846 176.15C249.254 176.661 249.457 177.389 249.457 178.334C249.457 178.499 249.449 178.633 249.431 178.737C249.414 178.841 249.401 178.906 249.392 178.932H245.453C245.453 180.683 246.086 181.558 247.351 181.558C247.698 181.558 247.993 181.497 248.235 181.376C248.487 181.246 248.682 181.112 248.82 180.973C248.959 180.826 249.028 180.739 249.028 180.713L249.405 181.025C249.405 181.06 249.323 181.172 249.158 181.363C248.994 181.545 248.751 181.718 248.43 181.883C248.11 182.048 247.715 182.13 247.247 182.13ZM248.573 178.386L248.586 178.139C248.586 176.666 248.101 175.929 247.13 175.929C246.619 175.929 246.225 176.133 245.947 176.54C245.67 176.939 245.51 177.554 245.466 178.386H248.573ZM253.125 182.13C252.224 182.13 251.535 181.835 251.058 181.246C250.59 180.657 250.356 179.825 250.356 178.75C250.356 177.675 250.59 176.843 251.058 176.254C251.535 175.665 252.224 175.37 253.125 175.37C254.026 175.37 254.711 175.665 255.179 176.254C255.656 176.843 255.894 177.675 255.894 178.75C255.894 179.816 255.651 180.648 255.166 181.246C254.689 181.835 254.009 182.13 253.125 182.13ZM253.125 181.558C253.732 181.558 254.178 181.328 254.464 180.869C254.75 180.401 254.893 179.695 254.893 178.75C254.893 177.814 254.75 177.112 254.464 176.644C254.178 176.176 253.732 175.942 253.125 175.942C252.518 175.942 252.072 176.176 251.786 176.644C251.5 177.103 251.357 177.805 251.357 178.75C251.357 179.695 251.5 180.401 251.786 180.869C252.072 181.328 252.518 181.558 253.125 181.558ZM258.975 182.13C258.515 182.13 258.125 182.061 257.805 181.922C257.493 181.775 257.254 181.619 257.09 181.454C256.934 181.289 256.856 181.194 256.856 181.168L257.181 180.713C257.181 180.73 257.25 180.813 257.389 180.96C257.527 181.107 257.718 181.246 257.961 181.376C258.203 181.497 258.489 181.558 258.819 181.558C259.304 181.558 259.668 181.437 259.911 181.194C260.162 180.951 260.288 180.657 260.288 180.31C260.288 180.059 260.223 179.851 260.093 179.686C259.971 179.521 259.815 179.396 259.625 179.309C259.443 179.214 259.187 179.11 258.858 178.997C258.476 178.858 258.173 178.733 257.948 178.62C257.722 178.499 257.527 178.321 257.363 178.087C257.207 177.853 257.129 177.55 257.129 177.177C257.129 176.622 257.328 176.185 257.727 175.864C258.134 175.535 258.654 175.37 259.287 175.37C259.564 175.37 259.828 175.409 260.08 175.487C260.34 175.556 260.548 175.634 260.704 175.721C260.86 175.799 260.959 175.851 261.003 175.877L260.847 176.436C260.812 176.41 260.725 176.358 260.587 176.28C260.448 176.193 260.266 176.111 260.041 176.033C259.824 175.955 259.599 175.916 259.365 175.916C258.966 175.916 258.641 176.016 258.39 176.215C258.147 176.414 258.026 176.666 258.026 176.969C258.026 177.22 258.091 177.433 258.221 177.606C258.351 177.771 258.511 177.901 258.702 177.996C258.901 178.091 259.165 178.2 259.495 178.321C259.876 178.451 260.184 178.581 260.418 178.711C260.66 178.832 260.864 179.01 261.029 179.244C261.193 179.478 261.276 179.781 261.276 180.154C261.276 180.717 261.081 181.19 260.691 181.571C260.301 181.944 259.729 182.13 258.975 182.13Z" fill="#222222"/>
<path d="M172.74 130.13C183.822 122.548 196.595 117.798 209.939 116.299C223.283 114.8 236.791 116.596 249.28 121.53C261.768 126.465 272.856 134.387 281.571 144.602C290.287 154.817 296.364 167.014 299.27 180.124C298.374 191.198 294.897 201.908 289.115 211.395C283.334 220.883 275.41 228.884 265.979 234.756C256.547 240.628 245.871 244.209 234.806 245.211C223.741 246.213 212.596 244.609 202.263 240.526C191.93 236.443 182.698 229.996 175.306 221.702C167.914 213.408 162.569 203.496 159.699 192.764C156.828 182.031 156.513 170.774 158.778 159.897C161.042 149.021 165.824 138.826 172.74 130.13Z" stroke="white" stroke-width="2"/>
</svg>
