<svg width="380" height="360" viewBox="0 0 380 360" fill="none" xmlns="http://www.w3.org/2000/svg">
<path d="M39.0253 174.907C39.0253 195.906 43.1614 216.7 51.1975 236.101C59.2336 255.501 71.0122 273.129 85.861 287.978C100.71 302.827 118.338 314.605 137.738 322.642C157.139 330.678 177.933 334.814 198.932 334.814C219.931 334.814 240.725 330.678 260.126 322.642C279.527 314.605 297.155 302.827 312.003 287.978C326.852 273.129 338.631 255.501 346.667 236.101C354.703 216.7 358.839 195.906 358.839 174.907C358.839 132.497 341.992 91.824 312.003 61.8356C282.015 31.8473 241.342 15 198.932 15C156.522 15 115.849 31.8473 85.861 61.8356C55.8726 91.824 39.0253 132.497 39.0253 174.907" fill="#013369" fill-opacity="0.6"/>
<path d="M39.0253 174.907C39.0253 195.906 43.1614 216.7 51.1975 236.101C59.2336 255.501 71.0122 273.129 85.861 287.978C100.71 302.827 118.338 314.605 137.738 322.642C157.139 330.678 177.933 334.814 198.932 334.814C219.931 334.814 240.725 330.678 260.126 322.642C279.527 314.605 297.155 302.827 312.003 287.978C326.852 273.129 338.631 255.501 346.667 236.101C354.703 216.7 358.839 195.906 358.839 174.907C358.839 132.497 341.992 91.824 312.003 61.8356C282.015 31.8473 241.342 15 198.932 15C156.522 15 115.849 31.8473 85.861 61.8356C55.8726 91.824 39.0253 132.497 39.0253 174.907" stroke="white" stroke-width="2"/>
<path d="M300.68 261.54H299.7V260.34L300.68 260.06V258.58C300.68 257.38 300.927 256.453 301.42 255.8C301.913 255.133 302.72 254.8 303.84 254.8C304.173 254.8 304.507 254.853 304.84 254.96C305.173 255.053 305.447 255.153 305.66 255.26C305.887 255.367 306.027 255.44 306.08 255.48L305.74 256.62C305.7 256.593 305.6 256.547 305.44 256.48C305.28 256.4 305.093 256.327 304.88 256.26C304.667 256.18 304.48 256.14 304.32 256.14C304.067 256.14 303.873 256.207 303.74 256.34C303.607 256.473 303.507 256.74 303.44 257.14C303.373 257.527 303.34 258.107 303.34 258.88V260H305.84V261.54H303.34V270H300.68V261.54ZM310.114 270.22C309.087 270.22 308.314 269.947 307.794 269.4C307.287 268.84 307.034 267.973 307.034 266.8V260H309.694V266.24C309.694 267.12 309.801 267.727 310.014 268.06C310.227 268.393 310.574 268.56 311.054 268.56C311.374 268.56 311.661 268.507 311.914 268.4C312.167 268.28 312.367 268.16 312.514 268.04C312.661 267.92 312.754 267.84 312.794 267.8V260H315.454V270H313.314L312.934 269.12H312.894C312.894 269.147 312.787 269.26 312.574 269.46C312.361 269.647 312.047 269.82 311.634 269.98C311.221 270.14 310.714 270.22 310.114 270.22ZM317.876 260H320.016L320.356 260.82H320.436C320.436 260.793 320.542 260.693 320.756 260.52C320.982 260.347 321.302 260.187 321.716 260.04C322.129 259.88 322.642 259.8 323.256 259.8C324.282 259.8 325.049 260.08 325.556 260.64C326.076 261.187 326.336 262.047 326.336 263.22V270H323.676V263.76C323.676 262.867 323.576 262.26 323.376 261.94C323.189 261.62 322.842 261.46 322.336 261.46C321.989 261.46 321.682 261.513 321.416 261.62C321.149 261.727 320.936 261.847 320.776 261.98C320.616 262.1 320.536 262.167 320.536 262.18V270H317.876V260ZM328.638 260H330.778L331.118 260.82H331.198C331.198 260.793 331.304 260.693 331.518 260.52C331.744 260.347 332.064 260.187 332.478 260.04C332.891 259.88 333.404 259.8 334.018 259.8C335.044 259.8 335.811 260.08 336.318 260.64C336.838 261.187 337.098 262.047 337.098 263.22V270H334.438V263.76C334.438 262.867 334.338 262.26 334.138 261.94C333.951 261.62 333.604 261.46 333.098 261.46C332.751 261.46 332.444 261.513 332.178 261.62C331.911 261.727 331.698 261.847 331.538 261.98C331.378 262.1 331.298 262.167 331.298 262.18V270H328.638V260ZM340.199 275.22C339.893 275.22 339.619 275.193 339.379 275.14C339.153 275.1 338.979 275.053 338.859 275C338.739 274.96 338.666 274.933 338.639 274.92L338.859 273.36C338.913 273.387 339.046 273.427 339.259 273.48C339.473 273.547 339.686 273.58 339.899 273.58C340.499 273.58 340.986 273.34 341.359 272.86C341.733 272.393 342.146 271.573 342.599 270.4L338.339 260H341.559L343.999 267.12L346.059 260H347.719L344.259 270.22C343.846 271.353 343.453 272.273 343.079 272.98C342.719 273.687 342.306 274.233 341.839 274.62C341.373 275.02 340.826 275.22 340.199 275.22ZM299.56 285.398C300.615 284.334 301.431 283.48 302.01 282.836C302.589 282.192 303.032 281.599 303.34 281.058C303.657 280.517 303.816 280.008 303.816 279.532C303.816 278.991 303.667 278.557 303.368 278.23C303.069 277.903 302.631 277.74 302.052 277.74C301.697 277.74 301.352 277.838 301.016 278.034C300.689 278.23 300.386 278.496 300.106 278.832L299.504 278.244C299.896 277.815 300.307 277.483 300.736 277.25C301.165 277.017 301.646 276.9 302.178 276.9C302.99 276.9 303.634 277.138 304.11 277.614C304.586 278.081 304.824 278.706 304.824 279.49C304.824 280.031 304.67 280.587 304.362 281.156C304.063 281.725 303.667 282.299 303.172 282.878C302.677 283.457 301.973 284.227 301.058 285.188L301.394 285.174C301.917 285.137 302.304 285.118 302.556 285.118H305.258V286H299.56V285.398ZM312.373 283.48H311.127V286H310.161V283.48H306.129V282.822L310.035 277.068H311.127V282.668H312.373V283.48ZM310.161 282.668V279.896C310.161 279.541 310.184 278.981 310.231 278.216H310.175C309.988 278.552 309.843 278.799 309.741 278.958L309.447 279.448L307.221 282.668H310.161ZM318.625 286L316.231 279H317.435L319.255 284.894L321.187 279H321.957L319.549 286H318.625ZM323.687 277.586C323.519 277.586 323.383 277.535 323.281 277.432C323.159 277.311 323.099 277.161 323.099 276.984C323.099 276.807 323.159 276.657 323.281 276.536C323.383 276.433 323.519 276.382 323.687 276.382C323.864 276.382 324.004 276.429 324.107 276.522C324.219 276.643 324.275 276.797 324.275 276.984C324.275 277.152 324.219 277.301 324.107 277.432C323.976 277.535 323.836 277.586 323.687 277.586ZM323.169 286V279H324.191V286H323.169ZM328.568 286.14C327.719 286.14 327.038 285.837 326.524 285.23C326.011 284.623 325.754 283.779 325.754 282.696C325.754 281.529 326.002 280.601 326.496 279.91C327 279.21 327.705 278.86 328.61 278.86C328.993 278.86 329.315 278.911 329.576 279.014C329.838 279.107 330.038 279.215 330.178 279.336C330.318 279.448 330.388 279.513 330.388 279.532H330.402V275.528L331.41 275.472V286H330.542L330.43 285.174C330.328 285.379 330.127 285.594 329.828 285.818C329.53 286.033 329.11 286.14 328.568 286.14ZM328.792 285.454C329.128 285.454 329.418 285.384 329.66 285.244C329.903 285.095 330.085 284.936 330.206 284.768C330.337 284.6 330.402 284.502 330.402 284.474V280.176C330.402 280.157 330.337 280.092 330.206 279.98C330.085 279.868 329.912 279.765 329.688 279.672C329.474 279.579 329.217 279.532 328.918 279.532C328.2 279.532 327.672 279.798 327.336 280.33C327 280.853 326.832 281.632 326.832 282.668C326.832 283.648 326.996 284.357 327.322 284.796C327.658 285.235 328.148 285.454 328.792 285.454ZM335.969 286.14C335.036 286.14 334.303 285.851 333.771 285.272C333.239 284.684 332.973 283.807 332.973 282.64C332.973 281.464 333.23 280.54 333.743 279.868C334.256 279.196 334.956 278.86 335.843 278.86C336.646 278.86 337.262 279.14 337.691 279.7C338.13 280.251 338.349 281.035 338.349 282.052C338.349 282.229 338.34 282.374 338.321 282.486C338.302 282.598 338.288 282.668 338.279 282.696H334.037C334.037 284.581 334.718 285.524 336.081 285.524C336.454 285.524 336.772 285.459 337.033 285.328C337.304 285.188 337.514 285.043 337.663 284.894C337.812 284.735 337.887 284.642 337.887 284.614L338.293 284.95C338.293 284.987 338.204 285.109 338.027 285.314C337.85 285.51 337.588 285.697 337.243 285.874C336.898 286.051 336.473 286.14 335.969 286.14ZM337.397 282.108L337.411 281.842C337.411 280.255 336.888 279.462 335.843 279.462C335.292 279.462 334.868 279.681 334.569 280.12C334.27 280.549 334.098 281.212 334.051 282.108H337.397ZM342.299 286.14C341.328 286.14 340.586 285.823 340.073 285.188C339.569 284.553 339.317 283.657 339.317 282.5C339.317 281.343 339.569 280.447 340.073 279.812C340.586 279.177 341.328 278.86 342.299 278.86C343.269 278.86 344.007 279.177 344.511 279.812C345.024 280.447 345.281 281.343 345.281 282.5C345.281 283.648 345.019 284.544 344.497 285.188C343.983 285.823 343.251 286.14 342.299 286.14ZM342.299 285.524C342.952 285.524 343.433 285.277 343.741 284.782C344.049 284.278 344.203 283.517 344.203 282.5C344.203 281.492 344.049 280.736 343.741 280.232C343.433 279.728 342.952 279.476 342.299 279.476C341.645 279.476 341.165 279.728 340.857 280.232C340.549 280.727 340.395 281.483 340.395 282.5C340.395 283.517 340.549 284.278 340.857 284.782C341.165 285.277 341.645 285.524 342.299 285.524ZM348.599 286.14C348.104 286.14 347.684 286.065 347.339 285.916C347.003 285.757 346.746 285.589 346.569 285.412C346.401 285.235 346.317 285.132 346.317 285.104L346.667 284.614C346.667 284.633 346.741 284.721 346.891 284.88C347.04 285.039 347.245 285.188 347.507 285.328C347.768 285.459 348.076 285.524 348.431 285.524C348.953 285.524 349.345 285.393 349.607 285.132C349.877 284.871 350.013 284.553 350.013 284.18C350.013 283.909 349.943 283.685 349.803 283.508C349.672 283.331 349.504 283.195 349.299 283.102C349.103 282.999 348.827 282.887 348.473 282.766C348.062 282.617 347.735 282.481 347.493 282.36C347.25 282.229 347.04 282.038 346.863 281.786C346.695 281.534 346.611 281.207 346.611 280.806C346.611 280.209 346.825 279.737 347.255 279.392C347.693 279.037 348.253 278.86 348.935 278.86C349.233 278.86 349.518 278.902 349.789 278.986C350.069 279.061 350.293 279.145 350.461 279.238C350.629 279.322 350.736 279.378 350.783 279.406L350.615 280.008C350.577 279.98 350.484 279.924 350.335 279.84C350.185 279.747 349.989 279.658 349.747 279.574C349.513 279.49 349.271 279.448 349.019 279.448C348.589 279.448 348.239 279.555 347.969 279.77C347.707 279.985 347.577 280.255 347.577 280.582C347.577 280.853 347.647 281.081 347.787 281.268C347.927 281.445 348.099 281.585 348.305 281.688C348.519 281.791 348.804 281.907 349.159 282.038C349.569 282.178 349.901 282.318 350.153 282.458C350.414 282.589 350.633 282.78 350.811 283.032C350.988 283.284 351.077 283.611 351.077 284.012C351.077 284.619 350.867 285.127 350.447 285.538C350.027 285.939 349.411 286.14 348.599 286.14Z" fill="#222222"/>
<path d="M98.9041 174.907C98.9041 203.619 110.31 231.154 130.612 251.456C150.914 271.759 178.45 283.164 207.162 283.164C235.873 283.164 263.409 271.759 283.711 251.456C304.013 231.154 315.419 203.619 315.419 174.907C315.419 146.195 304.013 118.659 283.711 98.3573C263.409 78.0551 235.873 66.6494 207.162 66.6494C178.45 66.6494 150.914 78.0551 130.612 98.3573C110.31 118.659 98.9041 146.195 98.9041 174.907" fill="#A8001C" fill-opacity="0.6"/>
<path d="M98.9041 174.907C98.9041 203.619 110.31 231.154 130.612 251.456C150.914 271.759 178.45 283.164 207.162 283.164C235.873 283.164 263.409 271.759 283.711 251.456C304.013 231.154 315.419 203.619 315.419 174.907C315.419 146.195 304.013 118.659 283.711 98.3573C263.409 78.0551 235.873 66.6494 207.162 66.6494C178.45 66.6494 150.914 78.0551 130.612 98.3573C110.31 118.659 98.9041 146.195 98.9041 174.907" stroke="white" stroke-width="2"/>
<path d="M253.046 192.187C252.343 192.187 251.72 192.011 251.176 191.66C250.643 191.309 250.23 190.816 249.935 190.181C249.64 189.535 249.493 188.787 249.493 187.937C249.493 187.019 249.635 186.214 249.918 185.523C250.201 184.82 250.604 184.282 251.125 183.908C251.646 183.523 252.253 183.33 252.944 183.33C253.386 183.33 253.754 183.381 254.049 183.483C254.344 183.574 254.565 183.676 254.712 183.789C254.859 183.891 254.933 183.953 254.933 183.976H254.984V179.318L257.245 179.182V192H255.358L255.103 191.235H255.086C255.086 191.269 255.018 191.365 254.882 191.524C254.746 191.683 254.525 191.836 254.219 191.983C253.924 192.119 253.533 192.187 253.046 192.187ZM253.556 190.861C253.839 190.861 254.083 190.804 254.287 190.691C254.502 190.578 254.672 190.453 254.797 190.317C254.922 190.181 254.984 190.102 254.984 190.079V185.183C254.961 185.149 254.893 185.092 254.78 185.013C254.678 184.922 254.525 184.837 254.321 184.758C254.128 184.667 253.902 184.622 253.641 184.622C253.029 184.622 252.587 184.866 252.315 185.353C252.054 185.84 251.924 186.679 251.924 187.869C251.924 188.662 251.981 189.274 252.094 189.705C252.219 190.136 252.394 190.436 252.621 190.606C252.859 190.776 253.171 190.861 253.556 190.861ZM261.341 192.187C260.547 192.187 259.913 191.989 259.437 191.592C258.961 191.195 258.723 190.651 258.723 189.96C258.723 188.963 259.187 188.243 260.117 187.801C261.057 187.348 262.151 187.07 263.398 186.968V186.475C263.398 185.704 263.29 185.177 263.075 184.894C262.859 184.599 262.497 184.452 261.987 184.452C261.749 184.452 261.477 184.497 261.171 184.588C260.876 184.679 260.615 184.775 260.389 184.877C260.173 184.979 260.032 185.047 259.964 185.081L259.743 183.993C259.811 183.959 259.969 183.891 260.219 183.789C260.479 183.676 260.802 183.568 261.188 183.466C261.584 183.364 261.981 183.313 262.378 183.313C263.443 183.313 264.253 183.54 264.809 183.993C265.375 184.435 265.659 185.2 265.659 186.288V190.147C265.659 190.748 265.778 191.048 266.016 191.048C266.106 191.048 266.214 191.031 266.339 190.997C266.463 190.963 266.548 190.94 266.594 190.929L266.662 191.813C266.605 191.836 266.469 191.875 266.254 191.932C266.038 191.989 265.789 192.045 265.506 192.102C265.234 192.159 264.99 192.187 264.775 192.187C264.446 192.187 264.191 192.108 264.01 191.949C263.828 191.779 263.709 191.507 263.653 191.133H263.568C263.568 191.167 263.488 191.275 263.33 191.456C263.182 191.626 262.944 191.79 262.616 191.949C262.287 192.108 261.862 192.187 261.341 192.187ZM262.089 191.048C262.361 191.048 262.593 190.98 262.786 190.844C262.99 190.708 263.143 190.561 263.245 190.402C263.347 190.232 263.398 190.136 263.398 190.113V187.869C262.638 187.948 262.06 188.13 261.664 188.413C261.278 188.685 261.086 189.104 261.086 189.671C261.086 190.124 261.176 190.47 261.358 190.708C261.539 190.935 261.783 191.048 262.089 191.048ZM267.999 183.5H269.818L270.107 184.197H270.175C270.175 184.174 270.266 184.089 270.447 183.942C270.64 183.795 270.912 183.659 271.263 183.534C271.615 183.398 272.051 183.33 272.572 183.33C273.445 183.33 274.097 183.568 274.527 184.044C274.969 184.509 275.19 185.24 275.19 186.237V192H272.929V186.696C272.929 185.937 272.844 185.421 272.674 185.149C272.516 184.877 272.221 184.741 271.79 184.741C271.496 184.741 271.235 184.786 271.008 184.877C270.782 184.968 270.6 185.07 270.464 185.183C270.328 185.285 270.26 185.342 270.26 185.353V192H267.999V183.5ZM280.105 196.454C278.824 196.454 277.867 196.199 277.232 195.689C276.609 195.179 276.297 194.488 276.297 193.615C276.297 192.663 276.654 191.966 277.368 191.524C277.243 191.252 277.181 190.946 277.181 190.606C277.181 189.926 277.43 189.371 277.929 188.94C277.521 188.679 277.198 188.334 276.96 187.903C276.733 187.472 276.62 186.968 276.62 186.39C276.62 185.37 276.949 184.605 277.606 184.095C278.263 183.585 279.102 183.33 280.122 183.33C280.575 183.33 281.006 183.392 281.414 183.517L283.709 183.534V184.537L282.893 184.588C283.21 185.064 283.369 185.665 283.369 186.39C283.369 187.399 283.069 188.169 282.468 188.702C281.879 189.235 281.08 189.501 280.071 189.501C279.686 189.501 279.295 189.456 278.898 189.365C278.683 189.535 278.575 189.745 278.575 189.994C278.575 190.221 278.705 190.396 278.966 190.521C279.227 190.634 279.674 190.691 280.309 190.691C281.556 190.691 282.479 190.918 283.08 191.371C283.681 191.824 283.981 192.493 283.981 193.377C283.981 194.374 283.652 195.134 282.995 195.655C282.349 196.188 281.386 196.454 280.105 196.454ZM280.02 188.464C280.405 188.464 280.694 188.3 280.887 187.971C281.08 187.642 281.176 187.104 281.176 186.356C281.176 185.608 281.08 185.098 280.887 184.826C280.694 184.554 280.4 184.418 280.003 184.418C279.606 184.418 279.306 184.56 279.102 184.843C278.898 185.115 278.796 185.631 278.796 186.39C278.796 187.127 278.898 187.659 279.102 187.988C279.317 188.305 279.623 188.464 280.02 188.464ZM280.105 195.298C280.774 195.298 281.272 195.179 281.601 194.941C281.93 194.703 282.094 194.357 282.094 193.904C282.094 193.451 281.913 193.122 281.55 192.918C281.199 192.714 280.666 192.612 279.952 192.612C279.283 192.612 278.734 192.521 278.303 192.34C278.02 192.646 277.878 193.054 277.878 193.564C277.878 194.119 278.059 194.544 278.422 194.839C278.796 195.145 279.357 195.298 280.105 195.298ZM288.434 192.187C287.176 192.187 286.196 191.841 285.493 191.15C284.802 190.447 284.456 189.365 284.456 187.903C284.456 186.43 284.796 185.302 285.476 184.52C286.156 183.727 287.074 183.33 288.23 183.33C289.284 183.33 290.1 183.664 290.678 184.333C291.267 184.99 291.562 185.937 291.562 187.172C291.562 187.455 291.539 187.693 291.494 187.886C291.46 188.079 291.437 188.198 291.426 188.243H286.853C286.864 189.263 287.012 189.988 287.295 190.419C287.59 190.838 288.06 191.048 288.706 191.048C289.091 191.048 289.431 190.969 289.726 190.81C290.021 190.64 290.253 190.459 290.423 190.266C290.593 190.062 290.678 189.949 290.678 189.926L291.443 190.521C291.443 190.566 291.324 190.731 291.086 191.014C290.859 191.297 290.519 191.564 290.066 191.813C289.624 192.062 289.08 192.187 288.434 192.187ZM289.454 187.138V186.747C289.454 185.886 289.363 185.285 289.182 184.945C289.001 184.594 288.683 184.418 288.23 184.418C287.913 184.418 287.658 184.497 287.465 184.656C287.284 184.815 287.142 185.092 287.04 185.489C286.938 185.874 286.876 186.424 286.853 187.138H289.454ZM293.035 183.5H294.633L295.007 184.928H295.075C295.075 184.86 295.12 184.696 295.211 184.435C295.301 184.163 295.466 183.908 295.704 183.67C295.953 183.432 296.282 183.313 296.69 183.313C296.916 183.313 297.171 183.347 297.455 183.415C297.749 183.483 297.942 183.528 298.033 183.551L297.829 185.132C297.738 185.109 297.534 185.064 297.217 184.996C296.911 184.928 296.644 184.894 296.418 184.894C296.157 184.894 295.942 184.973 295.772 185.132C295.613 185.279 295.494 185.438 295.415 185.608C295.335 185.778 295.296 185.88 295.296 185.914V192H293.035V183.5ZM251.618 208V199.712L249.938 200.65L249.7 200.104L251.786 198.9H252.626V208H251.618ZM256.786 208V199.712L255.106 200.65L254.868 200.104L256.954 198.9H257.794V208H256.786ZM265.18 208L262.786 201H263.99L265.81 206.894L267.742 201H268.512L266.104 208H265.18ZM270.242 199.586C270.074 199.586 269.938 199.535 269.836 199.432C269.714 199.311 269.654 199.161 269.654 198.984C269.654 198.807 269.714 198.657 269.836 198.536C269.938 198.433 270.074 198.382 270.242 198.382C270.419 198.382 270.559 198.429 270.662 198.522C270.774 198.643 270.83 198.797 270.83 198.984C270.83 199.152 270.774 199.301 270.662 199.432C270.531 199.535 270.391 199.586 270.242 199.586ZM269.724 208V201H270.745V208H269.724ZM275.123 208.14C274.274 208.14 273.592 207.837 273.079 207.23C272.566 206.623 272.309 205.779 272.309 204.696C272.309 203.529 272.556 202.601 273.051 201.91C273.555 201.21 274.26 200.86 275.165 200.86C275.548 200.86 275.87 200.911 276.131 201.014C276.392 201.107 276.593 201.215 276.733 201.336C276.873 201.448 276.943 201.513 276.943 201.532H276.957V197.528L277.965 197.472V208H277.097L276.985 207.174C276.882 207.379 276.682 207.594 276.383 207.818C276.084 208.033 275.664 208.14 275.123 208.14ZM275.347 207.454C275.683 207.454 275.972 207.384 276.215 207.244C276.458 207.095 276.64 206.936 276.761 206.768C276.892 206.6 276.957 206.502 276.957 206.474V202.176C276.957 202.157 276.892 202.092 276.761 201.98C276.64 201.868 276.467 201.765 276.243 201.672C276.028 201.579 275.772 201.532 275.473 201.532C274.754 201.532 274.227 201.798 273.891 202.33C273.555 202.853 273.387 203.632 273.387 204.668C273.387 205.648 273.55 206.357 273.877 206.796C274.213 207.235 274.703 207.454 275.347 207.454ZM282.524 208.14C281.59 208.14 280.858 207.851 280.326 207.272C279.794 206.684 279.528 205.807 279.528 204.64C279.528 203.464 279.784 202.54 280.298 201.868C280.811 201.196 281.511 200.86 282.398 200.86C283.2 200.86 283.816 201.14 284.246 201.7C284.684 202.251 284.904 203.035 284.904 204.052C284.904 204.229 284.894 204.374 284.876 204.486C284.857 204.598 284.843 204.668 284.834 204.696H280.592C280.592 206.581 281.273 207.524 282.636 207.524C283.009 207.524 283.326 207.459 283.588 207.328C283.858 207.188 284.068 207.043 284.218 206.894C284.367 206.735 284.442 206.642 284.442 206.614L284.848 206.95C284.848 206.987 284.759 207.109 284.582 207.314C284.404 207.51 284.143 207.697 283.798 207.874C283.452 208.051 283.028 208.14 282.524 208.14ZM283.952 204.108L283.966 203.842C283.966 202.255 283.443 201.462 282.398 201.462C281.847 201.462 281.422 201.681 281.124 202.12C280.825 202.549 280.652 203.212 280.606 204.108H283.952ZM288.854 208.14C287.883 208.14 287.141 207.823 286.628 207.188C286.124 206.553 285.872 205.657 285.872 204.5C285.872 203.343 286.124 202.447 286.628 201.812C287.141 201.177 287.883 200.86 288.854 200.86C289.824 200.86 290.562 201.177 291.066 201.812C291.579 202.447 291.836 203.343 291.836 204.5C291.836 205.648 291.574 206.544 291.052 207.188C290.538 207.823 289.806 208.14 288.854 208.14ZM288.854 207.524C289.507 207.524 289.988 207.277 290.296 206.782C290.604 206.278 290.758 205.517 290.758 204.5C290.758 203.492 290.604 202.736 290.296 202.232C289.988 201.728 289.507 201.476 288.854 201.476C288.2 201.476 287.72 201.728 287.412 202.232C287.104 202.727 286.95 203.483 286.95 204.5C286.95 205.517 287.104 206.278 287.412 206.782C287.72 207.277 288.2 207.524 288.854 207.524ZM295.153 208.14C294.659 208.14 294.239 208.065 293.893 207.916C293.557 207.757 293.301 207.589 293.123 207.412C292.955 207.235 292.871 207.132 292.871 207.104L293.221 206.614C293.221 206.633 293.296 206.721 293.445 206.88C293.595 207.039 293.8 207.188 294.061 207.328C294.323 207.459 294.631 207.524 294.985 207.524C295.508 207.524 295.9 207.393 296.161 207.132C296.432 206.871 296.567 206.553 296.567 206.18C296.567 205.909 296.497 205.685 296.357 205.508C296.227 205.331 296.059 205.195 295.853 205.102C295.657 204.999 295.382 204.887 295.027 204.766C294.617 204.617 294.29 204.481 294.047 204.36C293.805 204.229 293.595 204.038 293.417 203.786C293.249 203.534 293.165 203.207 293.165 202.806C293.165 202.209 293.38 201.737 293.809 201.392C294.248 201.037 294.808 200.86 295.489 200.86C295.788 200.86 296.073 200.902 296.343 200.986C296.623 201.061 296.847 201.145 297.015 201.238C297.183 201.322 297.291 201.378 297.337 201.406L297.169 202.008C297.132 201.98 297.039 201.924 296.889 201.84C296.74 201.747 296.544 201.658 296.301 201.574C296.068 201.49 295.825 201.448 295.573 201.448C295.144 201.448 294.794 201.555 294.523 201.77C294.262 201.985 294.131 202.255 294.131 202.582C294.131 202.853 294.201 203.081 294.341 203.268C294.481 203.445 294.654 203.585 294.859 203.688C295.074 203.791 295.359 203.907 295.713 204.038C296.124 204.178 296.455 204.318 296.707 204.458C296.969 204.589 297.188 204.78 297.365 205.032C297.543 205.284 297.631 205.611 297.631 206.012C297.631 206.619 297.421 207.127 297.001 207.538C296.581 207.939 295.965 208.14 295.153 208.14Z" fill="#EEEEEE"/>
<path d="M96.2469 265.047C96.2469 275.546 98.3149 285.943 102.333 295.643C106.351 305.344 112.24 314.158 119.665 321.582C127.089 329.007 135.903 334.896 145.603 338.914C155.304 342.932 165.701 345 176.2 345C186.7 345 197.097 342.932 206.797 338.914C216.498 334.896 225.312 329.007 232.736 321.582C240.16 314.158 246.05 305.344 250.068 295.643C254.086 285.943 256.154 275.546 256.154 265.047C256.154 243.842 247.73 223.505 232.736 208.511C217.742 193.517 197.405 185.093 176.2 185.093C154.995 185.093 134.659 193.517 119.665 208.511C104.671 223.505 96.2469 243.842 96.2469 265.047" fill="white" fill-opacity="0.6"/>
<path d="M96.2469 265.047C96.2469 275.546 98.3149 285.943 102.333 295.643C106.351 305.344 112.24 314.158 119.665 321.582C127.089 329.007 135.903 334.896 145.603 338.914C155.304 342.932 165.701 345 176.2 345C186.7 345 197.097 342.932 206.797 338.914C216.498 334.896 225.312 329.007 232.736 321.582C240.16 314.158 246.05 305.344 250.068 295.643C254.086 285.943 256.154 275.546 256.154 265.047C256.154 243.842 247.73 223.505 232.736 208.511C217.742 193.517 197.405 185.093 176.2 185.093C154.995 185.093 134.659 193.517 119.665 208.511C104.671 223.505 96.2469 243.842 96.2469 265.047" stroke="white" stroke-width="2"/>
<path d="M150.57 300.187C149.697 300.187 149.04 299.955 148.598 299.49C148.167 299.014 147.952 298.277 147.952 297.28V291.5H150.213V296.804C150.213 297.552 150.304 298.068 150.485 298.351C150.666 298.634 150.961 298.776 151.369 298.776C151.641 298.776 151.885 298.731 152.1 298.64C152.315 298.538 152.485 298.436 152.61 298.334C152.735 298.232 152.814 298.164 152.848 298.13V291.5H155.109V300H153.29L152.967 299.252H152.933C152.933 299.275 152.842 299.371 152.661 299.541C152.48 299.7 152.213 299.847 151.862 299.983C151.511 300.119 151.08 300.187 150.57 300.187ZM159.547 300.187C158.89 300.187 158.34 300.096 157.898 299.915C157.456 299.722 157.122 299.518 156.895 299.303C156.669 299.088 156.555 298.957 156.555 298.912L157.184 298.028C157.184 298.051 157.275 298.153 157.456 298.334C157.638 298.515 157.864 298.685 158.136 298.844C158.42 298.991 158.731 299.065 159.071 299.065C159.491 299.065 159.814 298.957 160.04 298.742C160.267 298.527 160.38 298.243 160.38 297.892C160.38 297.552 160.261 297.286 160.023 297.093C159.785 296.889 159.428 296.679 158.952 296.464C158.51 296.249 158.153 296.056 157.881 295.886C157.621 295.705 157.394 295.461 157.201 295.155C157.009 294.838 156.912 294.435 156.912 293.948C156.912 293.109 157.201 292.463 157.779 292.01C158.357 291.545 159.071 291.313 159.921 291.313C160.284 291.313 160.647 291.358 161.009 291.449C161.372 291.54 161.672 291.63 161.91 291.721C162.148 291.812 162.301 291.874 162.369 291.908L162.063 293.047C162.007 293.013 161.876 292.945 161.672 292.843C161.468 292.741 161.219 292.645 160.924 292.554C160.641 292.463 160.38 292.418 160.142 292.418C159.791 292.418 159.519 292.503 159.326 292.673C159.134 292.843 159.037 293.07 159.037 293.353C159.037 293.693 159.162 293.971 159.411 294.186C159.672 294.39 160.063 294.611 160.584 294.849C161.049 295.076 161.423 295.285 161.706 295.478C161.99 295.659 162.233 295.909 162.437 296.226C162.641 296.543 162.743 296.94 162.743 297.416C162.743 298.243 162.466 298.912 161.91 299.422C161.366 299.932 160.579 300.187 159.547 300.187ZM167.707 300.187C166.449 300.187 165.469 299.841 164.766 299.15C164.075 298.447 163.729 297.365 163.729 295.903C163.729 294.43 164.069 293.302 164.749 292.52C165.429 291.727 166.347 291.33 167.503 291.33C168.557 291.33 169.373 291.664 169.951 292.333C170.541 292.99 170.835 293.937 170.835 295.172C170.835 295.455 170.813 295.693 170.767 295.886C170.733 296.079 170.711 296.198 170.699 296.243H166.126C166.138 297.263 166.285 297.988 166.568 298.419C166.863 298.838 167.333 299.048 167.979 299.048C168.365 299.048 168.705 298.969 168.999 298.81C169.294 298.64 169.526 298.459 169.696 298.266C169.866 298.062 169.951 297.949 169.951 297.926L170.716 298.521C170.716 298.566 170.597 298.731 170.359 299.014C170.133 299.297 169.793 299.564 169.339 299.813C168.897 300.062 168.353 300.187 167.707 300.187ZM168.727 295.138V294.747C168.727 293.886 168.637 293.285 168.455 292.945C168.274 292.594 167.957 292.418 167.503 292.418C167.186 292.418 166.931 292.497 166.738 292.656C166.557 292.815 166.415 293.092 166.313 293.489C166.211 293.874 166.149 294.424 166.126 295.138H168.727ZM179.021 300.187C178.364 300.187 177.814 300.096 177.372 299.915C176.93 299.722 176.596 299.518 176.369 299.303C176.142 299.088 176.029 298.957 176.029 298.912L176.658 298.028C176.658 298.051 176.749 298.153 176.93 298.334C177.111 298.515 177.338 298.685 177.61 298.844C177.893 298.991 178.205 299.065 178.545 299.065C178.964 299.065 179.287 298.957 179.514 298.742C179.741 298.527 179.854 298.243 179.854 297.892C179.854 297.552 179.735 297.286 179.497 297.093C179.259 296.889 178.902 296.679 178.426 296.464C177.984 296.249 177.627 296.056 177.355 295.886C177.094 295.705 176.868 295.461 176.675 295.155C176.482 294.838 176.386 294.435 176.386 293.948C176.386 293.109 176.675 292.463 177.253 292.01C177.831 291.545 178.545 291.313 179.395 291.313C179.758 291.313 180.12 291.358 180.483 291.449C180.846 291.54 181.146 291.63 181.384 291.721C181.622 291.812 181.775 291.874 181.843 291.908L181.537 293.047C181.48 293.013 181.35 292.945 181.146 292.843C180.942 292.741 180.693 292.645 180.398 292.554C180.115 292.463 179.854 292.418 179.616 292.418C179.265 292.418 178.993 292.503 178.8 292.673C178.607 292.843 178.511 293.07 178.511 293.353C178.511 293.693 178.636 293.971 178.885 294.186C179.146 294.39 179.537 294.611 180.058 294.849C180.523 295.076 180.897 295.285 181.18 295.478C181.463 295.659 181.707 295.909 181.911 296.226C182.115 296.543 182.217 296.94 182.217 297.416C182.217 298.243 181.939 298.912 181.384 299.422C180.84 299.932 180.052 300.187 179.021 300.187ZM187.181 300.187C185.923 300.187 184.943 299.841 184.24 299.15C183.549 298.447 183.203 297.365 183.203 295.903C183.203 294.43 183.543 293.302 184.223 292.52C184.903 291.727 185.821 291.33 186.977 291.33C188.031 291.33 188.847 291.664 189.425 292.333C190.014 292.99 190.309 293.937 190.309 295.172C190.309 295.455 190.286 295.693 190.241 295.886C190.207 296.079 190.184 296.198 190.173 296.243H185.6C185.611 297.263 185.759 297.988 186.042 298.419C186.337 298.838 186.807 299.048 187.453 299.048C187.838 299.048 188.178 298.969 188.473 298.81C188.768 298.64 189 298.459 189.17 298.266C189.34 298.062 189.425 297.949 189.425 297.926L190.19 298.521C190.19 298.566 190.071 298.731 189.833 299.014C189.606 299.297 189.266 299.564 188.813 299.813C188.371 300.062 187.827 300.187 187.181 300.187ZM188.201 295.138V294.747C188.201 293.886 188.11 293.285 187.929 292.945C187.748 292.594 187.43 292.418 186.977 292.418C186.66 292.418 186.405 292.497 186.212 292.656C186.031 292.815 185.889 293.092 185.787 293.489C185.685 293.874 185.623 294.424 185.6 295.138H188.201ZM190.915 300L193.533 295.886L191.051 291.5H193.754L195.165 294.509L196.763 291.5H198.31L195.947 295.359L198.65 300H195.947L194.349 296.821L192.496 300H190.915ZM150.752 318.14C149.8 318.14 149.067 317.827 148.554 317.202C148.041 316.577 147.784 315.676 147.784 314.5C147.784 314.127 147.798 313.786 147.826 313.478C147.919 311.901 148.232 310.725 148.764 309.95C149.296 309.166 150.001 308.774 150.878 308.774C151.167 308.774 151.443 308.811 151.704 308.886C151.975 308.951 152.189 309.021 152.348 309.096C152.516 309.171 152.623 309.222 152.67 309.25L152.53 309.866C152.493 309.838 152.399 309.791 152.25 309.726C152.101 309.651 151.909 309.581 151.676 309.516C151.443 309.451 151.205 309.418 150.962 309.418C149.599 309.418 148.876 310.655 148.792 313.128C149.352 312.549 150.029 312.26 150.822 312.26C151.671 312.26 152.339 312.517 152.824 313.03C153.319 313.543 153.566 314.229 153.566 315.088C153.566 315.657 153.459 316.175 153.244 316.642C153.039 317.099 152.721 317.463 152.292 317.734C151.872 318.005 151.359 318.14 150.752 318.14ZM150.752 317.524C151.359 317.524 151.802 317.3 152.082 316.852C152.362 316.395 152.502 315.802 152.502 315.074C152.502 314.402 152.353 313.861 152.054 313.45C151.755 313.039 151.303 312.834 150.696 312.834C150.257 312.834 149.893 312.941 149.604 313.156C149.315 313.361 149.081 313.595 148.904 313.856L148.918 313.87C148.899 313.973 148.881 314.113 148.862 314.29C148.853 314.467 148.848 314.645 148.848 314.822C148.848 316.623 149.483 317.524 150.752 317.524ZM160.076 318L157.682 311H158.886L160.706 316.894L162.638 311H163.408L161 318H160.076ZM165.138 309.586C164.97 309.586 164.835 309.535 164.732 309.432C164.611 309.311 164.55 309.161 164.55 308.984C164.55 308.807 164.611 308.657 164.732 308.536C164.835 308.433 164.97 308.382 165.138 308.382C165.315 308.382 165.455 308.429 165.558 308.522C165.67 308.643 165.726 308.797 165.726 308.984C165.726 309.152 165.67 309.301 165.558 309.432C165.427 309.535 165.287 309.586 165.138 309.586ZM164.62 318V311H165.642V318H164.62ZM170.02 318.14C169.17 318.14 168.489 317.837 167.976 317.23C167.462 316.623 167.206 315.779 167.206 314.696C167.206 313.529 167.453 312.601 167.948 311.91C168.452 311.21 169.156 310.86 170.062 310.86C170.444 310.86 170.766 310.911 171.028 311.014C171.289 311.107 171.49 311.215 171.63 311.336C171.77 311.448 171.84 311.513 171.84 311.532H171.854V307.528L172.862 307.472V318H171.994L171.882 317.174C171.779 317.379 171.578 317.594 171.28 317.818C170.981 318.033 170.561 318.14 170.02 318.14ZM170.244 317.454C170.58 317.454 170.869 317.384 171.112 317.244C171.354 317.095 171.536 316.936 171.658 316.768C171.788 316.6 171.854 316.502 171.854 316.474V312.176C171.854 312.157 171.788 312.092 171.658 311.98C171.536 311.868 171.364 311.765 171.14 311.672C170.925 311.579 170.668 311.532 170.37 311.532C169.651 311.532 169.124 311.798 168.788 312.33C168.452 312.853 168.284 313.632 168.284 314.668C168.284 315.648 168.447 316.357 168.774 316.796C169.11 317.235 169.6 317.454 170.244 317.454ZM177.42 318.14C176.487 318.14 175.754 317.851 175.222 317.272C174.69 316.684 174.424 315.807 174.424 314.64C174.424 313.464 174.681 312.54 175.194 311.868C175.708 311.196 176.408 310.86 177.294 310.86C178.097 310.86 178.713 311.14 179.142 311.7C179.581 312.251 179.8 313.035 179.8 314.052C179.8 314.229 179.791 314.374 179.772 314.486C179.754 314.598 179.74 314.668 179.73 314.696H175.488C175.488 316.581 176.17 317.524 177.532 317.524C177.906 317.524 178.223 317.459 178.484 317.328C178.755 317.188 178.965 317.043 179.114 316.894C179.264 316.735 179.338 316.642 179.338 316.614L179.744 316.95C179.744 316.987 179.656 317.109 179.478 317.314C179.301 317.51 179.04 317.697 178.694 317.874C178.349 318.051 177.924 318.14 177.42 318.14ZM178.848 314.108L178.862 313.842C178.862 312.255 178.34 311.462 177.294 311.462C176.744 311.462 176.319 311.681 176.02 312.12C175.722 312.549 175.549 313.212 175.502 314.108H178.848ZM183.75 318.14C182.779 318.14 182.037 317.823 181.524 317.188C181.02 316.553 180.768 315.657 180.768 314.5C180.768 313.343 181.02 312.447 181.524 311.812C182.037 311.177 182.779 310.86 183.75 310.86C184.721 310.86 185.458 311.177 185.962 311.812C186.475 312.447 186.732 313.343 186.732 314.5C186.732 315.648 186.471 316.544 185.948 317.188C185.435 317.823 184.702 318.14 183.75 318.14ZM183.75 317.524C184.403 317.524 184.884 317.277 185.192 316.782C185.5 316.278 185.654 315.517 185.654 314.5C185.654 313.492 185.5 312.736 185.192 312.232C184.884 311.728 184.403 311.476 183.75 311.476C183.097 311.476 182.616 311.728 182.308 312.232C182 312.727 181.846 313.483 181.846 314.5C181.846 315.517 182 316.278 182.308 316.782C182.616 317.277 183.097 317.524 183.75 317.524ZM190.05 318.14C189.555 318.14 189.135 318.065 188.79 317.916C188.454 317.757 188.197 317.589 188.02 317.412C187.852 317.235 187.768 317.132 187.768 317.104L188.118 316.614C188.118 316.633 188.192 316.721 188.342 316.88C188.491 317.039 188.696 317.188 188.958 317.328C189.219 317.459 189.527 317.524 189.882 317.524C190.404 317.524 190.796 317.393 191.058 317.132C191.328 316.871 191.464 316.553 191.464 316.18C191.464 315.909 191.394 315.685 191.254 315.508C191.123 315.331 190.955 315.195 190.75 315.102C190.554 314.999 190.278 314.887 189.924 314.766C189.513 314.617 189.186 314.481 188.944 314.36C188.701 314.229 188.491 314.038 188.314 313.786C188.146 313.534 188.062 313.207 188.062 312.806C188.062 312.209 188.276 311.737 188.706 311.392C189.144 311.037 189.704 310.86 190.386 310.86C190.684 310.86 190.969 310.902 191.24 310.986C191.52 311.061 191.744 311.145 191.912 311.238C192.08 311.322 192.187 311.378 192.234 311.406L192.066 312.008C192.028 311.98 191.935 311.924 191.786 311.84C191.636 311.747 191.44 311.658 191.198 311.574C190.964 311.49 190.722 311.448 190.47 311.448C190.04 311.448 189.69 311.555 189.42 311.77C189.158 311.985 189.028 312.255 189.028 312.582C189.028 312.853 189.098 313.081 189.238 313.268C189.378 313.445 189.55 313.585 189.756 313.688C189.97 313.791 190.255 313.907 190.61 314.038C191.02 314.178 191.352 314.318 191.604 314.458C191.865 314.589 192.084 314.78 192.262 315.032C192.439 315.284 192.528 315.611 192.528 316.012C192.528 316.619 192.318 317.127 191.898 317.538C191.478 317.939 190.862 318.14 190.05 318.14Z" fill="#222222"/>
<path d="M53.0004 125.578C53.0004 152.953 63.8753 179.207 83.2327 198.565C102.59 217.922 128.844 228.797 156.22 228.797C183.595 228.797 209.85 217.922 229.207 198.565C248.564 179.207 259.439 152.953 259.439 125.578C259.439 98.2022 248.564 71.948 229.207 52.5906C209.85 33.2332 183.595 22.3583 156.22 22.3583C128.844 22.3583 102.59 33.2332 83.2327 52.5906C63.8753 71.948 53.0004 98.2022 53.0004 125.578" fill="#FFB612" fill-opacity="0.6"/>
<path d="M53.0004 125.578C53.0004 152.953 63.8753 179.207 83.2327 198.565C102.59 217.922 128.844 228.797 156.22 228.797C183.595 228.797 209.85 217.922 229.207 198.565C248.564 179.207 259.439 152.953 259.439 125.578C259.439 98.2022 248.564 71.948 229.207 52.5906C209.85 33.2332 183.595 22.3583 156.22 22.3583C128.844 22.3583 102.59 33.2332 83.2327 52.5906C63.8753 71.948 53.0004 98.2022 53.0004 125.578" stroke="white" stroke-width="2"/>
<path d="M147.258 128.198C146.418 128.198 145.746 127.988 145.242 127.568C144.738 127.148 144.486 126.572 144.486 125.84C144.486 124.784 144.978 124.022 145.962 123.554C146.958 123.074 148.116 122.78 149.436 122.672V122.15C149.436 121.334 149.322 120.776 149.094 120.476C148.866 120.164 148.482 120.008 147.942 120.008C147.69 120.008 147.402 120.056 147.078 120.152C146.766 120.248 146.49 120.35 146.25 120.458C146.022 120.566 145.872 120.638 145.8 120.674L145.566 119.522C145.638 119.486 145.806 119.414 146.07 119.306C146.346 119.186 146.688 119.072 147.096 118.964C147.516 118.856 147.936 118.802 148.356 118.802C149.484 118.802 150.342 119.042 150.93 119.522C151.53 119.99 151.83 120.8 151.83 121.952V126.038C151.83 126.674 151.956 126.992 152.208 126.992C152.304 126.992 152.418 126.974 152.55 126.938C152.682 126.902 152.772 126.878 152.82 126.866L152.892 127.802C152.832 127.826 152.688 127.868 152.46 127.928C152.232 127.988 151.968 128.048 151.668 128.108C151.38 128.168 151.122 128.198 150.894 128.198C150.546 128.198 150.276 128.114 150.084 127.946C149.892 127.766 149.766 127.478 149.706 127.082H149.616C149.616 127.118 149.532 127.232 149.364 127.424C149.208 127.604 148.956 127.778 148.608 127.946C148.26 128.114 147.81 128.198 147.258 128.198ZM148.05 126.992C148.338 126.992 148.584 126.92 148.788 126.776C149.004 126.632 149.166 126.476 149.274 126.308C149.382 126.128 149.436 126.026 149.436 126.002V123.626C148.632 123.71 148.02 123.902 147.6 124.202C147.192 124.49 146.988 124.934 146.988 125.534C146.988 126.014 147.084 126.38 147.276 126.632C147.468 126.872 147.726 126.992 148.05 126.992ZM154.309 119H156.235L156.541 119.738H156.613C156.613 119.714 156.709 119.624 156.901 119.468C157.105 119.312 157.393 119.168 157.765 119.036C158.137 118.892 158.599 118.82 159.151 118.82C160.075 118.82 160.765 119.072 161.221 119.576C161.689 120.068 161.923 120.842 161.923 121.898V128H159.529V122.384C159.529 121.58 159.439 121.034 159.259 120.746C159.091 120.458 158.779 120.314 158.323 120.314C158.011 120.314 157.735 120.362 157.495 120.458C157.255 120.554 157.063 120.662 156.919 120.782C156.775 120.89 156.703 120.95 156.703 120.962V128H154.309V119ZM165.2 117.65C164.84 117.65 164.522 117.53 164.246 117.29C163.97 117.014 163.832 116.672 163.832 116.264C163.832 115.868 163.97 115.532 164.246 115.256C164.498 115.016 164.816 114.896 165.2 114.896C165.572 114.896 165.878 115.01 166.118 115.238C166.382 115.514 166.514 115.856 166.514 116.264C166.514 116.684 166.382 117.032 166.118 117.308C165.854 117.536 165.548 117.65 165.2 117.65ZM163.994 128V119H166.388V128H163.994ZM168.547 119H170.473L170.779 119.81H170.833C170.833 119.786 170.941 119.69 171.157 119.522C171.373 119.342 171.655 119.18 172.003 119.036C172.363 118.892 172.765 118.82 173.209 118.82C173.701 118.82 174.109 118.898 174.433 119.054C174.757 119.21 175.009 119.45 175.189 119.774C175.393 119.606 175.567 119.474 175.711 119.378C175.867 119.27 176.125 119.15 176.485 119.018C176.857 118.886 177.277 118.82 177.745 118.82C178.597 118.82 179.209 119.048 179.581 119.504C179.953 119.948 180.139 120.686 180.139 121.718V128H177.745V121.898C177.745 121.25 177.667 120.824 177.511 120.62C177.367 120.404 177.127 120.296 176.791 120.296C176.491 120.296 176.233 120.374 176.017 120.53C175.801 120.674 175.633 120.824 175.513 120.98C175.537 121.268 175.549 121.502 175.549 121.682V128H173.155V121.898C173.155 121.262 173.077 120.836 172.921 120.62C172.777 120.404 172.543 120.296 172.219 120.296C171.907 120.296 171.637 120.374 171.409 120.53C171.181 120.686 171.025 120.824 170.941 120.944V128H168.547V119ZM184.401 128.198C183.561 128.198 182.889 127.988 182.385 127.568C181.881 127.148 181.629 126.572 181.629 125.84C181.629 124.784 182.121 124.022 183.105 123.554C184.101 123.074 185.259 122.78 186.579 122.672V122.15C186.579 121.334 186.465 120.776 186.237 120.476C186.009 120.164 185.625 120.008 185.085 120.008C184.833 120.008 184.545 120.056 184.221 120.152C183.909 120.248 183.633 120.35 183.393 120.458C183.165 120.566 183.015 120.638 182.943 120.674L182.709 119.522C182.781 119.486 182.949 119.414 183.213 119.306C183.489 119.186 183.831 119.072 184.239 118.964C184.659 118.856 185.079 118.802 185.499 118.802C186.627 118.802 187.485 119.042 188.073 119.522C188.673 119.99 188.973 120.8 188.973 121.952V126.038C188.973 126.674 189.099 126.992 189.351 126.992C189.447 126.992 189.561 126.974 189.693 126.938C189.825 126.902 189.915 126.878 189.963 126.866L190.035 127.802C189.975 127.826 189.831 127.868 189.603 127.928C189.375 127.988 189.111 128.048 188.811 128.108C188.523 128.168 188.265 128.198 188.037 128.198C187.689 128.198 187.419 128.114 187.227 127.946C187.035 127.766 186.909 127.478 186.849 127.082H186.759C186.759 127.118 186.675 127.232 186.507 127.424C186.351 127.604 186.099 127.778 185.751 127.946C185.403 128.114 184.953 128.198 184.401 128.198ZM185.193 126.992C185.481 126.992 185.727 126.92 185.931 126.776C186.147 126.632 186.309 126.476 186.417 126.308C186.525 126.128 186.579 126.026 186.579 126.002V123.626C185.775 123.71 185.163 123.902 184.743 124.202C184.335 124.49 184.131 124.934 184.131 125.534C184.131 126.014 184.227 126.38 184.419 126.632C184.611 126.872 184.869 126.992 185.193 126.992ZM191.451 128V114.572L193.845 114.428V128H191.451ZM198.541 128.198C197.845 128.198 197.263 128.102 196.795 127.91C196.327 127.706 195.973 127.49 195.733 127.262C195.493 127.034 195.373 126.896 195.373 126.848L196.039 125.912C196.039 125.936 196.135 126.044 196.327 126.236C196.519 126.428 196.759 126.608 197.047 126.776C197.347 126.932 197.677 127.01 198.037 127.01C198.481 127.01 198.823 126.896 199.063 126.668C199.303 126.44 199.423 126.14 199.423 125.768C199.423 125.408 199.297 125.126 199.045 124.922C198.793 124.706 198.415 124.484 197.911 124.256C197.443 124.028 197.065 123.824 196.777 123.644C196.501 123.452 196.261 123.194 196.057 122.87C195.853 122.534 195.751 122.108 195.751 121.592C195.751 120.704 196.057 120.02 196.669 119.54C197.281 119.048 198.037 118.802 198.937 118.802C199.321 118.802 199.705 118.85 200.089 118.946C200.473 119.042 200.791 119.138 201.043 119.234C201.295 119.33 201.457 119.396 201.529 119.432L201.205 120.638C201.145 120.602 201.007 120.53 200.791 120.422C200.575 120.314 200.311 120.212 199.999 120.116C199.699 120.02 199.423 119.972 199.171 119.972C198.799 119.972 198.511 120.062 198.307 120.242C198.103 120.422 198.001 120.662 198.001 120.962C198.001 121.322 198.133 121.616 198.397 121.844C198.673 122.06 199.087 122.294 199.639 122.546C200.131 122.786 200.527 123.008 200.827 123.212C201.127 123.404 201.385 123.668 201.601 124.004C201.817 124.34 201.925 124.76 201.925 125.264C201.925 126.14 201.631 126.848 201.043 127.388C200.467 127.928 199.633 128.198 198.541 128.198ZM146.618 144V135.712L144.938 136.65L144.7 136.104L146.786 134.9H147.626V144H146.618ZM153.102 144.14C152.057 144.14 151.268 143.734 150.736 142.922C150.213 142.101 149.952 140.948 149.952 139.464C149.952 137.98 150.213 136.827 150.736 136.006C151.268 135.185 152.057 134.774 153.102 134.774C154.147 134.774 154.931 135.185 155.454 136.006C155.986 136.827 156.252 137.98 156.252 139.464C156.252 140.948 155.986 142.101 155.454 142.922C154.931 143.734 154.147 144.14 153.102 144.14ZM153.102 143.496C153.793 143.496 154.301 143.174 154.628 142.53C154.964 141.877 155.132 140.855 155.132 139.464C155.132 138.073 154.964 137.051 154.628 136.398C154.292 135.745 153.783 135.418 153.102 135.418C152.411 135.418 151.898 135.745 151.562 136.398C151.235 137.051 151.072 138.073 151.072 139.464C151.072 140.864 151.235 141.886 151.562 142.53C151.898 143.174 152.411 143.496 153.102 143.496ZM162.873 144L160.479 137H161.683L163.503 142.894L165.435 137H166.205L163.797 144H162.873ZM167.935 135.586C167.767 135.586 167.632 135.535 167.529 135.432C167.408 135.311 167.347 135.161 167.347 134.984C167.347 134.807 167.408 134.657 167.529 134.536C167.632 134.433 167.767 134.382 167.935 134.382C168.112 134.382 168.252 134.429 168.355 134.522C168.467 134.643 168.523 134.797 168.523 134.984C168.523 135.152 168.467 135.301 168.355 135.432C168.224 135.535 168.084 135.586 167.935 135.586ZM167.417 144V137H168.439V144H167.417ZM172.816 144.14C171.967 144.14 171.286 143.837 170.772 143.23C170.259 142.623 170.002 141.779 170.002 140.696C170.002 139.529 170.25 138.601 170.744 137.91C171.248 137.21 171.953 136.86 172.858 136.86C173.241 136.86 173.563 136.911 173.824 137.014C174.086 137.107 174.286 137.215 174.426 137.336C174.566 137.448 174.636 137.513 174.636 137.532H174.65V133.528L175.658 133.472V144H174.79L174.678 143.174C174.576 143.379 174.375 143.594 174.076 143.818C173.778 144.033 173.358 144.14 172.816 144.14ZM173.04 143.454C173.376 143.454 173.666 143.384 173.908 143.244C174.151 143.095 174.333 142.936 174.454 142.768C174.585 142.6 174.65 142.502 174.65 142.474V138.176C174.65 138.157 174.585 138.092 174.454 137.98C174.333 137.868 174.16 137.765 173.936 137.672C173.722 137.579 173.465 137.532 173.166 137.532C172.448 137.532 171.92 137.798 171.584 138.33C171.248 138.853 171.08 139.632 171.08 140.668C171.08 141.648 171.244 142.357 171.57 142.796C171.906 143.235 172.396 143.454 173.04 143.454ZM180.217 144.14C179.284 144.14 178.551 143.851 178.019 143.272C177.487 142.684 177.221 141.807 177.221 140.64C177.221 139.464 177.478 138.54 177.991 137.868C178.504 137.196 179.204 136.86 180.091 136.86C180.894 136.86 181.51 137.14 181.939 137.7C182.378 138.251 182.597 139.035 182.597 140.052C182.597 140.229 182.588 140.374 182.569 140.486C182.55 140.598 182.536 140.668 182.527 140.696H178.285C178.285 142.581 178.966 143.524 180.329 143.524C180.702 143.524 181.02 143.459 181.281 143.328C181.552 143.188 181.762 143.043 181.911 142.894C182.06 142.735 182.135 142.642 182.135 142.614L182.541 142.95C182.541 142.987 182.452 143.109 182.275 143.314C182.098 143.51 181.836 143.697 181.491 143.874C181.146 144.051 180.721 144.14 180.217 144.14ZM181.645 140.108L181.659 139.842C181.659 138.255 181.136 137.462 180.091 137.462C179.54 137.462 179.116 137.681 178.817 138.12C178.518 138.549 178.346 139.212 178.299 140.108H181.645ZM186.547 144.14C185.576 144.14 184.834 143.823 184.321 143.188C183.817 142.553 183.565 141.657 183.565 140.5C183.565 139.343 183.817 138.447 184.321 137.812C184.834 137.177 185.576 136.86 186.547 136.86C187.518 136.86 188.255 137.177 188.759 137.812C189.272 138.447 189.529 139.343 189.529 140.5C189.529 141.648 189.268 142.544 188.745 143.188C188.232 143.823 187.499 144.14 186.547 144.14ZM186.547 143.524C187.2 143.524 187.681 143.277 187.989 142.782C188.297 142.278 188.451 141.517 188.451 140.5C188.451 139.492 188.297 138.736 187.989 138.232C187.681 137.728 187.2 137.476 186.547 137.476C185.894 137.476 185.413 137.728 185.105 138.232C184.797 138.727 184.643 139.483 184.643 140.5C184.643 141.517 184.797 142.278 185.105 142.782C185.413 143.277 185.894 143.524 186.547 143.524ZM192.847 144.14C192.352 144.14 191.932 144.065 191.587 143.916C191.251 143.757 190.994 143.589 190.817 143.412C190.649 143.235 190.565 143.132 190.565 143.104L190.915 142.614C190.915 142.633 190.989 142.721 191.139 142.88C191.288 143.039 191.493 143.188 191.755 143.328C192.016 143.459 192.324 143.524 192.679 143.524C193.201 143.524 193.593 143.393 193.855 143.132C194.125 142.871 194.261 142.553 194.261 142.18C194.261 141.909 194.191 141.685 194.051 141.508C193.92 141.331 193.752 141.195 193.547 141.102C193.351 140.999 193.075 140.887 192.721 140.766C192.31 140.617 191.983 140.481 191.741 140.36C191.498 140.229 191.288 140.038 191.111 139.786C190.943 139.534 190.859 139.207 190.859 138.806C190.859 138.209 191.073 137.737 191.503 137.392C191.941 137.037 192.501 136.86 193.183 136.86C193.481 136.86 193.766 136.902 194.037 136.986C194.317 137.061 194.541 137.145 194.709 137.238C194.877 137.322 194.984 137.378 195.031 137.406L194.863 138.008C194.825 137.98 194.732 137.924 194.583 137.84C194.433 137.747 194.237 137.658 193.995 137.574C193.761 137.49 193.519 137.448 193.267 137.448C192.837 137.448 192.487 137.555 192.217 137.77C191.955 137.985 191.825 138.255 191.825 138.582C191.825 138.853 191.895 139.081 192.035 139.268C192.175 139.445 192.347 139.585 192.553 139.688C192.767 139.791 193.052 139.907 193.407 140.038C193.817 140.178 194.149 140.318 194.401 140.458C194.662 140.589 194.881 140.78 195.059 141.032C195.236 141.284 195.325 141.611 195.325 142.012C195.325 142.619 195.115 143.127 194.695 143.538C194.275 143.939 193.659 144.14 192.847 144.14Z" fill="#222222"/>
<path d="M54.3026 109.715C54.3026 118.371 57.7415 126.674 63.8629 132.795C69.9842 138.916 78.2865 142.355 86.9434 142.355C95.6003 142.355 103.903 138.916 110.024 132.795C116.145 126.674 119.584 118.371 119.584 109.715C119.584 101.058 116.145 92.7553 110.024 86.634C103.903 80.5126 95.6003 77.0737 86.9434 77.0737C78.2865 77.0737 69.9842 80.5126 63.8629 86.634C57.7415 92.7553 54.3026 101.058 54.3026 109.715" fill="#198143" fill-opacity="0.6"/>
<path d="M54.3026 109.715C54.3026 118.371 57.7415 126.674 63.8629 132.795C69.9842 138.916 78.2865 142.355 86.9434 142.355C95.6003 142.355 103.903 138.916 110.024 132.795C116.145 126.674 119.584 118.371 119.584 109.715C119.584 101.058 116.145 92.7553 110.024 86.634C103.903 80.5126 95.6003 77.0737 86.9434 77.0737C78.2865 77.0737 69.9842 80.5126 63.8629 86.634C57.7415 92.7553 54.3026 101.058 54.3026 109.715" stroke="white" stroke-width="2"/>
<path d="M34.96 86H36.672L36.96 86.72H37.008C37.008 86.6987 37.0987 86.6133 37.28 86.464C37.4613 86.304 37.712 86.16 38.032 86.032C38.352 85.8933 38.736 85.824 39.184 85.824C40.1333 85.824 40.88 86.1867 41.424 86.912C41.968 87.6373 42.24 88.6133 42.24 89.84C42.24 90.704 42.112 91.4667 41.856 92.128C41.6 92.7787 41.232 93.2853 40.752 93.648C40.2827 94 39.7227 94.176 39.072 94.176C38.656 94.176 38.304 94.128 38.016 94.032C37.728 93.9467 37.5093 93.856 37.36 93.76C37.2107 93.6533 37.136 93.5893 37.136 93.568H37.088V98L34.96 98.064V86ZM38.272 92.96C38.6773 92.96 38.9973 92.864 39.232 92.672C39.4773 92.48 39.6587 92.1653 39.776 91.728C39.8933 91.28 39.952 90.6667 39.952 89.888C39.952 89.152 39.8933 88.5813 39.776 88.176C39.6693 87.76 39.504 87.472 39.28 87.312C39.0667 87.152 38.784 87.072 38.432 87.072C38.176 87.072 37.9467 87.12 37.744 87.216C37.552 87.312 37.3973 87.4133 37.28 87.52C37.1733 87.6267 37.1093 87.7067 37.088 87.76V92.432C37.1093 92.464 37.1627 92.5227 37.248 92.608C37.3333 92.6827 37.4613 92.7627 37.632 92.848C37.8133 92.9227 38.0267 92.96 38.272 92.96ZM45.6148 94.176C44.8681 94.176 44.2708 93.9893 43.8228 93.616C43.3748 93.2427 43.1508 92.7307 43.1508 92.08C43.1508 91.1413 43.5881 90.464 44.4628 90.048C45.3481 89.6213 46.3774 89.36 47.5508 89.264V88.8C47.5508 88.0747 47.4494 87.5787 47.2468 87.312C47.0441 87.0347 46.7028 86.896 46.2228 86.896C45.9988 86.896 45.7428 86.9387 45.4548 87.024C45.1774 87.1093 44.9321 87.2 44.7188 87.296C44.5161 87.392 44.3828 87.456 44.3188 87.488L44.1108 86.464C44.1748 86.432 44.3241 86.368 44.5588 86.272C44.8041 86.1653 45.1081 86.064 45.4708 85.968C45.8441 85.872 46.2174 85.824 46.5908 85.824C47.5934 85.824 48.3561 86.0373 48.8788 86.464C49.4121 86.88 49.6788 87.6 49.6788 88.624V92.256C49.6788 92.8213 49.7908 93.104 50.0148 93.104C50.1001 93.104 50.2014 93.088 50.3188 93.056C50.4361 93.024 50.5161 93.0027 50.5588 92.992L50.6228 93.824C50.5694 93.8453 50.4414 93.8827 50.2388 93.936C50.0361 93.9893 49.8014 94.0427 49.5348 94.096C49.2788 94.1493 49.0494 94.176 48.8468 94.176C48.5374 94.176 48.2974 94.1013 48.1268 93.952C47.9561 93.792 47.8441 93.536 47.7908 93.184H47.7108C47.7108 93.216 47.6361 93.3173 47.4868 93.488C47.3481 93.648 47.1241 93.8027 46.8148 93.952C46.5054 94.1013 46.1054 94.176 45.6148 94.176ZM46.3188 93.104C46.5748 93.104 46.7934 93.04 46.9748 92.912C47.1668 92.784 47.3108 92.6453 47.4068 92.496C47.5028 92.336 47.5508 92.2453 47.5508 92.224V90.112C46.8361 90.1867 46.2921 90.3573 45.9188 90.624C45.5561 90.88 45.3748 91.2747 45.3748 91.808C45.3748 92.2347 45.4601 92.56 45.6308 92.784C45.8014 92.9973 46.0308 93.104 46.3188 93.104ZM54.3939 94.176C53.6365 94.176 53.0765 93.9893 52.7139 93.616C52.3512 93.2427 52.1699 92.6133 52.1699 91.728V87.232H51.4019V86.272L52.1859 86.048L53.2099 83.344H54.2979V86H56.0579V87.232H54.2979V91.184C54.2979 91.6853 54.3192 92.0693 54.3619 92.336C54.4152 92.592 54.4952 92.7733 54.6019 92.88C54.7085 92.976 54.8579 93.024 55.0499 93.024C55.2632 93.024 55.4552 93.0027 55.6259 92.96C55.7965 92.9173 55.8819 92.8907 55.8819 92.88L56.0099 93.792C56.0099 93.8027 55.9512 93.84 55.8339 93.904C55.7165 93.968 55.5352 94.0267 55.2899 94.08C55.0552 94.144 54.7565 94.176 54.3939 94.176ZM57.5225 86H59.0265L59.3785 87.344H59.4425C59.4425 87.28 59.4852 87.1253 59.5705 86.88C59.6558 86.624 59.8105 86.384 60.0345 86.16C60.2692 85.936 60.5785 85.824 60.9625 85.824C61.1758 85.824 61.4158 85.856 61.6825 85.92C61.9598 85.984 62.1412 86.0267 62.2265 86.048L62.0345 87.536C61.9492 87.5147 61.7572 87.472 61.4585 87.408C61.1705 87.344 60.9198 87.312 60.7065 87.312C60.4612 87.312 60.2585 87.3867 60.0985 87.536C59.9492 87.6747 59.8372 87.824 59.7625 87.984C59.6878 88.144 59.6505 88.24 59.6505 88.272V94H57.5225V86ZM64.282 84.8C63.962 84.8 63.6793 84.6933 63.434 84.48C63.1887 84.2347 63.066 83.9307 63.066 83.568C63.066 83.216 63.1887 82.9173 63.434 82.672C63.658 82.4587 63.9407 82.352 64.282 82.352C64.6127 82.352 64.8847 82.4533 65.098 82.656C65.3327 82.9013 65.45 83.2053 65.45 83.568C65.45 83.9413 65.3327 84.2507 65.098 84.496C64.8633 84.6987 64.5913 84.8 64.282 84.8ZM63.21 94V86H65.338V94H63.21ZM70.4889 94.176C69.2942 94.176 68.3715 93.8133 67.7209 93.088C67.0809 92.3627 66.7609 91.3333 66.7609 90C66.7609 88.6667 67.0809 87.6373 67.7209 86.912C68.3715 86.1867 69.2942 85.824 70.4889 85.824C71.6942 85.824 72.6169 86.1867 73.2569 86.912C73.9075 87.6373 74.2329 88.6667 74.2329 90C74.2329 91.3227 73.8969 92.352 73.2249 93.088C72.5635 93.8133 71.6515 94.176 70.4889 94.176ZM70.4889 93.12C70.8409 93.12 71.1182 93.0187 71.3209 92.816C71.5342 92.6133 71.6889 92.288 71.7849 91.84C71.8809 91.392 71.9289 90.7787 71.9289 90C71.9289 89.2213 71.8809 88.608 71.7849 88.16C71.6889 87.712 71.5395 87.392 71.3369 87.2C71.1342 86.9973 70.8515 86.896 70.4889 86.896C70.1262 86.896 69.8435 86.9973 69.6409 87.2C69.4382 87.392 69.2889 87.712 69.1929 88.16C69.0969 88.608 69.0489 89.216 69.0489 89.984C69.0489 90.7627 69.0969 91.3813 69.1929 91.84C69.2889 92.288 69.4382 92.6133 69.6409 92.816C69.8542 93.0187 70.1369 93.12 70.4889 93.12ZM78.1751 94.176C77.4178 94.176 76.8578 93.9893 76.4951 93.616C76.1325 93.2427 75.9511 92.6133 75.9511 91.728V87.232H75.1831V86.272L75.9671 86.048L76.9911 83.344H78.0791V86H79.8391V87.232H78.0791V91.184C78.0791 91.6853 78.1005 92.0693 78.1431 92.336C78.1965 92.592 78.2765 92.7733 78.3831 92.88C78.4898 92.976 78.6391 93.024 78.8311 93.024C79.0445 93.024 79.2365 93.0027 79.4071 92.96C79.5778 92.9173 79.6631 92.8907 79.6631 92.88L79.7911 93.792C79.7911 93.8027 79.7325 93.84 79.6151 93.904C79.4978 93.968 79.3165 94.0267 79.0711 94.08C78.8365 94.144 78.5378 94.176 78.1751 94.176ZM82.3758 84.8C82.0558 84.8 81.7731 84.6933 81.5278 84.48C81.2824 84.2347 81.1598 83.9307 81.1598 83.568C81.1598 83.216 81.2824 82.9173 81.5278 82.672C81.7518 82.4587 82.0344 82.352 82.3758 82.352C82.7064 82.352 82.9784 82.4533 83.1918 82.656C83.4264 82.9013 83.5438 83.2053 83.5438 83.568C83.5438 83.9413 83.4264 84.2507 83.1918 84.496C82.9571 84.6987 82.6851 84.8 82.3758 84.8ZM81.3038 94V86H83.4318V94H81.3038ZM88.6626 94.176C87.436 94.176 86.492 93.824 85.8306 93.12C85.18 92.416 84.8546 91.392 84.8546 90.048C84.8546 88.7467 85.196 87.7173 85.8786 86.96C86.5613 86.2027 87.5053 85.824 88.7106 85.824C89.0413 85.824 89.3773 85.872 89.7186 85.968C90.0706 86.0533 90.364 86.1493 90.5986 86.256C90.8333 86.352 90.9826 86.416 91.0466 86.448L90.8386 87.472C90.7853 87.44 90.652 87.3813 90.4386 87.296C90.2253 87.2 89.98 87.1093 89.7026 87.024C89.4253 86.9387 89.1746 86.896 88.9506 86.896C88.5453 86.896 88.2146 86.9813 87.9586 87.152C87.7026 87.3227 87.5053 87.6373 87.3666 88.096C87.228 88.544 87.1586 89.184 87.1586 90.016C87.1586 91.2 87.308 92.0107 87.6066 92.448C87.9053 92.8853 88.332 93.104 88.8866 93.104C89.26 93.104 89.58 93.024 89.8466 92.864C90.124 92.6933 90.3373 92.5173 90.4866 92.336C90.636 92.144 90.7106 92.032 90.7106 92L91.4626 92.48C91.4626 92.544 91.3666 92.72 91.1746 93.008C90.9826 93.2853 90.6786 93.552 90.2626 93.808C89.8466 94.0533 89.3133 94.176 88.6626 94.176ZM36.431 110V102.304L34.871 103.175L34.65 102.668L36.587 101.55H37.367V110H36.431ZM44.225 110L42.002 103.5H43.12L44.81 108.973L46.604 103.5H47.319L45.083 110H44.225ZM48.9254 102.187C48.7694 102.187 48.6438 102.139 48.5484 102.044C48.4358 101.931 48.3794 101.793 48.3794 101.628C48.3794 101.463 48.4358 101.325 48.5484 101.212C48.6438 101.117 48.7694 101.069 48.9254 101.069C49.0901 101.069 49.2201 101.112 49.3154 101.199C49.4194 101.312 49.4714 101.455 49.4714 101.628C49.4714 101.784 49.4194 101.923 49.3154 102.044C49.1941 102.139 49.0641 102.187 48.9254 102.187ZM48.4444 110V103.5H49.3934V110H48.4444ZM53.4583 110.13C52.6696 110.13 52.0369 109.848 51.5603 109.285C51.0836 108.722 50.8453 107.937 50.8453 106.932C50.8453 105.849 51.0749 104.986 51.5343 104.345C52.0023 103.695 52.6566 103.37 53.4973 103.37C53.8526 103.37 54.1516 103.418 54.3943 103.513C54.6369 103.6 54.8233 103.699 54.9533 103.812C55.0833 103.916 55.1483 103.977 55.1483 103.994H55.1613V100.276L56.0973 100.224V110H55.2913L55.1873 109.233C55.0919 109.424 54.9056 109.623 54.6283 109.831C54.3509 110.03 53.9609 110.13 53.4583 110.13ZM53.6663 109.493C53.9783 109.493 54.2469 109.428 54.4723 109.298C54.6976 109.159 54.8666 109.012 54.9793 108.856C55.1006 108.7 55.1613 108.609 55.1613 108.583V104.592C55.1613 104.575 55.1006 104.514 54.9793 104.41C54.8666 104.306 54.7063 104.211 54.4983 104.124C54.2989 104.037 54.0606 103.994 53.7833 103.994C53.1159 103.994 52.6263 104.241 52.3143 104.735C52.0023 105.22 51.8463 105.944 51.8463 106.906C51.8463 107.816 51.9979 108.475 52.3013 108.882C52.6133 109.289 53.0683 109.493 53.6663 109.493ZM60.3304 110.13C59.4637 110.13 58.7834 109.861 58.2894 109.324C57.7954 108.778 57.5484 107.963 57.5484 106.88C57.5484 105.788 57.7867 104.93 58.2634 104.306C58.74 103.682 59.39 103.37 60.2134 103.37C60.9587 103.37 61.5307 103.63 61.9294 104.15C62.3367 104.661 62.5404 105.389 62.5404 106.334C62.5404 106.499 62.5317 106.633 62.5144 106.737C62.497 106.841 62.484 106.906 62.4754 106.932H58.5364C58.5364 108.683 59.169 109.558 60.4344 109.558C60.781 109.558 61.0757 109.497 61.3184 109.376C61.5697 109.246 61.7647 109.112 61.9034 108.973C62.042 108.826 62.1114 108.739 62.1114 108.713L62.4884 109.025C62.4884 109.06 62.406 109.172 62.2414 109.363C62.0767 109.545 61.834 109.718 61.5134 109.883C61.1927 110.048 60.7984 110.13 60.3304 110.13ZM61.6564 106.386L61.6694 106.139C61.6694 104.666 61.184 103.929 60.2134 103.929C59.702 103.929 59.3077 104.133 59.0304 104.54C58.753 104.939 58.5927 105.554 58.5494 106.386H61.6564ZM66.208 110.13C65.3067 110.13 64.6177 109.835 64.141 109.246C63.673 108.657 63.439 107.825 63.439 106.75C63.439 105.675 63.673 104.843 64.141 104.254C64.6177 103.665 65.3067 103.37 66.208 103.37C67.1093 103.37 67.794 103.665 68.262 104.254C68.7387 104.843 68.977 105.675 68.977 106.75C68.977 107.816 68.7343 108.648 68.249 109.246C67.7723 109.835 67.092 110.13 66.208 110.13ZM66.208 109.558C66.8147 109.558 67.261 109.328 67.547 108.869C67.833 108.401 67.976 107.695 67.976 106.75C67.976 105.814 67.833 105.112 67.547 104.644C67.261 104.176 66.8147 103.942 66.208 103.942C65.6013 103.942 65.155 104.176 64.869 104.644C64.583 105.103 64.44 105.805 64.44 106.75C64.44 107.695 64.583 108.401 64.869 108.869C65.155 109.328 65.6013 109.558 66.208 109.558Z" fill="#222222"/>
<path d="M21.1609 223.866C21.1609 241.18 28.0388 257.785 40.2815 270.027C52.5242 282.27 69.1288 289.148 86.4426 289.148C103.756 289.148 120.361 282.27 132.604 270.027C144.846 257.785 151.724 241.18 151.724 223.866C151.724 206.552 144.846 189.948 132.604 177.705C120.361 165.462 103.756 158.584 86.4426 158.584C69.1288 158.584 52.5242 165.462 40.2815 177.705C28.0388 189.948 21.1609 206.552 21.1609 223.866" fill="#D3BC8D" fill-opacity="0.6"/>
<path d="M21.1609 223.866C21.1609 241.18 28.0388 257.785 40.2815 270.027C52.5242 282.27 69.1288 289.148 86.4426 289.148C103.756 289.148 120.361 282.27 132.604 270.027C144.846 257.785 151.724 241.18 151.724 223.866C151.724 206.552 144.846 189.948 132.604 177.705C120.361 165.462 103.756 158.584 86.4426 158.584C69.1288 158.584 52.5242 165.462 40.2815 177.705C28.0388 189.948 21.1609 206.552 21.1609 223.866" stroke="white" stroke-width="2"/>
<path d="M38.539 229.187C37.2357 229.187 36.2327 228.813 35.53 228.065C34.8387 227.317 34.493 226.229 34.493 224.801C34.493 223.418 34.8557 222.325 35.581 221.52C36.3063 220.715 37.3093 220.313 38.59 220.313C38.9413 220.313 39.2983 220.364 39.661 220.466C40.035 220.557 40.3467 220.659 40.596 220.772C40.8453 220.874 41.004 220.942 41.072 220.976L40.851 222.064C40.7943 222.03 40.6527 221.968 40.426 221.877C40.1993 221.775 39.9387 221.679 39.644 221.588C39.3493 221.497 39.083 221.452 38.845 221.452C38.4143 221.452 38.063 221.543 37.791 221.724C37.519 221.905 37.3093 222.24 37.162 222.727C37.0147 223.203 36.941 223.883 36.941 224.767C36.941 226.025 37.0997 226.886 37.417 227.351C37.7343 227.816 38.1877 228.048 38.777 228.048C39.1737 228.048 39.5137 227.963 39.797 227.793C40.0917 227.612 40.3183 227.425 40.477 227.232C40.6357 227.028 40.715 226.909 40.715 226.875L41.514 227.385C41.514 227.453 41.412 227.64 41.208 227.946C41.004 228.241 40.681 228.524 40.239 228.796C39.797 229.057 39.2303 229.187 38.539 229.187ZM46.0579 229.187C44.7999 229.187 43.8196 228.841 43.1169 228.15C42.4256 227.447 42.0799 226.365 42.0799 224.903C42.0799 223.43 42.4199 222.302 43.0999 221.52C43.7799 220.727 44.6979 220.33 45.8539 220.33C46.9079 220.33 47.7239 220.664 48.3019 221.333C48.8912 221.99 49.1859 222.937 49.1859 224.172C49.1859 224.455 49.1632 224.693 49.1179 224.886C49.0839 225.079 49.0612 225.198 49.0499 225.243H44.4769C44.4882 226.263 44.6356 226.988 44.9189 227.419C45.2136 227.838 45.6839 228.048 46.3299 228.048C46.7152 228.048 47.0552 227.969 47.3499 227.81C47.6446 227.64 47.8769 227.459 48.0469 227.266C48.2169 227.062 48.3019 226.949 48.3019 226.926L49.0669 227.521C49.0669 227.566 48.9479 227.731 48.7099 228.014C48.4832 228.297 48.1432 228.564 47.6899 228.813C47.2479 229.062 46.7039 229.187 46.0579 229.187ZM47.0779 224.138V223.747C47.0779 222.886 46.9872 222.285 46.8059 221.945C46.6246 221.594 46.3072 221.418 45.8539 221.418C45.5366 221.418 45.2816 221.497 45.0889 221.656C44.9076 221.815 44.7659 222.092 44.6639 222.489C44.5619 222.874 44.4996 223.424 44.4769 224.138H47.0779ZM50.6587 229V216.318L52.9197 216.182V229H50.6587ZM58.4261 229.187C57.1681 229.187 56.1877 228.841 55.4851 228.15C54.7937 227.447 54.4481 226.365 54.4481 224.903C54.4481 223.43 54.7881 222.302 55.4681 221.52C56.1481 220.727 57.0661 220.33 58.2221 220.33C59.2761 220.33 60.0921 220.664 60.6701 221.333C61.2594 221.99 61.5541 222.937 61.5541 224.172C61.5541 224.455 61.5314 224.693 61.4861 224.886C61.4521 225.079 61.4294 225.198 61.4181 225.243H56.8451C56.8564 226.263 57.0037 226.988 57.2871 227.419C57.5817 227.838 58.0521 228.048 58.6981 228.048C59.0834 228.048 59.4234 227.969 59.7181 227.81C60.0127 227.64 60.2451 227.459 60.4151 227.266C60.5851 227.062 60.6701 226.949 60.6701 226.926L61.4351 227.521C61.4351 227.566 61.3161 227.731 61.0781 228.014C60.8514 228.297 60.5114 228.564 60.0581 228.813C59.6161 229.062 59.0721 229.187 58.4261 229.187ZM59.4461 224.138V223.747C59.4461 222.886 59.3554 222.285 59.1741 221.945C58.9927 221.594 58.6754 221.418 58.2221 221.418C57.9047 221.418 57.6497 221.497 57.4571 221.656C57.2757 221.815 57.1341 222.092 57.0321 222.489C56.9301 222.874 56.8677 223.424 56.8451 224.138H59.4461ZM67.2258 229.255C66.7725 229.255 66.3758 229.193 66.0358 229.068C65.7072 228.943 65.4465 228.813 65.2538 228.677C65.0725 228.53 64.9818 228.445 64.9818 228.422H64.9478L64.5738 229H63.0268V216.318L65.2878 216.182V221.061H65.3558C65.3558 221.038 65.4295 220.959 65.5768 220.823C65.7242 220.676 65.9508 220.545 66.2568 220.432C66.5628 220.307 66.9425 220.245 67.3958 220.245C68.0645 220.245 68.6538 220.426 69.1638 220.789C69.6738 221.152 70.0705 221.662 70.3538 222.319C70.6372 222.976 70.7788 223.73 70.7788 224.58C70.7788 225.985 70.4615 227.119 69.8268 227.98C69.2035 228.83 68.3365 229.255 67.2258 229.255ZM66.6308 227.963C67.2542 227.963 67.6962 227.714 67.9568 227.215C68.2175 226.705 68.3478 225.844 68.3478 224.631C68.3478 223.849 68.2912 223.237 68.1778 222.795C68.0758 222.353 67.9058 222.041 67.6678 221.86C67.4298 221.667 67.1125 221.571 66.7158 221.571C66.4212 221.571 66.1662 221.639 65.9508 221.775C65.7355 221.9 65.5712 222.041 65.4578 222.2C65.3445 222.347 65.2878 222.432 65.2878 222.455V227.334C65.2878 227.357 65.3388 227.425 65.4408 227.538C65.5428 227.64 65.6902 227.736 65.8828 227.827C66.0868 227.918 66.3362 227.963 66.6308 227.963ZM72.2905 220.5H73.8885L74.2625 221.928H74.3305C74.3305 221.86 74.3758 221.696 74.4665 221.435C74.5572 221.163 74.7215 220.908 74.9595 220.67C75.2088 220.432 75.5375 220.313 75.9455 220.313C76.1722 220.313 76.4272 220.347 76.7105 220.415C77.0052 220.483 77.1978 220.528 77.2885 220.551L77.0845 222.132C76.9938 222.109 76.7898 222.064 76.4725 221.996C76.1665 221.928 75.9002 221.894 75.6735 221.894C75.4128 221.894 75.1975 221.973 75.0275 222.132C74.8688 222.279 74.7498 222.438 74.6705 222.608C74.5912 222.778 74.5515 222.88 74.5515 222.914V229H72.2905V220.5ZM79.4725 219.225C79.1325 219.225 78.8321 219.112 78.5715 218.885C78.3108 218.624 78.1805 218.301 78.1805 217.916C78.1805 217.542 78.3108 217.225 78.5715 216.964C78.8095 216.737 79.1098 216.624 79.4725 216.624C79.8238 216.624 80.1128 216.732 80.3395 216.947C80.5888 217.208 80.7135 217.531 80.7135 217.916C80.7135 218.313 80.5888 218.641 80.3395 218.902C80.0901 219.117 79.8011 219.225 79.4725 219.225ZM78.3335 229V220.5H80.5945V229H78.3335ZM85.3023 229.187C84.4976 229.187 83.9026 228.989 83.5173 228.592C83.1319 228.195 82.9393 227.527 82.9393 226.586V221.809H82.1233V220.789L82.9563 220.551L84.0443 217.678H85.2003V220.5H87.0703V221.809H85.2003V226.008C85.2003 226.541 85.2229 226.949 85.2683 227.232C85.3249 227.504 85.4099 227.697 85.5233 227.81C85.6366 227.912 85.7953 227.963 85.9993 227.963C86.2259 227.963 86.4299 227.94 86.6113 227.895C86.7926 227.85 86.8833 227.821 86.8833 227.81L87.0193 228.779C87.0193 228.79 86.9569 228.83 86.8323 228.898C86.7076 228.966 86.5149 229.028 86.2543 229.085C86.0049 229.153 85.6876 229.187 85.3023 229.187ZM89.3064 233.437C89.0458 233.437 88.8134 233.414 88.6094 233.369C88.4168 233.335 88.2694 233.295 88.1674 233.25C88.0654 233.216 88.0031 233.193 87.9804 233.182L88.1674 231.856C88.2128 231.879 88.3261 231.913 88.5074 231.958C88.6888 232.015 88.8701 232.043 89.0514 232.043C89.5614 232.043 89.9751 231.839 90.2924 231.431C90.6098 231.034 90.9611 230.337 91.3464 229.34L87.7254 220.5H90.4624L92.5364 226.552L94.2874 220.5H95.6984L92.7574 229.187C92.4061 230.15 92.0718 230.932 91.7544 231.533C91.4484 232.134 91.0971 232.598 90.7004 232.927C90.3038 233.267 89.8391 233.437 89.3064 233.437ZM38.41 242.704H34.49L34.42 242.172C34.8027 241.416 35.204 240.45 35.624 239.274C36.0533 238.089 36.4127 236.922 36.702 235.774L37.668 235.9C37.388 236.973 37.024 238.047 36.576 239.12C36.1373 240.193 35.68 241.178 35.204 242.074H38.41L38.648 237.23H39.446V242.074H40.44V242.634L39.446 242.704V245H38.41V242.704ZM46.7342 245L44.3402 238H45.5442L47.3642 243.894L49.2962 238H50.0662L47.6582 245H46.7342ZM51.7962 236.586C51.6282 236.586 51.4929 236.535 51.3902 236.432C51.2689 236.311 51.2082 236.161 51.2082 235.984C51.2082 235.807 51.2689 235.657 51.3902 235.536C51.4929 235.433 51.6282 235.382 51.7962 235.382C51.9735 235.382 52.1135 235.429 52.2162 235.522C52.3282 235.643 52.3842 235.797 52.3842 235.984C52.3842 236.152 52.3282 236.301 52.2162 236.432C52.0855 236.535 51.9455 236.586 51.7962 236.586ZM51.2782 245V238H52.3002V245H51.2782ZM56.6777 245.14C55.8284 245.14 55.147 244.837 54.6337 244.23C54.1204 243.623 53.8637 242.779 53.8637 241.696C53.8637 240.529 54.111 239.601 54.6057 238.91C55.1097 238.21 55.8144 237.86 56.7197 237.86C57.1024 237.86 57.4244 237.911 57.6857 238.014C57.947 238.107 58.1477 238.215 58.2877 238.336C58.4277 238.448 58.4977 238.513 58.4977 238.532H58.5117V234.528L59.5197 234.472V245H58.6517L58.5397 244.174C58.437 244.379 58.2364 244.594 57.9377 244.818C57.639 245.033 57.219 245.14 56.6777 245.14ZM56.9017 244.454C57.2377 244.454 57.527 244.384 57.7697 244.244C58.0124 244.095 58.1944 243.936 58.3157 243.768C58.4464 243.6 58.5117 243.502 58.5117 243.474V239.176C58.5117 239.157 58.4464 239.092 58.3157 238.98C58.1944 238.868 58.0217 238.765 57.7977 238.672C57.583 238.579 57.3264 238.532 57.0277 238.532C56.309 238.532 55.7817 238.798 55.4457 239.33C55.1097 239.853 54.9417 240.632 54.9417 241.668C54.9417 242.648 55.105 243.357 55.4317 243.796C55.7677 244.235 56.2577 244.454 56.9017 244.454ZM64.0785 245.14C63.1451 245.14 62.4125 244.851 61.8805 244.272C61.3485 243.684 61.0825 242.807 61.0825 241.64C61.0825 240.464 61.3391 239.54 61.8525 238.868C62.3658 238.196 63.0658 237.86 63.9525 237.86C64.7551 237.86 65.3711 238.14 65.8005 238.7C66.2391 239.251 66.4585 240.035 66.4585 241.052C66.4585 241.229 66.4491 241.374 66.4305 241.486C66.4118 241.598 66.3978 241.668 66.3885 241.696H62.1465C62.1465 243.581 62.8278 244.524 64.1905 244.524C64.5638 244.524 64.8811 244.459 65.1425 244.328C65.4131 244.188 65.6231 244.043 65.7725 243.894C65.9218 243.735 65.9965 243.642 65.9965 243.614L66.4025 243.95C66.4025 243.987 66.3138 244.109 66.1365 244.314C65.9591 244.51 65.6978 244.697 65.3525 244.874C65.0071 245.051 64.5825 245.14 64.0785 245.14ZM65.5065 241.108L65.5205 240.842C65.5205 239.255 64.9978 238.462 63.9525 238.462C63.4018 238.462 62.9771 238.681 62.6785 239.12C62.3798 239.549 62.2071 240.212 62.1605 241.108H65.5065ZM70.4082 245.14C69.4375 245.14 68.6955 244.823 68.1822 244.188C67.6782 243.553 67.4262 242.657 67.4262 241.5C67.4262 240.343 67.6782 239.447 68.1822 238.812C68.6955 238.177 69.4375 237.86 70.4082 237.86C71.3789 237.86 72.1162 238.177 72.6202 238.812C73.1335 239.447 73.3902 240.343 73.3902 241.5C73.3902 242.648 73.1289 243.544 72.6062 244.188C72.0929 244.823 71.3602 245.14 70.4082 245.14ZM70.4082 244.524C71.0615 244.524 71.5422 244.277 71.8502 243.782C72.1582 243.278 72.3122 242.517 72.3122 241.5C72.3122 240.492 72.1582 239.736 71.8502 239.232C71.5422 238.728 71.0615 238.476 70.4082 238.476C69.7549 238.476 69.2742 238.728 68.9662 239.232C68.6582 239.727 68.5042 240.483 68.5042 241.5C68.5042 242.517 68.6582 243.278 68.9662 243.782C69.2742 244.277 69.7549 244.524 70.4082 244.524ZM76.7079 245.14C76.2132 245.14 75.7932 245.065 75.4479 244.916C75.1119 244.757 74.8552 244.589 74.6779 244.412C74.5099 244.235 74.4259 244.132 74.4259 244.104L74.7759 243.614C74.7759 243.633 74.8505 243.721 74.9999 243.88C75.1492 244.039 75.3545 244.188 75.6159 244.328C75.8772 244.459 76.1852 244.524 76.5399 244.524C77.0625 244.524 77.4545 244.393 77.7159 244.132C77.9865 243.871 78.1219 243.553 78.1219 243.18C78.1219 242.909 78.0519 242.685 77.9119 242.508C77.7812 242.331 77.6132 242.195 77.4079 242.102C77.2119 241.999 76.9365 241.887 76.5819 241.766C76.1712 241.617 75.8445 241.481 75.6019 241.36C75.3592 241.229 75.1492 241.038 74.9719 240.786C74.8039 240.534 74.7199 240.207 74.7199 239.806C74.7199 239.209 74.9345 238.737 75.3639 238.392C75.8025 238.037 76.3625 237.86 77.0439 237.86C77.3425 237.86 77.6272 237.902 77.8979 237.986C78.1779 238.061 78.4019 238.145 78.5699 238.238C78.7379 238.322 78.8452 238.378 78.8919 238.406L78.7239 239.008C78.6865 238.98 78.5932 238.924 78.4439 238.84C78.2945 238.747 78.0985 238.658 77.8559 238.574C77.6225 238.49 77.3799 238.448 77.1279 238.448C76.6985 238.448 76.3485 238.555 76.0779 238.77C75.8165 238.985 75.6859 239.255 75.6859 239.582C75.6859 239.853 75.7559 240.081 75.8959 240.268C76.0359 240.445 76.2085 240.585 76.4139 240.688C76.6285 240.791 76.9132 240.907 77.2679 241.038C77.6785 241.178 78.0099 241.318 78.2619 241.458C78.5232 241.589 78.7425 241.78 78.9199 242.032C79.0972 242.284 79.1859 242.611 79.1859 243.012C79.1859 243.619 78.9759 244.127 78.5559 244.538C78.1359 244.939 77.5199 245.14 76.7079 245.14Z" fill="#222222"/>
</svg>
