<svg width="380" height="360" viewBox="0 0 380 360" fill="none" xmlns="http://www.w3.org/2000/svg">
<path d="M15 189.157C15 229.67 31.0935 268.523 59.7401 297.169C88.3866 325.816 127.24 341.909 167.752 341.909C208.264 341.909 247.118 325.816 275.764 297.169C304.411 268.523 320.504 229.67 320.504 189.157C320.504 148.645 304.411 109.792 275.764 81.1453C247.118 52.4987 208.264 36.4053 167.752 36.4053C127.24 36.4053 88.3866 52.4987 59.7401 81.1453C31.0935 109.792 15 148.645 15 189.157" fill="#013369" fill-opacity="0.6"/>
<path d="M15 189.157C15 229.67 31.0935 268.523 59.7401 297.169C88.3866 325.816 127.24 341.909 167.752 341.909C208.264 341.909 247.118 325.816 275.764 297.169C304.411 268.523 320.504 229.67 320.504 189.157C320.504 148.645 304.411 109.792 275.764 81.1453C247.118 52.4987 208.264 36.4053 167.752 36.4053C127.24 36.4053 88.3866 52.4987 59.7401 81.1453C31.0935 109.792 15 148.645 15 189.157" stroke="white" stroke-width="2"/>
<path d="M69.52 142.31H68.05V140.51L69.52 140.09V137.87C69.52 136.07 69.89 134.68 70.63 133.7C71.37 132.7 72.58 132.2 74.26 132.2C74.76 132.2 75.26 132.28 75.76 132.44C76.26 132.58 76.67 132.73 76.99 132.89C77.33 133.05 77.54 133.16 77.62 133.22L77.11 134.93C77.05 134.89 76.9 134.82 76.66 134.72C76.42 134.6 76.14 134.49 75.82 134.39C75.5 134.27 75.22 134.21 74.98 134.21C74.6 134.21 74.31 134.31 74.11 134.51C73.91 134.71 73.76 135.11 73.66 135.71C73.56 136.29 73.51 137.16 73.51 138.32V140H77.26V142.31H73.51V155H69.52V142.31ZM83.6711 155.33C82.1311 155.33 80.9711 154.92 80.1911 154.1C79.4311 153.26 79.0511 151.96 79.0511 150.2V140H83.0411V149.36C83.0411 150.68 83.2011 151.59 83.5211 152.09C83.8411 152.59 84.3611 152.84 85.0811 152.84C85.5611 152.84 85.9911 152.76 86.3711 152.6C86.7511 152.42 87.0511 152.24 87.2711 152.06C87.4911 151.88 87.6311 151.76 87.6911 151.7V140H91.6811V155H88.4711L87.9011 153.68H87.8411C87.8411 153.72 87.6811 153.89 87.3611 154.19C87.0411 154.47 86.5711 154.73 85.9511 154.97C85.3311 155.21 84.5711 155.33 83.6711 155.33ZM95.3137 140H98.5237L99.0337 141.23H99.1537C99.1537 141.19 99.3137 141.04 99.6337 140.78C99.9737 140.52 100.454 140.28 101.074 140.06C101.694 139.82 102.464 139.7 103.384 139.7C104.924 139.7 106.074 140.12 106.834 140.96C107.614 141.78 108.004 143.07 108.004 144.83V155H104.014V145.64C104.014 144.3 103.864 143.39 103.564 142.91C103.284 142.43 102.764 142.19 102.004 142.19C101.484 142.19 101.024 142.27 100.624 142.43C100.224 142.59 99.9037 142.77 99.6637 142.97C99.4237 143.15 99.3037 143.25 99.3037 143.27V155H95.3137V140ZM111.456 140H114.666L115.176 141.23H115.296C115.296 141.19 115.456 141.04 115.776 140.78C116.116 140.52 116.596 140.28 117.216 140.06C117.836 139.82 118.606 139.7 119.526 139.7C121.066 139.7 122.216 140.12 122.976 140.96C123.756 141.78 124.146 143.07 124.146 144.83V155H120.156V145.64C120.156 144.3 120.006 143.39 119.706 142.91C119.426 142.43 118.906 142.19 118.146 142.19C117.626 142.19 117.166 142.27 116.766 142.43C116.366 142.59 116.046 142.77 115.806 142.97C115.566 143.15 115.446 143.25 115.446 143.27V155H111.456V140ZM128.799 162.83C128.339 162.83 127.929 162.79 127.569 162.71C127.229 162.65 126.969 162.58 126.789 162.5C126.609 162.44 126.499 162.4 126.459 162.38L126.789 160.04C126.869 160.08 127.069 160.14 127.389 160.22C127.709 160.32 128.029 160.37 128.349 160.37C129.249 160.37 129.979 160.01 130.539 159.29C131.099 158.59 131.719 157.36 132.399 155.6L126.009 140H130.839L134.499 150.68L137.589 140H140.079L134.889 155.33C134.269 157.03 133.679 158.41 133.119 159.47C132.579 160.53 131.959 161.35 131.259 161.93C130.559 162.53 129.739 162.83 128.799 162.83ZM70.74 176V164.16L68.34 165.5L68 164.72L70.98 163H72.18V176H70.74ZM75.2428 174.8C75.5495 174.68 76.1828 174.16 77.1428 173.24C78.1161 172.32 79.0028 171.26 79.8028 170.06C80.6028 168.847 81.0028 167.68 81.0028 166.56C81.0028 165.613 80.8095 164.92 80.4228 164.48C80.0495 164.027 79.4028 163.8 78.4828 163.8C78.0428 163.8 77.6095 163.88 77.1828 164.04C76.7695 164.2 76.4095 164.38 76.1028 164.58C75.7961 164.78 75.6428 164.887 75.6428 164.9L75.4828 164C75.4828 163.973 75.6428 163.86 75.9628 163.66C76.2961 163.447 76.7028 163.253 77.1828 163.08C77.6628 162.907 78.1695 162.82 78.7028 162.82C80.0361 162.82 81.0161 163.147 81.6428 163.8C82.2828 164.44 82.6028 165.32 82.6028 166.44C82.6028 167.88 82.0028 169.327 80.8028 170.78C79.6028 172.22 78.2761 173.507 76.8228 174.64H82.9628V176H75.2428V174.8ZM92.223 176L88.803 166H90.523L93.123 174.42L95.883 166H96.983L93.543 176H92.223ZM99.4544 163.98C99.2144 163.98 99.021 163.907 98.8744 163.76C98.701 163.587 98.6144 163.373 98.6144 163.12C98.6144 162.867 98.701 162.653 98.8744 162.48C99.021 162.333 99.2144 162.26 99.4544 162.26C99.7077 162.26 99.9077 162.327 100.054 162.46C100.214 162.633 100.294 162.853 100.294 163.12C100.294 163.36 100.214 163.573 100.054 163.76C99.8677 163.907 99.6677 163.98 99.4544 163.98ZM98.7144 176V166H100.174V176H98.7144ZM106.428 176.2C105.215 176.2 104.241 175.767 103.508 174.9C102.775 174.033 102.408 172.827 102.408 171.28C102.408 169.613 102.761 168.287 103.468 167.3C104.188 166.3 105.195 165.8 106.488 165.8C107.035 165.8 107.495 165.873 107.868 166.02C108.241 166.153 108.528 166.307 108.728 166.48C108.928 166.64 109.028 166.733 109.028 166.76H109.048V161.04L110.488 160.96V176H109.248L109.088 174.82C108.941 175.113 108.655 175.42 108.228 175.74C107.801 176.047 107.201 176.2 106.428 176.2ZM106.748 175.22C107.228 175.22 107.641 175.12 107.988 174.92C108.335 174.707 108.595 174.48 108.768 174.24C108.955 174 109.048 173.86 109.048 173.82V167.68C109.048 167.653 108.955 167.56 108.768 167.4C108.595 167.24 108.348 167.093 108.028 166.96C107.721 166.827 107.355 166.76 106.928 166.76C105.901 166.76 105.148 167.14 104.668 167.9C104.188 168.647 103.948 169.76 103.948 171.24C103.948 172.64 104.181 173.653 104.648 174.28C105.128 174.907 105.828 175.22 106.748 175.22ZM117 176.2C115.667 176.2 114.62 175.787 113.86 174.96C113.1 174.12 112.72 172.867 112.72 171.2C112.72 169.52 113.087 168.2 113.82 167.24C114.554 166.28 115.554 165.8 116.82 165.8C117.967 165.8 118.847 166.2 119.46 167C120.087 167.787 120.4 168.907 120.4 170.36C120.4 170.613 120.387 170.82 120.36 170.98C120.334 171.14 120.314 171.24 120.3 171.28H114.24C114.24 173.973 115.214 175.32 117.16 175.32C117.694 175.32 118.147 175.227 118.52 175.04C118.907 174.84 119.207 174.633 119.42 174.42C119.634 174.193 119.74 174.06 119.74 174.02L120.32 174.5C120.32 174.553 120.194 174.727 119.94 175.02C119.687 175.3 119.314 175.567 118.82 175.82C118.327 176.073 117.72 176.2 117 176.2ZM119.04 170.44L119.06 170.06C119.06 167.793 118.314 166.66 116.82 166.66C116.034 166.66 115.427 166.973 115 167.6C114.574 168.213 114.327 169.16 114.26 170.44H119.04ZM126.043 176.2C124.656 176.2 123.596 175.747 122.863 174.84C122.143 173.933 121.783 172.653 121.783 171C121.783 169.347 122.143 168.067 122.863 167.16C123.596 166.253 124.656 165.8 126.043 165.8C127.43 165.8 128.483 166.253 129.203 167.16C129.936 168.067 130.303 169.347 130.303 171C130.303 172.64 129.93 173.92 129.183 174.84C128.45 175.747 127.403 176.2 126.043 176.2ZM126.043 175.32C126.976 175.32 127.663 174.967 128.103 174.26C128.543 173.54 128.763 172.453 128.763 171C128.763 169.56 128.543 168.48 128.103 167.76C127.663 167.04 126.976 166.68 126.043 166.68C125.11 166.68 124.423 167.04 123.983 167.76C123.543 168.467 123.323 169.547 123.323 171C123.323 172.453 123.543 173.54 123.983 174.26C124.423 174.967 125.11 175.32 126.043 175.32ZM135.043 176.2C134.336 176.2 133.736 176.093 133.243 175.88C132.763 175.653 132.396 175.413 132.143 175.16C131.903 174.907 131.783 174.76 131.783 174.72L132.283 174.02C132.283 174.047 132.389 174.173 132.603 174.4C132.816 174.627 133.109 174.84 133.483 175.04C133.856 175.227 134.296 175.32 134.803 175.32C135.549 175.32 136.109 175.133 136.483 174.76C136.869 174.387 137.063 173.933 137.063 173.4C137.063 173.013 136.963 172.693 136.763 172.44C136.576 172.187 136.336 171.993 136.043 171.86C135.763 171.713 135.369 171.553 134.863 171.38C134.276 171.167 133.809 170.973 133.463 170.8C133.116 170.613 132.816 170.34 132.563 169.98C132.323 169.62 132.203 169.153 132.203 168.58C132.203 167.727 132.509 167.053 133.123 166.56C133.749 166.053 134.549 165.8 135.523 165.8C135.949 165.8 136.356 165.86 136.743 165.98C137.143 166.087 137.463 166.207 137.703 166.34C137.943 166.46 138.096 166.54 138.163 166.58L137.923 167.44C137.869 167.4 137.736 167.32 137.523 167.2C137.309 167.067 137.029 166.94 136.683 166.82C136.349 166.7 136.003 166.64 135.643 166.64C135.029 166.64 134.529 166.793 134.143 167.1C133.769 167.407 133.583 167.793 133.583 168.26C133.583 168.647 133.683 168.973 133.883 169.24C134.083 169.493 134.329 169.693 134.623 169.84C134.929 169.987 135.336 170.153 135.843 170.34C136.429 170.54 136.903 170.74 137.263 170.94C137.636 171.127 137.949 171.4 138.203 171.76C138.456 172.12 138.583 172.587 138.583 173.16C138.583 174.027 138.283 174.753 137.683 175.34C137.083 175.913 136.203 176.2 135.043 176.2Z" fill="#EEEEEE"/>
<path d="M188.617 189.157C188.617 200.739 190.898 212.207 195.33 222.907C199.762 233.607 206.258 243.329 214.448 251.518C222.637 259.707 232.359 266.204 243.059 270.636C253.759 275.068 265.227 277.349 276.809 277.349C288.39 277.349 299.858 275.068 310.558 270.636C321.258 266.204 330.98 259.707 339.169 251.518C347.359 243.329 353.855 233.607 358.287 222.907C362.719 212.207 365 200.739 365 189.157C365 165.768 355.708 143.336 339.169 126.797C322.63 110.257 300.198 100.966 276.809 100.966C253.419 100.966 230.987 110.257 214.448 126.797C197.909 143.336 188.617 165.768 188.617 189.157" fill="#FFB612" fill-opacity="0.6"/>
<path d="M188.617 189.157C188.617 200.739 190.898 212.207 195.33 222.907C199.762 233.607 206.258 243.329 214.448 251.518C222.637 259.707 232.359 266.204 243.059 270.636C253.759 275.068 265.227 277.349 276.809 277.349C288.39 277.349 299.858 275.068 310.558 270.636C321.258 266.204 330.98 259.707 339.169 251.518C347.359 243.329 353.855 233.607 358.287 222.907C362.719 212.207 365 200.739 365 189.157C365 165.768 355.708 143.336 339.169 126.797C322.63 110.257 300.198 100.966 276.809 100.966C253.419 100.966 230.987 110.257 214.448 126.797C197.909 143.336 188.617 165.768 188.617 189.157" stroke="white" stroke-width="2"/>
<path d="M290.439 196.209C289.552 196.209 288.843 195.987 288.311 195.544C287.779 195.101 287.513 194.493 287.513 193.72C287.513 192.605 288.032 191.801 289.071 191.307C290.122 190.8 291.345 190.49 292.738 190.376V189.825C292.738 188.964 292.618 188.375 292.377 188.058C292.136 187.729 291.731 187.564 291.161 187.564C290.895 187.564 290.591 187.615 290.249 187.716C289.92 187.817 289.628 187.925 289.375 188.039C289.134 188.153 288.976 188.229 288.9 188.267L288.653 187.051C288.729 187.013 288.906 186.937 289.185 186.823C289.476 186.696 289.837 186.576 290.268 186.462C290.711 186.348 291.155 186.291 291.598 186.291C292.789 186.291 293.694 186.544 294.315 187.051C294.948 187.545 295.265 188.4 295.265 189.616V193.929C295.265 194.6 295.398 194.936 295.664 194.936C295.765 194.936 295.886 194.917 296.025 194.879C296.164 194.841 296.259 194.816 296.31 194.803L296.386 195.791C296.323 195.816 296.171 195.861 295.93 195.924C295.689 195.987 295.411 196.051 295.094 196.114C294.79 196.177 294.518 196.209 294.277 196.209C293.91 196.209 293.625 196.12 293.422 195.943C293.219 195.753 293.086 195.449 293.023 195.031H292.928C292.928 195.069 292.839 195.189 292.662 195.392C292.497 195.582 292.231 195.766 291.864 195.943C291.497 196.12 291.022 196.209 290.439 196.209ZM291.275 194.936C291.579 194.936 291.839 194.86 292.054 194.708C292.282 194.556 292.453 194.391 292.567 194.214C292.681 194.024 292.738 193.916 292.738 193.891V191.383C291.889 191.472 291.243 191.674 290.8 191.991C290.369 192.295 290.154 192.764 290.154 193.397C290.154 193.904 290.255 194.29 290.458 194.556C290.661 194.809 290.933 194.936 291.275 194.936ZM297.881 186.5H299.914L300.237 187.279H300.313C300.313 187.254 300.415 187.159 300.617 186.994C300.833 186.829 301.137 186.677 301.529 186.538C301.922 186.386 302.41 186.31 302.992 186.31C303.968 186.31 304.696 186.576 305.177 187.108C305.671 187.627 305.918 188.444 305.918 189.559V196H303.391V190.072C303.391 189.223 303.296 188.647 303.106 188.343C302.929 188.039 302.6 187.887 302.118 187.887C301.789 187.887 301.498 187.938 301.244 188.039C300.991 188.14 300.788 188.254 300.636 188.381C300.484 188.495 300.408 188.558 300.408 188.571V196H297.881V186.5ZM309.378 185.075C308.998 185.075 308.662 184.948 308.371 184.695C308.08 184.404 307.934 184.043 307.934 183.612C307.934 183.194 308.08 182.839 308.371 182.548C308.637 182.295 308.973 182.168 309.378 182.168C309.771 182.168 310.094 182.288 310.347 182.529C310.626 182.82 310.765 183.181 310.765 183.612C310.765 184.055 310.626 184.423 310.347 184.714C310.068 184.955 309.745 185.075 309.378 185.075ZM308.105 196V186.5H310.632V196H308.105ZM312.911 186.5H314.944L315.267 187.355H315.324C315.324 187.33 315.438 187.228 315.666 187.051C315.894 186.861 316.191 186.69 316.559 186.538C316.939 186.386 317.363 186.31 317.832 186.31C318.351 186.31 318.782 186.392 319.124 186.557C319.466 186.722 319.732 186.975 319.922 187.317C320.137 187.14 320.321 187 320.473 186.899C320.637 186.785 320.91 186.658 321.29 186.519C321.682 186.38 322.126 186.31 322.62 186.31C323.519 186.31 324.165 186.551 324.558 187.032C324.95 187.501 325.147 188.28 325.147 189.369V196H322.62V189.559C322.62 188.875 322.537 188.425 322.373 188.21C322.221 187.982 321.967 187.868 321.613 187.868C321.296 187.868 321.024 187.95 320.796 188.115C320.568 188.267 320.39 188.425 320.264 188.59C320.289 188.894 320.302 189.141 320.302 189.331V196H317.775V189.559C317.775 188.888 317.692 188.438 317.528 188.21C317.376 187.982 317.129 187.868 316.787 187.868C316.457 187.868 316.172 187.95 315.932 188.115C315.691 188.28 315.526 188.425 315.438 188.552V196H312.911V186.5ZM329.645 196.209C328.758 196.209 328.049 195.987 327.517 195.544C326.985 195.101 326.719 194.493 326.719 193.72C326.719 192.605 327.238 191.801 328.277 191.307C329.328 190.8 330.551 190.49 331.944 190.376V189.825C331.944 188.964 331.824 188.375 331.583 188.058C331.342 187.729 330.937 187.564 330.367 187.564C330.101 187.564 329.797 187.615 329.455 187.716C329.126 187.817 328.834 187.925 328.581 188.039C328.34 188.153 328.182 188.229 328.106 188.267L327.859 187.051C327.935 187.013 328.112 186.937 328.391 186.823C328.682 186.696 329.043 186.576 329.474 186.462C329.917 186.348 330.361 186.291 330.804 186.291C331.995 186.291 332.9 186.544 333.521 187.051C334.154 187.545 334.471 188.4 334.471 189.616V193.929C334.471 194.6 334.604 194.936 334.87 194.936C334.971 194.936 335.092 194.917 335.231 194.879C335.37 194.841 335.465 194.816 335.516 194.803L335.592 195.791C335.529 195.816 335.377 195.861 335.136 195.924C334.895 195.987 334.617 196.051 334.3 196.114C333.996 196.177 333.724 196.209 333.483 196.209C333.116 196.209 332.831 196.12 332.628 195.943C332.425 195.753 332.292 195.449 332.229 195.031H332.134C332.134 195.069 332.045 195.189 331.868 195.392C331.703 195.582 331.437 195.766 331.07 195.943C330.703 196.12 330.228 196.209 329.645 196.209ZM330.481 194.936C330.785 194.936 331.045 194.86 331.26 194.708C331.488 194.556 331.659 194.391 331.773 194.214C331.887 194.024 331.944 193.916 331.944 193.891V191.383C331.095 191.472 330.449 191.674 330.006 191.991C329.575 192.295 329.36 192.764 329.36 193.397C329.36 193.904 329.461 194.29 329.664 194.556C329.867 194.809 330.139 194.936 330.481 194.936ZM337.087 196V181.826L339.614 181.674V196H337.087ZM344.571 196.209C343.837 196.209 343.222 196.108 342.728 195.905C342.234 195.69 341.861 195.462 341.607 195.221C341.354 194.98 341.227 194.835 341.227 194.784L341.93 193.796C341.93 193.821 342.032 193.935 342.234 194.138C342.437 194.341 342.69 194.531 342.994 194.708C343.311 194.873 343.659 194.955 344.039 194.955C344.508 194.955 344.869 194.835 345.122 194.594C345.376 194.353 345.502 194.037 345.502 193.644C345.502 193.264 345.369 192.966 345.103 192.751C344.837 192.523 344.438 192.289 343.906 192.048C343.412 191.807 343.013 191.592 342.709 191.402C342.418 191.199 342.165 190.927 341.949 190.585C341.734 190.23 341.626 189.781 341.626 189.236C341.626 188.299 341.949 187.577 342.595 187.07C343.241 186.551 344.039 186.291 344.989 186.291C345.395 186.291 345.8 186.342 346.205 186.443C346.611 186.544 346.946 186.646 347.212 186.747C347.478 186.848 347.649 186.918 347.725 186.956L347.383 188.229C347.32 188.191 347.174 188.115 346.946 188.001C346.718 187.887 346.44 187.779 346.11 187.678C345.794 187.577 345.502 187.526 345.236 187.526C344.844 187.526 344.54 187.621 344.324 187.811C344.109 188.001 344.001 188.254 344.001 188.571C344.001 188.951 344.141 189.261 344.419 189.502C344.711 189.73 345.148 189.977 345.73 190.243C346.25 190.496 346.668 190.731 346.984 190.946C347.301 191.149 347.573 191.427 347.801 191.782C348.029 192.137 348.143 192.58 348.143 193.112C348.143 194.037 347.833 194.784 347.212 195.354C346.604 195.924 345.724 196.209 344.571 196.209ZM291.725 209.54H287.525L287.45 208.97C287.86 208.16 288.29 207.125 288.74 205.865C289.2 204.595 289.585 203.345 289.895 202.115L290.93 202.25C290.63 203.4 290.24 204.55 289.76 205.7C289.29 206.85 288.8 207.905 288.29 208.865H291.725L291.98 203.675H292.835V208.865H293.9V209.465L292.835 209.54V212H291.725V209.54ZM300.644 212L298.079 204.5H299.369L301.319 210.815L303.389 204.5H304.214L301.634 212H300.644ZM306.067 202.985C305.887 202.985 305.742 202.93 305.632 202.82C305.502 202.69 305.437 202.53 305.437 202.34C305.437 202.15 305.502 201.99 305.632 201.86C305.742 201.75 305.887 201.695 306.067 201.695C306.257 201.695 306.407 201.745 306.517 201.845C306.637 201.975 306.697 202.14 306.697 202.34C306.697 202.52 306.637 202.68 306.517 202.82C306.377 202.93 306.227 202.985 306.067 202.985ZM305.512 212V204.5H306.607V212H305.512ZM311.298 212.15C310.388 212.15 309.658 211.825 309.108 211.175C308.558 210.525 308.283 209.62 308.283 208.46C308.283 207.21 308.548 206.215 309.078 205.475C309.618 204.725 310.373 204.35 311.343 204.35C311.753 204.35 312.098 204.405 312.378 204.515C312.658 204.615 312.873 204.73 313.023 204.86C313.173 204.98 313.248 205.05 313.248 205.07H313.263V200.78L314.343 200.72V212H313.413L313.293 211.115C313.183 211.335 312.968 211.565 312.648 211.805C312.328 212.035 311.878 212.15 311.298 212.15ZM311.538 211.415C311.898 211.415 312.208 211.34 312.468 211.19C312.728 211.03 312.923 210.86 313.053 210.68C313.193 210.5 313.263 210.395 313.263 210.365V205.76C313.263 205.74 313.193 205.67 313.053 205.55C312.923 205.43 312.738 205.32 312.498 205.22C312.268 205.12 311.993 205.07 311.673 205.07C310.903 205.07 310.338 205.355 309.978 205.925C309.618 206.485 309.438 207.32 309.438 208.43C309.438 209.48 309.613 210.24 309.963 210.71C310.323 211.18 310.848 211.415 311.538 211.415ZM319.227 212.15C318.227 212.15 317.442 211.84 316.872 211.22C316.302 210.59 316.017 209.65 316.017 208.4C316.017 207.14 316.292 206.15 316.842 205.43C317.392 204.71 318.142 204.35 319.092 204.35C319.952 204.35 320.612 204.65 321.072 205.25C321.542 205.84 321.777 206.68 321.777 207.77C321.777 207.96 321.767 208.115 321.747 208.235C321.727 208.355 321.712 208.43 321.702 208.46H317.157C317.157 210.48 317.887 211.49 319.347 211.49C319.747 211.49 320.087 211.42 320.367 211.28C320.657 211.13 320.882 210.975 321.042 210.815C321.202 210.645 321.282 210.545 321.282 210.515L321.717 210.875C321.717 210.915 321.622 211.045 321.432 211.265C321.242 211.475 320.962 211.675 320.592 211.865C320.222 212.055 319.767 212.15 319.227 212.15ZM320.757 207.83L320.772 207.545C320.772 205.845 320.212 204.995 319.092 204.995C318.502 204.995 318.047 205.23 317.727 205.7C317.407 206.16 317.222 206.87 317.172 207.83H320.757ZM326.009 212.15C324.969 212.15 324.174 211.81 323.624 211.13C323.084 210.45 322.814 209.49 322.814 208.25C322.814 207.01 323.084 206.05 323.624 205.37C324.174 204.69 324.969 204.35 326.009 204.35C327.049 204.35 327.839 204.69 328.379 205.37C328.929 206.05 329.204 207.01 329.204 208.25C329.204 209.48 328.924 210.44 328.364 211.13C327.814 211.81 327.029 212.15 326.009 212.15ZM326.009 211.49C326.709 211.49 327.224 211.225 327.554 210.695C327.884 210.155 328.049 209.34 328.049 208.25C328.049 207.17 327.884 206.36 327.554 205.82C327.224 205.28 326.709 205.01 326.009 205.01C325.309 205.01 324.794 205.28 324.464 205.82C324.134 206.35 323.969 207.16 323.969 208.25C323.969 209.34 324.134 210.155 324.464 210.695C324.794 211.225 325.309 211.49 326.009 211.49ZM332.758 212.15C332.228 212.15 331.778 212.07 331.408 211.91C331.048 211.74 330.773 211.56 330.583 211.37C330.403 211.18 330.313 211.07 330.313 211.04L330.688 210.515C330.688 210.535 330.768 210.63 330.928 210.8C331.088 210.97 331.308 211.13 331.588 211.28C331.868 211.42 332.198 211.49 332.578 211.49C333.138 211.49 333.558 211.35 333.838 211.07C334.128 210.79 334.273 210.45 334.273 210.05C334.273 209.76 334.198 209.52 334.048 209.33C333.908 209.14 333.728 208.995 333.508 208.895C333.298 208.785 333.003 208.665 332.623 208.535C332.183 208.375 331.833 208.23 331.573 208.1C331.313 207.96 331.088 207.755 330.898 207.485C330.718 207.215 330.628 206.865 330.628 206.435C330.628 205.795 330.858 205.29 331.318 204.92C331.788 204.54 332.388 204.35 333.118 204.35C333.438 204.35 333.743 204.395 334.033 204.485C334.333 204.565 334.573 204.655 334.753 204.755C334.933 204.845 335.048 204.905 335.098 204.935L334.918 205.58C334.878 205.55 334.778 205.49 334.618 205.4C334.458 205.3 334.248 205.205 333.988 205.115C333.738 205.025 333.478 204.98 333.208 204.98C332.748 204.98 332.373 205.095 332.083 205.325C331.803 205.555 331.663 205.845 331.663 206.195C331.663 206.485 331.738 206.73 331.888 206.93C332.038 207.12 332.223 207.27 332.443 207.38C332.673 207.49 332.978 207.615 333.358 207.755C333.798 207.905 334.153 208.055 334.423 208.205C334.703 208.345 334.938 208.55 335.128 208.82C335.318 209.09 335.413 209.44 335.413 209.87C335.413 210.52 335.188 211.065 334.738 211.505C334.288 211.935 333.628 212.15 332.758 212.15Z" fill="#222222"/>
<path d="M174.686 94.4666C174.686 104.496 176.661 114.428 180.499 123.694C184.338 132.961 189.963 141.38 197.056 148.473C204.148 155.565 212.567 161.191 221.834 165.029C231.1 168.867 241.032 170.843 251.062 170.843C261.092 170.843 271.023 168.867 280.29 165.029C289.556 161.191 297.976 155.565 305.068 148.473C312.16 141.38 317.786 132.961 321.624 123.694C325.462 114.428 327.438 104.496 327.438 94.4666C327.438 74.2104 319.391 54.7838 305.068 40.4606C290.744 26.1373 271.318 18.0905 251.062 18.0905C230.805 18.0905 211.379 26.1373 197.056 40.4606C182.732 54.7838 174.686 74.2104 174.686 94.4666" fill="#A8001C" fill-opacity="0.6"/>
<path d="M174.686 94.4666C174.686 104.496 176.661 114.428 180.499 123.694C184.338 132.961 189.963 141.38 197.056 148.473C204.148 155.565 212.567 161.191 221.834 165.029C231.1 168.867 241.032 170.843 251.062 170.843C261.092 170.843 271.023 168.867 280.29 165.029C289.556 161.191 297.976 155.565 305.068 148.473C312.16 141.38 317.786 132.961 321.624 123.694C325.462 114.428 327.438 104.496 327.438 94.4666C327.438 74.2104 319.391 54.7838 305.068 40.4606C290.744 26.1373 271.318 18.0905 251.062 18.0905C230.805 18.0905 211.379 26.1373 197.056 40.4606C182.732 54.7838 174.686 74.2104 174.686 94.4666" stroke="white" stroke-width="2"/>
<path d="M233.76 72.22C232.933 72.22 232.2 72.0133 231.56 71.6C230.933 71.1867 230.447 70.6067 230.1 69.86C229.753 69.1 229.58 68.22 229.58 67.22C229.58 66.14 229.747 65.1933 230.08 64.38C230.413 63.5533 230.887 62.92 231.5 62.48C232.113 62.0267 232.827 61.8 233.64 61.8C234.16 61.8 234.593 61.86 234.94 61.98C235.287 62.0867 235.547 62.2067 235.72 62.34C235.893 62.46 235.98 62.5333 235.98 62.56H236.04V57.08L238.7 56.92V72H236.48L236.18 71.1H236.16C236.16 71.14 236.08 71.2533 235.92 71.44C235.76 71.6267 235.5 71.8067 235.14 71.98C234.793 72.14 234.333 72.22 233.76 72.22ZM234.36 70.66C234.693 70.66 234.98 70.5933 235.22 70.46C235.473 70.3267 235.673 70.18 235.82 70.02C235.967 69.86 236.04 69.7667 236.04 69.74V63.98C236.013 63.94 235.933 63.8733 235.8 63.78C235.68 63.6733 235.5 63.5733 235.26 63.48C235.033 63.3733 234.767 63.32 234.46 63.32C233.74 63.32 233.22 63.6067 232.9 64.18C232.593 64.7533 232.44 65.74 232.44 67.14C232.44 68.0733 232.507 68.7933 232.64 69.3C232.787 69.8067 232.993 70.16 233.26 70.36C233.54 70.56 233.907 70.66 234.36 70.66ZM243.518 72.22C242.585 72.22 241.838 71.9867 241.278 71.52C240.718 71.0533 240.438 70.4133 240.438 69.6C240.438 68.4267 240.985 67.58 242.078 67.06C243.185 66.5267 244.472 66.2 245.938 66.08V65.5C245.938 64.5933 245.812 63.9733 245.558 63.64C245.305 63.2933 244.878 63.12 244.278 63.12C243.998 63.12 243.678 63.1733 243.318 63.28C242.972 63.3867 242.665 63.5 242.398 63.62C242.145 63.74 241.978 63.82 241.898 63.86L241.638 62.58C241.718 62.54 241.905 62.46 242.198 62.34C242.505 62.2067 242.885 62.08 243.338 61.96C243.805 61.84 244.272 61.78 244.738 61.78C245.992 61.78 246.945 62.0467 247.598 62.58C248.265 63.1 248.598 64 248.598 65.28V69.82C248.598 70.5267 248.738 70.88 249.018 70.88C249.125 70.88 249.252 70.86 249.398 70.82C249.545 70.78 249.645 70.7533 249.698 70.74L249.778 71.78C249.712 71.8067 249.552 71.8533 249.298 71.92C249.045 71.9867 248.752 72.0533 248.418 72.12C248.098 72.1867 247.812 72.22 247.558 72.22C247.172 72.22 246.872 72.1267 246.658 71.94C246.445 71.74 246.305 71.42 246.238 70.98H246.138C246.138 71.02 246.045 71.1467 245.858 71.36C245.685 71.56 245.405 71.7533 245.018 71.94C244.632 72.1267 244.132 72.22 243.518 72.22ZM244.398 70.88C244.718 70.88 244.992 70.8 245.218 70.64C245.458 70.48 245.638 70.3067 245.758 70.12C245.878 69.92 245.938 69.8067 245.938 69.78V67.14C245.045 67.2333 244.365 67.4467 243.898 67.78C243.445 68.1 243.218 68.5933 243.218 69.26C243.218 69.7933 243.325 70.2 243.538 70.48C243.752 70.7467 244.038 70.88 244.398 70.88ZM251.352 62H253.492L253.832 62.82H253.912C253.912 62.7933 254.019 62.6933 254.232 62.52C254.459 62.3467 254.779 62.1867 255.192 62.04C255.606 61.88 256.119 61.8 256.732 61.8C257.759 61.8 258.526 62.08 259.032 62.64C259.552 63.1867 259.812 64.0467 259.812 65.22V72H257.152V65.76C257.152 64.8667 257.052 64.26 256.852 63.94C256.666 63.62 256.319 63.46 255.812 63.46C255.466 63.46 255.159 63.5133 254.892 63.62C254.626 63.7267 254.412 63.8467 254.252 63.98C254.092 64.1 254.012 64.1667 254.012 64.18V72H251.352V62ZM265.594 77.24C264.087 77.24 262.961 76.94 262.214 76.34C261.481 75.74 261.114 74.9267 261.114 73.9C261.114 72.78 261.534 71.96 262.374 71.44C262.227 71.12 262.154 70.76 262.154 70.36C262.154 69.56 262.447 68.9067 263.034 68.4C262.554 68.0933 262.174 67.6867 261.894 67.18C261.627 66.6733 261.494 66.08 261.494 65.4C261.494 64.2 261.881 63.3 262.654 62.7C263.427 62.1 264.414 61.8 265.614 61.8C266.147 61.8 266.654 61.8733 267.134 62.02L269.834 62.04V63.22L268.874 63.28C269.247 63.84 269.434 64.5467 269.434 65.4C269.434 66.5867 269.081 67.4933 268.374 68.12C267.681 68.7467 266.741 69.06 265.554 69.06C265.101 69.06 264.641 69.0067 264.174 68.9C263.921 69.1 263.794 69.3467 263.794 69.64C263.794 69.9067 263.947 70.1133 264.254 70.26C264.561 70.3933 265.087 70.46 265.834 70.46C267.301 70.46 268.387 70.7267 269.094 71.26C269.801 71.7933 270.154 72.58 270.154 73.62C270.154 74.7933 269.767 75.6867 268.994 76.3C268.234 76.9267 267.101 77.24 265.594 77.24ZM265.494 67.84C265.947 67.84 266.287 67.6467 266.514 67.26C266.741 66.8733 266.854 66.24 266.854 65.36C266.854 64.48 266.741 63.88 266.514 63.56C266.287 63.24 265.941 63.08 265.474 63.08C265.007 63.08 264.654 63.2467 264.414 63.58C264.174 63.9 264.054 64.5067 264.054 65.4C264.054 66.2667 264.174 66.8933 264.414 67.28C264.667 67.6533 265.027 67.84 265.494 67.84ZM265.594 75.88C266.381 75.88 266.967 75.74 267.354 75.46C267.741 75.18 267.934 74.7733 267.934 74.24C267.934 73.7067 267.721 73.32 267.294 73.08C266.881 72.84 266.254 72.72 265.414 72.72C264.627 72.72 263.981 72.6133 263.474 72.4C263.141 72.76 262.974 73.24 262.974 73.84C262.974 74.4933 263.187 74.9933 263.614 75.34C264.054 75.7 264.714 75.88 265.594 75.88ZM275.393 72.22C273.913 72.22 272.759 71.8133 271.933 71C271.119 70.1733 270.713 68.9 270.713 67.18C270.713 65.4467 271.113 64.12 271.913 63.2C272.713 62.2667 273.793 61.8 275.153 61.8C276.393 61.8 277.353 62.1933 278.033 62.98C278.726 63.7533 279.073 64.8667 279.073 66.32C279.073 66.6533 279.046 66.9333 278.993 67.16C278.953 67.3867 278.926 67.5267 278.913 67.58H273.533C273.546 68.78 273.719 69.6333 274.053 70.14C274.399 70.6333 274.953 70.88 275.713 70.88C276.166 70.88 276.566 70.7867 276.913 70.6C277.259 70.4 277.533 70.1867 277.733 69.96C277.933 69.72 278.033 69.5867 278.033 69.56L278.933 70.26C278.933 70.3133 278.793 70.5067 278.513 70.84C278.246 71.1733 277.846 71.4867 277.313 71.78C276.793 72.0733 276.153 72.22 275.393 72.22ZM276.593 66.28V65.82C276.593 64.8067 276.486 64.1 276.273 63.7C276.059 63.2867 275.686 63.08 275.153 63.08C274.779 63.08 274.479 63.1733 274.253 63.36C274.039 63.5467 273.873 63.8733 273.753 64.34C273.633 64.7933 273.559 65.44 273.533 66.28H276.593ZM280.805 62H282.685L283.125 63.68H283.205C283.205 63.6 283.259 63.4067 283.365 63.1C283.472 62.78 283.665 62.48 283.945 62.2C284.239 61.92 284.625 61.78 285.105 61.78C285.372 61.78 285.672 61.82 286.005 61.9C286.352 61.98 286.579 62.0333 286.685 62.06L286.445 63.92C286.339 63.8933 286.099 63.84 285.725 63.76C285.365 63.68 285.052 63.64 284.785 63.64C284.479 63.64 284.225 63.7333 284.025 63.92C283.839 64.0933 283.699 64.28 283.605 64.48C283.512 64.68 283.465 64.8 283.465 64.84V72H280.805V62ZM232.21 90.15C231.67 90.15 231.205 90.07 230.815 89.91C230.425 89.75 230.12 89.58 229.9 89.4C229.69 89.22 229.585 89.115 229.585 89.085L229.945 88.5C229.945 88.52 230.04 88.61 230.23 88.77C230.43 88.93 230.69 89.08 231.01 89.22C231.33 89.36 231.69 89.43 232.09 89.43C232.8 89.43 233.335 89.235 233.695 88.845C234.065 88.455 234.25 87.89 234.25 87.15C234.25 86.49 234.095 85.98 233.785 85.62C233.485 85.26 233.04 85.08 232.45 85.08C232.3 85.08 232.16 85.105 232.03 85.155C231.9 85.205 231.795 85.255 231.715 85.305C231.645 85.355 231.6 85.39 231.58 85.41L231.19 84.96L233.95 81.285H230.035L230.095 80.25H235V80.955L232.3 84.48C232.42 84.45 232.555 84.435 232.705 84.435C233.505 84.435 234.15 84.685 234.64 85.185C235.14 85.675 235.39 86.33 235.39 87.15C235.39 87.77 235.25 88.305 234.97 88.755C234.7 89.205 234.325 89.55 233.845 89.79C233.365 90.03 232.82 90.15 232.21 90.15ZM242.38 90L239.815 82.5H241.105L243.055 88.815L245.125 82.5H245.95L243.37 90H242.38ZM247.804 80.985C247.624 80.985 247.479 80.93 247.369 80.82C247.239 80.69 247.174 80.53 247.174 80.34C247.174 80.15 247.239 79.99 247.369 79.86C247.479 79.75 247.624 79.695 247.804 79.695C247.994 79.695 248.144 79.745 248.254 79.845C248.374 79.975 248.434 80.14 248.434 80.34C248.434 80.52 248.374 80.68 248.254 80.82C248.114 80.93 247.964 80.985 247.804 80.985ZM247.249 90V82.5H248.344V90H247.249ZM253.034 90.15C252.124 90.15 251.394 89.825 250.844 89.175C250.294 88.525 250.019 87.62 250.019 86.46C250.019 85.21 250.284 84.215 250.814 83.475C251.354 82.725 252.109 82.35 253.079 82.35C253.489 82.35 253.834 82.405 254.114 82.515C254.394 82.615 254.609 82.73 254.759 82.86C254.909 82.98 254.984 83.05 254.984 83.07H254.999V78.78L256.079 78.72V90H255.149L255.029 89.115C254.919 89.335 254.704 89.565 254.384 89.805C254.064 90.035 253.614 90.15 253.034 90.15ZM253.274 89.415C253.634 89.415 253.944 89.34 254.204 89.19C254.464 89.03 254.659 88.86 254.789 88.68C254.929 88.5 254.999 88.395 254.999 88.365V83.76C254.999 83.74 254.929 83.67 254.789 83.55C254.659 83.43 254.474 83.32 254.234 83.22C254.004 83.12 253.729 83.07 253.409 83.07C252.639 83.07 252.074 83.355 251.714 83.925C251.354 84.485 251.174 85.32 251.174 86.43C251.174 87.48 251.349 88.24 251.699 88.71C252.059 89.18 252.584 89.415 253.274 89.415ZM260.963 90.15C259.963 90.15 259.178 89.84 258.608 89.22C258.038 88.59 257.753 87.65 257.753 86.4C257.753 85.14 258.028 84.15 258.578 83.43C259.128 82.71 259.878 82.35 260.828 82.35C261.688 82.35 262.348 82.65 262.808 83.25C263.278 83.84 263.513 84.68 263.513 85.77C263.513 85.96 263.503 86.115 263.483 86.235C263.463 86.355 263.448 86.43 263.438 86.46H258.893C258.893 88.48 259.623 89.49 261.083 89.49C261.483 89.49 261.823 89.42 262.103 89.28C262.393 89.13 262.618 88.975 262.778 88.815C262.938 88.645 263.018 88.545 263.018 88.515L263.453 88.875C263.453 88.915 263.358 89.045 263.168 89.265C262.978 89.475 262.698 89.675 262.328 89.865C261.958 90.055 261.503 90.15 260.963 90.15ZM262.493 85.83L262.508 85.545C262.508 83.845 261.948 82.995 260.828 82.995C260.238 82.995 259.783 83.23 259.463 83.7C259.143 84.16 258.958 84.87 258.908 85.83H262.493ZM267.745 90.15C266.705 90.15 265.91 89.81 265.36 89.13C264.82 88.45 264.55 87.49 264.55 86.25C264.55 85.01 264.82 84.05 265.36 83.37C265.91 82.69 266.705 82.35 267.745 82.35C268.785 82.35 269.575 82.69 270.115 83.37C270.665 84.05 270.94 85.01 270.94 86.25C270.94 87.48 270.66 88.44 270.1 89.13C269.55 89.81 268.765 90.15 267.745 90.15ZM267.745 89.49C268.445 89.49 268.96 89.225 269.29 88.695C269.62 88.155 269.785 87.34 269.785 86.25C269.785 85.17 269.62 84.36 269.29 83.82C268.96 83.28 268.445 83.01 267.745 83.01C267.045 83.01 266.53 83.28 266.2 83.82C265.87 84.35 265.705 85.16 265.705 86.25C265.705 87.34 265.87 88.155 266.2 88.695C266.53 89.225 267.045 89.49 267.745 89.49ZM274.495 90.15C273.965 90.15 273.515 90.07 273.145 89.91C272.785 89.74 272.51 89.56 272.32 89.37C272.14 89.18 272.05 89.07 272.05 89.04L272.425 88.515C272.425 88.535 272.505 88.63 272.665 88.8C272.825 88.97 273.045 89.13 273.325 89.28C273.605 89.42 273.935 89.49 274.315 89.49C274.875 89.49 275.295 89.35 275.575 89.07C275.865 88.79 276.01 88.45 276.01 88.05C276.01 87.76 275.935 87.52 275.785 87.33C275.645 87.14 275.465 86.995 275.245 86.895C275.035 86.785 274.74 86.665 274.36 86.535C273.92 86.375 273.57 86.23 273.31 86.1C273.05 85.96 272.825 85.755 272.635 85.485C272.455 85.215 272.365 84.865 272.365 84.435C272.365 83.795 272.595 83.29 273.055 82.92C273.525 82.54 274.125 82.35 274.855 82.35C275.175 82.35 275.48 82.395 275.77 82.485C276.07 82.565 276.31 82.655 276.49 82.755C276.67 82.845 276.785 82.905 276.835 82.935L276.655 83.58C276.615 83.55 276.515 83.49 276.355 83.4C276.195 83.3 275.985 83.205 275.725 83.115C275.475 83.025 275.215 82.98 274.945 82.98C274.485 82.98 274.11 83.095 273.82 83.325C273.54 83.555 273.4 83.845 273.4 84.195C273.4 84.485 273.475 84.73 273.625 84.93C273.775 85.12 273.96 85.27 274.18 85.38C274.41 85.49 274.715 85.615 275.095 85.755C275.535 85.905 275.89 86.055 276.16 86.205C276.44 86.345 276.675 86.55 276.865 86.82C277.055 87.09 277.15 87.44 277.15 87.87C277.15 88.52 276.925 89.065 276.475 89.505C276.025 89.935 275.365 90.15 274.495 90.15Z" fill="#EEEEEE"/>
<path d="M78.2831 275.388C78.2831 283.577 79.8961 291.687 83.0301 299.253C86.164 306.818 90.7574 313.693 96.5482 319.484C102.339 325.275 109.214 329.868 116.779 333.002C124.345 336.136 132.455 337.749 140.644 337.749C148.833 337.749 156.942 336.136 164.508 333.002C172.074 329.868 178.949 325.275 184.74 319.484C190.53 313.693 195.124 306.818 198.258 299.253C201.392 291.687 203.005 283.577 203.005 275.388C203.005 267.199 201.392 259.09 198.258 251.524C195.124 243.958 190.53 237.083 184.74 231.292C178.949 225.502 172.074 220.908 164.508 217.774C156.942 214.64 148.833 213.027 140.644 213.027C132.455 213.027 124.345 214.64 116.779 217.774C109.214 220.908 102.339 225.502 96.5482 231.292C90.7574 237.083 86.164 243.958 83.0301 251.524C79.8961 259.09 78.2831 267.199 78.2831 275.388" fill="#198143" fill-opacity="0.6"/>
<path d="M78.2831 275.388C78.2831 283.577 79.8961 291.687 83.0301 299.253C86.164 306.818 90.7574 313.693 96.5482 319.484C102.339 325.275 109.214 329.868 116.779 333.002C124.345 336.136 132.455 337.749 140.644 337.749C148.833 337.749 156.942 336.136 164.508 333.002C172.074 329.868 178.949 325.275 184.74 319.484C190.53 313.693 195.124 306.818 198.258 299.253C201.392 291.687 203.005 283.577 203.005 275.388C203.005 267.199 201.392 259.09 198.258 251.524C195.124 243.958 190.53 237.083 184.74 231.292C178.949 225.502 172.074 220.908 164.508 217.774C156.942 214.64 148.833 213.027 140.644 213.027C132.455 213.027 124.345 214.64 116.779 217.774C109.214 220.908 102.339 225.502 96.5482 231.292C90.7574 237.083 86.164 243.958 83.0301 251.524C79.8961 259.09 78.2831 267.199 78.2831 275.388" stroke="white" stroke-width="2"/>
<path d="M128.501 255.904C128.501 276.16 136.547 295.586 150.871 309.91C165.194 324.233 184.621 332.28 204.877 332.28C225.133 332.28 244.559 324.233 258.883 309.91C273.206 295.586 281.253 276.16 281.253 255.904C281.253 235.647 273.206 216.221 258.883 201.898C244.559 187.574 225.133 179.528 204.877 179.528C184.621 179.528 165.194 187.574 150.871 201.898C136.547 216.221 128.501 235.647 128.501 255.904Z" fill="white" fill-opacity="0.6" stroke="white" stroke-width="2"/>
<path d="M213.57 294.187C212.697 294.187 212.04 293.955 211.598 293.49C211.167 293.014 210.952 292.277 210.952 291.28V285.5H213.213V290.804C213.213 291.552 213.304 292.068 213.485 292.351C213.666 292.634 213.961 292.776 214.369 292.776C214.641 292.776 214.885 292.731 215.1 292.64C215.315 292.538 215.485 292.436 215.61 292.334C215.735 292.232 215.814 292.164 215.848 292.13V285.5H218.109V294H216.29L215.967 293.252H215.933C215.933 293.275 215.842 293.371 215.661 293.541C215.48 293.7 215.213 293.847 214.862 293.983C214.511 294.119 214.08 294.187 213.57 294.187ZM222.547 294.187C221.89 294.187 221.34 294.096 220.898 293.915C220.456 293.722 220.122 293.518 219.895 293.303C219.669 293.088 219.555 292.957 219.555 292.912L220.184 292.028C220.184 292.051 220.275 292.153 220.456 292.334C220.638 292.515 220.864 292.685 221.136 292.844C221.42 292.991 221.731 293.065 222.071 293.065C222.491 293.065 222.814 292.957 223.04 292.742C223.267 292.527 223.38 292.243 223.38 291.892C223.38 291.552 223.261 291.286 223.023 291.093C222.785 290.889 222.428 290.679 221.952 290.464C221.51 290.249 221.153 290.056 220.881 289.886C220.621 289.705 220.394 289.461 220.201 289.155C220.009 288.838 219.912 288.435 219.912 287.948C219.912 287.109 220.201 286.463 220.779 286.01C221.357 285.545 222.071 285.313 222.921 285.313C223.284 285.313 223.647 285.358 224.009 285.449C224.372 285.54 224.672 285.63 224.91 285.721C225.148 285.812 225.301 285.874 225.369 285.908L225.063 287.047C225.007 287.013 224.876 286.945 224.672 286.843C224.468 286.741 224.219 286.645 223.924 286.554C223.641 286.463 223.38 286.418 223.142 286.418C222.791 286.418 222.519 286.503 222.326 286.673C222.134 286.843 222.037 287.07 222.037 287.353C222.037 287.693 222.162 287.971 222.411 288.186C222.672 288.39 223.063 288.611 223.584 288.849C224.049 289.076 224.423 289.285 224.706 289.478C224.99 289.659 225.233 289.909 225.437 290.226C225.641 290.543 225.743 290.94 225.743 291.416C225.743 292.243 225.466 292.912 224.91 293.422C224.366 293.932 223.579 294.187 222.547 294.187ZM230.707 294.187C229.449 294.187 228.469 293.841 227.766 293.15C227.075 292.447 226.729 291.365 226.729 289.903C226.729 288.43 227.069 287.302 227.749 286.52C228.429 285.727 229.347 285.33 230.503 285.33C231.557 285.33 232.373 285.664 232.951 286.333C233.541 286.99 233.835 287.937 233.835 289.172C233.835 289.455 233.813 289.693 233.767 289.886C233.733 290.079 233.711 290.198 233.699 290.243H229.126C229.138 291.263 229.285 291.988 229.568 292.419C229.863 292.838 230.333 293.048 230.979 293.048C231.365 293.048 231.705 292.969 231.999 292.81C232.294 292.64 232.526 292.459 232.696 292.266C232.866 292.062 232.951 291.949 232.951 291.926L233.716 292.521C233.716 292.566 233.597 292.731 233.359 293.014C233.133 293.297 232.793 293.564 232.339 293.813C231.897 294.062 231.353 294.187 230.707 294.187ZM231.727 289.138V288.747C231.727 287.886 231.637 287.285 231.455 286.945C231.274 286.594 230.957 286.418 230.503 286.418C230.186 286.418 229.931 286.497 229.738 286.656C229.557 286.815 229.415 287.092 229.313 287.489C229.211 287.874 229.149 288.424 229.126 289.138H231.727ZM242.021 294.187C241.364 294.187 240.814 294.096 240.372 293.915C239.93 293.722 239.596 293.518 239.369 293.303C239.142 293.088 239.029 292.957 239.029 292.912L239.658 292.028C239.658 292.051 239.749 292.153 239.93 292.334C240.111 292.515 240.338 292.685 240.61 292.844C240.893 292.991 241.205 293.065 241.545 293.065C241.964 293.065 242.287 292.957 242.514 292.742C242.741 292.527 242.854 292.243 242.854 291.892C242.854 291.552 242.735 291.286 242.497 291.093C242.259 290.889 241.902 290.679 241.426 290.464C240.984 290.249 240.627 290.056 240.355 289.886C240.094 289.705 239.868 289.461 239.675 289.155C239.482 288.838 239.386 288.435 239.386 287.948C239.386 287.109 239.675 286.463 240.253 286.01C240.831 285.545 241.545 285.313 242.395 285.313C242.758 285.313 243.12 285.358 243.483 285.449C243.846 285.54 244.146 285.63 244.384 285.721C244.622 285.812 244.775 285.874 244.843 285.908L244.537 287.047C244.48 287.013 244.35 286.945 244.146 286.843C243.942 286.741 243.693 286.645 243.398 286.554C243.115 286.463 242.854 286.418 242.616 286.418C242.265 286.418 241.993 286.503 241.8 286.673C241.607 286.843 241.511 287.07 241.511 287.353C241.511 287.693 241.636 287.971 241.885 288.186C242.146 288.39 242.537 288.611 243.058 288.849C243.523 289.076 243.897 289.285 244.18 289.478C244.463 289.659 244.707 289.909 244.911 290.226C245.115 290.543 245.217 290.94 245.217 291.416C245.217 292.243 244.939 292.912 244.384 293.422C243.84 293.932 243.052 294.187 242.021 294.187ZM250.181 294.187C248.923 294.187 247.943 293.841 247.24 293.15C246.549 292.447 246.203 291.365 246.203 289.903C246.203 288.43 246.543 287.302 247.223 286.52C247.903 285.727 248.821 285.33 249.977 285.33C251.031 285.33 251.847 285.664 252.425 286.333C253.014 286.99 253.309 287.937 253.309 289.172C253.309 289.455 253.286 289.693 253.241 289.886C253.207 290.079 253.184 290.198 253.173 290.243H248.6C248.611 291.263 248.759 291.988 249.042 292.419C249.337 292.838 249.807 293.048 250.453 293.048C250.838 293.048 251.178 292.969 251.473 292.81C251.768 292.64 252 292.459 252.17 292.266C252.34 292.062 252.425 291.949 252.425 291.926L253.19 292.521C253.19 292.566 253.071 292.731 252.833 293.014C252.606 293.297 252.266 293.564 251.813 293.813C251.371 294.062 250.827 294.187 250.181 294.187ZM251.201 289.138V288.747C251.201 287.886 251.11 287.285 250.929 286.945C250.748 286.594 250.43 286.418 249.977 286.418C249.66 286.418 249.405 286.497 249.212 286.656C249.031 286.815 248.889 287.092 248.787 287.489C248.685 287.874 248.623 288.424 248.6 289.138H251.201ZM253.915 294L256.533 289.886L254.051 285.5H256.754L258.165 288.509L259.763 285.5H261.31L258.947 289.359L261.65 294H258.947L257.349 290.821L255.496 294H253.915ZM212.996 310.14C212.492 310.14 212.058 310.065 211.694 309.916C211.33 309.767 211.045 309.608 210.84 309.44C210.644 309.272 210.546 309.174 210.546 309.146L210.882 308.6C210.882 308.619 210.971 308.703 211.148 308.852C211.335 309.001 211.577 309.141 211.876 309.272C212.175 309.403 212.511 309.468 212.884 309.468C213.547 309.468 214.046 309.286 214.382 308.922C214.727 308.558 214.9 308.031 214.9 307.34C214.9 306.724 214.755 306.248 214.466 305.912C214.186 305.576 213.771 305.408 213.22 305.408C213.08 305.408 212.949 305.431 212.828 305.478C212.707 305.525 212.609 305.571 212.534 305.618C212.469 305.665 212.427 305.697 212.408 305.716L212.044 305.296L214.62 301.866H210.966L211.022 300.9H215.6V301.558L213.08 304.848C213.192 304.82 213.318 304.806 213.458 304.806C214.205 304.806 214.807 305.039 215.264 305.506C215.731 305.963 215.964 306.575 215.964 307.34C215.964 307.919 215.833 308.418 215.572 308.838C215.32 309.258 214.97 309.58 214.522 309.804C214.074 310.028 213.565 310.14 212.996 310.14ZM222.488 310L220.094 303H221.298L223.118 308.894L225.05 303H225.82L223.412 310H222.488ZM227.55 301.586C227.382 301.586 227.247 301.535 227.144 301.432C227.023 301.311 226.962 301.161 226.962 300.984C226.962 300.807 227.023 300.657 227.144 300.536C227.247 300.433 227.382 300.382 227.55 300.382C227.727 300.382 227.867 300.429 227.97 300.522C228.082 300.643 228.138 300.797 228.138 300.984C228.138 301.152 228.082 301.301 227.97 301.432C227.839 301.535 227.699 301.586 227.55 301.586ZM227.032 310V303H228.054V310H227.032ZM232.432 310.14C231.582 310.14 230.901 309.837 230.388 309.23C229.874 308.623 229.618 307.779 229.618 306.696C229.618 305.529 229.865 304.601 230.36 303.91C230.864 303.21 231.568 302.86 232.474 302.86C232.856 302.86 233.178 302.911 233.44 303.014C233.701 303.107 233.902 303.215 234.042 303.336C234.182 303.448 234.252 303.513 234.252 303.532H234.266V299.528L235.274 299.472V310H234.406L234.294 309.174C234.191 309.379 233.99 309.594 233.692 309.818C233.393 310.033 232.973 310.14 232.432 310.14ZM232.656 309.454C232.992 309.454 233.281 309.384 233.524 309.244C233.766 309.095 233.948 308.936 234.07 308.768C234.2 308.6 234.266 308.502 234.266 308.474V304.176C234.266 304.157 234.2 304.092 234.07 303.98C233.948 303.868 233.776 303.765 233.552 303.672C233.337 303.579 233.08 303.532 232.782 303.532C232.063 303.532 231.536 303.798 231.2 304.33C230.864 304.853 230.696 305.632 230.696 306.668C230.696 307.648 230.859 308.357 231.186 308.796C231.522 309.235 232.012 309.454 232.656 309.454ZM239.832 310.14C238.899 310.14 238.166 309.851 237.634 309.272C237.102 308.684 236.836 307.807 236.836 306.64C236.836 305.464 237.093 304.54 237.606 303.868C238.12 303.196 238.82 302.86 239.706 302.86C240.509 302.86 241.125 303.14 241.554 303.7C241.993 304.251 242.212 305.035 242.212 306.052C242.212 306.229 242.203 306.374 242.184 306.486C242.166 306.598 242.152 306.668 242.142 306.696H237.9C237.9 308.581 238.582 309.524 239.944 309.524C240.318 309.524 240.635 309.459 240.896 309.328C241.167 309.188 241.377 309.043 241.526 308.894C241.676 308.735 241.75 308.642 241.75 308.614L242.156 308.95C242.156 308.987 242.068 309.109 241.89 309.314C241.713 309.51 241.452 309.697 241.106 309.874C240.761 310.051 240.336 310.14 239.832 310.14ZM241.26 306.108L241.274 305.842C241.274 304.255 240.752 303.462 239.706 303.462C239.156 303.462 238.731 303.681 238.432 304.12C238.134 304.549 237.961 305.212 237.914 306.108H241.26ZM246.162 310.14C245.191 310.14 244.449 309.823 243.936 309.188C243.432 308.553 243.18 307.657 243.18 306.5C243.18 305.343 243.432 304.447 243.936 303.812C244.449 303.177 245.191 302.86 246.162 302.86C247.133 302.86 247.87 303.177 248.374 303.812C248.887 304.447 249.144 305.343 249.144 306.5C249.144 307.648 248.883 308.544 248.36 309.188C247.847 309.823 247.114 310.14 246.162 310.14ZM246.162 309.524C246.815 309.524 247.296 309.277 247.604 308.782C247.912 308.278 248.066 307.517 248.066 306.5C248.066 305.492 247.912 304.736 247.604 304.232C247.296 303.728 246.815 303.476 246.162 303.476C245.509 303.476 245.028 303.728 244.72 304.232C244.412 304.727 244.258 305.483 244.258 306.5C244.258 307.517 244.412 308.278 244.72 308.782C245.028 309.277 245.509 309.524 246.162 309.524ZM252.462 310.14C251.967 310.14 251.547 310.065 251.202 309.916C250.866 309.757 250.609 309.589 250.432 309.412C250.264 309.235 250.18 309.132 250.18 309.104L250.53 308.614C250.53 308.633 250.604 308.721 250.754 308.88C250.903 309.039 251.108 309.188 251.37 309.328C251.631 309.459 251.939 309.524 252.294 309.524C252.816 309.524 253.208 309.393 253.47 309.132C253.74 308.871 253.876 308.553 253.876 308.18C253.876 307.909 253.806 307.685 253.666 307.508C253.535 307.331 253.367 307.195 253.162 307.102C252.966 306.999 252.69 306.887 252.336 306.766C251.925 306.617 251.598 306.481 251.356 306.36C251.113 306.229 250.903 306.038 250.726 305.786C250.558 305.534 250.474 305.207 250.474 304.806C250.474 304.209 250.688 303.737 251.118 303.392C251.556 303.037 252.116 302.86 252.798 302.86C253.096 302.86 253.381 302.902 253.652 302.986C253.932 303.061 254.156 303.145 254.324 303.238C254.492 303.322 254.599 303.378 254.646 303.406L254.478 304.008C254.44 303.98 254.347 303.924 254.198 303.84C254.048 303.747 253.852 303.658 253.61 303.574C253.376 303.49 253.134 303.448 252.882 303.448C252.452 303.448 252.102 303.555 251.832 303.77C251.57 303.985 251.44 304.255 251.44 304.582C251.44 304.853 251.51 305.081 251.65 305.268C251.79 305.445 251.962 305.585 252.168 305.688C252.382 305.791 252.667 305.907 253.022 306.038C253.432 306.178 253.764 306.318 254.016 306.458C254.277 306.589 254.496 306.78 254.674 307.032C254.851 307.284 254.94 307.611 254.94 308.012C254.94 308.619 254.73 309.127 254.31 309.538C253.89 309.939 253.274 310.14 252.462 310.14Z" fill="#222222"/>
<path d="M86.02 273.5H87.839L88.145 274.265H88.196C88.196 274.242 88.2923 274.152 88.485 273.993C88.6777 273.823 88.944 273.67 89.284 273.534C89.624 273.387 90.032 273.313 90.508 273.313C91.5167 273.313 92.31 273.698 92.888 274.469C93.466 275.24 93.755 276.277 93.755 277.58C93.755 278.498 93.619 279.308 93.347 280.011C93.075 280.702 92.684 281.241 92.174 281.626C91.6753 282 91.0803 282.187 90.389 282.187C89.947 282.187 89.573 282.136 89.267 282.034C88.961 281.943 88.7287 281.847 88.57 281.745C88.4113 281.632 88.332 281.564 88.332 281.541H88.281V286.25L86.02 286.318V273.5ZM89.539 280.895C89.9697 280.895 90.3097 280.793 90.559 280.589C90.8197 280.385 91.0123 280.051 91.137 279.586C91.2617 279.11 91.324 278.458 91.324 277.631C91.324 276.849 91.2617 276.243 91.137 275.812C91.0237 275.37 90.848 275.064 90.61 274.894C90.3833 274.724 90.083 274.639 89.709 274.639C89.437 274.639 89.1933 274.69 88.978 274.792C88.774 274.894 88.6097 275.002 88.485 275.115C88.3717 275.228 88.3037 275.313 88.281 275.37V280.334C88.3037 280.368 88.3603 280.43 88.451 280.521C88.5417 280.6 88.6777 280.685 88.859 280.776C89.0517 280.855 89.2783 280.895 89.539 280.895ZM97.3407 282.187C96.5473 282.187 95.9127 281.989 95.4367 281.592C94.9607 281.195 94.7227 280.651 94.7227 279.96C94.7227 278.963 95.1873 278.243 96.1167 277.801C97.0573 277.348 98.151 277.07 99.3977 276.968V276.475C99.3977 275.704 99.29 275.177 99.0747 274.894C98.8593 274.599 98.4967 274.452 97.9867 274.452C97.7487 274.452 97.4767 274.497 97.1707 274.588C96.876 274.679 96.6153 274.775 96.3887 274.877C96.1733 274.979 96.0317 275.047 95.9637 275.081L95.7427 273.993C95.8107 273.959 95.9693 273.891 96.2187 273.789C96.4793 273.676 96.8023 273.568 97.1877 273.466C97.5843 273.364 97.981 273.313 98.3777 273.313C99.443 273.313 100.253 273.54 100.809 273.993C101.375 274.435 101.659 275.2 101.659 276.288V280.147C101.659 280.748 101.778 281.048 102.016 281.048C102.106 281.048 102.214 281.031 102.339 280.997C102.463 280.963 102.548 280.94 102.594 280.929L102.662 281.813C102.605 281.836 102.469 281.875 102.254 281.932C102.038 281.989 101.789 282.045 101.506 282.102C101.234 282.159 100.99 282.187 100.775 282.187C100.446 282.187 100.191 282.108 100.01 281.949C99.8283 281.779 99.7093 281.507 99.6527 281.133H99.5677C99.5677 281.167 99.4883 281.275 99.3297 281.456C99.1823 281.626 98.9443 281.79 98.6157 281.949C98.287 282.108 97.862 282.187 97.3407 282.187ZM98.0887 281.048C98.3607 281.048 98.593 280.98 98.7857 280.844C98.9897 280.708 99.1427 280.561 99.2447 280.402C99.3467 280.232 99.3977 280.136 99.3977 280.113V277.869C98.6383 277.948 98.0603 278.13 97.6637 278.413C97.2783 278.685 97.0857 279.104 97.0857 279.671C97.0857 280.124 97.1763 280.47 97.3577 280.708C97.539 280.935 97.7827 281.048 98.0887 281.048ZM106.668 282.187C105.864 282.187 105.269 281.989 104.883 281.592C104.498 281.195 104.305 280.527 104.305 279.586V274.809H103.489V273.789L104.322 273.551L105.41 270.678H106.566V273.5H108.436V274.809H106.566V279.008C106.566 279.541 106.589 279.949 106.634 280.232C106.691 280.504 106.776 280.697 106.889 280.81C107.003 280.912 107.161 280.963 107.365 280.963C107.592 280.963 107.796 280.94 107.977 280.895C108.159 280.85 108.249 280.821 108.249 280.81L108.385 281.779C108.385 281.79 108.323 281.83 108.198 281.898C108.074 281.966 107.881 282.028 107.62 282.085C107.371 282.153 107.054 282.187 106.668 282.187ZM109.993 273.5H111.591L111.965 274.928H112.033C112.033 274.86 112.078 274.696 112.169 274.435C112.259 274.163 112.424 273.908 112.662 273.67C112.911 273.432 113.24 273.313 113.648 273.313C113.874 273.313 114.129 273.347 114.413 273.415C114.707 273.483 114.9 273.528 114.991 273.551L114.787 275.132C114.696 275.109 114.492 275.064 114.175 274.996C113.869 274.928 113.602 274.894 113.376 274.894C113.115 274.894 112.9 274.973 112.73 275.132C112.571 275.279 112.452 275.438 112.373 275.608C112.293 275.778 112.254 275.88 112.254 275.914V282H109.993V273.5ZM117.175 272.225C116.835 272.225 116.534 272.112 116.274 271.885C116.013 271.624 115.883 271.301 115.883 270.916C115.883 270.542 116.013 270.225 116.274 269.964C116.512 269.737 116.812 269.624 117.175 269.624C117.526 269.624 117.815 269.732 118.042 269.947C118.291 270.208 118.416 270.531 118.416 270.916C118.416 271.313 118.291 271.641 118.042 271.902C117.792 272.117 117.503 272.225 117.175 272.225ZM116.036 282V273.5H118.297V282H116.036ZM123.769 282.187C122.5 282.187 121.52 281.802 120.828 281.031C120.148 280.26 119.808 279.167 119.808 277.75C119.808 276.333 120.148 275.24 120.828 274.469C121.52 273.698 122.5 273.313 123.769 273.313C125.05 273.313 126.03 273.698 126.71 274.469C127.402 275.24 127.747 276.333 127.747 277.75C127.747 279.155 127.39 280.249 126.676 281.031C125.974 281.802 125.005 282.187 123.769 282.187ZM123.769 281.065C124.143 281.065 124.438 280.957 124.653 280.742C124.88 280.527 125.044 280.181 125.146 279.705C125.248 279.229 125.299 278.577 125.299 277.75C125.299 276.923 125.248 276.271 125.146 275.795C125.044 275.319 124.886 274.979 124.67 274.775C124.455 274.56 124.155 274.452 123.769 274.452C123.384 274.452 123.084 274.56 122.868 274.775C122.653 274.979 122.494 275.319 122.392 275.795C122.29 276.271 122.239 276.917 122.239 277.733C122.239 278.56 122.29 279.218 122.392 279.705C122.494 280.181 122.653 280.527 122.868 280.742C123.095 280.957 123.395 281.065 123.769 281.065ZM131.936 282.187C131.131 282.187 130.536 281.989 130.151 281.592C129.766 281.195 129.573 280.527 129.573 279.586V274.809H128.757V273.789L129.59 273.551L130.678 270.678H131.834V273.5H133.704V274.809H131.834V279.008C131.834 279.541 131.857 279.949 131.902 280.232C131.959 280.504 132.044 280.697 132.157 280.81C132.27 280.912 132.429 280.963 132.633 280.963C132.86 280.963 133.064 280.94 133.245 280.895C133.426 280.85 133.517 280.821 133.517 280.81L133.653 281.779C133.653 281.79 133.591 281.83 133.466 281.898C133.341 281.966 133.149 282.028 132.888 282.085C132.639 282.153 132.321 282.187 131.936 282.187ZM136.399 272.225C136.059 272.225 135.759 272.112 135.498 271.885C135.238 271.624 135.107 271.301 135.107 270.916C135.107 270.542 135.238 270.225 135.498 269.964C135.736 269.737 136.037 269.624 136.399 269.624C136.751 269.624 137.04 269.732 137.266 269.947C137.516 270.208 137.64 270.531 137.64 270.916C137.64 271.313 137.516 271.641 137.266 271.902C137.017 272.117 136.728 272.225 136.399 272.225ZM135.26 282V273.5H137.521V282H135.26ZM143.079 282.187C141.776 282.187 140.773 281.813 140.07 281.065C139.379 280.317 139.033 279.229 139.033 277.801C139.033 276.418 139.396 275.325 140.121 274.52C140.846 273.715 141.849 273.313 143.13 273.313C143.481 273.313 143.838 273.364 144.201 273.466C144.575 273.557 144.887 273.659 145.136 273.772C145.385 273.874 145.544 273.942 145.612 273.976L145.391 275.064C145.334 275.03 145.193 274.968 144.966 274.877C144.739 274.775 144.479 274.679 144.184 274.588C143.889 274.497 143.623 274.452 143.385 274.452C142.954 274.452 142.603 274.543 142.331 274.724C142.059 274.905 141.849 275.24 141.702 275.727C141.555 276.203 141.481 276.883 141.481 277.767C141.481 279.025 141.64 279.886 141.957 280.351C142.274 280.816 142.728 281.048 143.317 281.048C143.714 281.048 144.054 280.963 144.337 280.793C144.632 280.612 144.858 280.425 145.017 280.232C145.176 280.028 145.255 279.909 145.255 279.875L146.054 280.385C146.054 280.453 145.952 280.64 145.748 280.946C145.544 281.241 145.221 281.524 144.779 281.796C144.337 282.057 143.77 282.187 143.079 282.187ZM85.602 297.16C85.8167 297.076 86.26 296.712 86.932 296.068C87.6133 295.424 88.234 294.682 88.794 293.842C89.354 292.993 89.634 292.176 89.634 291.392C89.634 290.729 89.4987 290.244 89.228 289.936C88.9667 289.619 88.514 289.46 87.87 289.46C87.562 289.46 87.2587 289.516 86.96 289.628C86.6707 289.74 86.4187 289.866 86.204 290.006C85.9893 290.146 85.882 290.221 85.882 290.23L85.77 289.6C85.77 289.581 85.882 289.502 86.106 289.362C86.3393 289.213 86.624 289.077 86.96 288.956C87.296 288.835 87.6507 288.774 88.024 288.774C88.9573 288.774 89.6433 289.003 90.082 289.46C90.53 289.908 90.754 290.524 90.754 291.308C90.754 292.316 90.334 293.329 89.494 294.346C88.654 295.354 87.7253 296.255 86.708 297.048H91.006V298H85.602V297.16ZM97.4881 298L95.0941 291H96.2981L98.1181 296.894L100.05 291H100.82L98.4121 298H97.4881ZM102.55 289.586C102.382 289.586 102.247 289.535 102.144 289.432C102.023 289.311 101.962 289.161 101.962 288.984C101.962 288.807 102.023 288.657 102.144 288.536C102.247 288.433 102.382 288.382 102.55 288.382C102.727 288.382 102.867 288.429 102.97 288.522C103.082 288.643 103.138 288.797 103.138 288.984C103.138 289.152 103.082 289.301 102.97 289.432C102.839 289.535 102.699 289.586 102.55 289.586ZM102.032 298V291H103.054V298H102.032ZM107.432 298.14C106.582 298.14 105.901 297.837 105.388 297.23C104.874 296.623 104.618 295.779 104.618 294.696C104.618 293.529 104.865 292.601 105.36 291.91C105.864 291.21 106.568 290.86 107.474 290.86C107.856 290.86 108.178 290.911 108.44 291.014C108.701 291.107 108.902 291.215 109.042 291.336C109.182 291.448 109.252 291.513 109.252 291.532H109.266V287.528L110.274 287.472V298H109.406L109.294 297.174C109.191 297.379 108.99 297.594 108.692 297.818C108.393 298.033 107.973 298.14 107.432 298.14ZM107.656 297.454C107.992 297.454 108.281 297.384 108.524 297.244C108.766 297.095 108.948 296.936 109.07 296.768C109.2 296.6 109.266 296.502 109.266 296.474V292.176C109.266 292.157 109.2 292.092 109.07 291.98C108.948 291.868 108.776 291.765 108.552 291.672C108.337 291.579 108.08 291.532 107.782 291.532C107.063 291.532 106.536 291.798 106.2 292.33C105.864 292.853 105.696 293.632 105.696 294.668C105.696 295.648 105.859 296.357 106.186 296.796C106.522 297.235 107.012 297.454 107.656 297.454ZM114.832 298.14C113.899 298.14 113.166 297.851 112.634 297.272C112.102 296.684 111.836 295.807 111.836 294.64C111.836 293.464 112.093 292.54 112.606 291.868C113.12 291.196 113.82 290.86 114.706 290.86C115.509 290.86 116.125 291.14 116.554 291.7C116.993 292.251 117.212 293.035 117.212 294.052C117.212 294.229 117.203 294.374 117.184 294.486C117.166 294.598 117.152 294.668 117.142 294.696H112.9C112.9 296.581 113.582 297.524 114.944 297.524C115.318 297.524 115.635 297.459 115.896 297.328C116.167 297.188 116.377 297.043 116.526 296.894C116.676 296.735 116.75 296.642 116.75 296.614L117.156 296.95C117.156 296.987 117.068 297.109 116.89 297.314C116.713 297.51 116.452 297.697 116.106 297.874C115.761 298.051 115.336 298.14 114.832 298.14ZM116.26 294.108L116.274 293.842C116.274 292.255 115.752 291.462 114.706 291.462C114.156 291.462 113.731 291.681 113.432 292.12C113.134 292.549 112.961 293.212 112.914 294.108H116.26ZM121.162 298.14C120.191 298.14 119.449 297.823 118.936 297.188C118.432 296.553 118.18 295.657 118.18 294.5C118.18 293.343 118.432 292.447 118.936 291.812C119.449 291.177 120.191 290.86 121.162 290.86C122.133 290.86 122.87 291.177 123.374 291.812C123.887 292.447 124.144 293.343 124.144 294.5C124.144 295.648 123.883 296.544 123.36 297.188C122.847 297.823 122.114 298.14 121.162 298.14ZM121.162 297.524C121.815 297.524 122.296 297.277 122.604 296.782C122.912 296.278 123.066 295.517 123.066 294.5C123.066 293.492 122.912 292.736 122.604 292.232C122.296 291.728 121.815 291.476 121.162 291.476C120.509 291.476 120.028 291.728 119.72 292.232C119.412 292.727 119.258 293.483 119.258 294.5C119.258 295.517 119.412 296.278 119.72 296.782C120.028 297.277 120.509 297.524 121.162 297.524ZM127.462 298.14C126.967 298.14 126.547 298.065 126.202 297.916C125.866 297.757 125.609 297.589 125.432 297.412C125.264 297.235 125.18 297.132 125.18 297.104L125.53 296.614C125.53 296.633 125.604 296.721 125.754 296.88C125.903 297.039 126.108 297.188 126.37 297.328C126.631 297.459 126.939 297.524 127.294 297.524C127.816 297.524 128.208 297.393 128.47 297.132C128.74 296.871 128.876 296.553 128.876 296.18C128.876 295.909 128.806 295.685 128.666 295.508C128.535 295.331 128.367 295.195 128.162 295.102C127.966 294.999 127.69 294.887 127.336 294.766C126.925 294.617 126.598 294.481 126.356 294.36C126.113 294.229 125.903 294.038 125.726 293.786C125.558 293.534 125.474 293.207 125.474 292.806C125.474 292.209 125.688 291.737 126.118 291.392C126.556 291.037 127.116 290.86 127.798 290.86C128.096 290.86 128.381 290.902 128.652 290.986C128.932 291.061 129.156 291.145 129.324 291.238C129.492 291.322 129.599 291.378 129.646 291.406L129.478 292.008C129.44 291.98 129.347 291.924 129.198 291.84C129.048 291.747 128.852 291.658 128.61 291.574C128.376 291.49 128.134 291.448 127.882 291.448C127.452 291.448 127.102 291.555 126.832 291.77C126.57 291.985 126.44 292.255 126.44 292.582C126.44 292.853 126.51 293.081 126.65 293.268C126.79 293.445 126.962 293.585 127.168 293.688C127.382 293.791 127.667 293.907 128.022 294.038C128.432 294.178 128.764 294.318 129.016 294.458C129.277 294.589 129.496 294.78 129.674 295.032C129.851 295.284 129.94 295.611 129.94 296.012C129.94 296.619 129.73 297.127 129.31 297.538C128.89 297.939 128.274 298.14 127.462 298.14Z" fill="#222222"/>
</svg>
