<svg width="380" height="360" viewBox="0 0 380 360" fill="none" xmlns="http://www.w3.org/2000/svg">
<path d="M45.1924 194.644C45.1924 230.117 59.2839 264.137 84.3669 289.22C109.45 314.303 143.47 328.394 178.943 328.394C214.415 328.394 248.435 314.303 273.518 289.22C298.601 264.137 312.693 230.117 312.693 194.644C312.693 159.171 298.601 125.152 273.518 100.069C248.435 74.9855 214.415 60.894 178.943 60.894C143.47 60.894 109.45 74.9855 84.3669 100.069C59.2839 125.152 45.1924 159.171 45.1924 194.644" fill="#013369" fill-opacity="0.6"/>
<path d="M45.1924 194.644C45.1924 230.117 59.2839 264.137 84.3669 289.22C109.45 314.303 143.47 328.394 178.943 328.394C214.415 328.394 248.435 314.303 273.518 289.22C298.601 264.137 312.693 230.117 312.693 194.644C312.693 159.171 298.601 125.152 273.518 100.069C248.435 74.9855 214.415 60.894 178.943 60.894C143.47 60.894 109.45 74.9855 84.3669 100.069C59.2839 125.152 45.1924 159.171 45.1924 194.644" stroke="white" stroke-width="2"/>
<path d="M28.512 232.386H27.63V231.306L28.512 231.054V229.722C28.512 228.642 28.734 227.808 29.178 227.22C29.622 226.62 30.348 226.32 31.356 226.32C31.656 226.32 31.956 226.368 32.256 226.464C32.556 226.548 32.802 226.638 32.994 226.734C33.198 226.83 33.324 226.896 33.372 226.932L33.066 227.958C33.03 227.934 32.94 227.892 32.796 227.832C32.652 227.76 32.484 227.694 32.292 227.634C32.1 227.562 31.932 227.526 31.788 227.526C31.56 227.526 31.386 227.586 31.266 227.706C31.146 227.826 31.056 228.066 30.996 228.426C30.936 228.774 30.906 229.296 30.906 229.992V231H33.156V232.386H30.906V240H28.512V232.386ZM37.0027 240.198C36.0787 240.198 35.3827 239.952 34.9147 239.46C34.4587 238.956 34.2307 238.176 34.2307 237.12V231H36.6247V236.616C36.6247 237.408 36.7207 237.954 36.9127 238.254C37.1047 238.554 37.4167 238.704 37.8487 238.704C38.1367 238.704 38.3947 238.656 38.6227 238.56C38.8507 238.452 39.0307 238.344 39.1627 238.236C39.2947 238.128 39.3787 238.056 39.4147 238.02V231H41.8087V240H39.8827L39.5407 239.208H39.5047C39.5047 239.232 39.4087 239.334 39.2167 239.514C39.0247 239.682 38.7427 239.838 38.3707 239.982C37.9987 240.126 37.5427 240.198 37.0027 240.198ZM43.9882 231H45.9142L46.2202 231.738H46.2922C46.2922 231.714 46.3882 231.624 46.5802 231.468C46.7842 231.312 47.0722 231.168 47.4442 231.036C47.8162 230.892 48.2782 230.82 48.8302 230.82C49.7542 230.82 50.4442 231.072 50.9002 231.576C51.3682 232.068 51.6022 232.842 51.6022 233.898V240H49.2082V234.384C49.2082 233.58 49.1182 233.034 48.9382 232.746C48.7702 232.458 48.4582 232.314 48.0022 232.314C47.6902 232.314 47.4142 232.362 47.1742 232.458C46.9342 232.554 46.7422 232.662 46.5982 232.782C46.4542 232.89 46.3822 232.95 46.3822 232.962V240H43.9882V231ZM53.6738 231H55.5998L55.9058 231.738H55.9778C55.9778 231.714 56.0738 231.624 56.2658 231.468C56.4698 231.312 56.7578 231.168 57.1298 231.036C57.5018 230.892 57.9638 230.82 58.5158 230.82C59.4398 230.82 60.1298 231.072 60.5858 231.576C61.0538 232.068 61.2878 232.842 61.2878 233.898V240H58.8938V234.384C58.8938 233.58 58.8038 233.034 58.6238 232.746C58.4558 232.458 58.1438 232.314 57.6878 232.314C57.3758 232.314 57.0998 232.362 56.8598 232.458C56.6198 232.554 56.4278 232.662 56.2838 232.782C56.1398 232.89 56.0678 232.95 56.0678 232.962V240H53.6738V231ZM64.0793 244.698C63.8033 244.698 63.5573 244.674 63.3413 244.626C63.1373 244.59 62.9813 244.548 62.8733 244.5C62.7653 244.464 62.6993 244.44 62.6753 244.428L62.8733 243.024C62.9213 243.048 63.0413 243.084 63.2333 243.132C63.4253 243.192 63.6173 243.222 63.8093 243.222C64.3493 243.222 64.7873 243.006 65.1233 242.574C65.4593 242.154 65.8313 241.416 66.2393 240.36L62.4053 231H65.3033L67.4993 237.408L69.3533 231H70.8473L67.7333 240.198C67.3613 241.218 67.0073 242.046 66.6713 242.682C66.3473 243.318 65.9753 243.81 65.5553 244.158C65.1353 244.518 64.6433 244.698 64.0793 244.698ZM29.805 259V250.12L28.005 251.125L27.75 250.54L29.985 249.25H30.885V259H29.805ZM33.1821 258.1C33.4121 258.01 33.8871 257.62 34.6071 256.93C35.3371 256.24 36.0021 255.445 36.6021 254.545C37.2021 253.635 37.5021 252.76 37.5021 251.92C37.5021 251.21 37.3571 250.69 37.0671 250.36C36.7871 250.02 36.3021 249.85 35.6121 249.85C35.2821 249.85 34.9571 249.91 34.6371 250.03C34.3271 250.15 34.0571 250.285 33.8271 250.435C33.5971 250.585 33.4821 250.665 33.4821 250.675L33.3621 250C33.3621 249.98 33.4821 249.895 33.7221 249.745C33.9721 249.585 34.2771 249.44 34.6371 249.31C34.9971 249.18 35.3771 249.115 35.7771 249.115C36.7771 249.115 37.5121 249.36 37.9821 249.85C38.4621 250.33 38.7021 250.99 38.7021 251.83C38.7021 252.91 38.2521 253.995 37.3521 255.085C36.4521 256.165 35.4571 257.13 34.3671 257.98H38.9721V259H33.1821V258.1ZM45.9172 259L43.3522 251.5H44.6422L46.5922 257.815L48.6622 251.5H49.4872L46.9072 259H45.9172ZM51.3408 249.985C51.1608 249.985 51.0158 249.93 50.9058 249.82C50.7758 249.69 50.7108 249.53 50.7108 249.34C50.7108 249.15 50.7758 248.99 50.9058 248.86C51.0158 248.75 51.1608 248.695 51.3408 248.695C51.5308 248.695 51.6808 248.745 51.7908 248.845C51.9108 248.975 51.9708 249.14 51.9708 249.34C51.9708 249.52 51.9108 249.68 51.7908 249.82C51.6508 249.93 51.5008 249.985 51.3408 249.985ZM50.7858 259V251.5H51.8808V259H50.7858ZM56.571 259.15C55.661 259.15 54.931 258.825 54.381 258.175C53.831 257.525 53.556 256.62 53.556 255.46C53.556 254.21 53.821 253.215 54.351 252.475C54.891 251.725 55.646 251.35 56.616 251.35C57.026 251.35 57.371 251.405 57.651 251.515C57.931 251.615 58.146 251.73 58.296 251.86C58.446 251.98 58.521 252.05 58.521 252.07H58.536V247.78L59.616 247.72V259H58.686L58.566 258.115C58.456 258.335 58.241 258.565 57.921 258.805C57.601 259.035 57.151 259.15 56.571 259.15ZM56.811 258.415C57.171 258.415 57.481 258.34 57.741 258.19C58.001 258.03 58.196 257.86 58.326 257.68C58.466 257.5 58.536 257.395 58.536 257.365V252.76C58.536 252.74 58.466 252.67 58.326 252.55C58.196 252.43 58.011 252.32 57.771 252.22C57.541 252.12 57.266 252.07 56.946 252.07C56.176 252.07 55.611 252.355 55.251 252.925C54.891 253.485 54.711 254.32 54.711 255.43C54.711 256.48 54.886 257.24 55.236 257.71C55.596 258.18 56.121 258.415 56.811 258.415ZM64.5004 259.15C63.5004 259.15 62.7154 258.84 62.1454 258.22C61.5754 257.59 61.2904 256.65 61.2904 255.4C61.2904 254.14 61.5654 253.15 62.1154 252.43C62.6654 251.71 63.4154 251.35 64.3654 251.35C65.2254 251.35 65.8854 251.65 66.3454 252.25C66.8154 252.84 67.0504 253.68 67.0504 254.77C67.0504 254.96 67.0404 255.115 67.0204 255.235C67.0004 255.355 66.9854 255.43 66.9754 255.46H62.4304C62.4304 257.48 63.1604 258.49 64.6204 258.49C65.0204 258.49 65.3604 258.42 65.6404 258.28C65.9304 258.13 66.1554 257.975 66.3154 257.815C66.4754 257.645 66.5554 257.545 66.5554 257.515L66.9904 257.875C66.9904 257.915 66.8954 258.045 66.7054 258.265C66.5154 258.475 66.2354 258.675 65.8654 258.865C65.4954 259.055 65.0404 259.15 64.5004 259.15ZM66.0304 254.83L66.0454 254.545C66.0454 252.845 65.4854 251.995 64.3654 251.995C63.7754 251.995 63.3204 252.23 63.0004 252.7C62.6804 253.16 62.4954 253.87 62.4454 254.83H66.0304ZM71.2822 259.15C70.2422 259.15 69.4472 258.81 68.8972 258.13C68.3572 257.45 68.0872 256.49 68.0872 255.25C68.0872 254.01 68.3572 253.05 68.8972 252.37C69.4472 251.69 70.2422 251.35 71.2822 251.35C72.3222 251.35 73.1122 251.69 73.6522 252.37C74.2022 253.05 74.4772 254.01 74.4772 255.25C74.4772 256.48 74.1972 257.44 73.6372 258.13C73.0872 258.81 72.3022 259.15 71.2822 259.15ZM71.2822 258.49C71.9822 258.49 72.4972 258.225 72.8272 257.695C73.1572 257.155 73.3222 256.34 73.3222 255.25C73.3222 254.17 73.1572 253.36 72.8272 252.82C72.4972 252.28 71.9822 252.01 71.2822 252.01C70.5822 252.01 70.0672 252.28 69.7372 252.82C69.4072 253.35 69.2422 254.16 69.2422 255.25C69.2422 256.34 69.4072 257.155 69.7372 257.695C70.0672 258.225 70.5822 258.49 71.2822 258.49ZM78.0319 259.15C77.5019 259.15 77.0519 259.07 76.6819 258.91C76.3219 258.74 76.0469 258.56 75.8569 258.37C75.6769 258.18 75.5869 258.07 75.5869 258.04L75.9619 257.515C75.9619 257.535 76.0419 257.63 76.2019 257.8C76.3619 257.97 76.5819 258.13 76.8619 258.28C77.1419 258.42 77.4719 258.49 77.8519 258.49C78.4119 258.49 78.8319 258.35 79.1119 258.07C79.4019 257.79 79.5469 257.45 79.5469 257.05C79.5469 256.76 79.4719 256.52 79.3219 256.33C79.1819 256.14 79.0019 255.995 78.7819 255.895C78.5719 255.785 78.2769 255.665 77.8969 255.535C77.4569 255.375 77.1069 255.23 76.8469 255.1C76.5869 254.96 76.3619 254.755 76.1719 254.485C75.9919 254.215 75.9019 253.865 75.9019 253.435C75.9019 252.795 76.1319 252.29 76.5919 251.92C77.0619 251.54 77.6619 251.35 78.3919 251.35C78.7119 251.35 79.0169 251.395 79.3069 251.485C79.6069 251.565 79.8469 251.655 80.0269 251.755C80.2069 251.845 80.3219 251.905 80.3719 251.935L80.1919 252.58C80.1519 252.55 80.0519 252.49 79.8919 252.4C79.7319 252.3 79.5219 252.205 79.2619 252.115C79.0119 252.025 78.7519 251.98 78.4819 251.98C78.0219 251.98 77.6469 252.095 77.3569 252.325C77.0769 252.555 76.9369 252.845 76.9369 253.195C76.9369 253.485 77.0119 253.73 77.1619 253.93C77.3119 254.12 77.4969 254.27 77.7169 254.38C77.9469 254.49 78.2519 254.615 78.6319 254.755C79.0719 254.905 79.4269 255.055 79.6969 255.205C79.9769 255.345 80.2119 255.55 80.4019 255.82C80.5919 256.09 80.6869 256.44 80.6869 256.87C80.6869 257.52 80.4619 258.065 80.0119 258.505C79.5619 258.935 78.9019 259.15 78.0319 259.15Z" fill="#222222"/>
<path d="M15 86.7074C15 104.444 22.0457 121.454 34.5873 133.995C47.1288 146.537 64.1387 153.582 81.8751 153.582C99.6115 153.582 116.621 146.537 129.163 133.995C141.704 121.454 148.75 104.444 148.75 86.7074C148.75 68.971 141.704 51.961 129.163 39.4195C116.621 26.878 99.6115 19.8323 81.8751 19.8323C64.1387 19.8323 47.1288 26.878 34.5873 39.4195C22.0457 51.961 15 68.971 15 86.7074" fill="#198143" fill-opacity="0.6"/>
<path d="M15 86.7074C15 104.444 22.0457 121.454 34.5873 133.995C47.1288 146.537 64.1387 153.582 81.8751 153.582C99.6115 153.582 116.621 146.537 129.163 133.995C141.704 121.454 148.75 104.444 148.75 86.7074C148.75 68.971 141.704 51.961 129.163 39.4195C116.621 26.878 99.6115 19.8323 81.8751 19.8323C64.1387 19.8323 47.1288 26.878 34.5873 39.4195C22.0457 51.961 15 68.971 15 86.7074" stroke="white" stroke-width="2"/>
<path d="M29.96 69H31.672L31.96 69.72H32.008C32.008 69.6987 32.0987 69.6133 32.28 69.464C32.4613 69.304 32.712 69.16 33.032 69.032C33.352 68.8933 33.736 68.824 34.184 68.824C35.1333 68.824 35.88 69.1867 36.424 69.912C36.968 70.6373 37.24 71.6133 37.24 72.84C37.24 73.704 37.112 74.4667 36.856 75.128C36.6 75.7787 36.232 76.2853 35.752 76.648C35.2827 77 34.7227 77.176 34.072 77.176C33.656 77.176 33.304 77.128 33.016 77.032C32.728 76.9467 32.5093 76.856 32.36 76.76C32.2107 76.6533 32.136 76.5893 32.136 76.568H32.088V81L29.96 81.064V69ZM33.272 75.96C33.6773 75.96 33.9973 75.864 34.232 75.672C34.4773 75.48 34.6587 75.1653 34.776 74.728C34.8933 74.28 34.952 73.6667 34.952 72.888C34.952 72.152 34.8933 71.5813 34.776 71.176C34.6693 70.76 34.504 70.472 34.28 70.312C34.0667 70.152 33.784 70.072 33.432 70.072C33.176 70.072 32.9467 70.12 32.744 70.216C32.552 70.312 32.3973 70.4133 32.28 70.52C32.1733 70.6267 32.1093 70.7067 32.088 70.76V75.432C32.1093 75.464 32.1627 75.5227 32.248 75.608C32.3333 75.6827 32.4613 75.7627 32.632 75.848C32.8133 75.9227 33.0267 75.96 33.272 75.96ZM40.6148 77.176C39.8681 77.176 39.2708 76.9893 38.8228 76.616C38.3748 76.2427 38.1508 75.7307 38.1508 75.08C38.1508 74.1413 38.5881 73.464 39.4628 73.048C40.3481 72.6213 41.3774 72.36 42.5508 72.264V71.8C42.5508 71.0747 42.4494 70.5787 42.2468 70.312C42.0441 70.0347 41.7028 69.896 41.2228 69.896C40.9988 69.896 40.7428 69.9387 40.4548 70.024C40.1774 70.1093 39.9321 70.2 39.7188 70.296C39.5161 70.392 39.3828 70.456 39.3188 70.488L39.1108 69.464C39.1748 69.432 39.3241 69.368 39.5588 69.272C39.8041 69.1653 40.1081 69.064 40.4708 68.968C40.8441 68.872 41.2174 68.824 41.5908 68.824C42.5934 68.824 43.3561 69.0373 43.8788 69.464C44.4121 69.88 44.6788 70.6 44.6788 71.624V75.256C44.6788 75.8213 44.7908 76.104 45.0148 76.104C45.1001 76.104 45.2014 76.088 45.3188 76.056C45.4361 76.024 45.5161 76.0027 45.5588 75.992L45.6228 76.824C45.5694 76.8453 45.4414 76.8827 45.2388 76.936C45.0361 76.9893 44.8014 77.0427 44.5348 77.096C44.2788 77.1493 44.0494 77.176 43.8468 77.176C43.5374 77.176 43.2974 77.1013 43.1268 76.952C42.9561 76.792 42.8441 76.536 42.7908 76.184H42.7108C42.7108 76.216 42.6361 76.3173 42.4868 76.488C42.3481 76.648 42.1241 76.8027 41.8148 76.952C41.5054 77.1013 41.1054 77.176 40.6148 77.176ZM41.3188 76.104C41.5748 76.104 41.7934 76.04 41.9748 75.912C42.1668 75.784 42.3108 75.6453 42.4068 75.496C42.5028 75.336 42.5508 75.2453 42.5508 75.224V73.112C41.8361 73.1867 41.2921 73.3573 40.9188 73.624C40.5561 73.88 40.3748 74.2747 40.3748 74.808C40.3748 75.2347 40.4601 75.56 40.6308 75.784C40.8014 75.9973 41.0308 76.104 41.3188 76.104ZM49.3939 77.176C48.6365 77.176 48.0765 76.9893 47.7139 76.616C47.3512 76.2427 47.1699 75.6133 47.1699 74.728V70.232H46.4019V69.272L47.1859 69.048L48.2099 66.344H49.2979V69H51.0579V70.232H49.2979V74.184C49.2979 74.6853 49.3192 75.0693 49.3619 75.336C49.4152 75.592 49.4952 75.7733 49.6019 75.88C49.7085 75.976 49.8579 76.024 50.0499 76.024C50.2632 76.024 50.4552 76.0027 50.6259 75.96C50.7965 75.9173 50.8819 75.8907 50.8819 75.88L51.0099 76.792C51.0099 76.8027 50.9512 76.84 50.8339 76.904C50.7165 76.968 50.5352 77.0267 50.2899 77.08C50.0552 77.144 49.7565 77.176 49.3939 77.176ZM52.5225 69H54.0265L54.3785 70.344H54.4425C54.4425 70.28 54.4852 70.1253 54.5705 69.88C54.6558 69.624 54.8105 69.384 55.0345 69.16C55.2692 68.936 55.5785 68.824 55.9625 68.824C56.1758 68.824 56.4158 68.856 56.6825 68.92C56.9598 68.984 57.1412 69.0267 57.2265 69.048L57.0345 70.536C56.9492 70.5147 56.7572 70.472 56.4585 70.408C56.1705 70.344 55.9198 70.312 55.7065 70.312C55.4612 70.312 55.2585 70.3867 55.0985 70.536C54.9492 70.6747 54.8372 70.824 54.7625 70.984C54.6878 71.144 54.6505 71.24 54.6505 71.272V77H52.5225V69ZM59.282 67.8C58.962 67.8 58.6793 67.6933 58.434 67.48C58.1887 67.2347 58.066 66.9307 58.066 66.568C58.066 66.216 58.1887 65.9173 58.434 65.672C58.658 65.4587 58.9407 65.352 59.282 65.352C59.6127 65.352 59.8847 65.4533 60.098 65.656C60.3327 65.9013 60.45 66.2053 60.45 66.568C60.45 66.9413 60.3327 67.2507 60.098 67.496C59.8633 67.6987 59.5913 67.8 59.282 67.8ZM58.21 77V69H60.338V77H58.21ZM65.4889 77.176C64.2942 77.176 63.3715 76.8133 62.7209 76.088C62.0809 75.3627 61.7609 74.3333 61.7609 73C61.7609 71.6667 62.0809 70.6373 62.7209 69.912C63.3715 69.1867 64.2942 68.824 65.4889 68.824C66.6942 68.824 67.6169 69.1867 68.2569 69.912C68.9075 70.6373 69.2329 71.6667 69.2329 73C69.2329 74.3227 68.8969 75.352 68.2249 76.088C67.5635 76.8133 66.6515 77.176 65.4889 77.176ZM65.4889 76.12C65.8409 76.12 66.1182 76.0187 66.3209 75.816C66.5342 75.6133 66.6889 75.288 66.7849 74.84C66.8809 74.392 66.9289 73.7787 66.9289 73C66.9289 72.2213 66.8809 71.608 66.7849 71.16C66.6889 70.712 66.5395 70.392 66.3369 70.2C66.1342 69.9973 65.8515 69.896 65.4889 69.896C65.1262 69.896 64.8435 69.9973 64.6409 70.2C64.4382 70.392 64.2889 70.712 64.1929 71.16C64.0969 71.608 64.0489 72.216 64.0489 72.984C64.0489 73.7627 64.0969 74.3813 64.1929 74.84C64.2889 75.288 64.4382 75.6133 64.6409 75.816C64.8542 76.0187 65.1369 76.12 65.4889 76.12ZM73.1751 77.176C72.4178 77.176 71.8578 76.9893 71.4951 76.616C71.1325 76.2427 70.9511 75.6133 70.9511 74.728V70.232H70.1831V69.272L70.9671 69.048L71.9911 66.344H73.0791V69H74.8391V70.232H73.0791V74.184C73.0791 74.6853 73.1005 75.0693 73.1431 75.336C73.1965 75.592 73.2765 75.7733 73.3831 75.88C73.4898 75.976 73.6391 76.024 73.8311 76.024C74.0445 76.024 74.2365 76.0027 74.4071 75.96C74.5778 75.9173 74.6631 75.8907 74.6631 75.88L74.7911 76.792C74.7911 76.8027 74.7325 76.84 74.6151 76.904C74.4978 76.968 74.3165 77.0267 74.0711 77.08C73.8365 77.144 73.5378 77.176 73.1751 77.176ZM77.3758 67.8C77.0558 67.8 76.7731 67.6933 76.5278 67.48C76.2824 67.2347 76.1598 66.9307 76.1598 66.568C76.1598 66.216 76.2824 65.9173 76.5278 65.672C76.7518 65.4587 77.0344 65.352 77.3758 65.352C77.7064 65.352 77.9784 65.4533 78.1918 65.656C78.4264 65.9013 78.5438 66.2053 78.5438 66.568C78.5438 66.9413 78.4264 67.2507 78.1918 67.496C77.9571 67.6987 77.6851 67.8 77.3758 67.8ZM76.3038 77V69H78.4318V77H76.3038ZM83.6626 77.176C82.436 77.176 81.492 76.824 80.8306 76.12C80.18 75.416 79.8546 74.392 79.8546 73.048C79.8546 71.7467 80.196 70.7173 80.8786 69.96C81.5613 69.2027 82.5053 68.824 83.7106 68.824C84.0413 68.824 84.3773 68.872 84.7186 68.968C85.0706 69.0533 85.364 69.1493 85.5986 69.256C85.8333 69.352 85.9826 69.416 86.0466 69.448L85.8386 70.472C85.7853 70.44 85.652 70.3813 85.4386 70.296C85.2253 70.2 84.98 70.1093 84.7026 70.024C84.4253 69.9387 84.1746 69.896 83.9506 69.896C83.5453 69.896 83.2146 69.9813 82.9586 70.152C82.7026 70.3227 82.5053 70.6373 82.3666 71.096C82.228 71.544 82.1586 72.184 82.1586 73.016C82.1586 74.2 82.308 75.0107 82.6066 75.448C82.9053 75.8853 83.332 76.104 83.8866 76.104C84.26 76.104 84.58 76.024 84.8466 75.864C85.124 75.6933 85.3373 75.5173 85.4866 75.336C85.636 75.144 85.7106 75.032 85.7106 75L86.4626 75.48C86.4626 75.544 86.3666 75.72 86.1746 76.008C85.9826 76.2853 85.6786 76.552 85.2626 76.808C84.8466 77.0533 84.3133 77.176 83.6626 77.176ZM31.782 93.13C31.314 93.13 30.911 93.0607 30.573 92.922C30.235 92.7833 29.9707 92.636 29.78 92.48C29.598 92.324 29.507 92.233 29.507 92.207L29.819 91.7C29.819 91.7173 29.9013 91.7953 30.066 91.934C30.2393 92.0727 30.4647 92.2027 30.742 92.324C31.0193 92.4453 31.3313 92.506 31.678 92.506C32.2933 92.506 32.757 92.337 33.069 91.999C33.3897 91.661 33.55 91.1713 33.55 90.53C33.55 89.958 33.4157 89.516 33.147 89.204C32.887 88.892 32.5013 88.736 31.99 88.736C31.86 88.736 31.7387 88.7577 31.626 88.801C31.5133 88.8443 31.4223 88.8877 31.353 88.931C31.2923 88.9743 31.2533 89.0047 31.236 89.022L30.898 88.632L33.29 85.447H29.897L29.949 84.55H34.2V85.161L31.86 88.216C31.964 88.19 32.081 88.177 32.211 88.177C32.9043 88.177 33.4633 88.3937 33.888 88.827C34.3213 89.2517 34.538 89.8193 34.538 90.53C34.538 91.0673 34.4167 91.531 34.174 91.921C33.94 92.311 33.615 92.61 33.199 92.818C32.783 93.026 32.3107 93.13 31.782 93.13ZM40.5961 93L38.3731 86.5H39.4911L41.1811 91.973L42.9751 86.5H43.6901L41.4541 93H40.5961ZM45.2965 85.187C45.1405 85.187 45.0148 85.1393 44.9195 85.044C44.8068 84.9313 44.7505 84.7927 44.7505 84.628C44.7505 84.4633 44.8068 84.3247 44.9195 84.212C45.0148 84.1167 45.1405 84.069 45.2965 84.069C45.4612 84.069 45.5912 84.1123 45.6865 84.199C45.7905 84.3117 45.8425 84.4547 45.8425 84.628C45.8425 84.784 45.7905 84.9227 45.6865 85.044C45.5652 85.1393 45.4352 85.187 45.2965 85.187ZM44.8155 93V86.5H45.7645V93H44.8155ZM49.8294 93.13C49.0407 93.13 48.408 92.8483 47.9314 92.285C47.4547 91.7217 47.2164 90.9373 47.2164 89.932C47.2164 88.8487 47.446 87.9863 47.9054 87.345C48.3734 86.695 49.0277 86.37 49.8684 86.37C50.2237 86.37 50.5227 86.4177 50.7654 86.513C51.008 86.5997 51.1944 86.6993 51.3244 86.812C51.4544 86.916 51.5194 86.9767 51.5194 86.994H51.5324V83.276L52.4684 83.224V93H51.6624L51.5584 92.233C51.463 92.4237 51.2767 92.623 50.9994 92.831C50.722 93.0303 50.332 93.13 49.8294 93.13ZM50.0374 92.493C50.3494 92.493 50.618 92.428 50.8434 92.298C51.0687 92.1593 51.2377 92.012 51.3504 91.856C51.4717 91.7 51.5324 91.609 51.5324 91.583V87.592C51.5324 87.5747 51.4717 87.514 51.3504 87.41C51.2377 87.306 51.0774 87.2107 50.8694 87.124C50.67 87.0373 50.4317 86.994 50.1544 86.994C49.487 86.994 48.9974 87.241 48.6854 87.735C48.3734 88.2203 48.2174 88.944 48.2174 89.906C48.2174 90.816 48.369 91.4747 48.6724 91.882C48.9844 92.2893 49.4394 92.493 50.0374 92.493ZM56.7015 93.13C55.8348 93.13 55.1545 92.8613 54.6605 92.324C54.1665 91.778 53.9195 90.9633 53.9195 89.88C53.9195 88.788 54.1578 87.93 54.6345 87.306C55.1111 86.682 55.7611 86.37 56.5845 86.37C57.3298 86.37 57.9018 86.63 58.3005 87.15C58.7078 87.6613 58.9115 88.3893 58.9115 89.334C58.9115 89.4987 58.9028 89.633 58.8855 89.737C58.8681 89.841 58.8551 89.906 58.8465 89.932H54.9075C54.9075 91.6827 55.5401 92.558 56.8055 92.558C57.1521 92.558 57.4468 92.4973 57.6895 92.376C57.9408 92.246 58.1358 92.1117 58.2745 91.973C58.4131 91.8257 58.4825 91.739 58.4825 91.713L58.8595 92.025C58.8595 92.0597 58.7771 92.1723 58.6125 92.363C58.4478 92.545 58.2051 92.7183 57.8845 92.883C57.5638 93.0477 57.1695 93.13 56.7015 93.13ZM58.0275 89.386L58.0405 89.139C58.0405 87.6657 57.5551 86.929 56.5845 86.929C56.0731 86.929 55.6788 87.1327 55.4015 87.54C55.1241 87.9387 54.9638 88.554 54.9205 89.386H58.0275ZM62.5791 93.13C61.6778 93.13 60.9888 92.8353 60.5121 92.246C60.0441 91.6567 59.8101 90.8247 59.8101 89.75C59.8101 88.6753 60.0441 87.8433 60.5121 87.254C60.9888 86.6647 61.6778 86.37 62.5791 86.37C63.4804 86.37 64.1651 86.6647 64.6331 87.254C65.1098 87.8433 65.3481 88.6753 65.3481 89.75C65.3481 90.816 65.1054 91.648 64.6201 92.246C64.1434 92.8353 63.4631 93.13 62.5791 93.13ZM62.5791 92.558C63.1858 92.558 63.6321 92.3283 63.9181 91.869C64.2041 91.401 64.3471 90.6947 64.3471 89.75C64.3471 88.814 64.2041 88.112 63.9181 87.644C63.6321 87.176 63.1858 86.942 62.5791 86.942C61.9724 86.942 61.5261 87.176 61.2401 87.644C60.9541 88.1033 60.8111 88.8053 60.8111 89.75C60.8111 90.6947 60.9541 91.401 61.2401 91.869C61.5261 92.3283 61.9724 92.558 62.5791 92.558ZM68.4288 93.13C67.9695 93.13 67.5795 93.0607 67.2588 92.922C66.9468 92.7747 66.7085 92.6187 66.5438 92.454C66.3878 92.2893 66.3098 92.194 66.3098 92.168L66.6348 91.713C66.6348 91.7303 66.7041 91.8127 66.8428 91.96C66.9815 92.1073 67.1721 92.246 67.4148 92.376C67.6575 92.4973 67.9435 92.558 68.2728 92.558C68.7581 92.558 69.1221 92.4367 69.3648 92.194C69.6161 91.9513 69.7418 91.6567 69.7418 91.31C69.7418 91.0587 69.6768 90.8507 69.5468 90.686C69.4255 90.5213 69.2695 90.3957 69.0788 90.309C68.8968 90.2137 68.6411 90.1097 68.3118 89.997C67.9305 89.8583 67.6271 89.7327 67.4018 89.62C67.1765 89.4987 66.9815 89.321 66.8168 89.087C66.6608 88.853 66.5828 88.5497 66.5828 88.177C66.5828 87.6223 66.7821 87.1847 67.1808 86.864C67.5881 86.5347 68.1081 86.37 68.7408 86.37C69.0181 86.37 69.2825 86.409 69.5338 86.487C69.7938 86.5563 70.0018 86.6343 70.1578 86.721C70.3138 86.799 70.4135 86.851 70.4568 86.877L70.3008 87.436C70.2661 87.41 70.1795 87.358 70.0408 87.28C69.9021 87.1933 69.7201 87.111 69.4948 87.033C69.2781 86.955 69.0528 86.916 68.8188 86.916C68.4201 86.916 68.0951 87.0157 67.8438 87.215C67.6011 87.4143 67.4798 87.6657 67.4798 87.969C67.4798 88.2203 67.5448 88.4327 67.6748 88.606C67.8048 88.7707 67.9651 88.9007 68.1558 88.996C68.3551 89.0913 68.6195 89.1997 68.9488 89.321C69.3301 89.451 69.6378 89.581 69.8718 89.711C70.1145 89.8323 70.3181 90.01 70.4828 90.244C70.6475 90.478 70.7298 90.7813 70.7298 91.154C70.7298 91.7173 70.5348 92.1897 70.1448 92.571C69.7548 92.9437 69.1828 93.13 68.4288 93.13Z" fill="#222222"/>
<path d="M83.734 117.745C83.734 142.828 93.6982 166.884 111.435 184.62C129.171 202.356 153.227 212.321 178.31 212.321C203.393 212.321 227.448 202.356 245.185 184.62C262.921 166.884 272.885 142.828 272.885 117.745C272.885 92.6618 262.921 68.6062 245.185 50.8698C227.448 33.1334 203.393 23.1692 178.31 23.1692C153.227 23.1692 129.171 33.1334 111.435 50.8698C93.6982 68.6062 83.734 92.6618 83.734 117.745Z" fill="#D3BC8D" fill-opacity="0.6" stroke="white" stroke-width="2"/>
<path d="M160.272 45.176C159.045 45.176 158.101 44.824 157.44 44.12C156.789 43.416 156.464 42.392 156.464 41.048C156.464 39.7467 156.805 38.7173 157.488 37.96C158.171 37.2027 159.115 36.824 160.32 36.824C160.651 36.824 160.987 36.872 161.328 36.968C161.68 37.0533 161.973 37.1493 162.208 37.256C162.443 37.352 162.592 37.416 162.656 37.448L162.448 38.472C162.395 38.44 162.261 38.3813 162.048 38.296C161.835 38.2 161.589 38.1093 161.312 38.024C161.035 37.9387 160.784 37.896 160.56 37.896C160.155 37.896 159.824 37.9813 159.568 38.152C159.312 38.3227 159.115 38.6373 158.976 39.096C158.837 39.544 158.768 40.184 158.768 41.016C158.768 42.2 158.917 43.0107 159.216 43.448C159.515 43.8853 159.941 44.104 160.496 44.104C160.869 44.104 161.189 44.024 161.456 43.864C161.733 43.6933 161.947 43.5173 162.096 43.336C162.245 43.144 162.32 43.032 162.32 43L163.072 43.48C163.072 43.544 162.976 43.72 162.784 44.008C162.592 44.2853 162.288 44.552 161.872 44.808C161.456 45.0533 160.923 45.176 160.272 45.176ZM167.349 45.176C166.165 45.176 165.242 44.8507 164.581 44.2C163.93 43.5387 163.605 42.52 163.605 41.144C163.605 39.7573 163.925 38.696 164.565 37.96C165.205 37.2133 166.069 36.84 167.157 36.84C168.149 36.84 168.917 37.1547 169.461 37.784C170.015 38.4027 170.293 39.2933 170.293 40.456C170.293 40.7227 170.271 40.9467 170.229 41.128C170.197 41.3093 170.175 41.4213 170.165 41.464H165.861C165.871 42.424 166.01 43.1067 166.277 43.512C166.554 43.9067 166.997 44.104 167.605 44.104C167.967 44.104 168.287 44.0293 168.565 43.88C168.842 43.72 169.061 43.5493 169.221 43.368C169.381 43.176 169.461 43.0693 169.461 43.048L170.181 43.608C170.181 43.6507 170.069 43.8053 169.845 44.072C169.631 44.3387 169.311 44.5893 168.885 44.824C168.469 45.0587 167.957 45.176 167.349 45.176ZM168.309 40.424V40.056C168.309 39.2453 168.223 38.68 168.053 38.36C167.882 38.0293 167.583 37.864 167.157 37.864C166.858 37.864 166.618 37.9387 166.437 38.088C166.266 38.2373 166.133 38.4987 166.037 38.872C165.941 39.2347 165.882 39.752 165.861 40.424H168.309ZM171.679 45V33.064L173.807 32.936V45H171.679ZM178.989 45.176C177.805 45.176 176.883 44.8507 176.221 44.2C175.571 43.5387 175.245 42.52 175.245 41.144C175.245 39.7573 175.565 38.696 176.205 37.96C176.845 37.2133 177.709 36.84 178.797 36.84C179.789 36.84 180.557 37.1547 181.101 37.784C181.656 38.4027 181.933 39.2933 181.933 40.456C181.933 40.7227 181.912 40.9467 181.869 41.128C181.837 41.3093 181.816 41.4213 181.805 41.464H177.501C177.512 42.424 177.651 43.1067 177.917 43.512C178.195 43.9067 178.637 44.104 179.245 44.104C179.608 44.104 179.928 44.0293 180.205 43.88C180.483 43.72 180.701 43.5493 180.861 43.368C181.021 43.176 181.101 43.0693 181.101 43.048L181.821 43.608C181.821 43.6507 181.709 43.8053 181.485 44.072C181.272 44.3387 180.952 44.5893 180.525 44.824C180.109 45.0587 179.597 45.176 178.989 45.176ZM179.949 40.424V40.056C179.949 39.2453 179.864 38.68 179.693 38.36C179.523 38.0293 179.224 37.864 178.797 37.864C178.499 37.864 178.259 37.9387 178.077 38.088C177.907 38.2373 177.773 38.4987 177.677 38.872C177.581 39.2347 177.523 39.752 177.501 40.424H179.949ZM187.271 45.24C186.845 45.24 186.471 45.1813 186.151 45.064C185.842 44.9467 185.597 44.824 185.415 44.696C185.245 44.5573 185.159 44.4773 185.159 44.456H185.127L184.775 45H183.319V33.064L185.447 32.936V37.528H185.511C185.511 37.5067 185.581 37.432 185.719 37.304C185.858 37.1653 186.071 37.0427 186.359 36.936C186.647 36.8187 187.005 36.76 187.431 36.76C188.061 36.76 188.615 36.9307 189.095 37.272C189.575 37.6133 189.949 38.0933 190.215 38.712C190.482 39.3307 190.615 40.04 190.615 40.84C190.615 42.1627 190.317 43.2293 189.719 44.04C189.133 44.84 188.317 45.24 187.271 45.24ZM186.711 44.024C187.298 44.024 187.714 43.7893 187.959 43.32C188.205 42.84 188.327 42.0293 188.327 40.888C188.327 40.152 188.274 39.576 188.167 39.16C188.071 38.744 187.911 38.4507 187.687 38.28C187.463 38.0987 187.165 38.008 186.791 38.008C186.514 38.008 186.274 38.072 186.071 38.2C185.869 38.3173 185.714 38.4507 185.607 38.6C185.501 38.7387 185.447 38.8187 185.447 38.84V43.432C185.447 43.4533 185.495 43.5173 185.591 43.624C185.687 43.72 185.826 43.8107 186.007 43.896C186.199 43.9813 186.434 44.024 186.711 44.024ZM192.038 37H193.542L193.894 38.344H193.958C193.958 38.28 194.001 38.1253 194.086 37.88C194.171 37.624 194.326 37.384 194.55 37.16C194.785 36.936 195.094 36.824 195.478 36.824C195.691 36.824 195.931 36.856 196.198 36.92C196.475 36.984 196.657 37.0267 196.742 37.048L196.55 38.536C196.465 38.5147 196.273 38.472 195.974 38.408C195.686 38.344 195.435 38.312 195.222 38.312C194.977 38.312 194.774 38.3867 194.614 38.536C194.465 38.6747 194.353 38.824 194.278 38.984C194.203 39.144 194.166 39.24 194.166 39.272V45H192.038V37ZM198.798 35.8C198.478 35.8 198.195 35.6933 197.95 35.48C197.704 35.2347 197.582 34.9307 197.582 34.568C197.582 34.216 197.704 33.9173 197.95 33.672C198.174 33.4587 198.456 33.352 198.798 33.352C199.128 33.352 199.4 33.4533 199.614 33.656C199.848 33.9013 199.966 34.2053 199.966 34.568C199.966 34.9413 199.848 35.2507 199.614 35.496C199.379 35.6987 199.107 35.8 198.798 35.8ZM197.726 45V37H199.854V45H197.726ZM204.285 45.176C203.527 45.176 202.967 44.9893 202.605 44.616C202.242 44.2427 202.061 43.6133 202.061 42.728V38.232H201.293V37.272L202.077 37.048L203.101 34.344H204.189V37H205.949V38.232H204.189V42.184C204.189 42.6853 204.21 43.0693 204.253 43.336C204.306 43.592 204.386 43.7733 204.493 43.88C204.599 43.976 204.749 44.024 204.941 44.024C205.154 44.024 205.346 44.0027 205.516 43.96C205.687 43.9173 205.773 43.8907 205.773 43.88L205.901 44.792C205.901 44.8027 205.842 44.84 205.725 44.904C205.607 44.968 205.426 45.0267 205.181 45.08C204.946 45.144 204.647 45.176 204.285 45.176ZM208.053 49.176C207.808 49.176 207.589 49.1547 207.397 49.112C207.216 49.08 207.077 49.0427 206.981 49C206.885 48.968 206.826 48.9467 206.805 48.936L206.981 47.688C207.024 47.7093 207.13 47.7413 207.301 47.784C207.472 47.8373 207.642 47.864 207.813 47.864C208.293 47.864 208.682 47.672 208.981 47.288C209.28 46.9147 209.61 46.2587 209.973 45.32L206.565 37H209.141L211.093 42.696L212.741 37H214.069L211.301 45.176C210.97 46.0827 210.656 46.8187 210.357 47.384C210.069 47.9493 209.738 48.3867 209.365 48.696C208.992 49.016 208.554 49.176 208.053 49.176ZM159.484 61.13C158.6 61.13 157.92 60.8397 157.443 60.259C156.966 59.6783 156.728 58.842 156.728 57.75C156.728 57.4033 156.741 57.087 156.767 56.801C156.854 55.3363 157.144 54.2443 157.638 53.525C158.132 52.797 158.786 52.433 159.601 52.433C159.87 52.433 160.125 52.4677 160.368 52.537C160.619 52.5977 160.819 52.6627 160.966 52.732C161.122 52.8013 161.222 52.849 161.265 52.875L161.135 53.447C161.1 53.421 161.014 53.3777 160.875 53.317C160.736 53.2477 160.559 53.1827 160.342 53.122C160.125 53.0613 159.904 53.031 159.679 53.031C158.414 53.031 157.742 54.1793 157.664 56.476C158.184 55.9387 158.812 55.67 159.549 55.67C160.338 55.67 160.957 55.9083 161.408 56.385C161.867 56.8617 162.097 57.4987 162.097 58.296C162.097 58.8247 161.997 59.3057 161.798 59.739C161.607 60.1637 161.313 60.5017 160.914 60.753C160.524 61.0043 160.047 61.13 159.484 61.13ZM159.484 60.558C160.047 60.558 160.459 60.35 160.719 59.934C160.979 59.5093 161.109 58.959 161.109 58.283C161.109 57.659 160.97 57.1563 160.693 56.775C160.416 56.3937 159.995 56.203 159.432 56.203C159.025 56.203 158.687 56.3027 158.418 56.502C158.149 56.6927 157.933 56.9093 157.768 57.152L157.781 57.165C157.764 57.2603 157.746 57.3903 157.729 57.555C157.72 57.7197 157.716 57.8843 157.716 58.049C157.716 59.7217 158.305 60.558 159.484 60.558ZM168.142 61L165.919 54.5H167.037L168.727 59.973L170.521 54.5H171.236L169 61H168.142ZM172.842 53.187C172.686 53.187 172.561 53.1393 172.465 53.044C172.353 52.9313 172.296 52.7927 172.296 52.628C172.296 52.4633 172.353 52.3247 172.465 52.212C172.561 52.1167 172.686 52.069 172.842 52.069C173.007 52.069 173.137 52.1123 173.232 52.199C173.336 52.3117 173.388 52.4547 173.388 52.628C173.388 52.784 173.336 52.9227 173.232 53.044C173.111 53.1393 172.981 53.187 172.842 53.187ZM172.361 61V54.5H173.31V61H172.361ZM177.375 61.13C176.587 61.13 175.954 60.8483 175.477 60.285C175.001 59.7217 174.762 58.9373 174.762 57.932C174.762 56.8487 174.992 55.9863 175.451 55.345C175.919 54.695 176.574 54.37 177.414 54.37C177.77 54.37 178.069 54.4177 178.311 54.513C178.554 54.5997 178.74 54.6993 178.87 54.812C179 54.916 179.065 54.9767 179.065 54.994H179.078V51.276L180.014 51.224V61H179.208L179.104 60.233C179.009 60.4237 178.823 60.623 178.545 60.831C178.268 61.0303 177.878 61.13 177.375 61.13ZM177.583 60.493C177.895 60.493 178.164 60.428 178.389 60.298C178.615 60.1593 178.784 60.012 178.896 59.856C179.018 59.7 179.078 59.609 179.078 59.583V55.592C179.078 55.5747 179.018 55.514 178.896 55.41C178.784 55.306 178.623 55.2107 178.415 55.124C178.216 55.0373 177.978 54.994 177.7 54.994C177.033 54.994 176.543 55.241 176.231 55.735C175.919 56.2203 175.763 56.944 175.763 57.906C175.763 58.816 175.915 59.4747 176.218 59.882C176.53 60.2893 176.985 60.493 177.583 60.493ZM184.247 61.13C183.381 61.13 182.7 60.8613 182.206 60.324C181.712 59.778 181.465 58.9633 181.465 57.88C181.465 56.788 181.704 55.93 182.18 55.306C182.657 54.682 183.307 54.37 184.13 54.37C184.876 54.37 185.448 54.63 185.846 55.15C186.254 55.6613 186.457 56.3893 186.457 57.334C186.457 57.4987 186.449 57.633 186.431 57.737C186.414 57.841 186.401 57.906 186.392 57.932H182.453C182.453 59.6827 183.086 60.558 184.351 60.558C184.698 60.558 184.993 60.4973 185.235 60.376C185.487 60.246 185.682 60.1117 185.82 59.973C185.959 59.8257 186.028 59.739 186.028 59.713L186.405 60.025C186.405 60.0597 186.323 60.1723 186.158 60.363C185.994 60.545 185.751 60.7183 185.43 60.883C185.11 61.0477 184.715 61.13 184.247 61.13ZM185.573 57.386L185.586 57.139C185.586 55.6657 185.101 54.929 184.13 54.929C183.619 54.929 183.225 55.1327 182.947 55.54C182.67 55.9387 182.51 56.554 182.466 57.386H185.573ZM190.125 61.13C189.224 61.13 188.535 60.8353 188.058 60.246C187.59 59.6567 187.356 58.8247 187.356 57.75C187.356 56.6753 187.59 55.8433 188.058 55.254C188.535 54.6647 189.224 54.37 190.125 54.37C191.026 54.37 191.711 54.6647 192.179 55.254C192.656 55.8433 192.894 56.6753 192.894 57.75C192.894 58.816 192.651 59.648 192.166 60.246C191.689 60.8353 191.009 61.13 190.125 61.13ZM190.125 60.558C190.732 60.558 191.178 60.3283 191.464 59.869C191.75 59.401 191.893 58.6947 191.893 57.75C191.893 56.814 191.75 56.112 191.464 55.644C191.178 55.176 190.732 54.942 190.125 54.942C189.518 54.942 189.072 55.176 188.786 55.644C188.5 56.1033 188.357 56.8053 188.357 57.75C188.357 58.6947 188.5 59.401 188.786 59.869C189.072 60.3283 189.518 60.558 190.125 60.558ZM195.975 61.13C195.515 61.13 195.125 61.0607 194.805 60.922C194.493 60.7747 194.254 60.6187 194.09 60.454C193.934 60.2893 193.856 60.194 193.856 60.168L194.181 59.713C194.181 59.7303 194.25 59.8127 194.389 59.96C194.527 60.1073 194.718 60.246 194.961 60.376C195.203 60.4973 195.489 60.558 195.819 60.558C196.304 60.558 196.668 60.4367 196.911 60.194C197.162 59.9513 197.288 59.6567 197.288 59.31C197.288 59.0587 197.223 58.8507 197.093 58.686C196.971 58.5213 196.815 58.3957 196.625 58.309C196.443 58.2137 196.187 58.1097 195.858 57.997C195.476 57.8583 195.173 57.7327 194.948 57.62C194.722 57.4987 194.527 57.321 194.363 57.087C194.207 56.853 194.129 56.5497 194.129 56.177C194.129 55.6223 194.328 55.1847 194.727 54.864C195.134 54.5347 195.654 54.37 196.287 54.37C196.564 54.37 196.828 54.409 197.08 54.487C197.34 54.5563 197.548 54.6343 197.704 54.721C197.86 54.799 197.959 54.851 198.003 54.877L197.847 55.436C197.812 55.41 197.725 55.358 197.587 55.28C197.448 55.1933 197.266 55.111 197.041 55.033C196.824 54.955 196.599 54.916 196.365 54.916C195.966 54.916 195.641 55.0157 195.39 55.215C195.147 55.4143 195.026 55.6657 195.026 55.969C195.026 56.2203 195.091 56.4327 195.221 56.606C195.351 56.7707 195.511 56.9007 195.702 56.996C195.901 57.0913 196.165 57.1997 196.495 57.321C196.876 57.451 197.184 57.581 197.418 57.711C197.66 57.8323 197.864 58.01 198.029 58.244C198.193 58.478 198.276 58.7813 198.276 59.154C198.276 59.7173 198.081 60.1897 197.691 60.571C197.301 60.9437 196.729 61.13 195.975 61.13Z" fill="#222222"/>
<path d="M97.8397 245.592C97.8397 258.012 100.286 270.31 105.039 281.785C109.792 293.259 116.758 303.685 125.54 312.467C134.322 321.249 144.748 328.216 156.223 332.969C167.697 337.721 179.996 340.168 192.415 340.168C204.835 340.168 217.133 337.721 228.608 332.969C240.082 328.216 250.508 321.249 259.29 312.467C268.073 303.685 275.039 293.259 279.792 281.785C284.545 270.31 286.991 258.012 286.991 245.592C286.991 220.509 277.027 196.453 259.29 178.717C241.554 160.981 217.498 151.016 192.415 151.016C167.332 151.016 143.277 160.981 125.54 178.717C107.804 196.453 97.8397 220.509 97.8397 245.592" fill="#A8001C" fill-opacity="0.6"/>
<path d="M97.8397 245.592C97.8397 258.012 100.286 270.31 105.039 281.785C109.792 293.259 116.758 303.685 125.54 312.467C134.322 321.249 144.748 328.216 156.223 332.969C167.697 337.721 179.996 340.168 192.415 340.168C204.835 340.168 217.133 337.721 228.608 332.969C240.082 328.216 250.508 321.249 259.29 312.467C268.073 303.685 275.039 293.259 279.792 281.785C284.545 270.31 286.991 258.012 286.991 245.592C286.991 220.509 277.027 196.453 259.29 178.717C241.554 160.981 217.498 151.016 192.415 151.016C167.332 151.016 143.277 160.981 125.54 178.717C107.804 196.453 97.8397 220.509 97.8397 245.592" stroke="white" stroke-width="2"/>
<path d="M154.808 288.176C154.147 288.176 153.56 288.011 153.048 287.68C152.547 287.349 152.157 286.885 151.88 286.288C151.603 285.68 151.464 284.976 151.464 284.176C151.464 283.312 151.597 282.555 151.864 281.904C152.131 281.243 152.509 280.736 153 280.384C153.491 280.021 154.061 279.84 154.712 279.84C155.128 279.84 155.475 279.888 155.752 279.984C156.029 280.069 156.237 280.165 156.376 280.272C156.515 280.368 156.584 280.427 156.584 280.448H156.632V276.064L158.76 275.936V288H156.984L156.744 287.28H156.728C156.728 287.312 156.664 287.403 156.536 287.552C156.408 287.701 156.2 287.845 155.912 287.984C155.635 288.112 155.267 288.176 154.808 288.176ZM155.288 286.928C155.555 286.928 155.784 286.875 155.976 286.768C156.179 286.661 156.339 286.544 156.456 286.416C156.573 286.288 156.632 286.213 156.632 286.192V281.584C156.611 281.552 156.547 281.499 156.44 281.424C156.344 281.339 156.2 281.259 156.008 281.184C155.827 281.099 155.613 281.056 155.368 281.056C154.792 281.056 154.376 281.285 154.12 281.744C153.875 282.203 153.752 282.992 153.752 284.112C153.752 284.859 153.805 285.435 153.912 285.84C154.029 286.245 154.195 286.528 154.408 286.688C154.632 286.848 154.925 286.928 155.288 286.928ZM162.615 288.176C161.868 288.176 161.271 287.989 160.823 287.616C160.375 287.243 160.151 286.731 160.151 286.08C160.151 285.141 160.588 284.464 161.463 284.048C162.348 283.621 163.377 283.36 164.551 283.264V282.8C164.551 282.075 164.449 281.579 164.247 281.312C164.044 281.035 163.703 280.896 163.223 280.896C162.999 280.896 162.743 280.939 162.455 281.024C162.177 281.109 161.932 281.2 161.719 281.296C161.516 281.392 161.383 281.456 161.319 281.488L161.111 280.464C161.175 280.432 161.324 280.368 161.559 280.272C161.804 280.165 162.108 280.064 162.471 279.968C162.844 279.872 163.217 279.824 163.591 279.824C164.593 279.824 165.356 280.037 165.879 280.464C166.412 280.88 166.679 281.6 166.679 282.624V286.256C166.679 286.821 166.791 287.104 167.015 287.104C167.1 287.104 167.201 287.088 167.319 287.056C167.436 287.024 167.516 287.003 167.559 286.992L167.623 287.824C167.569 287.845 167.441 287.883 167.239 287.936C167.036 287.989 166.801 288.043 166.535 288.096C166.279 288.149 166.049 288.176 165.847 288.176C165.537 288.176 165.297 288.101 165.127 287.952C164.956 287.792 164.844 287.536 164.791 287.184H164.711C164.711 287.216 164.636 287.317 164.487 287.488C164.348 287.648 164.124 287.803 163.815 287.952C163.505 288.101 163.105 288.176 162.615 288.176ZM163.319 287.104C163.575 287.104 163.793 287.04 163.975 286.912C164.167 286.784 164.311 286.645 164.407 286.496C164.503 286.336 164.551 286.245 164.551 286.224V284.112C163.836 284.187 163.292 284.357 162.919 284.624C162.556 284.88 162.375 285.275 162.375 285.808C162.375 286.235 162.46 286.56 162.631 286.784C162.801 286.997 163.031 287.104 163.319 287.104ZM168.882 280H170.594L170.866 280.656H170.93C170.93 280.635 171.015 280.555 171.186 280.416C171.367 280.277 171.623 280.149 171.954 280.032C172.285 279.904 172.695 279.84 173.186 279.84C174.007 279.84 174.621 280.064 175.026 280.512C175.442 280.949 175.65 281.637 175.65 282.576V288H173.522V283.008C173.522 282.293 173.442 281.808 173.282 281.552C173.133 281.296 172.855 281.168 172.45 281.168C172.173 281.168 171.927 281.211 171.714 281.296C171.501 281.381 171.33 281.477 171.202 281.584C171.074 281.68 171.01 281.733 171.01 281.744V288H168.882V280ZM180.275 292.192C179.07 292.192 178.169 291.952 177.571 291.472C176.985 290.992 176.691 290.341 176.691 289.52C176.691 288.624 177.027 287.968 177.699 287.552C177.582 287.296 177.523 287.008 177.523 286.688C177.523 286.048 177.758 285.525 178.227 285.12C177.843 284.875 177.539 284.549 177.315 284.144C177.102 283.739 176.995 283.264 176.995 282.72C176.995 281.76 177.305 281.04 177.923 280.56C178.542 280.08 179.331 279.84 180.291 279.84C180.718 279.84 181.123 279.899 181.507 280.016L183.667 280.032V280.976L182.899 281.024C183.198 281.472 183.347 282.037 183.347 282.72C183.347 283.669 183.065 284.395 182.499 284.896C181.945 285.397 181.193 285.648 180.243 285.648C179.881 285.648 179.513 285.605 179.139 285.52C178.937 285.68 178.835 285.877 178.835 286.112C178.835 286.325 178.958 286.491 179.203 286.608C179.449 286.715 179.87 286.768 180.467 286.768C181.641 286.768 182.51 286.981 183.075 287.408C183.641 287.835 183.923 288.464 183.923 289.296C183.923 290.235 183.614 290.949 182.995 291.44C182.387 291.941 181.481 292.192 180.275 292.192ZM180.195 284.672C180.558 284.672 180.83 284.517 181.011 284.208C181.193 283.899 181.283 283.392 181.283 282.688C181.283 281.984 181.193 281.504 181.011 281.248C180.83 280.992 180.553 280.864 180.179 280.864C179.806 280.864 179.523 280.997 179.331 281.264C179.139 281.52 179.043 282.005 179.043 282.72C179.043 283.413 179.139 283.915 179.331 284.224C179.534 284.523 179.822 284.672 180.195 284.672ZM180.275 291.104C180.905 291.104 181.374 290.992 181.683 290.768C181.993 290.544 182.147 290.219 182.147 289.792C182.147 289.365 181.977 289.056 181.635 288.864C181.305 288.672 180.803 288.576 180.131 288.576C179.502 288.576 178.985 288.491 178.579 288.32C178.313 288.608 178.179 288.992 178.179 289.472C178.179 289.995 178.35 290.395 178.691 290.672C179.043 290.96 179.571 291.104 180.275 291.104ZM188.114 288.176C186.93 288.176 186.008 287.851 185.346 287.2C184.696 286.539 184.37 285.52 184.37 284.144C184.37 282.757 184.69 281.696 185.33 280.96C185.97 280.213 186.834 279.84 187.922 279.84C188.914 279.84 189.682 280.155 190.226 280.784C190.781 281.403 191.058 282.293 191.058 283.456C191.058 283.723 191.037 283.947 190.994 284.128C190.962 284.309 190.941 284.421 190.93 284.464H186.626C186.637 285.424 186.776 286.107 187.042 286.512C187.32 286.907 187.762 287.104 188.37 287.104C188.733 287.104 189.053 287.029 189.33 286.88C189.608 286.72 189.826 286.549 189.986 286.368C190.146 286.176 190.226 286.069 190.226 286.048L190.946 286.608C190.946 286.651 190.834 286.805 190.61 287.072C190.397 287.339 190.077 287.589 189.65 287.824C189.234 288.059 188.722 288.176 188.114 288.176ZM189.074 283.424V283.056C189.074 282.245 188.989 281.68 188.818 281.36C188.648 281.029 188.349 280.864 187.922 280.864C187.624 280.864 187.384 280.939 187.202 281.088C187.032 281.237 186.898 281.499 186.802 281.872C186.706 282.235 186.648 282.752 186.626 283.424H189.074ZM192.444 280H193.948L194.3 281.344H194.364C194.364 281.28 194.407 281.125 194.492 280.88C194.578 280.624 194.732 280.384 194.956 280.16C195.191 279.936 195.5 279.824 195.884 279.824C196.098 279.824 196.338 279.856 196.604 279.92C196.882 279.984 197.063 280.027 197.148 280.048L196.956 281.536C196.871 281.515 196.679 281.472 196.38 281.408C196.092 281.344 195.842 281.312 195.628 281.312C195.383 281.312 195.18 281.387 195.02 281.536C194.871 281.675 194.759 281.824 194.684 281.984C194.61 282.144 194.572 282.24 194.572 282.272V288H192.444V280ZM154.484 304.13C153.6 304.13 152.92 303.84 152.443 303.259C151.966 302.678 151.728 301.842 151.728 300.75C151.728 300.403 151.741 300.087 151.767 299.801C151.854 298.336 152.144 297.244 152.638 296.525C153.132 295.797 153.786 295.433 154.601 295.433C154.87 295.433 155.125 295.468 155.368 295.537C155.619 295.598 155.819 295.663 155.966 295.732C156.122 295.801 156.222 295.849 156.265 295.875L156.135 296.447C156.1 296.421 156.014 296.378 155.875 296.317C155.736 296.248 155.559 296.183 155.342 296.122C155.125 296.061 154.904 296.031 154.679 296.031C153.414 296.031 152.742 297.179 152.664 299.476C153.184 298.939 153.812 298.67 154.549 298.67C155.338 298.67 155.957 298.908 156.408 299.385C156.867 299.862 157.097 300.499 157.097 301.296C157.097 301.825 156.997 302.306 156.798 302.739C156.607 303.164 156.313 303.502 155.914 303.753C155.524 304.004 155.047 304.13 154.484 304.13ZM154.484 303.558C155.047 303.558 155.459 303.35 155.719 302.934C155.979 302.509 156.109 301.959 156.109 301.283C156.109 300.659 155.97 300.156 155.693 299.775C155.416 299.394 154.995 299.203 154.432 299.203C154.025 299.203 153.687 299.303 153.418 299.502C153.149 299.693 152.933 299.909 152.768 300.152L152.781 300.165C152.764 300.26 152.746 300.39 152.729 300.555C152.72 300.72 152.716 300.884 152.716 301.049C152.716 302.722 153.305 303.558 154.484 303.558ZM163.142 304L160.919 297.5H162.037L163.727 302.973L165.521 297.5H166.236L164 304H163.142ZM167.842 296.187C167.686 296.187 167.561 296.139 167.465 296.044C167.353 295.931 167.296 295.793 167.296 295.628C167.296 295.463 167.353 295.325 167.465 295.212C167.561 295.117 167.686 295.069 167.842 295.069C168.007 295.069 168.137 295.112 168.232 295.199C168.336 295.312 168.388 295.455 168.388 295.628C168.388 295.784 168.336 295.923 168.232 296.044C168.111 296.139 167.981 296.187 167.842 296.187ZM167.361 304V297.5H168.31V304H167.361ZM172.375 304.13C171.587 304.13 170.954 303.848 170.477 303.285C170.001 302.722 169.762 301.937 169.762 300.932C169.762 299.849 169.992 298.986 170.451 298.345C170.919 297.695 171.574 297.37 172.414 297.37C172.77 297.37 173.069 297.418 173.311 297.513C173.554 297.6 173.74 297.699 173.87 297.812C174 297.916 174.065 297.977 174.065 297.994H174.078V294.276L175.014 294.224V304H174.208L174.104 303.233C174.009 303.424 173.823 303.623 173.545 303.831C173.268 304.03 172.878 304.13 172.375 304.13ZM172.583 303.493C172.895 303.493 173.164 303.428 173.389 303.298C173.615 303.159 173.784 303.012 173.896 302.856C174.018 302.7 174.078 302.609 174.078 302.583V298.592C174.078 298.575 174.018 298.514 173.896 298.41C173.784 298.306 173.623 298.211 173.415 298.124C173.216 298.037 172.978 297.994 172.7 297.994C172.033 297.994 171.543 298.241 171.231 298.735C170.919 299.22 170.763 299.944 170.763 300.906C170.763 301.816 170.915 302.475 171.218 302.882C171.53 303.289 171.985 303.493 172.583 303.493ZM179.247 304.13C178.381 304.13 177.7 303.861 177.206 303.324C176.712 302.778 176.465 301.963 176.465 300.88C176.465 299.788 176.704 298.93 177.18 298.306C177.657 297.682 178.307 297.37 179.13 297.37C179.876 297.37 180.448 297.63 180.846 298.15C181.254 298.661 181.457 299.389 181.457 300.334C181.457 300.499 181.449 300.633 181.431 300.737C181.414 300.841 181.401 300.906 181.392 300.932H177.453C177.453 302.683 178.086 303.558 179.351 303.558C179.698 303.558 179.993 303.497 180.235 303.376C180.487 303.246 180.682 303.112 180.82 302.973C180.959 302.826 181.028 302.739 181.028 302.713L181.405 303.025C181.405 303.06 181.323 303.172 181.158 303.363C180.994 303.545 180.751 303.718 180.43 303.883C180.11 304.048 179.715 304.13 179.247 304.13ZM180.573 300.386L180.586 300.139C180.586 298.666 180.101 297.929 179.13 297.929C178.619 297.929 178.225 298.133 177.947 298.54C177.67 298.939 177.51 299.554 177.466 300.386H180.573ZM185.125 304.13C184.224 304.13 183.535 303.835 183.058 303.246C182.59 302.657 182.356 301.825 182.356 300.75C182.356 299.675 182.59 298.843 183.058 298.254C183.535 297.665 184.224 297.37 185.125 297.37C186.026 297.37 186.711 297.665 187.179 298.254C187.656 298.843 187.894 299.675 187.894 300.75C187.894 301.816 187.651 302.648 187.166 303.246C186.689 303.835 186.009 304.13 185.125 304.13ZM185.125 303.558C185.732 303.558 186.178 303.328 186.464 302.869C186.75 302.401 186.893 301.695 186.893 300.75C186.893 299.814 186.75 299.112 186.464 298.644C186.178 298.176 185.732 297.942 185.125 297.942C184.518 297.942 184.072 298.176 183.786 298.644C183.5 299.103 183.357 299.805 183.357 300.75C183.357 301.695 183.5 302.401 183.786 302.869C184.072 303.328 184.518 303.558 185.125 303.558ZM190.975 304.13C190.515 304.13 190.125 304.061 189.805 303.922C189.493 303.775 189.254 303.619 189.09 303.454C188.934 303.289 188.856 303.194 188.856 303.168L189.181 302.713C189.181 302.73 189.25 302.813 189.389 302.96C189.527 303.107 189.718 303.246 189.961 303.376C190.203 303.497 190.489 303.558 190.819 303.558C191.304 303.558 191.668 303.437 191.911 303.194C192.162 302.951 192.288 302.657 192.288 302.31C192.288 302.059 192.223 301.851 192.093 301.686C191.971 301.521 191.815 301.396 191.625 301.309C191.443 301.214 191.187 301.11 190.858 300.997C190.476 300.858 190.173 300.733 189.948 300.62C189.722 300.499 189.527 300.321 189.363 300.087C189.207 299.853 189.129 299.55 189.129 299.177C189.129 298.622 189.328 298.185 189.727 297.864C190.134 297.535 190.654 297.37 191.287 297.37C191.564 297.37 191.828 297.409 192.08 297.487C192.34 297.556 192.548 297.634 192.704 297.721C192.86 297.799 192.959 297.851 193.003 297.877L192.847 298.436C192.812 298.41 192.725 298.358 192.587 298.28C192.448 298.193 192.266 298.111 192.041 298.033C191.824 297.955 191.599 297.916 191.365 297.916C190.966 297.916 190.641 298.016 190.39 298.215C190.147 298.414 190.026 298.666 190.026 298.969C190.026 299.22 190.091 299.433 190.221 299.606C190.351 299.771 190.511 299.901 190.702 299.996C190.901 300.091 191.165 300.2 191.495 300.321C191.876 300.451 192.184 300.581 192.418 300.711C192.66 300.832 192.864 301.01 193.029 301.244C193.193 301.478 193.276 301.781 193.276 302.154C193.276 302.717 193.081 303.19 192.691 303.571C192.301 303.944 191.729 304.13 190.975 304.13Z" fill="#EEEEEE"/>
<path d="M160.693 194.644C160.693 208.059 163.335 221.343 168.469 233.737C173.603 246.13 181.127 257.392 190.613 266.878C200.099 276.363 211.36 283.888 223.754 289.022C236.148 294.155 249.432 296.798 262.847 296.798C276.262 296.798 289.545 294.155 301.939 289.022C314.333 283.888 325.594 276.363 335.08 266.878C344.566 257.392 352.09 246.13 357.224 233.737C362.358 221.343 365 208.059 365 194.644C365 167.551 354.237 141.568 335.08 122.411C315.922 103.253 289.939 92.4908 262.847 92.4908C235.754 92.4908 209.771 103.253 190.613 122.411C171.456 141.568 160.693 167.551 160.693 194.644" fill="#FFB612" fill-opacity="0.6"/>
<path d="M160.693 194.644C160.693 208.059 163.335 221.343 168.469 233.737C173.603 246.13 181.127 257.392 190.613 266.878C200.099 276.363 211.36 283.888 223.754 289.022C236.148 294.155 249.432 296.798 262.847 296.798C276.262 296.798 289.545 294.155 301.939 289.022C314.333 283.888 325.594 276.363 335.08 266.878C344.566 257.392 352.09 246.13 357.224 233.737C362.358 221.343 365 208.059 365 194.644C365 167.551 354.237 141.568 335.08 122.411C315.922 103.253 289.939 92.4908 262.847 92.4908C235.754 92.4908 209.771 103.253 190.613 122.411C171.456 141.568 160.693 167.551 160.693 194.644" stroke="white" stroke-width="2"/>
<path d="M276.077 195.187C275.284 195.187 274.649 194.989 274.173 194.592C273.697 194.195 273.459 193.651 273.459 192.96C273.459 191.963 273.924 191.243 274.853 190.801C275.794 190.348 276.887 190.07 278.134 189.968V189.475C278.134 188.704 278.026 188.177 277.811 187.894C277.596 187.599 277.233 187.452 276.723 187.452C276.485 187.452 276.213 187.497 275.907 187.588C275.612 187.679 275.352 187.775 275.125 187.877C274.91 187.979 274.768 188.047 274.7 188.081L274.479 186.993C274.547 186.959 274.706 186.891 274.955 186.789C275.216 186.676 275.539 186.568 275.924 186.466C276.321 186.364 276.717 186.313 277.114 186.313C278.179 186.313 278.99 186.54 279.545 186.993C280.112 187.435 280.395 188.2 280.395 189.288V193.147C280.395 193.748 280.514 194.048 280.752 194.048C280.843 194.048 280.95 194.031 281.075 193.997C281.2 193.963 281.285 193.94 281.33 193.929L281.398 194.813C281.341 194.836 281.205 194.875 280.99 194.932C280.775 194.989 280.525 195.045 280.242 195.102C279.97 195.159 279.726 195.187 279.511 195.187C279.182 195.187 278.927 195.108 278.746 194.949C278.565 194.779 278.446 194.507 278.389 194.133H278.304C278.304 194.167 278.225 194.275 278.066 194.456C277.919 194.626 277.681 194.79 277.352 194.949C277.023 195.108 276.598 195.187 276.077 195.187ZM276.825 194.048C277.097 194.048 277.329 193.98 277.522 193.844C277.726 193.708 277.879 193.561 277.981 193.402C278.083 193.232 278.134 193.136 278.134 193.113V190.869C277.375 190.948 276.797 191.13 276.4 191.413C276.015 191.685 275.822 192.104 275.822 192.671C275.822 193.124 275.913 193.47 276.094 193.708C276.275 193.935 276.519 194.048 276.825 194.048ZM282.736 186.5H284.555L284.844 187.197H284.912C284.912 187.174 285.002 187.089 285.184 186.942C285.376 186.795 285.648 186.659 286 186.534C286.351 186.398 286.787 186.33 287.309 186.33C288.181 186.33 288.833 186.568 289.264 187.044C289.706 187.509 289.927 188.24 289.927 189.237V195H287.666V189.696C287.666 188.937 287.581 188.421 287.411 188.149C287.252 187.877 286.957 187.741 286.527 187.741C286.232 187.741 285.971 187.786 285.745 187.877C285.518 187.968 285.337 188.07 285.201 188.183C285.065 188.285 284.997 188.342 284.997 188.353V195H282.736V186.5ZM293.022 185.225C292.682 185.225 292.382 185.112 292.121 184.885C291.861 184.624 291.73 184.301 291.73 183.916C291.73 183.542 291.861 183.225 292.121 182.964C292.359 182.737 292.66 182.624 293.022 182.624C293.374 182.624 293.663 182.732 293.889 182.947C294.139 183.208 294.263 183.531 294.263 183.916C294.263 184.313 294.139 184.641 293.889 184.902C293.64 185.117 293.351 185.225 293.022 185.225ZM291.883 195V186.5H294.144V195H291.883ZM296.183 186.5H298.002L298.291 187.265H298.342C298.342 187.242 298.444 187.152 298.648 186.993C298.852 186.823 299.118 186.67 299.447 186.534C299.787 186.398 300.167 186.33 300.586 186.33C301.051 186.33 301.436 186.404 301.742 186.551C302.048 186.698 302.286 186.925 302.456 187.231C302.649 187.072 302.813 186.948 302.949 186.857C303.096 186.755 303.34 186.642 303.68 186.517C304.031 186.392 304.428 186.33 304.87 186.33C305.675 186.33 306.253 186.545 306.604 186.976C306.955 187.395 307.131 188.092 307.131 189.067V195H304.87V189.237C304.87 188.625 304.796 188.223 304.649 188.03C304.513 187.826 304.286 187.724 303.969 187.724C303.686 187.724 303.442 187.798 303.238 187.945C303.034 188.081 302.875 188.223 302.762 188.37C302.785 188.642 302.796 188.863 302.796 189.033V195H300.535V189.237C300.535 188.636 300.461 188.234 300.314 188.03C300.178 187.826 299.957 187.724 299.651 187.724C299.356 187.724 299.101 187.798 298.886 187.945C298.671 188.092 298.523 188.223 298.444 188.336V195H296.183V186.5ZM311.156 195.187C310.363 195.187 309.728 194.989 309.252 194.592C308.776 194.195 308.538 193.651 308.538 192.96C308.538 191.963 309.003 191.243 309.932 190.801C310.873 190.348 311.966 190.07 313.213 189.968V189.475C313.213 188.704 313.105 188.177 312.89 187.894C312.675 187.599 312.312 187.452 311.802 187.452C311.564 187.452 311.292 187.497 310.986 187.588C310.691 187.679 310.431 187.775 310.204 187.877C309.989 187.979 309.847 188.047 309.779 188.081L309.558 186.993C309.626 186.959 309.785 186.891 310.034 186.789C310.295 186.676 310.618 186.568 311.003 186.466C311.4 186.364 311.796 186.313 312.193 186.313C313.258 186.313 314.069 186.54 314.624 186.993C315.191 187.435 315.474 188.2 315.474 189.288V193.147C315.474 193.748 315.593 194.048 315.831 194.048C315.922 194.048 316.029 194.031 316.154 193.997C316.279 193.963 316.364 193.94 316.409 193.929L316.477 194.813C316.42 194.836 316.284 194.875 316.069 194.932C315.854 194.989 315.604 195.045 315.321 195.102C315.049 195.159 314.805 195.187 314.59 195.187C314.261 195.187 314.006 195.108 313.825 194.949C313.644 194.779 313.525 194.507 313.468 194.133H313.383C313.383 194.167 313.304 194.275 313.145 194.456C312.998 194.626 312.76 194.79 312.431 194.949C312.102 195.108 311.677 195.187 311.156 195.187ZM311.904 194.048C312.176 194.048 312.408 193.98 312.601 193.844C312.805 193.708 312.958 193.561 313.06 193.402C313.162 193.232 313.213 193.136 313.213 193.113V190.869C312.454 190.948 311.876 191.13 311.479 191.413C311.094 191.685 310.901 192.104 310.901 192.671C310.901 193.124 310.992 193.47 311.173 193.708C311.354 193.935 311.598 194.048 311.904 194.048ZM317.815 195V182.318L320.076 182.182V195H317.815ZM324.511 195.187C323.854 195.187 323.304 195.096 322.862 194.915C322.42 194.722 322.086 194.518 321.859 194.303C321.633 194.088 321.519 193.957 321.519 193.912L322.148 193.028C322.148 193.051 322.239 193.153 322.42 193.334C322.602 193.515 322.828 193.685 323.1 193.844C323.384 193.991 323.695 194.065 324.035 194.065C324.455 194.065 324.778 193.957 325.004 193.742C325.231 193.527 325.344 193.243 325.344 192.892C325.344 192.552 325.225 192.286 324.987 192.093C324.749 191.889 324.392 191.679 323.916 191.464C323.474 191.249 323.117 191.056 322.845 190.886C322.585 190.705 322.358 190.461 322.165 190.155C321.973 189.838 321.876 189.435 321.876 188.948C321.876 188.109 322.165 187.463 322.743 187.01C323.321 186.545 324.035 186.313 324.885 186.313C325.248 186.313 325.611 186.358 325.973 186.449C326.336 186.54 326.636 186.63 326.874 186.721C327.112 186.812 327.265 186.874 327.333 186.908L327.027 188.047C326.971 188.013 326.84 187.945 326.636 187.843C326.432 187.741 326.183 187.645 325.888 187.554C325.605 187.463 325.344 187.418 325.106 187.418C324.755 187.418 324.483 187.503 324.29 187.673C324.098 187.843 324.001 188.07 324.001 188.353C324.001 188.693 324.126 188.971 324.375 189.186C324.636 189.39 325.027 189.611 325.548 189.849C326.013 190.076 326.387 190.285 326.67 190.478C326.954 190.659 327.197 190.909 327.401 191.226C327.605 191.543 327.707 191.94 327.707 192.416C327.707 193.243 327.43 193.912 326.874 194.422C326.33 194.932 325.543 195.187 324.511 195.187ZM274.526 213C274.983 210.891 276.061 208.193 277.76 204.908H273.574V203.9H278.628V204.74C278.012 205.888 277.419 207.232 276.85 208.772C276.29 210.312 275.884 211.721 275.632 213H274.526ZM284.736 213L282.342 206H283.546L285.366 211.894L287.298 206H288.068L285.66 213H284.736ZM289.798 204.586C289.63 204.586 289.495 204.535 289.392 204.432C289.271 204.311 289.21 204.161 289.21 203.984C289.21 203.807 289.271 203.657 289.392 203.536C289.495 203.433 289.63 203.382 289.798 203.382C289.975 203.382 290.115 203.429 290.218 203.522C290.33 203.643 290.386 203.797 290.386 203.984C290.386 204.152 290.33 204.301 290.218 204.432C290.087 204.535 289.947 204.586 289.798 204.586ZM289.28 213V206H290.302V213H289.28ZM294.68 213.14C293.83 213.14 293.149 212.837 292.636 212.23C292.122 211.623 291.866 210.779 291.866 209.696C291.866 208.529 292.113 207.601 292.608 206.91C293.112 206.21 293.816 205.86 294.722 205.86C295.104 205.86 295.426 205.911 295.688 206.014C295.949 206.107 296.15 206.215 296.29 206.336C296.43 206.448 296.5 206.513 296.5 206.532H296.514V202.528L297.522 202.472V213H296.654L296.542 212.174C296.439 212.379 296.238 212.594 295.94 212.818C295.641 213.033 295.221 213.14 294.68 213.14ZM294.904 212.454C295.24 212.454 295.529 212.384 295.772 212.244C296.014 212.095 296.196 211.936 296.318 211.768C296.448 211.6 296.514 211.502 296.514 211.474V207.176C296.514 207.157 296.448 207.092 296.318 206.98C296.196 206.868 296.024 206.765 295.8 206.672C295.585 206.579 295.328 206.532 295.03 206.532C294.311 206.532 293.784 206.798 293.448 207.33C293.112 207.853 292.944 208.632 292.944 209.668C292.944 210.648 293.107 211.357 293.434 211.796C293.77 212.235 294.26 212.454 294.904 212.454ZM302.08 213.14C301.147 213.14 300.414 212.851 299.882 212.272C299.35 211.684 299.084 210.807 299.084 209.64C299.084 208.464 299.341 207.54 299.854 206.868C300.368 206.196 301.068 205.86 301.954 205.86C302.757 205.86 303.373 206.14 303.802 206.7C304.241 207.251 304.46 208.035 304.46 209.052C304.46 209.229 304.451 209.374 304.432 209.486C304.414 209.598 304.4 209.668 304.39 209.696H300.148C300.148 211.581 300.83 212.524 302.192 212.524C302.566 212.524 302.883 212.459 303.144 212.328C303.415 212.188 303.625 212.043 303.774 211.894C303.924 211.735 303.998 211.642 303.998 211.614L304.404 211.95C304.404 211.987 304.316 212.109 304.138 212.314C303.961 212.51 303.7 212.697 303.354 212.874C303.009 213.051 302.584 213.14 302.08 213.14ZM303.508 209.108L303.522 208.842C303.522 207.255 303 206.462 301.954 206.462C301.404 206.462 300.979 206.681 300.68 207.12C300.382 207.549 300.209 208.212 300.162 209.108H303.508ZM308.41 213.14C307.439 213.14 306.697 212.823 306.184 212.188C305.68 211.553 305.428 210.657 305.428 209.5C305.428 208.343 305.68 207.447 306.184 206.812C306.697 206.177 307.439 205.86 308.41 205.86C309.381 205.86 310.118 206.177 310.622 206.812C311.135 207.447 311.392 208.343 311.392 209.5C311.392 210.648 311.131 211.544 310.608 212.188C310.095 212.823 309.362 213.14 308.41 213.14ZM308.41 212.524C309.063 212.524 309.544 212.277 309.852 211.782C310.16 211.278 310.314 210.517 310.314 209.5C310.314 208.492 310.16 207.736 309.852 207.232C309.544 206.728 309.063 206.476 308.41 206.476C307.757 206.476 307.276 206.728 306.968 207.232C306.66 207.727 306.506 208.483 306.506 209.5C306.506 210.517 306.66 211.278 306.968 211.782C307.276 212.277 307.757 212.524 308.41 212.524ZM314.71 213.14C314.215 213.14 313.795 213.065 313.45 212.916C313.114 212.757 312.857 212.589 312.68 212.412C312.512 212.235 312.428 212.132 312.428 212.104L312.778 211.614C312.778 211.633 312.852 211.721 313.002 211.88C313.151 212.039 313.356 212.188 313.618 212.328C313.879 212.459 314.187 212.524 314.542 212.524C315.064 212.524 315.456 212.393 315.718 212.132C315.988 211.871 316.124 211.553 316.124 211.18C316.124 210.909 316.054 210.685 315.914 210.508C315.783 210.331 315.615 210.195 315.41 210.102C315.214 209.999 314.938 209.887 314.584 209.766C314.173 209.617 313.846 209.481 313.604 209.36C313.361 209.229 313.151 209.038 312.974 208.786C312.806 208.534 312.722 208.207 312.722 207.806C312.722 207.209 312.936 206.737 313.366 206.392C313.804 206.037 314.364 205.86 315.046 205.86C315.344 205.86 315.629 205.902 315.9 205.986C316.18 206.061 316.404 206.145 316.572 206.238C316.74 206.322 316.847 206.378 316.894 206.406L316.726 207.008C316.688 206.98 316.595 206.924 316.446 206.84C316.296 206.747 316.1 206.658 315.858 206.574C315.624 206.49 315.382 206.448 315.13 206.448C314.7 206.448 314.35 206.555 314.08 206.77C313.818 206.985 313.688 207.255 313.688 207.582C313.688 207.853 313.758 208.081 313.898 208.268C314.038 208.445 314.21 208.585 314.416 208.688C314.63 208.791 314.915 208.907 315.27 209.038C315.68 209.178 316.012 209.318 316.264 209.458C316.525 209.589 316.744 209.78 316.922 210.032C317.099 210.284 317.188 210.611 317.188 211.012C317.188 211.619 316.978 212.127 316.558 212.538C316.138 212.939 315.522 213.14 314.71 213.14Z" fill="#222222"/>
<path d="M88.9797 184.122C88.9797 201.858 96.0255 218.868 108.567 231.409C121.109 243.951 138.118 250.997 155.855 250.997C173.591 250.997 190.601 243.951 203.143 231.409C215.684 218.868 222.73 201.858 222.73 184.122C222.73 166.385 215.684 149.375 203.143 136.834C190.601 124.292 173.591 117.247 155.855 117.247C138.118 117.247 121.109 124.292 108.567 136.834C96.0255 149.375 88.9797 166.385 88.9797 184.122" fill="white" fill-opacity="0.6"/>
<path d="M88.9797 184.122C88.9797 201.858 96.0255 218.868 108.567 231.409C121.109 243.951 138.118 250.997 155.855 250.997C173.591 250.997 190.601 243.951 203.143 231.409C215.684 218.868 222.73 201.858 222.73 184.122C222.73 166.385 215.684 149.375 203.143 136.834C190.601 124.292 173.591 117.247 155.855 117.247C138.118 117.247 121.109 124.292 108.567 136.834C96.0255 149.375 88.9797 166.385 88.9797 184.122" stroke="white" stroke-width="2"/>
<path d="M110.36 185.176C109.539 185.176 108.92 184.957 108.504 184.52C108.099 184.072 107.896 183.379 107.896 182.44V177H110.024V181.992C110.024 182.696 110.109 183.181 110.28 183.448C110.451 183.715 110.728 183.848 111.112 183.848C111.368 183.848 111.597 183.805 111.8 183.72C112.003 183.624 112.163 183.528 112.28 183.432C112.397 183.336 112.472 183.272 112.504 183.24V177H114.632V185H112.92L112.616 184.296H112.584C112.584 184.317 112.499 184.408 112.328 184.568C112.157 184.717 111.907 184.856 111.576 184.984C111.245 185.112 110.84 185.176 110.36 185.176ZM118.809 185.176C118.191 185.176 117.673 185.091 117.257 184.92C116.841 184.739 116.527 184.547 116.313 184.344C116.1 184.141 115.993 184.019 115.993 183.976L116.585 183.144C116.585 183.165 116.671 183.261 116.841 183.432C117.012 183.603 117.225 183.763 117.481 183.912C117.748 184.051 118.041 184.12 118.361 184.12C118.756 184.12 119.06 184.019 119.273 183.816C119.487 183.613 119.593 183.347 119.593 183.016C119.593 182.696 119.481 182.445 119.257 182.264C119.033 182.072 118.697 181.875 118.249 181.672C117.833 181.469 117.497 181.288 117.241 181.128C116.996 180.957 116.783 180.728 116.601 180.44C116.42 180.141 116.329 179.763 116.329 179.304C116.329 178.515 116.601 177.907 117.145 177.48C117.689 177.043 118.361 176.824 119.161 176.824C119.503 176.824 119.844 176.867 120.185 176.952C120.527 177.037 120.809 177.123 121.033 177.208C121.257 177.293 121.401 177.352 121.465 177.384L121.177 178.456C121.124 178.424 121.001 178.36 120.809 178.264C120.617 178.168 120.383 178.077 120.105 177.992C119.839 177.907 119.593 177.864 119.369 177.864C119.039 177.864 118.783 177.944 118.601 178.104C118.42 178.264 118.329 178.477 118.329 178.744C118.329 179.064 118.447 179.325 118.681 179.528C118.927 179.72 119.295 179.928 119.785 180.152C120.223 180.365 120.575 180.563 120.841 180.744C121.108 180.915 121.337 181.149 121.529 181.448C121.721 181.747 121.817 182.12 121.817 182.568C121.817 183.347 121.556 183.976 121.033 184.456C120.521 184.936 119.78 185.176 118.809 185.176ZM126.489 185.176C125.305 185.176 124.383 184.851 123.721 184.2C123.071 183.539 122.745 182.52 122.745 181.144C122.745 179.757 123.065 178.696 123.705 177.96C124.345 177.213 125.209 176.84 126.297 176.84C127.289 176.84 128.057 177.155 128.601 177.784C129.156 178.403 129.433 179.293 129.433 180.456C129.433 180.723 129.412 180.947 129.369 181.128C129.337 181.309 129.316 181.421 129.305 181.464H125.001C125.012 182.424 125.151 183.107 125.417 183.512C125.695 183.907 126.137 184.104 126.745 184.104C127.108 184.104 127.428 184.029 127.705 183.88C127.983 183.72 128.201 183.549 128.361 183.368C128.521 183.176 128.601 183.069 128.601 183.048L129.321 183.608C129.321 183.651 129.209 183.805 128.985 184.072C128.772 184.339 128.452 184.589 128.025 184.824C127.609 185.059 127.097 185.176 126.489 185.176ZM127.449 180.424V180.056C127.449 179.245 127.364 178.68 127.193 178.36C127.023 178.029 126.724 177.864 126.297 177.864C125.999 177.864 125.759 177.939 125.577 178.088C125.407 178.237 125.273 178.499 125.177 178.872C125.081 179.235 125.023 179.752 125.001 180.424H127.449ZM137.138 185.176C136.519 185.176 136.002 185.091 135.586 184.92C135.17 184.739 134.855 184.547 134.642 184.344C134.428 184.141 134.322 184.019 134.322 183.976L134.914 183.144C134.914 183.165 134.999 183.261 135.17 183.432C135.34 183.603 135.554 183.763 135.81 183.912C136.076 184.051 136.37 184.12 136.69 184.12C137.084 184.12 137.388 184.019 137.602 183.816C137.815 183.613 137.922 183.347 137.922 183.016C137.922 182.696 137.81 182.445 137.586 182.264C137.362 182.072 137.026 181.875 136.578 181.672C136.162 181.469 135.826 181.288 135.57 181.128C135.324 180.957 135.111 180.728 134.93 180.44C134.748 180.141 134.658 179.763 134.658 179.304C134.658 178.515 134.93 177.907 135.474 177.48C136.018 177.043 136.69 176.824 137.49 176.824C137.831 176.824 138.172 176.867 138.514 176.952C138.855 177.037 139.138 177.123 139.362 177.208C139.586 177.293 139.73 177.352 139.794 177.384L139.506 178.456C139.452 178.424 139.33 178.36 139.138 178.264C138.946 178.168 138.711 178.077 138.434 177.992C138.167 177.907 137.922 177.864 137.698 177.864C137.367 177.864 137.111 177.944 136.93 178.104C136.748 178.264 136.658 178.477 136.658 178.744C136.658 179.064 136.775 179.325 137.01 179.528C137.255 179.72 137.623 179.928 138.114 180.152C138.551 180.365 138.903 180.563 139.17 180.744C139.436 180.915 139.666 181.149 139.858 181.448C140.05 181.747 140.146 182.12 140.146 182.568C140.146 183.347 139.884 183.976 139.362 184.456C138.85 184.936 138.108 185.176 137.138 185.176ZM144.817 185.176C143.633 185.176 142.711 184.851 142.049 184.2C141.399 183.539 141.073 182.52 141.073 181.144C141.073 179.757 141.393 178.696 142.033 177.96C142.673 177.213 143.537 176.84 144.625 176.84C145.617 176.84 146.385 177.155 146.929 177.784C147.484 178.403 147.761 179.293 147.761 180.456C147.761 180.723 147.74 180.947 147.697 181.128C147.665 181.309 147.644 181.421 147.633 181.464H143.329C143.34 182.424 143.479 183.107 143.745 183.512C144.023 183.907 144.465 184.104 145.073 184.104C145.436 184.104 145.756 184.029 146.033 183.88C146.311 183.72 146.529 183.549 146.689 183.368C146.849 183.176 146.929 183.069 146.929 183.048L147.649 183.608C147.649 183.651 147.537 183.805 147.313 184.072C147.1 184.339 146.78 184.589 146.353 184.824C145.937 185.059 145.425 185.176 144.817 185.176ZM145.777 180.424V180.056C145.777 179.245 145.692 178.68 145.521 178.36C145.351 178.029 145.052 177.864 144.625 177.864C144.327 177.864 144.087 177.939 143.905 178.088C143.735 178.237 143.601 178.499 143.505 178.872C143.409 179.235 143.351 179.752 143.329 180.424H145.777ZM148.332 185L150.796 181.128L148.46 177H151.004L152.332 179.832L153.836 177H155.292L153.068 180.632L155.612 185H153.068L151.564 182.008L149.82 185H148.332ZM109.782 201.13C109.314 201.13 108.911 201.061 108.573 200.922C108.235 200.783 107.971 200.636 107.78 200.48C107.598 200.324 107.507 200.233 107.507 200.207L107.819 199.7C107.819 199.717 107.901 199.795 108.066 199.934C108.239 200.073 108.465 200.203 108.742 200.324C109.019 200.445 109.331 200.506 109.678 200.506C110.293 200.506 110.757 200.337 111.069 199.999C111.39 199.661 111.55 199.171 111.55 198.53C111.55 197.958 111.416 197.516 111.147 197.204C110.887 196.892 110.501 196.736 109.99 196.736C109.86 196.736 109.739 196.758 109.626 196.801C109.513 196.844 109.422 196.888 109.353 196.931C109.292 196.974 109.253 197.005 109.236 197.022L108.898 196.632L111.29 193.447H107.897L107.949 192.55H112.2V193.161L109.86 196.216C109.964 196.19 110.081 196.177 110.211 196.177C110.904 196.177 111.463 196.394 111.888 196.827C112.321 197.252 112.538 197.819 112.538 198.53C112.538 199.067 112.417 199.531 112.174 199.921C111.94 200.311 111.615 200.61 111.199 200.818C110.783 201.026 110.311 201.13 109.782 201.13ZM118.596 201L116.373 194.5H117.491L119.181 199.973L120.975 194.5H121.69L119.454 201H118.596ZM123.297 193.187C123.141 193.187 123.015 193.139 122.92 193.044C122.807 192.931 122.751 192.793 122.751 192.628C122.751 192.463 122.807 192.325 122.92 192.212C123.015 192.117 123.141 192.069 123.297 192.069C123.461 192.069 123.591 192.112 123.687 192.199C123.791 192.312 123.843 192.455 123.843 192.628C123.843 192.784 123.791 192.923 123.687 193.044C123.565 193.139 123.435 193.187 123.297 193.187ZM122.816 201V194.5H123.765V201H122.816ZM127.829 201.13C127.041 201.13 126.408 200.848 125.931 200.285C125.455 199.722 125.216 198.937 125.216 197.932C125.216 196.849 125.446 195.986 125.905 195.345C126.373 194.695 127.028 194.37 127.868 194.37C128.224 194.37 128.523 194.418 128.765 194.513C129.008 194.6 129.194 194.699 129.324 194.812C129.454 194.916 129.519 194.977 129.519 194.994H129.532V191.276L130.468 191.224V201H129.662L129.558 200.233C129.463 200.424 129.277 200.623 128.999 200.831C128.722 201.03 128.332 201.13 127.829 201.13ZM128.037 200.493C128.349 200.493 128.618 200.428 128.843 200.298C129.069 200.159 129.238 200.012 129.35 199.856C129.472 199.7 129.532 199.609 129.532 199.583V195.592C129.532 195.575 129.472 195.514 129.35 195.41C129.238 195.306 129.077 195.211 128.869 195.124C128.67 195.037 128.432 194.994 128.154 194.994C127.487 194.994 126.997 195.241 126.685 195.735C126.373 196.22 126.217 196.944 126.217 197.906C126.217 198.816 126.369 199.475 126.672 199.882C126.984 200.289 127.439 200.493 128.037 200.493ZM134.701 201.13C133.835 201.13 133.154 200.861 132.66 200.324C132.166 199.778 131.919 198.963 131.919 197.88C131.919 196.788 132.158 195.93 132.634 195.306C133.111 194.682 133.761 194.37 134.584 194.37C135.33 194.37 135.902 194.63 136.3 195.15C136.708 195.661 136.911 196.389 136.911 197.334C136.911 197.499 136.903 197.633 136.885 197.737C136.868 197.841 136.855 197.906 136.846 197.932H132.907C132.907 199.683 133.54 200.558 134.805 200.558C135.152 200.558 135.447 200.497 135.689 200.376C135.941 200.246 136.136 200.112 136.274 199.973C136.413 199.826 136.482 199.739 136.482 199.713L136.859 200.025C136.859 200.06 136.777 200.172 136.612 200.363C136.448 200.545 136.205 200.718 135.884 200.883C135.564 201.048 135.169 201.13 134.701 201.13ZM136.027 197.386L136.04 197.139C136.04 195.666 135.555 194.929 134.584 194.929C134.073 194.929 133.679 195.133 133.401 195.54C133.124 195.939 132.964 196.554 132.92 197.386H136.027ZM140.579 201.13C139.678 201.13 138.989 200.835 138.512 200.246C138.044 199.657 137.81 198.825 137.81 197.75C137.81 196.675 138.044 195.843 138.512 195.254C138.989 194.665 139.678 194.37 140.579 194.37C141.48 194.37 142.165 194.665 142.633 195.254C143.11 195.843 143.348 196.675 143.348 197.75C143.348 198.816 143.105 199.648 142.62 200.246C142.143 200.835 141.463 201.13 140.579 201.13ZM140.579 200.558C141.186 200.558 141.632 200.328 141.918 199.869C142.204 199.401 142.347 198.695 142.347 197.75C142.347 196.814 142.204 196.112 141.918 195.644C141.632 195.176 141.186 194.942 140.579 194.942C139.972 194.942 139.526 195.176 139.24 195.644C138.954 196.103 138.811 196.805 138.811 197.75C138.811 198.695 138.954 199.401 139.24 199.869C139.526 200.328 139.972 200.558 140.579 200.558ZM146.429 201.13C145.969 201.13 145.579 201.061 145.259 200.922C144.947 200.775 144.708 200.619 144.544 200.454C144.388 200.289 144.31 200.194 144.31 200.168L144.635 199.713C144.635 199.73 144.704 199.813 144.843 199.96C144.981 200.107 145.172 200.246 145.415 200.376C145.657 200.497 145.943 200.558 146.273 200.558C146.758 200.558 147.122 200.437 147.365 200.194C147.616 199.951 147.742 199.657 147.742 199.31C147.742 199.059 147.677 198.851 147.547 198.686C147.425 198.521 147.269 198.396 147.079 198.309C146.897 198.214 146.641 198.11 146.312 197.997C145.93 197.858 145.627 197.733 145.402 197.62C145.176 197.499 144.981 197.321 144.817 197.087C144.661 196.853 144.583 196.55 144.583 196.177C144.583 195.622 144.782 195.185 145.181 194.864C145.588 194.535 146.108 194.37 146.741 194.37C147.018 194.37 147.282 194.409 147.534 194.487C147.794 194.556 148.002 194.634 148.158 194.721C148.314 194.799 148.413 194.851 148.457 194.877L148.301 195.436C148.266 195.41 148.179 195.358 148.041 195.28C147.902 195.193 147.72 195.111 147.495 195.033C147.278 194.955 147.053 194.916 146.819 194.916C146.42 194.916 146.095 195.016 145.844 195.215C145.601 195.414 145.48 195.666 145.48 195.969C145.48 196.22 145.545 196.433 145.675 196.606C145.805 196.771 145.965 196.901 146.156 196.996C146.355 197.091 146.619 197.2 146.949 197.321C147.33 197.451 147.638 197.581 147.872 197.711C148.114 197.832 148.318 198.01 148.483 198.244C148.647 198.478 148.73 198.781 148.73 199.154C148.73 199.717 148.535 200.19 148.145 200.571C147.755 200.944 147.183 201.13 146.429 201.13Z" fill="#222222"/>
</svg>
