<svg width="380" height="360" viewBox="0 0 380 360" fill="none" xmlns="http://www.w3.org/2000/svg">
<path d="M79.8958 199.413C79.8958 223.116 89.3117 245.848 106.072 262.608C122.833 279.369 145.565 288.785 169.268 288.785C192.97 288.785 215.702 279.369 232.463 262.608C249.223 245.848 258.639 223.116 258.639 199.413C258.639 175.71 249.223 152.978 232.463 136.218C215.702 119.457 192.97 110.041 169.268 110.041C145.565 110.041 122.833 119.457 106.072 136.218C89.3117 152.978 79.8958 175.71 79.8958 199.413" fill="#FFB612" fill-opacity="0.6"/>
<path d="M79.8958 199.413C79.8958 223.116 89.3117 245.848 106.072 262.608C122.833 279.369 145.565 288.785 169.268 288.785C192.97 288.785 215.702 279.369 232.463 262.608C249.223 245.848 258.639 223.116 258.639 199.413C258.639 175.71 249.223 152.978 232.463 136.218C215.702 119.457 192.97 110.041 169.268 110.041C145.565 110.041 122.833 119.457 106.072 136.218C89.3117 152.978 79.8958 175.71 79.8958 199.413" stroke="white" stroke-width="2"/>
<path d="M76.896 272.176C76.1493 272.176 75.552 271.989 75.104 271.616C74.656 271.243 74.432 270.731 74.432 270.08C74.432 269.141 74.8693 268.464 75.744 268.048C76.6293 267.621 77.6587 267.36 78.832 267.264V266.8C78.832 266.075 78.7307 265.579 78.528 265.312C78.3253 265.035 77.984 264.896 77.504 264.896C77.28 264.896 77.024 264.939 76.736 265.024C76.4587 265.109 76.2133 265.2 76 265.296C75.7973 265.392 75.664 265.456 75.6 265.488L75.392 264.464C75.456 264.432 75.6053 264.368 75.84 264.272C76.0853 264.165 76.3893 264.064 76.752 263.968C77.1253 263.872 77.4987 263.824 77.872 263.824C78.8747 263.824 79.6373 264.037 80.16 264.464C80.6933 264.88 80.96 265.6 80.96 266.624V270.256C80.96 270.821 81.072 271.104 81.296 271.104C81.3813 271.104 81.4827 271.088 81.6 271.056C81.7173 271.024 81.7973 271.003 81.84 270.992L81.904 271.824C81.8507 271.845 81.7227 271.883 81.52 271.936C81.3173 271.989 81.0827 272.043 80.816 272.096C80.56 272.149 80.3307 272.176 80.128 272.176C79.8187 272.176 79.5787 272.101 79.408 271.952C79.2373 271.792 79.1253 271.536 79.072 271.184H78.992C78.992 271.216 78.9173 271.317 78.768 271.488C78.6293 271.648 78.4053 271.803 78.096 271.952C77.7867 272.101 77.3867 272.176 76.896 272.176ZM77.6 271.104C77.856 271.104 78.0747 271.04 78.256 270.912C78.448 270.784 78.592 270.645 78.688 270.496C78.784 270.336 78.832 270.245 78.832 270.224V268.112C78.1173 268.187 77.5733 268.357 77.2 268.624C76.8373 268.88 76.656 269.275 76.656 269.808C76.656 270.235 76.7413 270.56 76.912 270.784C77.0827 270.997 77.312 271.104 77.6 271.104ZM83.1631 264H84.8751L85.1471 264.656H85.2111C85.2111 264.635 85.2965 264.555 85.4671 264.416C85.6485 264.277 85.9045 264.149 86.2351 264.032C86.5658 263.904 86.9765 263.84 87.4671 263.84C88.2885 263.84 88.9018 264.064 89.3071 264.512C89.7231 264.949 89.9311 265.637 89.9311 266.576V272H87.8031V267.008C87.8031 266.293 87.7231 265.808 87.5631 265.552C87.4138 265.296 87.1365 265.168 86.7311 265.168C86.4538 265.168 86.2085 265.211 85.9951 265.296C85.7818 265.381 85.6111 265.477 85.4831 265.584C85.3551 265.68 85.2911 265.733 85.2911 265.744V272H83.1631V264ZM92.8445 262.8C92.5245 262.8 92.2418 262.693 91.9965 262.48C91.7512 262.235 91.6285 261.931 91.6285 261.568C91.6285 261.216 91.7512 260.917 91.9965 260.672C92.2205 260.459 92.5032 260.352 92.8445 260.352C93.1752 260.352 93.4472 260.453 93.6605 260.656C93.8952 260.901 94.0125 261.205 94.0125 261.568C94.0125 261.941 93.8952 262.251 93.6605 262.496C93.4258 262.699 93.1538 262.8 92.8445 262.8ZM91.7725 272V264H93.9005V272H91.7725ZM95.8194 264H97.5314L97.8034 264.72H97.8514C97.8514 264.699 97.9474 264.613 98.1394 264.464C98.3314 264.304 98.582 264.16 98.8914 264.032C99.2114 263.904 99.5687 263.84 99.9634 263.84C100.401 263.84 100.763 263.909 101.051 264.048C101.339 264.187 101.563 264.4 101.723 264.688C101.905 264.539 102.059 264.421 102.187 264.336C102.326 264.24 102.555 264.133 102.875 264.016C103.206 263.899 103.579 263.84 103.995 263.84C104.753 263.84 105.297 264.043 105.627 264.448C105.958 264.843 106.123 265.499 106.123 266.416V272H103.995V266.576C103.995 266 103.926 265.621 103.787 265.44C103.659 265.248 103.446 265.152 103.147 265.152C102.881 265.152 102.651 265.221 102.459 265.36C102.267 265.488 102.118 265.621 102.011 265.76C102.033 266.016 102.043 266.224 102.043 266.384V272H99.9154V266.576C99.9154 266.011 99.846 265.632 99.7074 265.44C99.5794 265.248 99.3714 265.152 99.0834 265.152C98.806 265.152 98.566 265.221 98.3634 265.36C98.1607 265.499 98.022 265.621 97.9474 265.728V272H95.8194V264ZM109.912 272.176C109.165 272.176 108.568 271.989 108.12 271.616C107.672 271.243 107.448 270.731 107.448 270.08C107.448 269.141 107.885 268.464 108.76 268.048C109.645 267.621 110.674 267.36 111.848 267.264V266.8C111.848 266.075 111.746 265.579 111.544 265.312C111.341 265.035 111 264.896 110.52 264.896C110.296 264.896 110.04 264.939 109.752 265.024C109.474 265.109 109.229 265.2 109.016 265.296C108.813 265.392 108.68 265.456 108.616 265.488L108.408 264.464C108.472 264.432 108.621 264.368 108.856 264.272C109.101 264.165 109.405 264.064 109.768 263.968C110.141 263.872 110.514 263.824 110.888 263.824C111.89 263.824 112.653 264.037 113.176 264.464C113.709 264.88 113.976 265.6 113.976 266.624V270.256C113.976 270.821 114.088 271.104 114.312 271.104C114.397 271.104 114.498 271.088 114.616 271.056C114.733 271.024 114.813 271.003 114.856 270.992L114.92 271.824C114.866 271.845 114.738 271.883 114.536 271.936C114.333 271.989 114.098 272.043 113.832 272.096C113.576 272.149 113.346 272.176 113.144 272.176C112.834 272.176 112.594 272.101 112.424 271.952C112.253 271.792 112.141 271.536 112.088 271.184H112.008C112.008 271.216 111.933 271.317 111.784 271.488C111.645 271.648 111.421 271.803 111.112 271.952C110.802 272.101 110.402 272.176 109.912 272.176ZM110.616 271.104C110.872 271.104 111.09 271.04 111.272 270.912C111.464 270.784 111.608 270.645 111.704 270.496C111.8 270.336 111.848 270.245 111.848 270.224V268.112C111.133 268.187 110.589 268.357 110.216 268.624C109.853 268.88 109.672 269.275 109.672 269.808C109.672 270.235 109.757 270.56 109.928 270.784C110.098 270.997 110.328 271.104 110.616 271.104ZM116.179 272V260.064L118.307 259.936V272H116.179ZM122.481 272.176C121.863 272.176 121.345 272.091 120.929 271.92C120.513 271.739 120.199 271.547 119.985 271.344C119.772 271.141 119.665 271.019 119.665 270.976L120.257 270.144C120.257 270.165 120.343 270.261 120.513 270.432C120.684 270.603 120.897 270.763 121.153 270.912C121.42 271.051 121.713 271.12 122.033 271.12C122.428 271.12 122.732 271.019 122.945 270.816C123.159 270.613 123.265 270.347 123.265 270.016C123.265 269.696 123.153 269.445 122.929 269.264C122.705 269.072 122.369 268.875 121.921 268.672C121.505 268.469 121.169 268.288 120.913 268.128C120.668 267.957 120.455 267.728 120.273 267.44C120.092 267.141 120.001 266.763 120.001 266.304C120.001 265.515 120.273 264.907 120.817 264.48C121.361 264.043 122.033 263.824 122.833 263.824C123.175 263.824 123.516 263.867 123.857 263.952C124.199 264.037 124.481 264.123 124.705 264.208C124.929 264.293 125.073 264.352 125.137 264.384L124.849 265.456C124.796 265.424 124.673 265.36 124.481 265.264C124.289 265.168 124.055 265.077 123.777 264.992C123.511 264.907 123.265 264.864 123.041 264.864C122.711 264.864 122.455 264.944 122.273 265.104C122.092 265.264 122.001 265.477 122.001 265.744C122.001 266.064 122.119 266.325 122.353 266.528C122.599 266.72 122.967 266.928 123.457 267.152C123.895 267.365 124.247 267.563 124.513 267.744C124.78 267.915 125.009 268.149 125.201 268.448C125.393 268.747 125.489 269.12 125.489 269.568C125.489 270.347 125.228 270.976 124.705 271.456C124.193 271.936 123.452 272.176 122.481 272.176ZM76.483 288.13C76.041 288.13 75.6597 288.065 75.339 287.935C75.027 287.796 74.78 287.649 74.598 287.493C74.4247 287.337 74.338 287.246 74.338 287.22L74.676 286.739C74.676 286.756 74.7497 286.834 74.897 286.973C75.053 287.103 75.261 287.224 75.521 287.337C75.781 287.45 76.0843 287.506 76.431 287.506C77.0637 287.506 77.562 287.32 77.926 286.947C78.29 286.566 78.472 286.033 78.472 285.348C78.472 284.741 78.3073 284.26 77.978 283.905C77.6487 283.55 77.211 283.372 76.665 283.372C76.3963 283.372 76.158 283.415 75.95 283.502C75.7507 283.58 75.6163 283.658 75.547 283.736L75.534 283.775L75.144 283.723L75.534 279.55H79.07L79.031 280.46H76.028L75.807 282.995C76.1103 282.882 76.4223 282.826 76.743 282.826C77.5577 282.826 78.212 283.051 78.706 283.502C79.2087 283.953 79.46 284.564 79.46 285.335C79.46 285.907 79.3257 286.405 79.057 286.83C78.7883 287.255 78.4287 287.58 77.978 287.805C77.5273 288.022 77.029 288.13 76.483 288.13ZM85.4691 288L83.2461 281.5H84.3641L86.0541 286.973L87.8481 281.5H88.5631L86.3271 288H85.4691ZM90.1696 280.187C90.0136 280.187 89.8879 280.139 89.7926 280.044C89.6799 279.931 89.6236 279.793 89.6236 279.628C89.6236 279.463 89.6799 279.325 89.7926 279.212C89.8879 279.117 90.0136 279.069 90.1696 279.069C90.3342 279.069 90.4642 279.112 90.5596 279.199C90.6636 279.312 90.7156 279.455 90.7156 279.628C90.7156 279.784 90.6636 279.923 90.5596 280.044C90.4382 280.139 90.3082 280.187 90.1696 280.187ZM89.6886 288V281.5H90.6376V288H89.6886ZM94.7024 288.13C93.9137 288.13 93.2811 287.848 92.8044 287.285C92.3277 286.722 92.0894 285.937 92.0894 284.932C92.0894 283.849 92.3191 282.986 92.7784 282.345C93.2464 281.695 93.9007 281.37 94.7414 281.37C95.0967 281.37 95.3957 281.418 95.6384 281.513C95.8811 281.6 96.0674 281.699 96.1974 281.812C96.3274 281.916 96.3924 281.977 96.3924 281.994H96.4054V278.276L97.3414 278.224V288H96.5354L96.4314 287.233C96.3361 287.424 96.1497 287.623 95.8724 287.831C95.5951 288.03 95.2051 288.13 94.7024 288.13ZM94.9104 287.493C95.2224 287.493 95.4911 287.428 95.7164 287.298C95.9417 287.159 96.1107 287.012 96.2234 286.856C96.3447 286.7 96.4054 286.609 96.4054 286.583V282.592C96.4054 282.575 96.3447 282.514 96.2234 282.41C96.1107 282.306 95.9504 282.211 95.7424 282.124C95.5431 282.037 95.3047 281.994 95.0274 281.994C94.3601 281.994 93.8704 282.241 93.5584 282.735C93.2464 283.22 93.0904 283.944 93.0904 284.906C93.0904 285.816 93.2421 286.475 93.5454 286.882C93.8574 287.289 94.3124 287.493 94.9104 287.493ZM101.575 288.13C100.708 288.13 100.028 287.861 99.5335 287.324C99.0395 286.778 98.7925 285.963 98.7925 284.88C98.7925 283.788 99.0309 282.93 99.5075 282.306C99.9842 281.682 100.634 281.37 101.458 281.37C102.203 281.37 102.775 281.63 103.174 282.15C103.581 282.661 103.785 283.389 103.785 284.334C103.785 284.499 103.776 284.633 103.759 284.737C103.741 284.841 103.728 284.906 103.72 284.932H99.7805C99.7805 286.683 100.413 287.558 101.679 287.558C102.025 287.558 102.32 287.497 102.563 287.376C102.814 287.246 103.009 287.112 103.148 286.973C103.286 286.826 103.356 286.739 103.356 286.713L103.733 287.025C103.733 287.06 103.65 287.172 103.486 287.363C103.321 287.545 103.078 287.718 102.758 287.883C102.437 288.048 102.043 288.13 101.575 288.13ZM102.901 284.386L102.914 284.139C102.914 282.666 102.428 281.929 101.458 281.929C100.946 281.929 100.552 282.133 100.275 282.54C99.9972 282.939 99.8369 283.554 99.7935 284.386H102.901ZM107.452 288.13C106.551 288.13 105.862 287.835 105.385 287.246C104.917 286.657 104.683 285.825 104.683 284.75C104.683 283.675 104.917 282.843 105.385 282.254C105.862 281.665 106.551 281.37 107.452 281.37C108.353 281.37 109.038 281.665 109.506 282.254C109.983 282.843 110.221 283.675 110.221 284.75C110.221 285.816 109.978 286.648 109.493 287.246C109.016 287.835 108.336 288.13 107.452 288.13ZM107.452 287.558C108.059 287.558 108.505 287.328 108.791 286.869C109.077 286.401 109.22 285.695 109.22 284.75C109.22 283.814 109.077 283.112 108.791 282.644C108.505 282.176 108.059 281.942 107.452 281.942C106.845 281.942 106.399 282.176 106.113 282.644C105.827 283.103 105.684 283.805 105.684 284.75C105.684 285.695 105.827 286.401 106.113 286.869C106.399 287.328 106.845 287.558 107.452 287.558ZM113.302 288.13C112.843 288.13 112.453 288.061 112.132 287.922C111.82 287.775 111.582 287.619 111.417 287.454C111.261 287.289 111.183 287.194 111.183 287.168L111.508 286.713C111.508 286.73 111.577 286.813 111.716 286.96C111.855 287.107 112.045 287.246 112.288 287.376C112.531 287.497 112.817 287.558 113.146 287.558C113.631 287.558 113.995 287.437 114.238 287.194C114.489 286.951 114.615 286.657 114.615 286.31C114.615 286.059 114.55 285.851 114.42 285.686C114.299 285.521 114.143 285.396 113.952 285.309C113.77 285.214 113.514 285.11 113.185 284.997C112.804 284.858 112.5 284.733 112.275 284.62C112.05 284.499 111.855 284.321 111.69 284.087C111.534 283.853 111.456 283.55 111.456 283.177C111.456 282.622 111.655 282.185 112.054 281.864C112.461 281.535 112.981 281.37 113.614 281.37C113.891 281.37 114.156 281.409 114.407 281.487C114.667 281.556 114.875 281.634 115.031 281.721C115.187 281.799 115.287 281.851 115.33 281.877L115.174 282.436C115.139 282.41 115.053 282.358 114.914 282.28C114.775 282.193 114.593 282.111 114.368 282.033C114.151 281.955 113.926 281.916 113.692 281.916C113.293 281.916 112.968 282.016 112.717 282.215C112.474 282.414 112.353 282.666 112.353 282.969C112.353 283.22 112.418 283.433 112.548 283.606C112.678 283.771 112.838 283.901 113.029 283.996C113.228 284.091 113.493 284.2 113.822 284.321C114.203 284.451 114.511 284.581 114.745 284.711C114.988 284.832 115.191 285.01 115.356 285.244C115.521 285.478 115.603 285.781 115.603 286.154C115.603 286.717 115.408 287.19 115.018 287.571C114.628 287.944 114.056 288.13 113.302 288.13Z" fill="#222222"/>
<path d="M144.024 147.026C144.024 160.913 146.759 174.663 152.073 187.493C157.388 200.323 165.177 211.98 174.996 221.8C184.816 231.619 196.473 239.408 209.303 244.723C222.132 250.037 235.883 252.772 249.77 252.772C263.657 252.772 277.408 250.037 290.237 244.723C303.067 239.408 314.724 231.619 324.544 221.8C334.363 211.98 342.152 200.323 347.467 187.493C352.781 174.663 355.516 160.913 355.516 147.026C355.516 118.98 344.375 92.0833 324.544 72.2521C304.712 52.4209 277.816 41.2798 249.77 41.2798C221.724 41.2798 194.827 52.4209 174.996 72.2521C155.165 92.0833 144.024 118.98 144.024 147.026" fill="#D3BC8D" fill-opacity="0.6"/>
<path d="M144.024 147.026C144.024 160.913 146.759 174.663 152.073 187.493C157.388 200.323 165.177 211.98 174.996 221.8C184.816 231.619 196.473 239.408 209.303 244.723C222.132 250.037 235.883 252.772 249.77 252.772C263.657 252.772 277.408 250.037 290.237 244.723C303.067 239.408 314.724 231.619 324.544 221.8C334.363 211.98 342.152 200.323 347.467 187.493C352.781 174.663 355.516 160.913 355.516 147.026C355.516 118.98 344.375 92.0833 324.544 72.2521C304.712 52.4209 277.816 41.2798 249.77 41.2798C221.724 41.2798 194.827 52.4209 174.996 72.2521C155.165 92.0833 144.024 118.98 144.024 147.026" stroke="white" stroke-width="2"/>
<path d="M279.306 163.198C277.926 163.198 276.864 162.802 276.12 162.01C275.388 161.218 275.022 160.066 275.022 158.554C275.022 157.09 275.406 155.932 276.174 155.08C276.942 154.228 278.004 153.802 279.36 153.802C279.732 153.802 280.11 153.856 280.494 153.964C280.89 154.06 281.22 154.168 281.484 154.288C281.748 154.396 281.916 154.468 281.988 154.504L281.754 155.656C281.694 155.62 281.544 155.554 281.304 155.458C281.064 155.35 280.788 155.248 280.476 155.152C280.164 155.056 279.882 155.008 279.63 155.008C279.174 155.008 278.802 155.104 278.514 155.296C278.226 155.488 278.004 155.842 277.848 156.358C277.692 156.862 277.614 157.582 277.614 158.518C277.614 159.85 277.782 160.762 278.118 161.254C278.454 161.746 278.934 161.992 279.558 161.992C279.978 161.992 280.338 161.902 280.638 161.722C280.95 161.53 281.19 161.332 281.358 161.128C281.526 160.912 281.61 160.786 281.61 160.75L282.456 161.29C282.456 161.362 282.348 161.56 282.132 161.884C281.916 162.196 281.574 162.496 281.106 162.784C280.638 163.06 280.038 163.198 279.306 163.198ZM287.267 163.198C285.935 163.198 284.897 162.832 284.153 162.1C283.421 161.356 283.055 160.21 283.055 158.662C283.055 157.102 283.415 155.908 284.135 155.08C284.855 154.24 285.827 153.82 287.051 153.82C288.167 153.82 289.031 154.174 289.643 154.882C290.267 155.578 290.579 156.58 290.579 157.888C290.579 158.188 290.555 158.44 290.507 158.644C290.471 158.848 290.447 158.974 290.435 159.022H285.593C285.605 160.102 285.761 160.87 286.061 161.326C286.373 161.77 286.871 161.992 287.555 161.992C287.963 161.992 288.323 161.908 288.635 161.74C288.947 161.56 289.193 161.368 289.373 161.164C289.553 160.948 289.643 160.828 289.643 160.804L290.453 161.434C290.453 161.482 290.327 161.656 290.075 161.956C289.835 162.256 289.475 162.538 288.995 162.802C288.527 163.066 287.951 163.198 287.267 163.198ZM288.347 157.852V157.438C288.347 156.526 288.251 155.89 288.059 155.53C287.867 155.158 287.531 154.972 287.051 154.972C286.715 154.972 286.445 155.056 286.241 155.224C286.049 155.392 285.899 155.686 285.791 156.106C285.683 156.514 285.617 157.096 285.593 157.852H288.347ZM292.139 163V149.572L294.533 149.428V163H292.139ZM300.363 163.198C299.031 163.198 297.993 162.832 297.249 162.1C296.517 161.356 296.151 160.21 296.151 158.662C296.151 157.102 296.511 155.908 297.231 155.08C297.951 154.24 298.923 153.82 300.147 153.82C301.263 153.82 302.127 154.174 302.739 154.882C303.363 155.578 303.675 156.58 303.675 157.888C303.675 158.188 303.651 158.44 303.603 158.644C303.567 158.848 303.543 158.974 303.531 159.022H298.689C298.701 160.102 298.857 160.87 299.157 161.326C299.469 161.77 299.967 161.992 300.651 161.992C301.059 161.992 301.419 161.908 301.731 161.74C302.043 161.56 302.289 161.368 302.469 161.164C302.649 160.948 302.739 160.828 302.739 160.804L303.549 161.434C303.549 161.482 303.423 161.656 303.171 161.956C302.931 162.256 302.571 162.538 302.091 162.802C301.623 163.066 301.047 163.198 300.363 163.198ZM301.443 157.852V157.438C301.443 156.526 301.347 155.89 301.155 155.53C300.963 155.158 300.627 154.972 300.147 154.972C299.811 154.972 299.541 155.056 299.337 155.224C299.145 155.392 298.995 155.686 298.887 156.106C298.779 156.514 298.713 157.096 298.689 157.852H301.443ZM309.68 163.27C309.2 163.27 308.78 163.204 308.42 163.072C308.072 162.94 307.796 162.802 307.592 162.658C307.4 162.502 307.304 162.412 307.304 162.388H307.268L306.872 163H305.234V149.572L307.628 149.428V154.594H307.7C307.7 154.57 307.778 154.486 307.934 154.342C308.09 154.186 308.33 154.048 308.654 153.928C308.978 153.796 309.38 153.73 309.86 153.73C310.568 153.73 311.192 153.922 311.732 154.306C312.272 154.69 312.692 155.23 312.992 155.926C313.292 156.622 313.442 157.42 313.442 158.32C313.442 159.808 313.106 161.008 312.434 161.92C311.774 162.82 310.856 163.27 309.68 163.27ZM309.05 161.902C309.71 161.902 310.178 161.638 310.454 161.11C310.73 160.57 310.868 159.658 310.868 158.374C310.868 157.546 310.808 156.898 310.688 156.43C310.58 155.962 310.4 155.632 310.148 155.44C309.896 155.236 309.56 155.134 309.14 155.134C308.828 155.134 308.558 155.206 308.33 155.35C308.102 155.482 307.928 155.632 307.808 155.8C307.688 155.956 307.628 156.046 307.628 156.07V161.236C307.628 161.26 307.682 161.332 307.79 161.452C307.898 161.56 308.054 161.662 308.258 161.758C308.474 161.854 308.738 161.902 309.05 161.902ZM315.043 154H316.735L317.131 155.512H317.203C317.203 155.44 317.251 155.266 317.347 154.99C317.443 154.702 317.617 154.432 317.869 154.18C318.133 153.928 318.481 153.802 318.913 153.802C319.153 153.802 319.423 153.838 319.723 153.91C320.035 153.982 320.239 154.03 320.335 154.054L320.119 155.728C320.023 155.704 319.807 155.656 319.471 155.584C319.147 155.512 318.865 155.476 318.625 155.476C318.349 155.476 318.121 155.56 317.941 155.728C317.773 155.884 317.647 156.052 317.563 156.232C317.479 156.412 317.437 156.52 317.437 156.556V163H315.043V154ZM322.647 152.65C322.287 152.65 321.969 152.53 321.693 152.29C321.417 152.014 321.279 151.672 321.279 151.264C321.279 150.868 321.417 150.532 321.693 150.256C321.945 150.016 322.263 149.896 322.647 149.896C323.019 149.896 323.325 150.01 323.565 150.238C323.829 150.514 323.961 150.856 323.961 151.264C323.961 151.684 323.829 152.032 323.565 152.308C323.301 152.536 322.995 152.65 322.647 152.65ZM321.441 163V154H323.835V163H321.441ZM328.82 163.198C327.968 163.198 327.338 162.988 326.93 162.568C326.522 162.148 326.318 161.44 326.318 160.444V155.386H325.454V154.306L326.336 154.054L327.488 151.012H328.712V154H330.692V155.386H328.712V159.832C328.712 160.396 328.736 160.828 328.784 161.128C328.844 161.416 328.934 161.62 329.054 161.74C329.174 161.848 329.342 161.902 329.558 161.902C329.798 161.902 330.014 161.878 330.206 161.83C330.398 161.782 330.494 161.752 330.494 161.74L330.638 162.766C330.638 162.778 330.572 162.82 330.44 162.892C330.308 162.964 330.104 163.03 329.828 163.09C329.564 163.162 329.228 163.198 328.82 163.198ZM333.06 167.698C332.784 167.698 332.538 167.674 332.322 167.626C332.118 167.59 331.962 167.548 331.854 167.5C331.746 167.464 331.68 167.44 331.656 167.428L331.854 166.024C331.902 166.048 332.022 166.084 332.214 166.132C332.406 166.192 332.598 166.222 332.79 166.222C333.33 166.222 333.768 166.006 334.104 165.574C334.44 165.154 334.812 164.416 335.22 163.36L331.386 154H334.284L336.48 160.408L338.334 154H339.828L336.714 163.198C336.342 164.218 335.988 165.046 335.652 165.682C335.328 166.318 334.956 166.81 334.536 167.158C334.116 167.518 333.624 167.698 333.06 167.698ZM276.135 180C276.625 177.74 277.78 174.85 279.6 171.33H275.115V170.25H280.53V171.15C279.87 172.38 279.235 173.82 278.625 175.47C278.025 177.12 277.59 178.63 277.32 180H276.135ZM287.074 180L284.509 172.5H285.799L287.749 178.815L289.819 172.5H290.644L288.064 180H287.074ZM292.498 170.985C292.318 170.985 292.173 170.93 292.063 170.82C291.933 170.69 291.868 170.53 291.868 170.34C291.868 170.15 291.933 169.99 292.063 169.86C292.173 169.75 292.318 169.695 292.498 169.695C292.688 169.695 292.838 169.745 292.948 169.845C293.068 169.975 293.128 170.14 293.128 170.34C293.128 170.52 293.068 170.68 292.948 170.82C292.808 170.93 292.658 170.985 292.498 170.985ZM291.943 180V172.5H293.038V180H291.943ZM297.728 180.15C296.818 180.15 296.088 179.825 295.538 179.175C294.988 178.525 294.713 177.62 294.713 176.46C294.713 175.21 294.978 174.215 295.508 173.475C296.048 172.725 296.803 172.35 297.773 172.35C298.183 172.35 298.528 172.405 298.808 172.515C299.088 172.615 299.303 172.73 299.453 172.86C299.603 172.98 299.678 173.05 299.678 173.07H299.693V168.78L300.773 168.72V180H299.843L299.723 179.115C299.613 179.335 299.398 179.565 299.078 179.805C298.758 180.035 298.308 180.15 297.728 180.15ZM297.968 179.415C298.328 179.415 298.638 179.34 298.898 179.19C299.158 179.03 299.353 178.86 299.483 178.68C299.623 178.5 299.693 178.395 299.693 178.365V173.76C299.693 173.74 299.623 173.67 299.483 173.55C299.353 173.43 299.168 173.32 298.928 173.22C298.698 173.12 298.423 173.07 298.103 173.07C297.333 173.07 296.768 173.355 296.408 173.925C296.048 174.485 295.868 175.32 295.868 176.43C295.868 177.48 296.043 178.24 296.393 178.71C296.753 179.18 297.278 179.415 297.968 179.415ZM305.658 180.15C304.658 180.15 303.873 179.84 303.303 179.22C302.733 178.59 302.448 177.65 302.448 176.4C302.448 175.14 302.723 174.15 303.273 173.43C303.823 172.71 304.573 172.35 305.523 172.35C306.383 172.35 307.043 172.65 307.503 173.25C307.973 173.84 308.208 174.68 308.208 175.77C308.208 175.96 308.198 176.115 308.178 176.235C308.158 176.355 308.143 176.43 308.133 176.46H303.588C303.588 178.48 304.318 179.49 305.778 179.49C306.178 179.49 306.518 179.42 306.798 179.28C307.088 179.13 307.313 178.975 307.473 178.815C307.633 178.645 307.713 178.545 307.713 178.515L308.148 178.875C308.148 178.915 308.053 179.045 307.863 179.265C307.673 179.475 307.393 179.675 307.023 179.865C306.653 180.055 306.198 180.15 305.658 180.15ZM307.188 175.83L307.203 175.545C307.203 173.845 306.643 172.995 305.523 172.995C304.933 172.995 304.478 173.23 304.158 173.7C303.838 174.16 303.653 174.87 303.603 175.83H307.188ZM312.439 180.15C311.399 180.15 310.604 179.81 310.054 179.13C309.514 178.45 309.244 177.49 309.244 176.25C309.244 175.01 309.514 174.05 310.054 173.37C310.604 172.69 311.399 172.35 312.439 172.35C313.479 172.35 314.269 172.69 314.809 173.37C315.359 174.05 315.634 175.01 315.634 176.25C315.634 177.48 315.354 178.44 314.794 179.13C314.244 179.81 313.459 180.15 312.439 180.15ZM312.439 179.49C313.139 179.49 313.654 179.225 313.984 178.695C314.314 178.155 314.479 177.34 314.479 176.25C314.479 175.17 314.314 174.36 313.984 173.82C313.654 173.28 313.139 173.01 312.439 173.01C311.739 173.01 311.224 173.28 310.894 173.82C310.564 174.35 310.399 175.16 310.399 176.25C310.399 177.34 310.564 178.155 310.894 178.695C311.224 179.225 311.739 179.49 312.439 179.49ZM319.189 180.15C318.659 180.15 318.209 180.07 317.839 179.91C317.479 179.74 317.204 179.56 317.014 179.37C316.834 179.18 316.744 179.07 316.744 179.04L317.119 178.515C317.119 178.535 317.199 178.63 317.359 178.8C317.519 178.97 317.739 179.13 318.019 179.28C318.299 179.42 318.629 179.49 319.009 179.49C319.569 179.49 319.989 179.35 320.269 179.07C320.559 178.79 320.704 178.45 320.704 178.05C320.704 177.76 320.629 177.52 320.479 177.33C320.339 177.14 320.159 176.995 319.939 176.895C319.729 176.785 319.434 176.665 319.054 176.535C318.614 176.375 318.264 176.23 318.004 176.1C317.744 175.96 317.519 175.755 317.329 175.485C317.149 175.215 317.059 174.865 317.059 174.435C317.059 173.795 317.289 173.29 317.749 172.92C318.219 172.54 318.819 172.35 319.549 172.35C319.869 172.35 320.174 172.395 320.464 172.485C320.764 172.565 321.004 172.655 321.184 172.755C321.364 172.845 321.479 172.905 321.529 172.935L321.349 173.58C321.309 173.55 321.209 173.49 321.049 173.4C320.889 173.3 320.679 173.205 320.419 173.115C320.169 173.025 319.909 172.98 319.639 172.98C319.179 172.98 318.804 173.095 318.514 173.325C318.234 173.555 318.094 173.845 318.094 174.195C318.094 174.485 318.169 174.73 318.319 174.93C318.469 175.12 318.654 175.27 318.874 175.38C319.104 175.49 319.409 175.615 319.789 175.755C320.229 175.905 320.584 176.055 320.854 176.205C321.134 176.345 321.369 176.55 321.559 176.82C321.749 177.09 321.844 177.44 321.844 177.87C321.844 178.52 321.619 179.065 321.169 179.505C320.719 179.935 320.059 180.15 319.189 180.15Z" fill="#222222"/>
<path d="M69.8987 226.579C58.0336 214.6 48.9982 200.119 43.4545 184.195C37.9107 168.272 35.999 151.311 37.8594 134.553C39.7197 117.795 45.3049 101.666 54.206 87.3459C63.1071 73.0263 75.0986 60.879 89.3022 51.7938C104.943 46.1779 121.756 44.636 138.158 47.3132C154.559 49.9905 170.009 56.7988 183.053 67.0968C196.096 77.3948 206.303 90.8436 212.713 106.176C219.122 121.509 221.524 138.221 219.69 154.738C217.856 171.255 211.848 187.034 202.232 200.588C192.616 214.141 179.707 225.024 164.723 232.211C149.739 239.397 133.171 242.651 116.582 241.666C99.9927 240.681 83.9272 235.489 69.8987 226.579" stroke="white" stroke-width="2"/>
<path d="M37.1691 147.026C37.1691 177.008 49.0795 205.762 70.2799 226.962C91.4804 248.163 120.234 260.073 150.216 260.073C180.198 260.073 208.952 248.163 230.153 226.962C251.353 205.762 263.264 177.008 263.264 147.026C263.264 117.044 251.353 88.2898 230.153 67.0893C208.952 45.8889 180.198 33.9785 150.216 33.9785C120.234 33.9785 91.4804 45.8889 70.2799 67.0893C49.0795 88.2898 37.1691 117.044 37.1691 147.026" fill="#013369" fill-opacity="0.6"/>
<path d="M37.1691 147.026C37.1691 177.008 49.0795 205.762 70.2799 226.962C91.4804 248.163 120.234 260.073 150.216 260.073C180.198 260.073 208.952 248.163 230.153 226.962C251.353 205.762 263.264 177.008 263.264 147.026C263.264 117.044 251.353 88.2898 230.153 67.0893C208.952 45.8889 180.198 33.9785 150.216 33.9785C120.234 33.9785 91.4804 45.8889 70.2799 67.0893C49.0795 88.2898 37.1691 117.044 37.1691 147.026" stroke="white" stroke-width="2"/>
<path d="M30.428 27.809H29.595V26.789L30.428 26.551V25.293C30.428 24.273 30.6377 23.4853 31.057 22.93C31.4763 22.3633 32.162 22.08 33.114 22.08C33.3973 22.08 33.6807 22.1253 33.964 22.216C34.2473 22.2953 34.4797 22.3803 34.661 22.471C34.8537 22.5617 34.9727 22.624 35.018 22.658L34.729 23.627C34.695 23.6043 34.61 23.5647 34.474 23.508C34.338 23.44 34.1793 23.3777 33.998 23.321C33.8167 23.253 33.658 23.219 33.522 23.219C33.3067 23.219 33.1423 23.2757 33.029 23.389C32.9157 23.5023 32.8307 23.729 32.774 24.069C32.7173 24.3977 32.689 24.8907 32.689 25.548V26.5H34.814V27.809H32.689V35H30.428V27.809ZM38.447 35.187C37.5743 35.187 36.917 34.9547 36.475 34.49C36.0443 34.014 35.829 33.2773 35.829 32.28V26.5H38.09V31.804C38.09 32.552 38.1806 33.0677 38.362 33.351C38.5433 33.6343 38.838 33.776 39.246 33.776C39.518 33.776 39.7616 33.7307 39.977 33.64C40.1923 33.538 40.3623 33.436 40.487 33.334C40.6116 33.232 40.691 33.164 40.725 33.13V26.5H42.986V35H41.167L40.844 34.252H40.81C40.81 34.2747 40.7193 34.371 40.538 34.541C40.3566 34.6997 40.0903 34.847 39.739 34.983C39.3876 35.119 38.957 35.187 38.447 35.187ZM45.0444 26.5H46.8634L47.1524 27.197H47.2204C47.2204 27.1743 47.3111 27.0893 47.4924 26.942C47.6851 26.7947 47.9571 26.6587 48.3084 26.534C48.6597 26.398 49.0961 26.33 49.6174 26.33C50.4901 26.33 51.1417 26.568 51.5724 27.044C52.0144 27.5087 52.2354 28.2397 52.2354 29.237V35H49.9744V29.696C49.9744 28.9367 49.8894 28.421 49.7194 28.149C49.5607 27.877 49.2661 27.741 48.8354 27.741C48.5407 27.741 48.2801 27.7863 48.0534 27.877C47.8267 27.9677 47.6454 28.0697 47.5094 28.183C47.3734 28.285 47.3054 28.3417 47.3054 28.353V35H45.0444V26.5ZM54.1919 26.5H56.0109L56.2999 27.197H56.3679C56.3679 27.1743 56.4585 27.0893 56.6399 26.942C56.8325 26.7947 57.1045 26.6587 57.4559 26.534C57.8072 26.398 58.2435 26.33 58.7649 26.33C59.6375 26.33 60.2892 26.568 60.7199 27.044C61.1619 27.5087 61.3829 28.2397 61.3829 29.237V35H59.1219V29.696C59.1219 28.9367 59.0369 28.421 58.8669 28.149C58.7082 27.877 58.4135 27.741 57.9829 27.741C57.6882 27.741 57.4275 27.7863 57.2009 27.877C56.9742 27.9677 56.7929 28.0697 56.6569 28.183C56.5209 28.285 56.4529 28.3417 56.4529 28.353V35H54.1919V26.5ZM64.0193 39.437C63.7587 39.437 63.5263 39.4143 63.3223 39.369C63.1297 39.335 62.9823 39.2953 62.8803 39.25C62.7783 39.216 62.716 39.1933 62.6933 39.182L62.8803 37.856C62.9257 37.8787 63.039 37.9127 63.2203 37.958C63.4017 38.0147 63.583 38.043 63.7643 38.043C64.2743 38.043 64.688 37.839 65.0053 37.431C65.3227 37.0343 65.674 36.3373 66.0593 35.34L62.4383 26.5H65.1753L67.2493 32.552L69.0003 26.5H70.4113L67.4703 35.187C67.119 36.1503 66.7847 36.9323 66.4673 37.533C66.1613 38.1337 65.81 38.5983 65.4133 38.927C65.0167 39.267 64.552 39.437 64.0193 39.437ZM35.8633 43.6445C35.8633 44.1413 35.7311 44.5833 35.4668 44.9707C35.207 45.3581 34.8538 45.6611 34.4072 45.8799C34.9268 46.1032 35.3369 46.429 35.6377 46.8574C35.943 47.2858 36.0957 47.7712 36.0957 48.3135C36.0957 49.1748 35.804 49.8607 35.2207 50.3711C34.6419 50.8815 33.8786 51.1367 32.9307 51.1367C31.9736 51.1367 31.2057 50.8815 30.627 50.3711C30.0527 49.8561 29.7656 49.1702 29.7656 48.3135C29.7656 47.7757 29.9115 47.2904 30.2031 46.8574C30.4993 46.4245 30.9072 46.0964 31.4268 45.873C30.9847 45.6543 30.6361 45.3512 30.3809 44.9639C30.1257 44.5765 29.998 44.1367 29.998 43.6445C29.998 42.806 30.2669 42.1406 30.8047 41.6484C31.3424 41.1562 32.0511 40.9102 32.9307 40.9102C33.8057 40.9102 34.512 41.1562 35.0498 41.6484C35.5921 42.1406 35.8633 42.806 35.8633 43.6445ZM34.8311 48.2861C34.8311 47.7301 34.6533 47.2767 34.2979 46.9258C33.9469 46.5749 33.4867 46.3994 32.917 46.3994C32.3473 46.3994 31.8893 46.5726 31.543 46.9189C31.2012 47.2653 31.0303 47.721 31.0303 48.2861C31.0303 48.8512 31.1966 49.2956 31.5293 49.6191C31.8665 49.9427 32.3337 50.1045 32.9307 50.1045C33.5231 50.1045 33.988 49.9427 34.3252 49.6191C34.6624 49.291 34.8311 48.8467 34.8311 48.2861ZM32.9307 41.9492C32.4339 41.9492 32.0306 42.1042 31.7207 42.4141C31.4154 42.7194 31.2627 43.1364 31.2627 43.665C31.2627 44.1709 31.4131 44.5811 31.7139 44.8955C32.0192 45.2054 32.4248 45.3604 32.9307 45.3604C33.4365 45.3604 33.8398 45.2054 34.1406 44.8955C34.446 44.5811 34.5986 44.1709 34.5986 43.665C34.5986 43.1592 34.4414 42.7467 34.127 42.4277C33.8125 42.1087 33.4137 41.9492 32.9307 41.9492ZM43.7314 49.2842L45.5635 43.6035H46.8555L44.2031 51H43.2393L40.5596 43.6035H41.8516L43.7314 49.2842ZM49.4463 51H48.1816V43.6035H49.4463V51ZM48.0791 41.6416C48.0791 41.4365 48.1406 41.2633 48.2637 41.1221C48.3913 40.9808 48.5781 40.9102 48.8242 40.9102C49.0703 40.9102 49.2572 40.9808 49.3848 41.1221C49.5124 41.2633 49.5762 41.4365 49.5762 41.6416C49.5762 41.8467 49.5124 42.0176 49.3848 42.1543C49.2572 42.291 49.0703 42.3594 48.8242 42.3594C48.5781 42.3594 48.3913 42.291 48.2637 42.1543C48.1406 42.0176 48.0791 41.8467 48.0791 41.6416ZM51.1689 47.2402C51.1689 46.1055 51.4378 45.194 51.9756 44.5059C52.5133 43.8132 53.2174 43.4668 54.0879 43.4668C54.9538 43.4668 55.6396 43.763 56.1455 44.3555V40.5H57.4102V51H56.248L56.1865 50.207C55.6807 50.8268 54.9766 51.1367 54.0742 51.1367C53.2174 51.1367 52.5179 50.7858 51.9756 50.084C51.4378 49.3822 51.1689 48.4661 51.1689 47.3359V47.2402ZM52.4336 47.3838C52.4336 48.2223 52.6068 48.8786 52.9531 49.3525C53.2995 49.8265 53.778 50.0635 54.3887 50.0635C55.1908 50.0635 55.7764 49.7035 56.1455 48.9834V45.5859C55.7673 44.8887 55.1862 44.54 54.4023 44.54C53.7826 44.54 53.2995 44.7793 52.9531 45.2578C52.6068 45.7363 52.4336 46.445 52.4336 47.3838ZM62.4482 51.1367C61.4456 51.1367 60.6299 50.8086 60.001 50.1523C59.3721 49.4915 59.0576 48.6097 59.0576 47.5068V47.2744C59.0576 46.5407 59.1966 45.8867 59.4746 45.3125C59.7572 44.7337 60.1491 44.2826 60.6504 43.959C61.1562 43.6309 61.7031 43.4668 62.291 43.4668C63.2526 43.4668 64 43.7835 64.5332 44.417C65.0664 45.0505 65.333 45.9574 65.333 47.1377V47.6641H60.3223C60.3405 48.3932 60.5524 48.9834 60.958 49.4346C61.3682 49.8812 61.8877 50.1045 62.5166 50.1045C62.9632 50.1045 63.3415 50.0133 63.6514 49.8311C63.9613 49.6488 64.2324 49.4072 64.4648 49.1064L65.2373 49.708C64.6175 50.6605 63.6878 51.1367 62.4482 51.1367ZM62.291 44.5059C61.7806 44.5059 61.3522 44.6927 61.0059 45.0664C60.6595 45.4355 60.4453 45.9551 60.3633 46.625H64.0684V46.5293C64.0319 45.8867 63.8587 45.39 63.5488 45.0391C63.2389 44.6836 62.8197 44.5059 62.291 44.5059ZM66.4678 47.2334C66.4678 46.5088 66.609 45.8571 66.8916 45.2783C67.1787 44.6995 67.5752 44.2529 68.0811 43.9385C68.5915 43.624 69.1725 43.4668 69.8242 43.4668C70.8314 43.4668 71.6449 43.8154 72.2646 44.5127C72.889 45.21 73.2012 46.1374 73.2012 47.2949V47.3838C73.2012 48.1038 73.0622 48.751 72.7842 49.3252C72.5107 49.8949 72.1165 50.3392 71.6016 50.6582C71.0911 50.9772 70.5033 51.1367 69.8379 51.1367C68.8353 51.1367 68.0218 50.7881 67.3975 50.0908C66.7777 49.3936 66.4678 48.4707 66.4678 47.3223V47.2334ZM67.7393 47.3838C67.7393 48.2041 67.9284 48.8626 68.3066 49.3594C68.6895 49.8561 69.1999 50.1045 69.8379 50.1045C70.4805 50.1045 70.9909 49.8538 71.3691 49.3525C71.7474 48.8467 71.9365 48.1403 71.9365 47.2334C71.9365 46.4222 71.7428 45.766 71.3555 45.2646C70.9727 44.7588 70.4622 44.5059 69.8242 44.5059C69.1999 44.5059 68.6963 44.7542 68.3135 45.251C67.9307 45.7477 67.7393 46.4587 67.7393 47.3838ZM79.0938 49.0381C79.0938 48.6963 78.9639 48.432 78.7041 48.2451C78.4489 48.0537 78 47.8896 77.3574 47.7529C76.7194 47.6162 76.2113 47.4521 75.833 47.2607C75.4593 47.0693 75.1813 46.8415 74.999 46.5771C74.8213 46.3128 74.7324 45.9984 74.7324 45.6338C74.7324 45.0277 74.9876 44.515 75.498 44.0957C76.013 43.6764 76.6693 43.4668 77.4668 43.4668C78.3053 43.4668 78.9844 43.6833 79.5039 44.1162C80.028 44.5492 80.29 45.1029 80.29 45.7773H79.0186C79.0186 45.431 78.8704 45.1325 78.5742 44.8818C78.2826 44.6312 77.9134 44.5059 77.4668 44.5059C77.0065 44.5059 76.6465 44.6061 76.3867 44.8066C76.127 45.0072 75.9971 45.2692 75.9971 45.5928C75.9971 45.8981 76.1178 46.1283 76.3594 46.2832C76.6009 46.4382 77.0361 46.5863 77.665 46.7275C78.2985 46.8688 78.8112 47.0374 79.2031 47.2334C79.5951 47.4294 79.8844 47.6663 80.0713 47.9443C80.2627 48.2178 80.3584 48.5527 80.3584 48.9492C80.3584 49.61 80.0941 50.141 79.5654 50.542C79.0368 50.9385 78.3509 51.1367 77.5078 51.1367C76.9154 51.1367 76.3913 51.0319 75.9355 50.8223C75.4798 50.6126 75.1221 50.321 74.8623 49.9473C74.6071 49.569 74.4795 49.1611 74.4795 48.7236H75.7441C75.7669 49.1475 75.9355 49.4847 76.25 49.7354C76.569 49.9814 76.9883 50.1045 77.5078 50.1045C77.9863 50.1045 78.3691 50.0088 78.6562 49.8174C78.9479 49.6214 79.0938 49.3617 79.0938 49.0381Z" fill="#222222"/>
<path d="M134.059 288.476C134.059 303.467 140.014 317.844 150.614 328.445C161.215 339.045 175.592 345 190.583 345C205.574 345 219.951 339.045 230.551 328.445C241.151 317.844 247.106 303.467 247.106 288.476C247.106 273.485 241.151 259.108 230.551 248.508C219.951 237.908 205.574 231.953 190.583 231.953C175.592 231.953 161.215 237.908 150.614 248.508C140.014 259.108 134.059 273.485 134.059 288.476Z" fill="#198143" fill-opacity="0.6" stroke="white" stroke-width="2"/>
<path d="M175.96 297H177.672L177.96 297.72H178.008C178.008 297.699 178.099 297.613 178.28 297.464C178.461 297.304 178.712 297.16 179.032 297.032C179.352 296.893 179.736 296.824 180.184 296.824C181.133 296.824 181.88 297.187 182.424 297.912C182.968 298.637 183.24 299.613 183.24 300.84C183.24 301.704 183.112 302.467 182.856 303.128C182.6 303.779 182.232 304.285 181.752 304.648C181.283 305 180.723 305.176 180.072 305.176C179.656 305.176 179.304 305.128 179.016 305.032C178.728 304.947 178.509 304.856 178.36 304.76C178.211 304.653 178.136 304.589 178.136 304.568H178.088V309L175.96 309.064V297ZM179.272 303.96C179.677 303.96 179.997 303.864 180.232 303.672C180.477 303.48 180.659 303.165 180.776 302.728C180.893 302.28 180.952 301.667 180.952 300.888C180.952 300.152 180.893 299.581 180.776 299.176C180.669 298.76 180.504 298.472 180.28 298.312C180.067 298.152 179.784 298.072 179.432 298.072C179.176 298.072 178.947 298.12 178.744 298.216C178.552 298.312 178.397 298.413 178.28 298.52C178.173 298.627 178.109 298.707 178.088 298.76V303.432C178.109 303.464 178.163 303.523 178.248 303.608C178.333 303.683 178.461 303.763 178.632 303.848C178.813 303.923 179.027 303.96 179.272 303.96ZM186.615 305.176C185.868 305.176 185.271 304.989 184.823 304.616C184.375 304.243 184.151 303.731 184.151 303.08C184.151 302.141 184.588 301.464 185.463 301.048C186.348 300.621 187.377 300.36 188.551 300.264V299.8C188.551 299.075 188.449 298.579 188.247 298.312C188.044 298.035 187.703 297.896 187.223 297.896C186.999 297.896 186.743 297.939 186.455 298.024C186.177 298.109 185.932 298.2 185.719 298.296C185.516 298.392 185.383 298.456 185.319 298.488L185.111 297.464C185.175 297.432 185.324 297.368 185.559 297.272C185.804 297.165 186.108 297.064 186.471 296.968C186.844 296.872 187.217 296.824 187.591 296.824C188.593 296.824 189.356 297.037 189.879 297.464C190.412 297.88 190.679 298.6 190.679 299.624V303.256C190.679 303.821 190.791 304.104 191.015 304.104C191.1 304.104 191.201 304.088 191.319 304.056C191.436 304.024 191.516 304.003 191.559 303.992L191.623 304.824C191.569 304.845 191.441 304.883 191.239 304.936C191.036 304.989 190.801 305.043 190.535 305.096C190.279 305.149 190.049 305.176 189.847 305.176C189.537 305.176 189.297 305.101 189.127 304.952C188.956 304.792 188.844 304.536 188.791 304.184H188.711C188.711 304.216 188.636 304.317 188.487 304.488C188.348 304.648 188.124 304.803 187.815 304.952C187.505 305.101 187.105 305.176 186.615 305.176ZM187.319 304.104C187.575 304.104 187.793 304.04 187.975 303.912C188.167 303.784 188.311 303.645 188.407 303.496C188.503 303.336 188.551 303.245 188.551 303.224V301.112C187.836 301.187 187.292 301.357 186.919 301.624C186.556 301.88 186.375 302.275 186.375 302.808C186.375 303.235 186.46 303.56 186.631 303.784C186.801 303.997 187.031 304.104 187.319 304.104ZM195.394 305.176C194.637 305.176 194.077 304.989 193.714 304.616C193.351 304.243 193.17 303.613 193.17 302.728V298.232H192.402V297.272L193.186 297.048L194.21 294.344H195.298V297H197.058V298.232H195.298V302.184C195.298 302.685 195.319 303.069 195.362 303.336C195.415 303.592 195.495 303.773 195.602 303.88C195.709 303.976 195.858 304.024 196.05 304.024C196.263 304.024 196.455 304.003 196.626 303.96C196.797 303.917 196.882 303.891 196.882 303.88L197.01 304.792C197.01 304.803 196.951 304.84 196.834 304.904C196.717 304.968 196.535 305.027 196.29 305.08C196.055 305.144 195.757 305.176 195.394 305.176ZM198.523 297H200.027L200.379 298.344H200.443C200.443 298.28 200.485 298.125 200.571 297.88C200.656 297.624 200.811 297.384 201.035 297.16C201.269 296.936 201.579 296.824 201.963 296.824C202.176 296.824 202.416 296.856 202.683 296.92C202.96 296.984 203.141 297.027 203.227 297.048L203.035 298.536C202.949 298.515 202.757 298.472 202.459 298.408C202.171 298.344 201.92 298.312 201.707 298.312C201.461 298.312 201.259 298.387 201.099 298.536C200.949 298.675 200.837 298.824 200.763 298.984C200.688 299.144 200.651 299.24 200.651 299.272V305H198.523V297ZM205.282 295.8C204.962 295.8 204.679 295.693 204.434 295.48C204.189 295.235 204.066 294.931 204.066 294.568C204.066 294.216 204.189 293.917 204.434 293.672C204.658 293.459 204.941 293.352 205.282 293.352C205.613 293.352 205.885 293.453 206.098 293.656C206.333 293.901 206.45 294.205 206.45 294.568C206.45 294.941 206.333 295.251 206.098 295.496C205.863 295.699 205.591 295.8 205.282 295.8ZM204.21 305V297H206.338V305H204.21ZM211.489 305.176C210.294 305.176 209.372 304.813 208.721 304.088C208.081 303.363 207.761 302.333 207.761 301C207.761 299.667 208.081 298.637 208.721 297.912C209.372 297.187 210.294 296.824 211.489 296.824C212.694 296.824 213.617 297.187 214.257 297.912C214.908 298.637 215.233 299.667 215.233 301C215.233 302.323 214.897 303.352 214.225 304.088C213.564 304.813 212.652 305.176 211.489 305.176ZM211.489 304.12C211.841 304.12 212.118 304.019 212.321 303.816C212.534 303.613 212.689 303.288 212.785 302.84C212.881 302.392 212.929 301.779 212.929 301C212.929 300.221 212.881 299.608 212.785 299.16C212.689 298.712 212.54 298.392 212.337 298.2C212.134 297.997 211.852 297.896 211.489 297.896C211.126 297.896 210.844 297.997 210.641 298.2C210.438 298.392 210.289 298.712 210.193 299.16C210.097 299.608 210.049 300.216 210.049 300.984C210.049 301.763 210.097 302.381 210.193 302.84C210.289 303.288 210.438 303.613 210.641 303.816C210.854 304.019 211.137 304.12 211.489 304.12ZM219.175 305.176C218.418 305.176 217.858 304.989 217.495 304.616C217.132 304.243 216.951 303.613 216.951 302.728V298.232H216.183V297.272L216.967 297.048L217.991 294.344H219.079V297H220.839V298.232H219.079V302.184C219.079 302.685 219.1 303.069 219.143 303.336C219.196 303.592 219.276 303.773 219.383 303.88C219.49 303.976 219.639 304.024 219.831 304.024C220.044 304.024 220.236 304.003 220.407 303.96C220.578 303.917 220.663 303.891 220.663 303.88L220.791 304.792C220.791 304.803 220.732 304.84 220.615 304.904C220.498 304.968 220.316 305.027 220.071 305.08C219.836 305.144 219.538 305.176 219.175 305.176ZM223.376 295.8C223.056 295.8 222.773 295.693 222.528 295.48C222.282 295.235 222.16 294.931 222.16 294.568C222.16 294.216 222.282 293.917 222.528 293.672C222.752 293.459 223.034 293.352 223.376 293.352C223.706 293.352 223.978 293.453 224.192 293.656C224.426 293.901 224.544 294.205 224.544 294.568C224.544 294.941 224.426 295.251 224.192 295.496C223.957 295.699 223.685 295.8 223.376 295.8ZM222.304 305V297H224.432V305H222.304ZM229.663 305.176C228.436 305.176 227.492 304.824 226.831 304.12C226.18 303.416 225.855 302.392 225.855 301.048C225.855 299.747 226.196 298.717 226.879 297.96C227.561 297.203 228.505 296.824 229.711 296.824C230.041 296.824 230.377 296.872 230.719 296.968C231.071 297.053 231.364 297.149 231.599 297.256C231.833 297.352 231.983 297.416 232.047 297.448L231.839 298.472C231.785 298.44 231.652 298.381 231.439 298.296C231.225 298.2 230.98 298.109 230.703 298.024C230.425 297.939 230.175 297.896 229.951 297.896C229.545 297.896 229.215 297.981 228.959 298.152C228.703 298.323 228.505 298.637 228.367 299.096C228.228 299.544 228.159 300.184 228.159 301.016C228.159 302.2 228.308 303.011 228.607 303.448C228.905 303.885 229.332 304.104 229.887 304.104C230.26 304.104 230.58 304.024 230.847 303.864C231.124 303.693 231.337 303.517 231.487 303.336C231.636 303.144 231.711 303.032 231.711 303L232.463 303.48C232.463 303.544 232.367 303.72 232.175 304.008C231.983 304.285 231.679 304.552 231.263 304.808C230.847 305.053 230.313 305.176 229.663 305.176ZM175.559 320.22C175.758 320.142 176.17 319.804 176.794 319.206C177.427 318.608 178.003 317.919 178.523 317.139C179.043 316.35 179.303 315.592 179.303 314.864C179.303 314.249 179.177 313.798 178.926 313.512C178.683 313.217 178.263 313.07 177.665 313.07C177.379 313.07 177.097 313.122 176.82 313.226C176.551 313.33 176.317 313.447 176.118 313.577C175.919 313.707 175.819 313.776 175.819 313.785L175.715 313.2C175.715 313.183 175.819 313.109 176.027 312.979C176.244 312.84 176.508 312.715 176.82 312.602C177.132 312.489 177.461 312.433 177.808 312.433C178.675 312.433 179.312 312.645 179.719 313.07C180.135 313.486 180.343 314.058 180.343 314.786C180.343 315.722 179.953 316.662 179.173 317.607C178.393 318.543 177.531 319.379 176.586 320.116H180.577V321H175.559V320.22ZM186.596 321L184.373 314.5H185.491L187.181 319.973L188.975 314.5H189.69L187.454 321H186.596ZM191.297 313.187C191.141 313.187 191.015 313.139 190.92 313.044C190.807 312.931 190.751 312.793 190.751 312.628C190.751 312.463 190.807 312.325 190.92 312.212C191.015 312.117 191.141 312.069 191.297 312.069C191.461 312.069 191.591 312.112 191.687 312.199C191.791 312.312 191.843 312.455 191.843 312.628C191.843 312.784 191.791 312.923 191.687 313.044C191.565 313.139 191.435 313.187 191.297 313.187ZM190.816 321V314.5H191.765V321H190.816ZM195.829 321.13C195.041 321.13 194.408 320.848 193.931 320.285C193.455 319.722 193.216 318.937 193.216 317.932C193.216 316.849 193.446 315.986 193.905 315.345C194.373 314.695 195.028 314.37 195.868 314.37C196.224 314.37 196.523 314.418 196.765 314.513C197.008 314.6 197.194 314.699 197.324 314.812C197.454 314.916 197.519 314.977 197.519 314.994H197.532V311.276L198.468 311.224V321H197.662L197.558 320.233C197.463 320.424 197.277 320.623 196.999 320.831C196.722 321.03 196.332 321.13 195.829 321.13ZM196.037 320.493C196.349 320.493 196.618 320.428 196.843 320.298C197.069 320.159 197.238 320.012 197.35 319.856C197.472 319.7 197.532 319.609 197.532 319.583V315.592C197.532 315.575 197.472 315.514 197.35 315.41C197.238 315.306 197.077 315.211 196.869 315.124C196.67 315.037 196.432 314.994 196.154 314.994C195.487 314.994 194.997 315.241 194.685 315.735C194.373 316.22 194.217 316.944 194.217 317.906C194.217 318.816 194.369 319.475 194.672 319.882C194.984 320.289 195.439 320.493 196.037 320.493ZM202.701 321.13C201.835 321.13 201.154 320.861 200.66 320.324C200.166 319.778 199.919 318.963 199.919 317.88C199.919 316.788 200.158 315.93 200.634 315.306C201.111 314.682 201.761 314.37 202.584 314.37C203.33 314.37 203.902 314.63 204.3 315.15C204.708 315.661 204.911 316.389 204.911 317.334C204.911 317.499 204.903 317.633 204.885 317.737C204.868 317.841 204.855 317.906 204.846 317.932H200.907C200.907 319.683 201.54 320.558 202.805 320.558C203.152 320.558 203.447 320.497 203.689 320.376C203.941 320.246 204.136 320.112 204.274 319.973C204.413 319.826 204.482 319.739 204.482 319.713L204.859 320.025C204.859 320.06 204.777 320.172 204.612 320.363C204.448 320.545 204.205 320.718 203.884 320.883C203.564 321.048 203.169 321.13 202.701 321.13ZM204.027 317.386L204.04 317.139C204.04 315.666 203.555 314.929 202.584 314.929C202.073 314.929 201.679 315.133 201.401 315.54C201.124 315.939 200.964 316.554 200.92 317.386H204.027ZM208.579 321.13C207.678 321.13 206.989 320.835 206.512 320.246C206.044 319.657 205.81 318.825 205.81 317.75C205.81 316.675 206.044 315.843 206.512 315.254C206.989 314.665 207.678 314.37 208.579 314.37C209.48 314.37 210.165 314.665 210.633 315.254C211.11 315.843 211.348 316.675 211.348 317.75C211.348 318.816 211.105 319.648 210.62 320.246C210.143 320.835 209.463 321.13 208.579 321.13ZM208.579 320.558C209.186 320.558 209.632 320.328 209.918 319.869C210.204 319.401 210.347 318.695 210.347 317.75C210.347 316.814 210.204 316.112 209.918 315.644C209.632 315.176 209.186 314.942 208.579 314.942C207.972 314.942 207.526 315.176 207.24 315.644C206.954 316.103 206.811 316.805 206.811 317.75C206.811 318.695 206.954 319.401 207.24 319.869C207.526 320.328 207.972 320.558 208.579 320.558ZM214.429 321.13C213.969 321.13 213.579 321.061 213.259 320.922C212.947 320.775 212.708 320.619 212.544 320.454C212.388 320.289 212.31 320.194 212.31 320.168L212.635 319.713C212.635 319.73 212.704 319.813 212.843 319.96C212.981 320.107 213.172 320.246 213.415 320.376C213.657 320.497 213.943 320.558 214.273 320.558C214.758 320.558 215.122 320.437 215.365 320.194C215.616 319.951 215.742 319.657 215.742 319.31C215.742 319.059 215.677 318.851 215.547 318.686C215.425 318.521 215.269 318.396 215.079 318.309C214.897 318.214 214.641 318.11 214.312 317.997C213.93 317.858 213.627 317.733 213.402 317.62C213.176 317.499 212.981 317.321 212.817 317.087C212.661 316.853 212.583 316.55 212.583 316.177C212.583 315.622 212.782 315.185 213.181 314.864C213.588 314.535 214.108 314.37 214.741 314.37C215.018 314.37 215.282 314.409 215.534 314.487C215.794 314.556 216.002 314.634 216.158 314.721C216.314 314.799 216.413 314.851 216.457 314.877L216.301 315.436C216.266 315.41 216.179 315.358 216.041 315.28C215.902 315.193 215.72 315.111 215.495 315.033C215.278 314.955 215.053 314.916 214.819 314.916C214.42 314.916 214.095 315.016 213.844 315.215C213.601 315.414 213.48 315.666 213.48 315.969C213.48 316.22 213.545 316.433 213.675 316.606C213.805 316.771 213.965 316.901 214.156 316.996C214.355 317.091 214.619 317.2 214.949 317.321C215.33 317.451 215.638 317.581 215.872 317.711C216.114 317.832 216.318 318.01 216.483 318.244C216.647 318.478 216.73 318.781 216.73 319.154C216.73 319.717 216.535 320.19 216.145 320.571C215.755 320.944 215.183 321.13 214.429 321.13Z" fill="#222222"/>
<path d="M127.054 36.3768C143.558 32.9221 160.626 33.203 177.007 37.1989C193.388 41.1949 208.668 48.8047 221.727 59.4709C234.787 70.1371 245.295 83.5895 252.481 98.8428C259.668 114.096 263.352 130.764 263.262 147.625C256.927 159.079 248.154 169.002 237.562 176.692C226.97 184.383 214.818 189.652 201.965 192.129C189.113 194.606 175.873 194.229 163.181 191.026C150.49 187.822 138.658 181.87 128.52 173.59C118.382 165.31 110.187 154.904 104.514 143.109C98.8406 131.313 95.8276 118.415 95.6878 105.326C95.548 92.2378 98.2849 79.2783 103.705 67.364C109.125 55.4497 117.096 44.8714 127.054 36.3768" stroke="white" stroke-width="2"/>
<path d="M95.6827 104.372C95.6827 128.075 105.099 150.807 121.859 167.567C138.62 184.328 161.352 193.743 185.054 193.743C208.757 193.743 231.489 184.328 248.25 167.567C265.01 150.807 274.426 128.075 274.426 104.372C274.426 80.6689 265.01 57.9368 248.25 41.1764C231.489 24.4159 208.757 15 185.054 15C161.352 15 138.62 24.4159 121.859 41.1764C105.099 57.9368 95.6827 80.6689 95.6827 104.372" fill="#A8001C" fill-opacity="0.6"/>
<path d="M95.6827 104.372C95.6827 128.075 105.099 150.807 121.859 167.567C138.62 184.328 161.352 193.743 185.054 193.743C208.757 193.743 231.489 184.328 248.25 167.567C265.01 150.807 274.426 128.075 274.426 104.372C274.426 80.6689 265.01 57.9368 248.25 41.1764C231.489 24.4159 208.757 15 185.054 15C161.352 15 138.62 24.4159 121.859 41.1764C105.099 57.9368 95.6827 80.6689 95.6827 104.372" stroke="white" stroke-width="2"/>
<path d="M214.046 77.187C213.343 77.187 212.72 77.0113 212.176 76.66C211.643 76.3087 211.23 75.8157 210.935 75.181C210.64 74.535 210.493 73.787 210.493 72.937C210.493 72.019 210.635 71.2143 210.918 70.523C211.201 69.8203 211.604 69.282 212.125 68.908C212.646 68.5227 213.253 68.33 213.944 68.33C214.386 68.33 214.754 68.381 215.049 68.483C215.344 68.5737 215.565 68.6757 215.712 68.789C215.859 68.891 215.933 68.9533 215.933 68.976H215.984V64.318L218.245 64.182V77H216.358L216.103 76.235H216.086C216.086 76.269 216.018 76.3653 215.882 76.524C215.746 76.6827 215.525 76.8357 215.219 76.983C214.924 77.119 214.533 77.187 214.046 77.187ZM214.556 75.861C214.839 75.861 215.083 75.8043 215.287 75.691C215.502 75.5777 215.672 75.453 215.797 75.317C215.922 75.181 215.984 75.1017 215.984 75.079V70.183C215.961 70.149 215.893 70.0923 215.78 70.013C215.678 69.9223 215.525 69.8373 215.321 69.758C215.128 69.6673 214.902 69.622 214.641 69.622C214.029 69.622 213.587 69.8657 213.315 70.353C213.054 70.8403 212.924 71.679 212.924 72.869C212.924 73.6623 212.981 74.2743 213.094 74.705C213.219 75.1357 213.394 75.436 213.621 75.606C213.859 75.776 214.171 75.861 214.556 75.861ZM222.341 77.187C221.547 77.187 220.913 76.9887 220.437 76.592C219.961 76.1953 219.723 75.6513 219.723 74.96C219.723 73.9627 220.187 73.243 221.117 72.801C222.057 72.3477 223.151 72.07 224.398 71.968V71.475C224.398 70.7043 224.29 70.1773 224.075 69.894C223.859 69.5993 223.497 69.452 222.987 69.452C222.749 69.452 222.477 69.4973 222.171 69.588C221.876 69.6787 221.615 69.775 221.389 69.877C221.173 69.979 221.032 70.047 220.964 70.081L220.743 68.993C220.811 68.959 220.969 68.891 221.219 68.789C221.479 68.6757 221.802 68.568 222.188 68.466C222.584 68.364 222.981 68.313 223.378 68.313C224.443 68.313 225.253 68.5397 225.809 68.993C226.375 69.435 226.659 70.2 226.659 71.288V75.147C226.659 75.7477 226.778 76.048 227.016 76.048C227.106 76.048 227.214 76.031 227.339 75.997C227.463 75.963 227.548 75.9403 227.594 75.929L227.662 76.813C227.605 76.8357 227.469 76.8753 227.254 76.932C227.038 76.9887 226.789 77.0453 226.506 77.102C226.234 77.1587 225.99 77.187 225.775 77.187C225.446 77.187 225.191 77.1077 225.01 76.949C224.828 76.779 224.709 76.507 224.653 76.133H224.568C224.568 76.167 224.488 76.2747 224.33 76.456C224.182 76.626 223.944 76.7903 223.616 76.949C223.287 77.1077 222.862 77.187 222.341 77.187ZM223.089 76.048C223.361 76.048 223.593 75.98 223.786 75.844C223.99 75.708 224.143 75.5607 224.245 75.402C224.347 75.232 224.398 75.1357 224.398 75.113V72.869C223.638 72.9483 223.06 73.1297 222.664 73.413C222.278 73.685 222.086 74.1043 222.086 74.671C222.086 75.1243 222.176 75.47 222.358 75.708C222.539 75.9347 222.783 76.048 223.089 76.048ZM228.999 68.5H230.818L231.107 69.197H231.175C231.175 69.1743 231.266 69.0893 231.447 68.942C231.64 68.7947 231.912 68.6587 232.263 68.534C232.615 68.398 233.051 68.33 233.572 68.33C234.445 68.33 235.097 68.568 235.527 69.044C235.969 69.5087 236.19 70.2397 236.19 71.237V77H233.929V71.696C233.929 70.9367 233.844 70.421 233.674 70.149C233.516 69.877 233.221 69.741 232.79 69.741C232.496 69.741 232.235 69.7863 232.008 69.877C231.782 69.9677 231.6 70.0697 231.464 70.183C231.328 70.285 231.26 70.3417 231.26 70.353V77H228.999V68.5ZM241.105 81.454C239.824 81.454 238.867 81.199 238.232 80.689C237.609 80.179 237.297 79.4877 237.297 78.615C237.297 77.663 237.654 76.966 238.368 76.524C238.243 76.252 238.181 75.946 238.181 75.606C238.181 74.926 238.43 74.3707 238.929 73.94C238.521 73.6793 238.198 73.3337 237.96 72.903C237.733 72.4723 237.62 71.968 237.62 71.39C237.62 70.37 237.949 69.605 238.606 69.095C239.263 68.585 240.102 68.33 241.122 68.33C241.575 68.33 242.006 68.3923 242.414 68.517L244.709 68.534V69.537L243.893 69.588C244.21 70.064 244.369 70.6647 244.369 71.39C244.369 72.3987 244.069 73.1693 243.468 73.702C242.879 74.2347 242.08 74.501 241.071 74.501C240.686 74.501 240.295 74.4557 239.898 74.365C239.683 74.535 239.575 74.7447 239.575 74.994C239.575 75.2207 239.705 75.3963 239.966 75.521C240.227 75.6343 240.674 75.691 241.309 75.691C242.556 75.691 243.479 75.9177 244.08 76.371C244.681 76.8243 244.981 77.493 244.981 78.377C244.981 79.3743 244.652 80.1337 243.995 80.655C243.349 81.1877 242.386 81.454 241.105 81.454ZM241.02 73.464C241.405 73.464 241.694 73.2997 241.887 72.971C242.08 72.6423 242.176 72.104 242.176 71.356C242.176 70.608 242.08 70.098 241.887 69.826C241.694 69.554 241.4 69.418 241.003 69.418C240.606 69.418 240.306 69.5597 240.102 69.843C239.898 70.115 239.796 70.6307 239.796 71.39C239.796 72.1267 239.898 72.6593 240.102 72.988C240.317 73.3053 240.623 73.464 241.02 73.464ZM241.105 80.298C241.774 80.298 242.272 80.179 242.601 79.941C242.93 79.703 243.094 79.3573 243.094 78.904C243.094 78.4507 242.913 78.122 242.55 77.918C242.199 77.714 241.666 77.612 240.952 77.612C240.283 77.612 239.734 77.5213 239.303 77.34C239.02 77.646 238.878 78.054 238.878 78.564C238.878 79.1193 239.059 79.5443 239.422 79.839C239.796 80.145 240.357 80.298 241.105 80.298ZM249.434 77.187C248.176 77.187 247.196 76.8413 246.493 76.15C245.802 75.4473 245.456 74.365 245.456 72.903C245.456 71.4297 245.796 70.302 246.476 69.52C247.156 68.7267 248.074 68.33 249.23 68.33C250.284 68.33 251.1 68.6643 251.678 69.333C252.267 69.9903 252.562 70.9367 252.562 72.172C252.562 72.4553 252.539 72.6933 252.494 72.886C252.46 73.0787 252.437 73.1977 252.426 73.243H247.853C247.864 74.263 248.012 74.9883 248.295 75.419C248.59 75.8383 249.06 76.048 249.706 76.048C250.091 76.048 250.431 75.9687 250.726 75.81C251.021 75.64 251.253 75.4587 251.423 75.266C251.593 75.062 251.678 74.9487 251.678 74.926L252.443 75.521C252.443 75.5663 252.324 75.7307 252.086 76.014C251.859 76.2973 251.519 76.5637 251.066 76.813C250.624 77.0623 250.08 77.187 249.434 77.187ZM250.454 72.138V71.747C250.454 70.8857 250.363 70.285 250.182 69.945C250.001 69.5937 249.683 69.418 249.23 69.418C248.913 69.418 248.658 69.4973 248.465 69.656C248.284 69.8147 248.142 70.0923 248.04 70.489C247.938 70.8743 247.876 71.424 247.853 72.138H250.454ZM254.035 68.5H255.633L256.007 69.928H256.075C256.075 69.86 256.12 69.6957 256.211 69.435C256.301 69.163 256.466 68.908 256.704 68.67C256.953 68.432 257.282 68.313 257.69 68.313C257.916 68.313 258.171 68.347 258.455 68.415C258.749 68.483 258.942 68.5283 259.033 68.551L258.829 70.132C258.738 70.1093 258.534 70.064 258.217 69.996C257.911 69.928 257.644 69.894 257.418 69.894C257.157 69.894 256.942 69.9733 256.772 70.132C256.613 70.2793 256.494 70.438 256.415 70.608C256.335 70.778 256.296 70.88 256.296 70.914V77H254.035V68.5ZM212.674 94.14C212.198 94.14 211.787 94.07 211.442 93.93C211.106 93.7807 210.84 93.622 210.644 93.454C210.457 93.286 210.364 93.188 210.364 93.16L210.728 92.642C210.728 92.6607 210.807 92.7447 210.966 92.894C211.134 93.034 211.358 93.1647 211.638 93.286C211.918 93.4073 212.245 93.468 212.618 93.468C213.299 93.468 213.836 93.2673 214.228 92.866C214.62 92.4553 214.816 91.8813 214.816 91.144C214.816 90.4907 214.639 89.9727 214.284 89.59C213.929 89.2073 213.458 89.016 212.87 89.016C212.581 89.016 212.324 89.0627 212.1 89.156C211.885 89.24 211.741 89.324 211.666 89.408L211.652 89.45L211.232 89.394L211.652 84.9H215.46L215.418 85.88H212.184L211.946 88.61C212.273 88.4887 212.609 88.428 212.954 88.428C213.831 88.428 214.536 88.6707 215.068 89.156C215.609 89.6413 215.88 90.2993 215.88 91.13C215.88 91.746 215.735 92.2827 215.446 92.74C215.157 93.1973 214.769 93.5473 214.284 93.79C213.799 94.0233 213.262 94.14 212.674 94.14ZM222.351 94L219.957 87H221.161L222.981 92.894L224.913 87H225.683L223.275 94H222.351ZM227.413 85.586C227.245 85.586 227.11 85.5347 227.007 85.432C226.886 85.3107 226.825 85.1613 226.825 84.984C226.825 84.8067 226.886 84.6573 227.007 84.536C227.11 84.4333 227.245 84.382 227.413 84.382C227.591 84.382 227.731 84.4287 227.833 84.522C227.945 84.6433 228.001 84.7973 228.001 84.984C228.001 85.152 227.945 85.3013 227.833 85.432C227.703 85.5347 227.563 85.586 227.413 85.586ZM226.895 94V87H227.917V94H226.895ZM232.295 94.14C231.446 94.14 230.764 93.8367 230.251 93.23C229.738 92.6233 229.481 91.7787 229.481 90.696C229.481 89.5293 229.728 88.6007 230.223 87.91C230.727 87.21 231.432 86.86 232.337 86.86C232.72 86.86 233.042 86.9113 233.303 87.014C233.564 87.1073 233.765 87.2147 233.905 87.336C234.045 87.448 234.115 87.5133 234.115 87.532H234.129V83.528L235.137 83.472V94H234.269L234.157 93.174C234.054 93.3793 233.854 93.594 233.555 93.818C233.256 94.0327 232.836 94.14 232.295 94.14ZM232.519 93.454C232.855 93.454 233.144 93.384 233.387 93.244C233.63 93.0947 233.812 92.936 233.933 92.768C234.064 92.6 234.129 92.502 234.129 92.474V88.176C234.129 88.1573 234.064 88.092 233.933 87.98C233.812 87.868 233.639 87.7653 233.415 87.672C233.2 87.5787 232.944 87.532 232.645 87.532C231.926 87.532 231.399 87.798 231.063 88.33C230.727 88.8527 230.559 89.632 230.559 90.668C230.559 91.648 230.722 92.3573 231.049 92.796C231.385 93.2347 231.875 93.454 232.519 93.454ZM239.696 94.14C238.762 94.14 238.03 93.8507 237.498 93.272C236.966 92.684 236.7 91.8067 236.7 90.64C236.7 89.464 236.956 88.54 237.47 87.868C237.983 87.196 238.683 86.86 239.57 86.86C240.372 86.86 240.988 87.14 241.418 87.7C241.856 88.2507 242.076 89.0347 242.076 90.052C242.076 90.2293 242.066 90.374 242.048 90.486C242.029 90.598 242.015 90.668 242.006 90.696H237.764C237.764 92.5813 238.445 93.524 239.808 93.524C240.181 93.524 240.498 93.4587 240.76 93.328C241.03 93.188 241.24 93.0433 241.39 92.894C241.539 92.7353 241.614 92.642 241.614 92.614L242.02 92.95C242.02 92.9873 241.931 93.1087 241.754 93.314C241.576 93.51 241.315 93.6967 240.97 93.874C240.624 94.0513 240.2 94.14 239.696 94.14ZM241.124 90.108L241.138 89.842C241.138 88.2553 240.615 87.462 239.57 87.462C239.019 87.462 238.594 87.6813 238.296 88.12C237.997 88.5493 237.824 89.212 237.778 90.108H241.124ZM246.025 94.14C245.055 94.14 244.313 93.8227 243.799 93.188C243.295 92.5533 243.043 91.6573 243.043 90.5C243.043 89.3427 243.295 88.4467 243.799 87.812C244.313 87.1773 245.055 86.86 246.025 86.86C246.996 86.86 247.733 87.1773 248.237 87.812C248.751 88.4467 249.007 89.3427 249.007 90.5C249.007 91.648 248.746 92.544 248.223 93.188C247.71 93.8227 246.977 94.14 246.025 94.14ZM246.025 93.524C246.679 93.524 247.159 93.2767 247.467 92.782C247.775 92.278 247.929 91.5173 247.929 90.5C247.929 89.492 247.775 88.736 247.467 88.232C247.159 87.728 246.679 87.476 246.025 87.476C245.372 87.476 244.891 87.728 244.583 88.232C244.275 88.7267 244.121 89.4827 244.121 90.5C244.121 91.5173 244.275 92.278 244.583 92.782C244.891 93.2767 245.372 93.524 246.025 93.524ZM252.325 94.14C251.83 94.14 251.41 94.0653 251.065 93.916C250.729 93.7573 250.472 93.5893 250.295 93.412C250.127 93.2347 250.043 93.132 250.043 93.104L250.393 92.614C250.393 92.6327 250.468 92.7213 250.617 92.88C250.766 93.0387 250.972 93.188 251.233 93.328C251.494 93.4587 251.802 93.524 252.157 93.524C252.68 93.524 253.072 93.3933 253.333 93.132C253.604 92.8707 253.739 92.5533 253.739 92.18C253.739 91.9093 253.669 91.6853 253.529 91.508C253.398 91.3307 253.23 91.1953 253.025 91.102C252.829 90.9993 252.554 90.8873 252.199 90.766C251.788 90.6167 251.462 90.4813 251.219 90.36C250.976 90.2293 250.766 90.038 250.589 89.786C250.421 89.534 250.337 89.2073 250.337 88.806C250.337 88.2087 250.552 87.7373 250.981 87.392C251.42 87.0373 251.98 86.86 252.661 86.86C252.96 86.86 253.244 86.902 253.515 86.986C253.795 87.0607 254.019 87.1447 254.187 87.238C254.355 87.322 254.462 87.378 254.509 87.406L254.341 88.008C254.304 87.98 254.21 87.924 254.061 87.84C253.912 87.7467 253.716 87.658 253.473 87.574C253.24 87.49 252.997 87.448 252.745 87.448C252.316 87.448 251.966 87.5553 251.695 87.77C251.434 87.9847 251.303 88.2553 251.303 88.582C251.303 88.8527 251.373 89.0813 251.513 89.268C251.653 89.4453 251.826 89.5853 252.031 89.688C252.246 89.7907 252.53 89.9073 252.885 90.038C253.296 90.178 253.627 90.318 253.879 90.458C254.14 90.5887 254.36 90.78 254.537 91.032C254.714 91.284 254.803 91.6107 254.803 92.012C254.803 92.6187 254.593 93.1273 254.173 93.538C253.753 93.9393 253.137 94.14 252.325 94.14Z" fill="#EEEEEE"/>
<path d="M24.484 143.936C24.484 169.901 34.7986 194.803 53.1588 213.163C71.5189 231.524 96.4207 241.838 122.386 241.838C148.351 241.838 173.253 231.524 191.613 213.163C209.973 194.803 220.288 169.901 220.288 143.936C220.288 117.971 209.973 93.0694 191.613 74.7092C173.253 56.3491 148.351 46.0345 122.386 46.0345C96.4207 46.0345 71.5189 56.3491 53.1588 74.7092C34.7986 93.0694 24.484 117.971 24.484 143.936" fill="white" fill-opacity="0.6"/>
<path d="M24.484 143.936C24.484 169.901 34.7986 194.803 53.1588 213.163C71.5189 231.524 96.4207 241.838 122.386 241.838C148.351 241.838 173.253 231.524 191.613 213.163C209.973 194.803 220.288 169.901 220.288 143.936C220.288 117.971 209.973 93.0694 191.613 74.7092C173.253 56.3491 148.351 46.0345 122.386 46.0345C96.4207 46.0345 71.5189 56.3491 53.1588 74.7092C34.7986 93.0694 24.484 117.971 24.484 143.936" stroke="white" stroke-width="2"/>
<path d="M50.78 158.198C49.856 158.198 49.16 157.952 48.692 157.46C48.236 156.956 48.008 156.176 48.008 155.12V149H50.402V154.616C50.402 155.408 50.498 155.954 50.69 156.254C50.882 156.554 51.194 156.704 51.626 156.704C51.914 156.704 52.172 156.656 52.4 156.56C52.628 156.452 52.808 156.344 52.94 156.236C53.072 156.128 53.156 156.056 53.192 156.02V149H55.586V158H53.66L53.318 157.208H53.282C53.282 157.232 53.186 157.334 52.994 157.514C52.802 157.682 52.52 157.838 52.148 157.982C51.776 158.126 51.32 158.198 50.78 158.198ZM60.2855 158.198C59.5895 158.198 59.0075 158.102 58.5395 157.91C58.0715 157.706 57.7175 157.49 57.4775 157.262C57.2375 157.034 57.1175 156.896 57.1175 156.848L57.7835 155.912C57.7835 155.936 57.8795 156.044 58.0715 156.236C58.2635 156.428 58.5035 156.608 58.7915 156.776C59.0915 156.932 59.4215 157.01 59.7815 157.01C60.2255 157.01 60.5675 156.896 60.8075 156.668C61.0475 156.44 61.1675 156.14 61.1675 155.768C61.1675 155.408 61.0415 155.126 60.7895 154.922C60.5375 154.706 60.1595 154.484 59.6555 154.256C59.1875 154.028 58.8095 153.824 58.5215 153.644C58.2455 153.452 58.0055 153.194 57.8015 152.87C57.5975 152.534 57.4955 152.108 57.4955 151.592C57.4955 150.704 57.8015 150.02 58.4135 149.54C59.0255 149.048 59.7815 148.802 60.6815 148.802C61.0655 148.802 61.4495 148.85 61.8335 148.946C62.2175 149.042 62.5355 149.138 62.7875 149.234C63.0395 149.33 63.2015 149.396 63.2735 149.432L62.9495 150.638C62.8895 150.602 62.7515 150.53 62.5355 150.422C62.3195 150.314 62.0555 150.212 61.7435 150.116C61.4435 150.02 61.1675 149.972 60.9155 149.972C60.5435 149.972 60.2555 150.062 60.0515 150.242C59.8475 150.422 59.7455 150.662 59.7455 150.962C59.7455 151.322 59.8775 151.616 60.1415 151.844C60.4175 152.06 60.8315 152.294 61.3835 152.546C61.8755 152.786 62.2715 153.008 62.5715 153.212C62.8715 153.404 63.1295 153.668 63.3455 154.004C63.5615 154.34 63.6695 154.76 63.6695 155.264C63.6695 156.14 63.3755 156.848 62.7875 157.388C62.2115 157.928 61.3775 158.198 60.2855 158.198ZM68.9254 158.198C67.5934 158.198 66.5554 157.832 65.8114 157.1C65.0794 156.356 64.7134 155.21 64.7134 153.662C64.7134 152.102 65.0734 150.908 65.7934 150.08C66.5134 149.24 67.4854 148.82 68.7094 148.82C69.8254 148.82 70.6894 149.174 71.3014 149.882C71.9254 150.578 72.2374 151.58 72.2374 152.888C72.2374 153.188 72.2134 153.44 72.1654 153.644C72.1294 153.848 72.1054 153.974 72.0934 154.022H67.2514C67.2634 155.102 67.4194 155.87 67.7194 156.326C68.0314 156.77 68.5294 156.992 69.2134 156.992C69.6214 156.992 69.9814 156.908 70.2934 156.74C70.6054 156.56 70.8514 156.368 71.0314 156.164C71.2114 155.948 71.3014 155.828 71.3014 155.804L72.1114 156.434C72.1114 156.482 71.9854 156.656 71.7334 156.956C71.4934 157.256 71.1334 157.538 70.6534 157.802C70.1854 158.066 69.6094 158.198 68.9254 158.198ZM70.0054 152.852V152.438C70.0054 151.526 69.9094 150.89 69.7174 150.53C69.5254 150.158 69.1894 149.972 68.7094 149.972C68.3734 149.972 68.1034 150.056 67.8994 150.224C67.7074 150.392 67.5574 150.686 67.4494 151.106C67.3414 151.514 67.2754 152.096 67.2514 152.852H70.0054ZM80.9047 158.198C80.2087 158.198 79.6267 158.102 79.1587 157.91C78.6907 157.706 78.3367 157.49 78.0967 157.262C77.8567 157.034 77.7367 156.896 77.7367 156.848L78.4027 155.912C78.4027 155.936 78.4987 156.044 78.6907 156.236C78.8827 156.428 79.1227 156.608 79.4107 156.776C79.7107 156.932 80.0407 157.01 80.4007 157.01C80.8447 157.01 81.1867 156.896 81.4267 156.668C81.6667 156.44 81.7867 156.14 81.7867 155.768C81.7867 155.408 81.6607 155.126 81.4087 154.922C81.1567 154.706 80.7787 154.484 80.2747 154.256C79.8067 154.028 79.4287 153.824 79.1407 153.644C78.8647 153.452 78.6247 153.194 78.4207 152.87C78.2167 152.534 78.1147 152.108 78.1147 151.592C78.1147 150.704 78.4207 150.02 79.0327 149.54C79.6447 149.048 80.4007 148.802 81.3007 148.802C81.6847 148.802 82.0687 148.85 82.4527 148.946C82.8367 149.042 83.1547 149.138 83.4067 149.234C83.6587 149.33 83.8207 149.396 83.8927 149.432L83.5687 150.638C83.5087 150.602 83.3707 150.53 83.1547 150.422C82.9387 150.314 82.6747 150.212 82.3627 150.116C82.0627 150.02 81.7867 149.972 81.5347 149.972C81.1627 149.972 80.8747 150.062 80.6707 150.242C80.4667 150.422 80.3647 150.662 80.3647 150.962C80.3647 151.322 80.4967 151.616 80.7607 151.844C81.0367 152.06 81.4507 152.294 82.0027 152.546C82.4947 152.786 82.8907 153.008 83.1907 153.212C83.4907 153.404 83.7487 153.668 83.9647 154.004C84.1807 154.34 84.2887 154.76 84.2887 155.264C84.2887 156.14 83.9947 156.848 83.4067 157.388C82.8307 157.928 81.9967 158.198 80.9047 158.198ZM89.5445 158.198C88.2125 158.198 87.1745 157.832 86.4305 157.1C85.6985 156.356 85.3325 155.21 85.3325 153.662C85.3325 152.102 85.6925 150.908 86.4125 150.08C87.1325 149.24 88.1045 148.82 89.3285 148.82C90.4445 148.82 91.3085 149.174 91.9205 149.882C92.5445 150.578 92.8565 151.58 92.8565 152.888C92.8565 153.188 92.8325 153.44 92.7845 153.644C92.7485 153.848 92.7245 153.974 92.7125 154.022H87.8705C87.8825 155.102 88.0385 155.87 88.3385 156.326C88.6505 156.77 89.1485 156.992 89.8325 156.992C90.2405 156.992 90.6005 156.908 90.9125 156.74C91.2245 156.56 91.4705 156.368 91.6505 156.164C91.8305 155.948 91.9205 155.828 91.9205 155.804L92.7305 156.434C92.7305 156.482 92.6045 156.656 92.3525 156.956C92.1125 157.256 91.7525 157.538 91.2725 157.802C90.8045 158.066 90.2285 158.198 89.5445 158.198ZM90.6245 152.852V152.438C90.6245 151.526 90.5285 150.89 90.3365 150.53C90.1445 150.158 89.8085 149.972 89.3285 149.972C88.9925 149.972 88.7225 150.056 88.5185 150.224C88.3265 150.392 88.1765 150.686 88.0685 151.106C87.9605 151.514 87.8945 152.096 87.8705 152.852H90.6245ZM93.4979 158L96.2699 153.644L93.6419 149H96.5039L97.9979 152.186L99.6899 149H101.328L98.8259 153.086L101.688 158H98.8259L97.1339 154.634L95.1719 158H93.4979ZM51.02 177.15C50 177.15 49.215 176.815 48.665 176.145C48.115 175.475 47.84 174.51 47.84 173.25C47.84 172.85 47.855 172.485 47.885 172.155C47.985 170.465 48.32 169.205 48.89 168.375C49.46 167.535 50.215 167.115 51.155 167.115C51.465 167.115 51.76 167.155 52.04 167.235C52.33 167.305 52.56 167.38 52.73 167.46C52.91 167.54 53.025 167.595 53.075 167.625L52.925 168.285C52.885 168.255 52.785 168.205 52.625 168.135C52.465 168.055 52.26 167.98 52.01 167.91C51.76 167.84 51.505 167.805 51.245 167.805C49.785 167.805 49.01 169.13 48.92 171.78C49.52 171.16 50.245 170.85 51.095 170.85C52.005 170.85 52.72 171.125 53.24 171.675C53.77 172.225 54.035 172.96 54.035 173.88C54.035 174.49 53.92 175.045 53.69 175.545C53.47 176.035 53.13 176.425 52.67 176.715C52.22 177.005 51.67 177.15 51.02 177.15ZM51.02 176.49C51.67 176.49 52.145 176.25 52.445 175.77C52.745 175.28 52.895 174.645 52.895 173.865C52.895 173.145 52.735 172.565 52.415 172.125C52.095 171.685 51.61 171.465 50.96 171.465C50.49 171.465 50.1 171.58 49.79 171.81C49.48 172.03 49.23 172.28 49.04 172.56L49.055 172.575C49.035 172.685 49.015 172.835 48.995 173.025C48.985 173.215 48.98 173.405 48.98 173.595C48.98 175.525 49.66 176.49 51.02 176.49ZM61.01 177L58.445 169.5H59.735L61.685 175.815L63.755 169.5H64.58L62 177H61.01ZM66.4336 167.985C66.2536 167.985 66.1086 167.93 65.9986 167.82C65.8686 167.69 65.8036 167.53 65.8036 167.34C65.8036 167.15 65.8686 166.99 65.9986 166.86C66.1086 166.75 66.2536 166.695 66.4336 166.695C66.6236 166.695 66.7736 166.745 66.8836 166.845C67.0036 166.975 67.0636 167.14 67.0636 167.34C67.0636 167.52 67.0036 167.68 66.8836 167.82C66.7436 167.93 66.5936 167.985 66.4336 167.985ZM65.8786 177V169.5H66.9736V177H65.8786ZM71.6638 177.15C70.7538 177.15 70.0238 176.825 69.4738 176.175C68.9238 175.525 68.6488 174.62 68.6488 173.46C68.6488 172.21 68.9138 171.215 69.4438 170.475C69.9838 169.725 70.7388 169.35 71.7088 169.35C72.1188 169.35 72.4638 169.405 72.7438 169.515C73.0238 169.615 73.2388 169.73 73.3888 169.86C73.5388 169.98 73.6138 170.05 73.6138 170.07H73.6288V165.78L74.7088 165.72V177H73.7788L73.6588 176.115C73.5488 176.335 73.3338 176.565 73.0138 176.805C72.6938 177.035 72.2438 177.15 71.6638 177.15ZM71.9038 176.415C72.2638 176.415 72.5738 176.34 72.8338 176.19C73.0938 176.03 73.2888 175.86 73.4188 175.68C73.5588 175.5 73.6288 175.395 73.6288 175.365V170.76C73.6288 170.74 73.5588 170.67 73.4188 170.55C73.2888 170.43 73.1038 170.32 72.8638 170.22C72.6338 170.12 72.3588 170.07 72.0388 170.07C71.2688 170.07 70.7038 170.355 70.3438 170.925C69.9838 171.485 69.8038 172.32 69.8038 173.43C69.8038 174.48 69.9788 175.24 70.3288 175.71C70.6888 176.18 71.2138 176.415 71.9038 176.415ZM79.5931 177.15C78.5931 177.15 77.8081 176.84 77.2381 176.22C76.6681 175.59 76.3831 174.65 76.3831 173.4C76.3831 172.14 76.6581 171.15 77.2081 170.43C77.7581 169.71 78.5081 169.35 79.4581 169.35C80.3181 169.35 80.9781 169.65 81.4381 170.25C81.9081 170.84 82.1431 171.68 82.1431 172.77C82.1431 172.96 82.1331 173.115 82.1131 173.235C82.0931 173.355 82.0781 173.43 82.0681 173.46H77.5231C77.5231 175.48 78.2531 176.49 79.7131 176.49C80.1131 176.49 80.4531 176.42 80.7331 176.28C81.0231 176.13 81.2481 175.975 81.4081 175.815C81.5681 175.645 81.6481 175.545 81.6481 175.515L82.0831 175.875C82.0831 175.915 81.9881 176.045 81.7981 176.265C81.6081 176.475 81.3281 176.675 80.9581 176.865C80.5881 177.055 80.1331 177.15 79.5931 177.15ZM81.1231 172.83L81.1381 172.545C81.1381 170.845 80.5781 169.995 79.4581 169.995C78.8681 169.995 78.4131 170.23 78.0931 170.7C77.7731 171.16 77.5881 171.87 77.5381 172.83H81.1231ZM86.375 177.15C85.335 177.15 84.54 176.81 83.99 176.13C83.45 175.45 83.18 174.49 83.18 173.25C83.18 172.01 83.45 171.05 83.99 170.37C84.54 169.69 85.335 169.35 86.375 169.35C87.415 169.35 88.205 169.69 88.745 170.37C89.295 171.05 89.57 172.01 89.57 173.25C89.57 174.48 89.29 175.44 88.73 176.13C88.18 176.81 87.395 177.15 86.375 177.15ZM86.375 176.49C87.075 176.49 87.59 176.225 87.92 175.695C88.25 175.155 88.415 174.34 88.415 173.25C88.415 172.17 88.25 171.36 87.92 170.82C87.59 170.28 87.075 170.01 86.375 170.01C85.675 170.01 85.16 170.28 84.83 170.82C84.5 171.35 84.335 172.16 84.335 173.25C84.335 174.34 84.5 175.155 84.83 175.695C85.16 176.225 85.675 176.49 86.375 176.49ZM93.1246 177.15C92.5946 177.15 92.1446 177.07 91.7746 176.91C91.4146 176.74 91.1396 176.56 90.9496 176.37C90.7696 176.18 90.6796 176.07 90.6796 176.04L91.0546 175.515C91.0546 175.535 91.1346 175.63 91.2946 175.8C91.4546 175.97 91.6746 176.13 91.9546 176.28C92.2346 176.42 92.5646 176.49 92.9446 176.49C93.5046 176.49 93.9246 176.35 94.2046 176.07C94.4946 175.79 94.6396 175.45 94.6396 175.05C94.6396 174.76 94.5646 174.52 94.4146 174.33C94.2746 174.14 94.0946 173.995 93.8746 173.895C93.6646 173.785 93.3696 173.665 92.9896 173.535C92.5496 173.375 92.1996 173.23 91.9396 173.1C91.6796 172.96 91.4546 172.755 91.2646 172.485C91.0846 172.215 90.9946 171.865 90.9946 171.435C90.9946 170.795 91.2246 170.29 91.6846 169.92C92.1546 169.54 92.7546 169.35 93.4846 169.35C93.8046 169.35 94.1096 169.395 94.3996 169.485C94.6996 169.565 94.9396 169.655 95.1196 169.755C95.2996 169.845 95.4146 169.905 95.4646 169.935L95.2846 170.58C95.2446 170.55 95.1446 170.49 94.9846 170.4C94.8246 170.3 94.6146 170.205 94.3546 170.115C94.1046 170.025 93.8446 169.98 93.5746 169.98C93.1146 169.98 92.7396 170.095 92.4496 170.325C92.1696 170.555 92.0296 170.845 92.0296 171.195C92.0296 171.485 92.1046 171.73 92.2546 171.93C92.4046 172.12 92.5896 172.27 92.8096 172.38C93.0396 172.49 93.3446 172.615 93.7246 172.755C94.1646 172.905 94.5196 173.055 94.7896 173.205C95.0696 173.345 95.3046 173.55 95.4946 173.82C95.6846 174.09 95.7796 174.44 95.7796 174.87C95.7796 175.52 95.5546 176.065 95.1046 176.505C94.6546 176.935 93.9946 177.15 93.1246 177.15Z" fill="#222222"/>
<line x1="108.234" y1="34.7072" x2="115.738" y2="40.7105" stroke="#666666" stroke-width="0.75" stroke-linejoin="round"/>
<line x1="71" y1="34.62" x2="108" y2="34.62" stroke="#666666" stroke-width="0.76"/>
</svg>
