<svg width="380" height="360" viewBox="0 0 380 360" fill="none" xmlns="http://www.w3.org/2000/svg">
<path d="M15 200.139C15 236.38 29.3967 271.137 55.0231 296.763C80.6494 322.389 115.406 336.786 151.647 336.786C187.888 336.786 222.645 322.389 248.272 296.763C273.898 271.137 288.295 236.38 288.295 200.139C288.295 163.897 273.898 129.141 248.272 103.514C222.645 77.888 187.888 63.4913 151.647 63.4913C115.406 63.4913 80.6494 77.888 55.0231 103.514C29.3967 129.141 15 163.897 15 200.139" fill="#013369" fill-opacity="0.6"/>
<path d="M15 200.139C15 236.38 29.3967 271.137 55.0231 296.763C80.6494 322.389 115.406 336.786 151.647 336.786C187.888 336.786 222.645 322.389 248.272 296.763C273.898 271.137 288.295 236.38 288.295 200.139C288.295 163.897 273.898 129.141 248.272 103.514C222.645 77.888 187.888 63.4913 151.647 63.4913C115.406 63.4913 80.6494 77.888 55.0231 103.514C29.3967 129.141 15 163.897 15 200.139" stroke="white" stroke-width="2"/>
<path d="M66.428 266.809H65.595V265.789L66.428 265.551V264.293C66.428 263.273 66.6377 262.485 67.057 261.93C67.4763 261.363 68.162 261.08 69.114 261.08C69.3973 261.08 69.6807 261.125 69.964 261.216C70.2473 261.295 70.4797 261.38 70.661 261.471C70.8537 261.562 70.9727 261.624 71.018 261.658L70.729 262.627C70.695 262.604 70.61 262.565 70.474 262.508C70.338 262.44 70.1793 262.378 69.998 262.321C69.8167 262.253 69.658 262.219 69.522 262.219C69.3067 262.219 69.1423 262.276 69.029 262.389C68.9157 262.502 68.8307 262.729 68.774 263.069C68.7173 263.398 68.689 263.891 68.689 264.548V265.5H70.814V266.809H68.689V274H66.428V266.809ZM74.447 274.187C73.5743 274.187 72.917 273.955 72.475 273.49C72.0443 273.014 71.829 272.277 71.829 271.28V265.5H74.09V270.804C74.09 271.552 74.1806 272.068 74.362 272.351C74.5433 272.634 74.838 272.776 75.246 272.776C75.518 272.776 75.7616 272.731 75.977 272.64C76.1923 272.538 76.3623 272.436 76.487 272.334C76.6116 272.232 76.691 272.164 76.725 272.13V265.5H78.986V274H77.167L76.844 273.252H76.81C76.81 273.275 76.7193 273.371 76.538 273.541C76.3566 273.7 76.0903 273.847 75.739 273.983C75.3876 274.119 74.957 274.187 74.447 274.187ZM81.0444 265.5H82.8634L83.1524 266.197H83.2204C83.2204 266.174 83.3111 266.089 83.4924 265.942C83.6851 265.795 83.9571 265.659 84.3084 265.534C84.6597 265.398 85.0961 265.33 85.6174 265.33C86.4901 265.33 87.1417 265.568 87.5724 266.044C88.0144 266.509 88.2354 267.24 88.2354 268.237V274H85.9744V268.696C85.9744 267.937 85.8894 267.421 85.7194 267.149C85.5607 266.877 85.2661 266.741 84.8354 266.741C84.5407 266.741 84.2801 266.786 84.0534 266.877C83.8267 266.968 83.6454 267.07 83.5094 267.183C83.3734 267.285 83.3054 267.342 83.3054 267.353V274H81.0444V265.5ZM90.1919 265.5H92.0109L92.2999 266.197H92.3679C92.3679 266.174 92.4585 266.089 92.6399 265.942C92.8325 265.795 93.1045 265.659 93.4559 265.534C93.8072 265.398 94.2435 265.33 94.7649 265.33C95.6375 265.33 96.2892 265.568 96.7199 266.044C97.1619 266.509 97.3829 267.24 97.3829 268.237V274H95.1219V268.696C95.1219 267.937 95.0369 267.421 94.8669 267.149C94.7082 266.877 94.4135 266.741 93.9829 266.741C93.6882 266.741 93.4275 266.786 93.2009 266.877C92.9742 266.968 92.7929 267.07 92.6569 267.183C92.5209 267.285 92.4529 267.342 92.4529 267.353V274H90.1919V265.5ZM100.019 278.437C99.7587 278.437 99.5263 278.414 99.3223 278.369C99.1297 278.335 98.9823 278.295 98.8803 278.25C98.7783 278.216 98.716 278.193 98.6933 278.182L98.8803 276.856C98.9257 276.879 99.039 276.913 99.2203 276.958C99.4017 277.015 99.583 277.043 99.7643 277.043C100.274 277.043 100.688 276.839 101.005 276.431C101.323 276.034 101.674 275.337 102.059 274.34L98.4383 265.5H101.175L103.249 271.552L105 265.5H106.411L103.47 274.187C103.119 275.15 102.785 275.932 102.467 276.533C102.161 277.134 101.81 277.598 101.413 277.927C101.017 278.267 100.552 278.437 100.019 278.437ZM67.618 290V281.712L65.938 282.65L65.7 282.104L67.786 280.9H68.626V290H67.618ZM73.682 290.14C72.786 290.14 72.086 289.935 71.582 289.524C71.0873 289.113 70.84 288.479 70.84 287.62C70.84 287.004 71.0173 286.514 71.372 286.15C71.736 285.786 72.1746 285.52 72.688 285.352C72.2306 285.212 71.8386 284.965 71.512 284.61C71.1853 284.255 71.022 283.751 71.022 283.098C71.022 282.37 71.26 281.801 71.736 281.39C72.212 280.979 72.8606 280.774 73.682 280.774C74.5033 280.774 75.152 280.984 75.628 281.404C76.1133 281.815 76.356 282.393 76.356 283.14C76.356 283.756 76.188 284.237 75.852 284.582C75.5253 284.927 75.124 285.179 74.648 285.338C75.1613 285.478 75.6046 285.725 75.978 286.08C76.3513 286.435 76.538 286.957 76.538 287.648C76.538 288.497 76.286 289.127 75.782 289.538C75.278 289.939 74.578 290.14 73.682 290.14ZM73.696 285.1C74.0693 285.063 74.424 284.909 74.76 284.638C75.096 284.358 75.264 283.868 75.264 283.168C75.264 281.955 74.7366 281.348 73.682 281.348C72.6273 281.348 72.1 281.945 72.1 283.14C72.1 283.84 72.268 284.33 72.604 284.61C72.94 284.89 73.304 285.053 73.696 285.1ZM73.682 289.566C74.2326 289.566 74.6573 289.407 74.956 289.09C75.2546 288.763 75.404 288.269 75.404 287.606C75.404 286.897 75.2126 286.402 74.83 286.122C74.4566 285.833 74.06 285.665 73.64 285.618C73.2386 285.665 72.856 285.833 72.492 286.122C72.1373 286.402 71.96 286.892 71.96 287.592C71.96 288.264 72.1093 288.763 72.408 289.09C72.7066 289.407 73.1313 289.566 73.682 289.566ZM83.0389 290L80.6449 283H81.8489L83.6689 288.894L85.6009 283H86.3709L83.9629 290H83.0389ZM88.1009 281.586C87.9329 281.586 87.7975 281.535 87.6949 281.432C87.5735 281.311 87.5129 281.161 87.5129 280.984C87.5129 280.807 87.5735 280.657 87.6949 280.536C87.7975 280.433 87.9329 280.382 88.1009 280.382C88.2782 280.382 88.4182 280.429 88.5209 280.522C88.6329 280.643 88.6889 280.797 88.6889 280.984C88.6889 281.152 88.6329 281.301 88.5209 281.432C88.3902 281.535 88.2502 281.586 88.1009 281.586ZM87.5829 290V283H88.6049V290H87.5829ZM92.9824 290.14C92.1331 290.14 91.4517 289.837 90.9384 289.23C90.4251 288.623 90.1684 287.779 90.1684 286.696C90.1684 285.529 90.4157 284.601 90.9104 283.91C91.4144 283.21 92.1191 282.86 93.0244 282.86C93.4071 282.86 93.7291 282.911 93.9904 283.014C94.2517 283.107 94.4524 283.215 94.5924 283.336C94.7324 283.448 94.8024 283.513 94.8024 283.532H94.8164V279.528L95.8244 279.472V290H94.9564L94.8444 289.174C94.7417 289.379 94.5411 289.594 94.2424 289.818C93.9437 290.033 93.5237 290.14 92.9824 290.14ZM93.2064 289.454C93.5424 289.454 93.8317 289.384 94.0744 289.244C94.3171 289.095 94.4991 288.936 94.6204 288.768C94.7511 288.6 94.8164 288.502 94.8164 288.474V284.176C94.8164 284.157 94.7511 284.092 94.6204 283.98C94.4991 283.868 94.3264 283.765 94.1024 283.672C93.8877 283.579 93.6311 283.532 93.3324 283.532C92.6137 283.532 92.0864 283.798 91.7504 284.33C91.4144 284.853 91.2464 285.632 91.2464 286.668C91.2464 287.648 91.4097 288.357 91.7364 288.796C92.0724 289.235 92.5624 289.454 93.2064 289.454ZM100.383 290.14C99.4498 290.14 98.7171 289.851 98.1851 289.272C97.6531 288.684 97.3871 287.807 97.3871 286.64C97.3871 285.464 97.6438 284.54 98.1571 283.868C98.6705 283.196 99.3705 282.86 100.257 282.86C101.06 282.86 101.676 283.14 102.105 283.7C102.544 284.251 102.763 285.035 102.763 286.052C102.763 286.229 102.754 286.374 102.735 286.486C102.716 286.598 102.702 286.668 102.693 286.696H98.4511C98.4511 288.581 99.1325 289.524 100.495 289.524C100.868 289.524 101.186 289.459 101.447 289.328C101.718 289.188 101.928 289.043 102.077 288.894C102.226 288.735 102.301 288.642 102.301 288.614L102.707 288.95C102.707 288.987 102.618 289.109 102.441 289.314C102.264 289.51 102.002 289.697 101.657 289.874C101.312 290.051 100.887 290.14 100.383 290.14ZM101.811 286.108L101.825 285.842C101.825 284.255 101.302 283.462 100.257 283.462C99.7065 283.462 99.2818 283.681 98.9831 284.12C98.6845 284.549 98.5118 285.212 98.4651 286.108H101.811ZM106.713 290.14C105.742 290.14 105 289.823 104.487 289.188C103.983 288.553 103.731 287.657 103.731 286.5C103.731 285.343 103.983 284.447 104.487 283.812C105 283.177 105.742 282.86 106.713 282.86C107.684 282.86 108.421 283.177 108.925 283.812C109.438 284.447 109.695 285.343 109.695 286.5C109.695 287.648 109.434 288.544 108.911 289.188C108.398 289.823 107.665 290.14 106.713 290.14ZM106.713 289.524C107.366 289.524 107.847 289.277 108.155 288.782C108.463 288.278 108.617 287.517 108.617 286.5C108.617 285.492 108.463 284.736 108.155 284.232C107.847 283.728 107.366 283.476 106.713 283.476C106.06 283.476 105.579 283.728 105.271 284.232C104.963 284.727 104.809 285.483 104.809 286.5C104.809 287.517 104.963 288.278 105.271 288.782C105.579 289.277 106.06 289.524 106.713 289.524ZM113.013 290.14C112.518 290.14 112.098 290.065 111.753 289.916C111.417 289.757 111.16 289.589 110.983 289.412C110.815 289.235 110.731 289.132 110.731 289.104L111.081 288.614C111.081 288.633 111.155 288.721 111.305 288.88C111.454 289.039 111.659 289.188 111.921 289.328C112.182 289.459 112.49 289.524 112.845 289.524C113.367 289.524 113.759 289.393 114.021 289.132C114.291 288.871 114.427 288.553 114.427 288.18C114.427 287.909 114.357 287.685 114.217 287.508C114.086 287.331 113.918 287.195 113.713 287.102C113.517 286.999 113.241 286.887 112.887 286.766C112.476 286.617 112.149 286.481 111.907 286.36C111.664 286.229 111.454 286.038 111.277 285.786C111.109 285.534 111.025 285.207 111.025 284.806C111.025 284.209 111.239 283.737 111.669 283.392C112.107 283.037 112.667 282.86 113.349 282.86C113.647 282.86 113.932 282.902 114.203 282.986C114.483 283.061 114.707 283.145 114.875 283.238C115.043 283.322 115.15 283.378 115.197 283.406L115.029 284.008C114.991 283.98 114.898 283.924 114.749 283.84C114.599 283.747 114.403 283.658 114.161 283.574C113.927 283.49 113.685 283.448 113.433 283.448C113.003 283.448 112.653 283.555 112.383 283.77C112.121 283.985 111.991 284.255 111.991 284.582C111.991 284.853 112.061 285.081 112.201 285.268C112.341 285.445 112.513 285.585 112.719 285.688C112.933 285.791 113.218 285.907 113.573 286.038C113.983 286.178 114.315 286.318 114.567 286.458C114.828 286.589 115.047 286.78 115.225 287.032C115.402 287.284 115.491 287.611 115.491 288.012C115.491 288.619 115.281 289.127 114.861 289.538C114.441 289.939 113.825 290.14 113.013 290.14Z" fill="#EEEEEE"/>
<path d="M107.335 200.139C107.335 217.057 110.668 233.81 117.142 249.441C123.617 265.071 133.106 279.274 145.069 291.237C157.033 303.2 171.235 312.69 186.866 319.164C202.496 325.639 219.249 328.971 236.168 328.971C253.086 328.971 269.839 325.639 285.47 319.164C301.1 312.69 315.303 303.2 327.266 291.237C339.229 279.274 348.719 265.071 355.193 249.441C361.668 233.81 365 217.057 365 200.139C365 165.97 351.427 133.201 327.266 109.04C303.105 84.8796 270.336 71.3063 236.168 71.3063C201.999 71.3063 169.23 84.8796 145.069 109.04C120.909 133.201 107.335 165.97 107.335 200.139Z" fill="#D3BC8D" fill-opacity="0.6" stroke="white" stroke-width="2"/>
<path d="M252.539 313.187C251.236 313.187 250.233 312.813 249.53 312.065C248.839 311.317 248.493 310.229 248.493 308.801C248.493 307.418 248.856 306.325 249.581 305.52C250.306 304.715 251.309 304.313 252.59 304.313C252.941 304.313 253.298 304.364 253.661 304.466C254.035 304.557 254.347 304.659 254.596 304.772C254.845 304.874 255.004 304.942 255.072 304.976L254.851 306.064C254.794 306.03 254.653 305.968 254.426 305.877C254.199 305.775 253.939 305.679 253.644 305.588C253.349 305.497 253.083 305.452 252.845 305.452C252.414 305.452 252.063 305.543 251.791 305.724C251.519 305.905 251.309 306.24 251.162 306.727C251.015 307.203 250.941 307.883 250.941 308.767C250.941 310.025 251.1 310.886 251.417 311.351C251.734 311.816 252.188 312.048 252.777 312.048C253.174 312.048 253.514 311.963 253.797 311.793C254.092 311.612 254.318 311.425 254.477 311.232C254.636 311.028 254.715 310.909 254.715 310.875L255.514 311.385C255.514 311.453 255.412 311.64 255.208 311.946C255.004 312.241 254.681 312.524 254.239 312.796C253.797 313.057 253.23 313.187 252.539 313.187ZM260.058 313.187C258.8 313.187 257.82 312.841 257.117 312.15C256.426 311.447 256.08 310.365 256.08 308.903C256.08 307.43 256.42 306.302 257.1 305.52C257.78 304.727 258.698 304.33 259.854 304.33C260.908 304.33 261.724 304.664 262.302 305.333C262.891 305.99 263.186 306.937 263.186 308.172C263.186 308.455 263.163 308.693 263.118 308.886C263.084 309.079 263.061 309.198 263.05 309.243H258.477C258.488 310.263 258.636 310.988 258.919 311.419C259.214 311.838 259.684 312.048 260.33 312.048C260.715 312.048 261.055 311.969 261.35 311.81C261.645 311.64 261.877 311.459 262.047 311.266C262.217 311.062 262.302 310.949 262.302 310.926L263.067 311.521C263.067 311.566 262.948 311.731 262.71 312.014C262.483 312.297 262.143 312.564 261.69 312.813C261.248 313.062 260.704 313.187 260.058 313.187ZM261.078 308.138V307.747C261.078 306.886 260.987 306.285 260.806 305.945C260.625 305.594 260.307 305.418 259.854 305.418C259.537 305.418 259.282 305.497 259.089 305.656C258.908 305.815 258.766 306.092 258.664 306.489C258.562 306.874 258.5 307.424 258.477 308.138H261.078ZM264.659 313V300.318L266.92 300.182V313H264.659ZM272.426 313.187C271.168 313.187 270.188 312.841 269.485 312.15C268.794 311.447 268.448 310.365 268.448 308.903C268.448 307.43 268.788 306.302 269.468 305.52C270.148 304.727 271.066 304.33 272.222 304.33C273.276 304.33 274.092 304.664 274.67 305.333C275.259 305.99 275.554 306.937 275.554 308.172C275.554 308.455 275.531 308.693 275.486 308.886C275.452 309.079 275.429 309.198 275.418 309.243H270.845C270.856 310.263 271.004 310.988 271.287 311.419C271.582 311.838 272.052 312.048 272.698 312.048C273.083 312.048 273.423 311.969 273.718 311.81C274.013 311.64 274.245 311.459 274.415 311.266C274.585 311.062 274.67 310.949 274.67 310.926L275.435 311.521C275.435 311.566 275.316 311.731 275.078 312.014C274.851 312.297 274.511 312.564 274.058 312.813C273.616 313.062 273.072 313.187 272.426 313.187ZM273.446 308.138V307.747C273.446 306.886 273.355 306.285 273.174 305.945C272.993 305.594 272.675 305.418 272.222 305.418C271.905 305.418 271.65 305.497 271.457 305.656C271.276 305.815 271.134 306.092 271.032 306.489C270.93 306.874 270.868 307.424 270.845 308.138H273.446ZM281.226 313.255C280.773 313.255 280.376 313.193 280.036 313.068C279.707 312.943 279.447 312.813 279.254 312.677C279.073 312.53 278.982 312.445 278.982 312.422H278.948L278.574 313H277.027V300.318L279.288 300.182V305.061H279.356C279.356 305.038 279.43 304.959 279.577 304.823C279.724 304.676 279.951 304.545 280.257 304.432C280.563 304.307 280.943 304.245 281.396 304.245C282.065 304.245 282.654 304.426 283.164 304.789C283.674 305.152 284.071 305.662 284.354 306.319C284.637 306.976 284.779 307.73 284.779 308.58C284.779 309.985 284.462 311.119 283.827 311.98C283.204 312.83 282.337 313.255 281.226 313.255ZM280.631 311.963C281.254 311.963 281.696 311.714 281.957 311.215C282.218 310.705 282.348 309.844 282.348 308.631C282.348 307.849 282.291 307.237 282.178 306.795C282.076 306.353 281.906 306.041 281.668 305.86C281.43 305.667 281.113 305.571 280.716 305.571C280.421 305.571 280.166 305.639 279.951 305.775C279.736 305.9 279.571 306.041 279.458 306.2C279.345 306.347 279.288 306.432 279.288 306.455V311.334C279.288 311.357 279.339 311.425 279.441 311.538C279.543 311.64 279.69 311.736 279.883 311.827C280.087 311.918 280.336 311.963 280.631 311.963ZM286.291 304.5H287.889L288.263 305.928H288.331C288.331 305.86 288.376 305.696 288.467 305.435C288.557 305.163 288.722 304.908 288.96 304.67C289.209 304.432 289.538 304.313 289.946 304.313C290.172 304.313 290.427 304.347 290.711 304.415C291.005 304.483 291.198 304.528 291.289 304.551L291.085 306.132C290.994 306.109 290.79 306.064 290.473 305.996C290.167 305.928 289.9 305.894 289.674 305.894C289.413 305.894 289.198 305.973 289.028 306.132C288.869 306.279 288.75 306.438 288.671 306.608C288.591 306.778 288.552 306.88 288.552 306.914V313H286.291V304.5ZM293.472 303.225C293.132 303.225 292.832 303.112 292.571 302.885C292.311 302.624 292.18 302.301 292.18 301.916C292.18 301.542 292.311 301.225 292.571 300.964C292.809 300.737 293.11 300.624 293.472 300.624C293.824 300.624 294.113 300.732 294.339 300.947C294.589 301.208 294.713 301.531 294.713 301.916C294.713 302.313 294.589 302.641 294.339 302.902C294.09 303.117 293.801 303.225 293.472 303.225ZM292.333 313V304.5H294.594V313H292.333ZM299.302 313.187C298.498 313.187 297.903 312.989 297.517 312.592C297.132 312.195 296.939 311.527 296.939 310.586V305.809H296.123V304.789L296.956 304.551L298.044 301.678H299.2V304.5H301.07V305.809H299.2V310.008C299.2 310.541 299.223 310.949 299.268 311.232C299.325 311.504 299.41 311.697 299.523 311.81C299.637 311.912 299.795 311.963 299.999 311.963C300.226 311.963 300.43 311.94 300.611 311.895C300.793 311.85 300.883 311.821 300.883 311.81L301.019 312.779C301.019 312.79 300.957 312.83 300.832 312.898C300.708 312.966 300.515 313.028 300.254 313.085C300.005 313.153 299.688 313.187 299.302 313.187ZM303.306 317.437C303.046 317.437 302.813 317.414 302.609 317.369C302.417 317.335 302.269 317.295 302.167 317.25C302.065 317.216 302.003 317.193 301.98 317.182L302.167 315.856C302.213 315.879 302.326 315.913 302.507 315.958C302.689 316.015 302.87 316.043 303.051 316.043C303.561 316.043 303.975 315.839 304.292 315.431C304.61 315.034 304.961 314.337 305.346 313.34L301.725 304.5H304.462L306.536 310.552L308.287 304.5H309.698L306.757 313.187C306.406 314.15 306.072 314.932 305.754 315.533C305.448 316.134 305.097 316.598 304.7 316.927C304.304 317.267 303.839 317.437 303.306 317.437ZM250.618 329V320.712L248.938 321.65L248.7 321.104L250.786 319.9H251.626V329H250.618ZM256.92 329.14C255.968 329.14 255.235 328.827 254.722 328.202C254.209 327.577 253.952 326.676 253.952 325.5C253.952 325.127 253.966 324.786 253.994 324.478C254.087 322.901 254.4 321.725 254.932 320.95C255.464 320.166 256.169 319.774 257.046 319.774C257.335 319.774 257.611 319.811 257.872 319.886C258.143 319.951 258.357 320.021 258.516 320.096C258.684 320.171 258.791 320.222 258.838 320.25L258.698 320.866C258.661 320.838 258.567 320.791 258.418 320.726C258.269 320.651 258.077 320.581 257.844 320.516C257.611 320.451 257.373 320.418 257.13 320.418C255.767 320.418 255.044 321.655 254.96 324.128C255.52 323.549 256.197 323.26 256.99 323.26C257.839 323.26 258.507 323.517 258.992 324.03C259.487 324.543 259.734 325.229 259.734 326.088C259.734 326.657 259.627 327.175 259.412 327.642C259.207 328.099 258.889 328.463 258.46 328.734C258.04 329.005 257.527 329.14 256.92 329.14ZM256.92 328.524C257.527 328.524 257.97 328.3 258.25 327.852C258.53 327.395 258.67 326.802 258.67 326.074C258.67 325.402 258.521 324.861 258.222 324.45C257.923 324.039 257.471 323.834 256.864 323.834C256.425 323.834 256.061 323.941 255.772 324.156C255.483 324.361 255.249 324.595 255.072 324.856L255.086 324.87C255.067 324.973 255.049 325.113 255.03 325.29C255.021 325.467 255.016 325.645 255.016 325.822C255.016 327.623 255.651 328.524 256.92 328.524ZM266.244 329L263.85 322H265.054L266.874 327.894L268.806 322H269.576L267.168 329H266.244ZM271.306 320.586C271.138 320.586 271.003 320.535 270.9 320.432C270.779 320.311 270.718 320.161 270.718 319.984C270.718 319.807 270.779 319.657 270.9 319.536C271.003 319.433 271.138 319.382 271.306 319.382C271.483 319.382 271.623 319.429 271.726 319.522C271.838 319.643 271.894 319.797 271.894 319.984C271.894 320.152 271.838 320.301 271.726 320.432C271.595 320.535 271.455 320.586 271.306 320.586ZM270.788 329V322H271.81V329H270.788ZM276.187 329.14C275.338 329.14 274.657 328.837 274.143 328.23C273.63 327.623 273.373 326.779 273.373 325.696C273.373 324.529 273.621 323.601 274.115 322.91C274.619 322.21 275.324 321.86 276.229 321.86C276.612 321.86 276.934 321.911 277.195 322.014C277.457 322.107 277.657 322.215 277.797 322.336C277.937 322.448 278.007 322.513 278.007 322.532H278.021V318.528L279.029 318.472V329H278.161L278.049 328.174C277.947 328.379 277.746 328.594 277.447 328.818C277.149 329.033 276.729 329.14 276.187 329.14ZM276.411 328.454C276.747 328.454 277.037 328.384 277.279 328.244C277.522 328.095 277.704 327.936 277.825 327.768C277.956 327.6 278.021 327.502 278.021 327.474V323.176C278.021 323.157 277.956 323.092 277.825 322.98C277.704 322.868 277.531 322.765 277.307 322.672C277.093 322.579 276.836 322.532 276.537 322.532C275.819 322.532 275.291 322.798 274.955 323.33C274.619 323.853 274.451 324.632 274.451 325.668C274.451 326.648 274.615 327.357 274.941 327.796C275.277 328.235 275.767 328.454 276.411 328.454ZM283.588 329.14C282.655 329.14 281.922 328.851 281.39 328.272C280.858 327.684 280.592 326.807 280.592 325.64C280.592 324.464 280.849 323.54 281.362 322.868C281.876 322.196 282.576 321.86 283.462 321.86C284.265 321.86 284.881 322.14 285.31 322.7C285.749 323.251 285.968 324.035 285.968 325.052C285.968 325.229 285.959 325.374 285.94 325.486C285.922 325.598 285.908 325.668 285.898 325.696H281.656C281.656 327.581 282.338 328.524 283.7 328.524C284.074 328.524 284.391 328.459 284.652 328.328C284.923 328.188 285.133 328.043 285.282 327.894C285.432 327.735 285.506 327.642 285.506 327.614L285.912 327.95C285.912 327.987 285.824 328.109 285.646 328.314C285.469 328.51 285.208 328.697 284.862 328.874C284.517 329.051 284.092 329.14 283.588 329.14ZM285.016 325.108L285.03 324.842C285.03 323.255 284.508 322.462 283.462 322.462C282.912 322.462 282.487 322.681 282.188 323.12C281.89 323.549 281.717 324.212 281.67 325.108H285.016ZM289.918 329.14C288.947 329.14 288.205 328.823 287.692 328.188C287.188 327.553 286.936 326.657 286.936 325.5C286.936 324.343 287.188 323.447 287.692 322.812C288.205 322.177 288.947 321.86 289.918 321.86C290.889 321.86 291.626 322.177 292.13 322.812C292.643 323.447 292.9 324.343 292.9 325.5C292.9 326.648 292.639 327.544 292.116 328.188C291.603 328.823 290.87 329.14 289.918 329.14ZM289.918 328.524C290.571 328.524 291.052 328.277 291.36 327.782C291.668 327.278 291.822 326.517 291.822 325.5C291.822 324.492 291.668 323.736 291.36 323.232C291.052 322.728 290.571 322.476 289.918 322.476C289.265 322.476 288.784 322.728 288.476 323.232C288.168 323.727 288.014 324.483 288.014 325.5C288.014 326.517 288.168 327.278 288.476 327.782C288.784 328.277 289.265 328.524 289.918 328.524ZM296.218 329.14C295.723 329.14 295.303 329.065 294.958 328.916C294.622 328.757 294.365 328.589 294.188 328.412C294.02 328.235 293.936 328.132 293.936 328.104L294.286 327.614C294.286 327.633 294.36 327.721 294.51 327.88C294.659 328.039 294.864 328.188 295.126 328.328C295.387 328.459 295.695 328.524 296.05 328.524C296.572 328.524 296.964 328.393 297.226 328.132C297.496 327.871 297.632 327.553 297.632 327.18C297.632 326.909 297.562 326.685 297.422 326.508C297.291 326.331 297.123 326.195 296.918 326.102C296.722 325.999 296.446 325.887 296.092 325.766C295.681 325.617 295.354 325.481 295.112 325.36C294.869 325.229 294.659 325.038 294.482 324.786C294.314 324.534 294.23 324.207 294.23 323.806C294.23 323.209 294.444 322.737 294.874 322.392C295.312 322.037 295.872 321.86 296.554 321.86C296.852 321.86 297.137 321.902 297.408 321.986C297.688 322.061 297.912 322.145 298.08 322.238C298.248 322.322 298.355 322.378 298.402 322.406L298.234 323.008C298.196 322.98 298.103 322.924 297.954 322.84C297.804 322.747 297.608 322.658 297.366 322.574C297.132 322.49 296.89 322.448 296.638 322.448C296.208 322.448 295.858 322.555 295.588 322.77C295.326 322.985 295.196 323.255 295.196 323.582C295.196 323.853 295.266 324.081 295.406 324.268C295.546 324.445 295.718 324.585 295.924 324.688C296.138 324.791 296.423 324.907 296.778 325.038C297.188 325.178 297.52 325.318 297.772 325.458C298.033 325.589 298.252 325.78 298.43 326.032C298.607 326.284 298.696 326.611 298.696 327.012C298.696 327.619 298.486 328.127 298.066 328.538C297.646 328.939 297.03 329.14 296.218 329.14Z" fill="#222222"/>
<path d="M201.829 114.475C201.829 121.801 203.272 129.055 206.076 135.824C208.879 142.592 212.988 148.742 218.169 153.922C223.349 159.102 229.499 163.211 236.267 166.015C243.035 168.818 250.289 170.261 257.615 170.261C264.941 170.261 272.195 168.818 278.964 166.015C285.732 163.211 291.882 159.102 297.062 153.922C302.242 148.742 306.351 142.592 309.155 135.824C311.958 129.055 313.401 121.801 313.401 114.475C313.401 107.149 311.958 99.8952 309.155 93.127C306.351 86.3587 302.242 80.2089 297.062 75.0287C291.882 69.8485 285.732 65.7393 278.964 62.9358C272.195 60.1323 264.941 58.6893 257.615 58.6893C250.289 58.6893 243.035 60.1323 236.267 62.9358C229.499 65.7393 223.349 69.8485 218.169 75.0287C212.988 80.2089 208.879 86.3587 206.076 93.127C203.272 99.8952 201.829 107.149 201.829 114.475" fill="#198143" fill-opacity="0.6"/>
<path d="M201.829 114.475C201.829 121.801 203.272 129.055 206.076 135.824C208.879 142.592 212.988 148.742 218.169 153.922C223.349 159.102 229.499 163.211 236.267 166.015C243.035 168.818 250.289 170.261 257.615 170.261C264.941 170.261 272.195 168.818 278.964 166.015C285.732 163.211 291.882 159.102 297.062 153.922C302.242 148.742 306.351 142.592 309.155 135.824C311.958 129.055 313.401 121.801 313.401 114.475C313.401 107.149 311.958 99.8952 309.155 93.127C306.351 86.3587 302.242 80.2089 297.062 75.0287C291.882 69.8485 285.732 65.7393 278.964 62.9358C272.195 60.1323 264.941 58.6893 257.615 58.6893C250.289 58.6893 243.035 60.1323 236.267 62.9358C229.499 65.7393 223.349 69.8485 218.169 75.0287C212.988 80.2089 208.879 86.3587 206.076 93.127C203.272 99.8952 201.829 107.149 201.829 114.475" stroke="white" stroke-width="2"/>
<path d="M284.96 92H286.672L286.96 92.72H287.008C287.008 92.6987 287.099 92.6133 287.28 92.464C287.461 92.304 287.712 92.16 288.032 92.032C288.352 91.8933 288.736 91.824 289.184 91.824C290.133 91.824 290.88 92.1867 291.424 92.912C291.968 93.6373 292.24 94.6133 292.24 95.84C292.24 96.704 292.112 97.4667 291.856 98.128C291.6 98.7787 291.232 99.2853 290.752 99.648C290.283 100 289.723 100.176 289.072 100.176C288.656 100.176 288.304 100.128 288.016 100.032C287.728 99.9467 287.509 99.856 287.36 99.76C287.211 99.6533 287.136 99.5893 287.136 99.568H287.088V104L284.96 104.064V92ZM288.272 98.96C288.677 98.96 288.997 98.864 289.232 98.672C289.477 98.48 289.659 98.1653 289.776 97.728C289.893 97.28 289.952 96.6667 289.952 95.888C289.952 95.152 289.893 94.5813 289.776 94.176C289.669 93.76 289.504 93.472 289.28 93.312C289.067 93.152 288.784 93.072 288.432 93.072C288.176 93.072 287.947 93.12 287.744 93.216C287.552 93.312 287.397 93.4133 287.28 93.52C287.173 93.6267 287.109 93.7067 287.088 93.76V98.432C287.109 98.464 287.163 98.5227 287.248 98.608C287.333 98.6827 287.461 98.7627 287.632 98.848C287.813 98.9227 288.027 98.96 288.272 98.96ZM295.615 100.176C294.868 100.176 294.271 99.9893 293.823 99.616C293.375 99.2427 293.151 98.7307 293.151 98.08C293.151 97.1413 293.588 96.464 294.463 96.048C295.348 95.6213 296.377 95.36 297.551 95.264V94.8C297.551 94.0747 297.449 93.5787 297.247 93.312C297.044 93.0347 296.703 92.896 296.223 92.896C295.999 92.896 295.743 92.9387 295.455 93.024C295.177 93.1093 294.932 93.2 294.719 93.296C294.516 93.392 294.383 93.456 294.319 93.488L294.111 92.464C294.175 92.432 294.324 92.368 294.559 92.272C294.804 92.1653 295.108 92.064 295.471 91.968C295.844 91.872 296.217 91.824 296.591 91.824C297.593 91.824 298.356 92.0373 298.879 92.464C299.412 92.88 299.679 93.6 299.679 94.624V98.256C299.679 98.8213 299.791 99.104 300.015 99.104C300.1 99.104 300.201 99.088 300.319 99.056C300.436 99.024 300.516 99.0027 300.559 98.992L300.623 99.824C300.569 99.8453 300.441 99.8827 300.239 99.936C300.036 99.9893 299.801 100.043 299.535 100.096C299.279 100.149 299.049 100.176 298.847 100.176C298.537 100.176 298.297 100.101 298.127 99.952C297.956 99.792 297.844 99.536 297.791 99.184H297.711C297.711 99.216 297.636 99.3173 297.487 99.488C297.348 99.648 297.124 99.8027 296.815 99.952C296.505 100.101 296.105 100.176 295.615 100.176ZM296.319 99.104C296.575 99.104 296.793 99.04 296.975 98.912C297.167 98.784 297.311 98.6453 297.407 98.496C297.503 98.336 297.551 98.2453 297.551 98.224V96.112C296.836 96.1867 296.292 96.3573 295.919 96.624C295.556 96.88 295.375 97.2747 295.375 97.808C295.375 98.2347 295.46 98.56 295.631 98.784C295.801 98.9973 296.031 99.104 296.319 99.104ZM304.394 100.176C303.637 100.176 303.077 99.9893 302.714 99.616C302.351 99.2427 302.17 98.6133 302.17 97.728V93.232H301.402V92.272L302.186 92.048L303.21 89.344H304.298V92H306.058V93.232H304.298V97.184C304.298 97.6853 304.319 98.0693 304.362 98.336C304.415 98.592 304.495 98.7733 304.602 98.88C304.709 98.976 304.858 99.024 305.05 99.024C305.263 99.024 305.455 99.0027 305.626 98.96C305.797 98.9173 305.882 98.8907 305.882 98.88L306.01 99.792C306.01 99.8027 305.951 99.84 305.834 99.904C305.717 99.968 305.535 100.027 305.29 100.08C305.055 100.144 304.757 100.176 304.394 100.176ZM307.523 92H309.027L309.379 93.344H309.443C309.443 93.28 309.485 93.1253 309.571 92.88C309.656 92.624 309.811 92.384 310.035 92.16C310.269 91.936 310.579 91.824 310.963 91.824C311.176 91.824 311.416 91.856 311.683 91.92C311.96 91.984 312.141 92.0267 312.227 92.048L312.035 93.536C311.949 93.5147 311.757 93.472 311.459 93.408C311.171 93.344 310.92 93.312 310.707 93.312C310.461 93.312 310.259 93.3867 310.099 93.536C309.949 93.6747 309.837 93.824 309.763 93.984C309.688 94.144 309.651 94.24 309.651 94.272V100H307.523V92ZM314.282 90.8C313.962 90.8 313.679 90.6933 313.434 90.48C313.189 90.2347 313.066 89.9307 313.066 89.568C313.066 89.216 313.189 88.9173 313.434 88.672C313.658 88.4587 313.941 88.352 314.282 88.352C314.613 88.352 314.885 88.4533 315.098 88.656C315.333 88.9013 315.45 89.2053 315.45 89.568C315.45 89.9413 315.333 90.2507 315.098 90.496C314.863 90.6987 314.591 90.8 314.282 90.8ZM313.21 100V92H315.338V100H313.21ZM320.489 100.176C319.294 100.176 318.372 99.8133 317.721 99.088C317.081 98.3627 316.761 97.3333 316.761 96C316.761 94.6667 317.081 93.6373 317.721 92.912C318.372 92.1867 319.294 91.824 320.489 91.824C321.694 91.824 322.617 92.1867 323.257 92.912C323.908 93.6373 324.233 94.6667 324.233 96C324.233 97.3227 323.897 98.352 323.225 99.088C322.564 99.8133 321.652 100.176 320.489 100.176ZM320.489 99.12C320.841 99.12 321.118 99.0187 321.321 98.816C321.534 98.6133 321.689 98.288 321.785 97.84C321.881 97.392 321.929 96.7787 321.929 96C321.929 95.2213 321.881 94.608 321.785 94.16C321.689 93.712 321.54 93.392 321.337 93.2C321.134 92.9973 320.852 92.896 320.489 92.896C320.126 92.896 319.844 92.9973 319.641 93.2C319.438 93.392 319.289 93.712 319.193 94.16C319.097 94.608 319.049 95.216 319.049 95.984C319.049 96.7627 319.097 97.3813 319.193 97.84C319.289 98.288 319.438 98.6133 319.641 98.816C319.854 99.0187 320.137 99.12 320.489 99.12ZM328.175 100.176C327.418 100.176 326.858 99.9893 326.495 99.616C326.132 99.2427 325.951 98.6133 325.951 97.728V93.232H325.183V92.272L325.967 92.048L326.991 89.344H328.079V92H329.839V93.232H328.079V97.184C328.079 97.6853 328.1 98.0693 328.143 98.336C328.196 98.592 328.276 98.7733 328.383 98.88C328.49 98.976 328.639 99.024 328.831 99.024C329.044 99.024 329.236 99.0027 329.407 98.96C329.578 98.9173 329.663 98.8907 329.663 98.88L329.791 99.792C329.791 99.8027 329.732 99.84 329.615 99.904C329.498 99.968 329.316 100.027 329.071 100.08C328.836 100.144 328.538 100.176 328.175 100.176ZM332.376 90.8C332.056 90.8 331.773 90.6933 331.528 90.48C331.282 90.2347 331.16 89.9307 331.16 89.568C331.16 89.216 331.282 88.9173 331.528 88.672C331.752 88.4587 332.034 88.352 332.376 88.352C332.706 88.352 332.978 88.4533 333.192 88.656C333.426 88.9013 333.544 89.2053 333.544 89.568C333.544 89.9413 333.426 90.2507 333.192 90.496C332.957 90.6987 332.685 90.8 332.376 90.8ZM331.304 100V92H333.432V100H331.304ZM338.663 100.176C337.436 100.176 336.492 99.824 335.831 99.12C335.18 98.416 334.855 97.392 334.855 96.048C334.855 94.7467 335.196 93.7173 335.879 92.96C336.561 92.2027 337.505 91.824 338.711 91.824C339.041 91.824 339.377 91.872 339.719 91.968C340.071 92.0533 340.364 92.1493 340.599 92.256C340.833 92.352 340.983 92.416 341.047 92.448L340.839 93.472C340.785 93.44 340.652 93.3813 340.439 93.296C340.225 93.2 339.98 93.1093 339.703 93.024C339.425 92.9387 339.175 92.896 338.951 92.896C338.545 92.896 338.215 92.9813 337.959 93.152C337.703 93.3227 337.505 93.6373 337.367 94.096C337.228 94.544 337.159 95.184 337.159 96.016C337.159 97.2 337.308 98.0107 337.607 98.448C337.905 98.8853 338.332 99.104 338.887 99.104C339.26 99.104 339.58 99.024 339.847 98.864C340.124 98.6933 340.337 98.5173 340.487 98.336C340.636 98.144 340.711 98.032 340.711 98L341.463 98.48C341.463 98.544 341.367 98.72 341.175 99.008C340.983 99.2853 340.679 99.552 340.263 99.808C339.847 100.053 339.313 100.176 338.663 100.176ZM286.996 116.14C286.492 116.14 286.058 116.065 285.694 115.916C285.33 115.767 285.045 115.608 284.84 115.44C284.644 115.272 284.546 115.174 284.546 115.146L284.882 114.6C284.882 114.619 284.971 114.703 285.148 114.852C285.335 115.001 285.577 115.141 285.876 115.272C286.175 115.403 286.511 115.468 286.884 115.468C287.547 115.468 288.046 115.286 288.382 114.922C288.727 114.558 288.9 114.031 288.9 113.34C288.9 112.724 288.755 112.248 288.466 111.912C288.186 111.576 287.771 111.408 287.22 111.408C287.08 111.408 286.949 111.431 286.828 111.478C286.707 111.525 286.609 111.571 286.534 111.618C286.469 111.665 286.427 111.697 286.408 111.716L286.044 111.296L288.62 107.866H284.966L285.022 106.9H289.6V107.558L287.08 110.848C287.192 110.82 287.318 110.806 287.458 110.806C288.205 110.806 288.807 111.039 289.264 111.506C289.731 111.963 289.964 112.575 289.964 113.34C289.964 113.919 289.833 114.418 289.572 114.838C289.32 115.258 288.97 115.58 288.522 115.804C288.074 116.028 287.565 116.14 286.996 116.14ZM296.488 116L294.094 109H295.298L297.118 114.894L299.05 109H299.82L297.412 116H296.488ZM301.55 107.586C301.382 107.586 301.247 107.535 301.144 107.432C301.023 107.311 300.962 107.161 300.962 106.984C300.962 106.807 301.023 106.657 301.144 106.536C301.247 106.433 301.382 106.382 301.55 106.382C301.727 106.382 301.867 106.429 301.97 106.522C302.082 106.643 302.138 106.797 302.138 106.984C302.138 107.152 302.082 107.301 301.97 107.432C301.839 107.535 301.699 107.586 301.55 107.586ZM301.032 116V109H302.054V116H301.032ZM306.432 116.14C305.582 116.14 304.901 115.837 304.388 115.23C303.874 114.623 303.618 113.779 303.618 112.696C303.618 111.529 303.865 110.601 304.36 109.91C304.864 109.21 305.568 108.86 306.474 108.86C306.856 108.86 307.178 108.911 307.44 109.014C307.701 109.107 307.902 109.215 308.042 109.336C308.182 109.448 308.252 109.513 308.252 109.532H308.266V105.528L309.274 105.472V116H308.406L308.294 115.174C308.191 115.379 307.99 115.594 307.692 115.818C307.393 116.033 306.973 116.14 306.432 116.14ZM306.656 115.454C306.992 115.454 307.281 115.384 307.524 115.244C307.766 115.095 307.948 114.936 308.07 114.768C308.2 114.6 308.266 114.502 308.266 114.474V110.176C308.266 110.157 308.2 110.092 308.07 109.98C307.948 109.868 307.776 109.765 307.552 109.672C307.337 109.579 307.08 109.532 306.782 109.532C306.063 109.532 305.536 109.798 305.2 110.33C304.864 110.853 304.696 111.632 304.696 112.668C304.696 113.648 304.859 114.357 305.186 114.796C305.522 115.235 306.012 115.454 306.656 115.454ZM313.832 116.14C312.899 116.14 312.166 115.851 311.634 115.272C311.102 114.684 310.836 113.807 310.836 112.64C310.836 111.464 311.093 110.54 311.606 109.868C312.12 109.196 312.82 108.86 313.706 108.86C314.509 108.86 315.125 109.14 315.554 109.7C315.993 110.251 316.212 111.035 316.212 112.052C316.212 112.229 316.203 112.374 316.184 112.486C316.166 112.598 316.152 112.668 316.142 112.696H311.9C311.9 114.581 312.582 115.524 313.944 115.524C314.318 115.524 314.635 115.459 314.896 115.328C315.167 115.188 315.377 115.043 315.526 114.894C315.676 114.735 315.75 114.642 315.75 114.614L316.156 114.95C316.156 114.987 316.068 115.109 315.89 115.314C315.713 115.51 315.452 115.697 315.106 115.874C314.761 116.051 314.336 116.14 313.832 116.14ZM315.26 112.108L315.274 111.842C315.274 110.255 314.752 109.462 313.706 109.462C313.156 109.462 312.731 109.681 312.432 110.12C312.134 110.549 311.961 111.212 311.914 112.108H315.26ZM320.162 116.14C319.191 116.14 318.449 115.823 317.936 115.188C317.432 114.553 317.18 113.657 317.18 112.5C317.18 111.343 317.432 110.447 317.936 109.812C318.449 109.177 319.191 108.86 320.162 108.86C321.133 108.86 321.87 109.177 322.374 109.812C322.887 110.447 323.144 111.343 323.144 112.5C323.144 113.648 322.883 114.544 322.36 115.188C321.847 115.823 321.114 116.14 320.162 116.14ZM320.162 115.524C320.815 115.524 321.296 115.277 321.604 114.782C321.912 114.278 322.066 113.517 322.066 112.5C322.066 111.492 321.912 110.736 321.604 110.232C321.296 109.728 320.815 109.476 320.162 109.476C319.509 109.476 319.028 109.728 318.72 110.232C318.412 110.727 318.258 111.483 318.258 112.5C318.258 113.517 318.412 114.278 318.72 114.782C319.028 115.277 319.509 115.524 320.162 115.524ZM326.462 116.14C325.967 116.14 325.547 116.065 325.202 115.916C324.866 115.757 324.609 115.589 324.432 115.412C324.264 115.235 324.18 115.132 324.18 115.104L324.53 114.614C324.53 114.633 324.604 114.721 324.754 114.88C324.903 115.039 325.108 115.188 325.37 115.328C325.631 115.459 325.939 115.524 326.294 115.524C326.816 115.524 327.208 115.393 327.47 115.132C327.74 114.871 327.876 114.553 327.876 114.18C327.876 113.909 327.806 113.685 327.666 113.508C327.535 113.331 327.367 113.195 327.162 113.102C326.966 112.999 326.69 112.887 326.336 112.766C325.925 112.617 325.598 112.481 325.356 112.36C325.113 112.229 324.903 112.038 324.726 111.786C324.558 111.534 324.474 111.207 324.474 110.806C324.474 110.209 324.688 109.737 325.118 109.392C325.556 109.037 326.116 108.86 326.798 108.86C327.096 108.86 327.381 108.902 327.652 108.986C327.932 109.061 328.156 109.145 328.324 109.238C328.492 109.322 328.599 109.378 328.646 109.406L328.478 110.008C328.44 109.98 328.347 109.924 328.198 109.84C328.048 109.747 327.852 109.658 327.61 109.574C327.376 109.49 327.134 109.448 326.882 109.448C326.452 109.448 326.102 109.555 325.832 109.77C325.57 109.985 325.44 110.255 325.44 110.582C325.44 110.853 325.51 111.081 325.65 111.268C325.79 111.445 325.962 111.585 326.168 111.688C326.382 111.791 326.667 111.907 327.022 112.038C327.432 112.178 327.764 112.318 328.016 112.458C328.277 112.589 328.496 112.78 328.674 113.032C328.851 113.284 328.94 113.611 328.94 114.012C328.94 114.619 328.73 115.127 328.31 115.538C327.89 115.939 327.274 116.14 326.462 116.14Z" fill="#222222"/>
<path d="M184.586 208.202C184.586 218.562 186.626 228.821 190.591 238.393C194.556 247.965 200.367 256.662 207.693 263.988C215.019 271.314 223.716 277.125 233.288 281.09C242.86 285.054 253.119 287.095 263.479 287.095C273.839 287.095 284.098 285.054 293.67 281.09C303.242 277.125 311.939 271.314 319.265 263.988C326.591 256.662 332.402 247.965 336.367 238.393C340.332 228.821 342.372 218.562 342.372 208.202C342.372 197.841 340.332 187.582 336.367 178.011C332.402 168.439 326.591 159.742 319.265 152.416C311.939 145.09 303.242 139.278 293.67 135.314C284.098 131.349 273.839 129.308 263.479 129.308C253.119 129.308 242.86 131.349 233.288 135.314C223.716 139.278 215.019 145.09 207.693 152.416C200.367 159.742 194.556 168.439 190.591 178.011C186.626 187.582 184.586 197.841 184.586 208.202" fill="#A8001C" fill-opacity="0.6"/>
<path d="M184.586 208.202C184.586 218.562 186.626 228.821 190.591 238.393C194.556 247.965 200.367 256.662 207.693 263.988C215.019 271.314 223.716 277.125 233.288 281.09C242.86 285.054 253.119 287.095 263.479 287.095C273.839 287.095 284.098 285.054 293.67 281.09C303.242 277.125 311.939 271.314 319.265 263.988C326.591 256.662 332.402 247.965 336.367 238.393C340.332 228.821 342.372 218.562 342.372 208.202C342.372 197.841 340.332 187.582 336.367 178.011C332.402 168.439 326.591 159.742 319.265 152.416C311.939 145.09 303.242 139.278 293.67 135.314C284.098 131.349 273.839 129.308 263.479 129.308C253.119 129.308 242.86 131.349 233.288 135.314C223.716 139.278 215.019 145.09 207.693 152.416C200.367 159.742 194.556 168.439 190.591 178.011C186.626 187.582 184.586 197.841 184.586 208.202" stroke="white" stroke-width="2"/>
<path d="M272.046 211.187C271.343 211.187 270.72 211.011 270.176 210.66C269.643 210.309 269.23 209.816 268.935 209.181C268.64 208.535 268.493 207.787 268.493 206.937C268.493 206.019 268.635 205.214 268.918 204.523C269.201 203.82 269.604 203.282 270.125 202.908C270.646 202.523 271.253 202.33 271.944 202.33C272.386 202.33 272.754 202.381 273.049 202.483C273.344 202.574 273.565 202.676 273.712 202.789C273.859 202.891 273.933 202.953 273.933 202.976H273.984V198.318L276.245 198.182V211H274.358L274.103 210.235H274.086C274.086 210.269 274.018 210.365 273.882 210.524C273.746 210.683 273.525 210.836 273.219 210.983C272.924 211.119 272.533 211.187 272.046 211.187ZM272.556 209.861C272.839 209.861 273.083 209.804 273.287 209.691C273.502 209.578 273.672 209.453 273.797 209.317C273.922 209.181 273.984 209.102 273.984 209.079V204.183C273.961 204.149 273.893 204.092 273.78 204.013C273.678 203.922 273.525 203.837 273.321 203.758C273.128 203.667 272.902 203.622 272.641 203.622C272.029 203.622 271.587 203.866 271.315 204.353C271.054 204.84 270.924 205.679 270.924 206.869C270.924 207.662 270.981 208.274 271.094 208.705C271.219 209.136 271.394 209.436 271.621 209.606C271.859 209.776 272.171 209.861 272.556 209.861ZM280.341 211.187C279.547 211.187 278.913 210.989 278.437 210.592C277.961 210.195 277.723 209.651 277.723 208.96C277.723 207.963 278.187 207.243 279.117 206.801C280.057 206.348 281.151 206.07 282.398 205.968V205.475C282.398 204.704 282.29 204.177 282.075 203.894C281.859 203.599 281.497 203.452 280.987 203.452C280.749 203.452 280.477 203.497 280.171 203.588C279.876 203.679 279.615 203.775 279.389 203.877C279.173 203.979 279.032 204.047 278.964 204.081L278.743 202.993C278.811 202.959 278.969 202.891 279.219 202.789C279.479 202.676 279.802 202.568 280.188 202.466C280.584 202.364 280.981 202.313 281.378 202.313C282.443 202.313 283.253 202.54 283.809 202.993C284.375 203.435 284.659 204.2 284.659 205.288V209.147C284.659 209.748 284.778 210.048 285.016 210.048C285.106 210.048 285.214 210.031 285.339 209.997C285.463 209.963 285.548 209.94 285.594 209.929L285.662 210.813C285.605 210.836 285.469 210.875 285.254 210.932C285.038 210.989 284.789 211.045 284.506 211.102C284.234 211.159 283.99 211.187 283.775 211.187C283.446 211.187 283.191 211.108 283.01 210.949C282.828 210.779 282.709 210.507 282.653 210.133H282.568C282.568 210.167 282.488 210.275 282.33 210.456C282.182 210.626 281.944 210.79 281.616 210.949C281.287 211.108 280.862 211.187 280.341 211.187ZM281.089 210.048C281.361 210.048 281.593 209.98 281.786 209.844C281.99 209.708 282.143 209.561 282.245 209.402C282.347 209.232 282.398 209.136 282.398 209.113V206.869C281.638 206.948 281.06 207.13 280.664 207.413C280.278 207.685 280.086 208.104 280.086 208.671C280.086 209.124 280.176 209.47 280.358 209.708C280.539 209.935 280.783 210.048 281.089 210.048ZM286.999 202.5H288.818L289.107 203.197H289.175C289.175 203.174 289.266 203.089 289.447 202.942C289.64 202.795 289.912 202.659 290.263 202.534C290.615 202.398 291.051 202.33 291.572 202.33C292.445 202.33 293.097 202.568 293.527 203.044C293.969 203.509 294.19 204.24 294.19 205.237V211H291.929V205.696C291.929 204.937 291.844 204.421 291.674 204.149C291.516 203.877 291.221 203.741 290.79 203.741C290.496 203.741 290.235 203.786 290.008 203.877C289.782 203.968 289.6 204.07 289.464 204.183C289.328 204.285 289.26 204.342 289.26 204.353V211H286.999V202.5ZM299.105 215.454C297.824 215.454 296.867 215.199 296.232 214.689C295.609 214.179 295.297 213.488 295.297 212.615C295.297 211.663 295.654 210.966 296.368 210.524C296.243 210.252 296.181 209.946 296.181 209.606C296.181 208.926 296.43 208.371 296.929 207.94C296.521 207.679 296.198 207.334 295.96 206.903C295.733 206.472 295.62 205.968 295.62 205.39C295.62 204.37 295.949 203.605 296.606 203.095C297.263 202.585 298.102 202.33 299.122 202.33C299.575 202.33 300.006 202.392 300.414 202.517L302.709 202.534V203.537L301.893 203.588C302.21 204.064 302.369 204.665 302.369 205.39C302.369 206.399 302.069 207.169 301.468 207.702C300.879 208.235 300.08 208.501 299.071 208.501C298.686 208.501 298.295 208.456 297.898 208.365C297.683 208.535 297.575 208.745 297.575 208.994C297.575 209.221 297.705 209.396 297.966 209.521C298.227 209.634 298.674 209.691 299.309 209.691C300.556 209.691 301.479 209.918 302.08 210.371C302.681 210.824 302.981 211.493 302.981 212.377C302.981 213.374 302.652 214.134 301.995 214.655C301.349 215.188 300.386 215.454 299.105 215.454ZM299.02 207.464C299.405 207.464 299.694 207.3 299.887 206.971C300.08 206.642 300.176 206.104 300.176 205.356C300.176 204.608 300.08 204.098 299.887 203.826C299.694 203.554 299.4 203.418 299.003 203.418C298.606 203.418 298.306 203.56 298.102 203.843C297.898 204.115 297.796 204.631 297.796 205.39C297.796 206.127 297.898 206.659 298.102 206.988C298.317 207.305 298.623 207.464 299.02 207.464ZM299.105 214.298C299.774 214.298 300.272 214.179 300.601 213.941C300.93 213.703 301.094 213.357 301.094 212.904C301.094 212.451 300.913 212.122 300.55 211.918C300.199 211.714 299.666 211.612 298.952 211.612C298.283 211.612 297.734 211.521 297.303 211.34C297.02 211.646 296.878 212.054 296.878 212.564C296.878 213.119 297.059 213.544 297.422 213.839C297.796 214.145 298.357 214.298 299.105 214.298ZM307.434 211.187C306.176 211.187 305.196 210.841 304.493 210.15C303.802 209.447 303.456 208.365 303.456 206.903C303.456 205.43 303.796 204.302 304.476 203.52C305.156 202.727 306.074 202.33 307.23 202.33C308.284 202.33 309.1 202.664 309.678 203.333C310.267 203.99 310.562 204.937 310.562 206.172C310.562 206.455 310.539 206.693 310.494 206.886C310.46 207.079 310.437 207.198 310.426 207.243H305.853C305.864 208.263 306.012 208.988 306.295 209.419C306.59 209.838 307.06 210.048 307.706 210.048C308.091 210.048 308.431 209.969 308.726 209.81C309.021 209.64 309.253 209.459 309.423 209.266C309.593 209.062 309.678 208.949 309.678 208.926L310.443 209.521C310.443 209.566 310.324 209.731 310.086 210.014C309.859 210.297 309.519 210.564 309.066 210.813C308.624 211.062 308.08 211.187 307.434 211.187ZM308.454 206.138V205.747C308.454 204.886 308.363 204.285 308.182 203.945C308.001 203.594 307.683 203.418 307.23 203.418C306.913 203.418 306.658 203.497 306.465 203.656C306.284 203.815 306.142 204.092 306.04 204.489C305.938 204.874 305.876 205.424 305.853 206.138H308.454ZM312.035 202.5H313.633L314.007 203.928H314.075C314.075 203.86 314.12 203.696 314.211 203.435C314.301 203.163 314.466 202.908 314.704 202.67C314.953 202.432 315.282 202.313 315.69 202.313C315.916 202.313 316.171 202.347 316.455 202.415C316.749 202.483 316.942 202.528 317.033 202.551L316.829 204.132C316.738 204.109 316.534 204.064 316.217 203.996C315.911 203.928 315.644 203.894 315.418 203.894C315.157 203.894 314.942 203.973 314.772 204.132C314.613 204.279 314.494 204.438 314.415 204.608C314.335 204.778 314.296 204.88 314.296 204.914V211H312.035V202.5ZM272.41 224.704H268.49L268.42 224.172C268.803 223.416 269.204 222.45 269.624 221.274C270.053 220.089 270.413 218.922 270.702 217.774L271.668 217.9C271.388 218.973 271.024 220.047 270.576 221.12C270.137 222.193 269.68 223.178 269.204 224.074H272.41L272.648 219.23H273.446V224.074H274.44V224.634L273.446 224.704V227H272.41V224.704ZM280.734 227L278.34 220H279.544L281.364 225.894L283.296 220H284.066L281.658 227H280.734ZM285.796 218.586C285.628 218.586 285.493 218.535 285.39 218.432C285.269 218.311 285.208 218.161 285.208 217.984C285.208 217.807 285.269 217.657 285.39 217.536C285.493 217.433 285.628 217.382 285.796 217.382C285.974 217.382 286.114 217.429 286.216 217.522C286.328 217.643 286.384 217.797 286.384 217.984C286.384 218.152 286.328 218.301 286.216 218.432C286.086 218.535 285.946 218.586 285.796 218.586ZM285.278 227V220H286.3V227H285.278ZM290.678 227.14C289.828 227.14 289.147 226.837 288.634 226.23C288.12 225.623 287.864 224.779 287.864 223.696C287.864 222.529 288.111 221.601 288.606 220.91C289.11 220.21 289.814 219.86 290.72 219.86C291.102 219.86 291.424 219.911 291.686 220.014C291.947 220.107 292.148 220.215 292.288 220.336C292.428 220.448 292.498 220.513 292.498 220.532H292.512V216.528L293.52 216.472V227H292.652L292.54 226.174C292.437 226.379 292.236 226.594 291.938 226.818C291.639 227.033 291.219 227.14 290.678 227.14ZM290.902 226.454C291.238 226.454 291.527 226.384 291.77 226.244C292.012 226.095 292.194 225.936 292.316 225.768C292.446 225.6 292.512 225.502 292.512 225.474V221.176C292.512 221.157 292.446 221.092 292.316 220.98C292.194 220.868 292.022 220.765 291.798 220.672C291.583 220.579 291.326 220.532 291.028 220.532C290.309 220.532 289.782 220.798 289.446 221.33C289.11 221.853 288.942 222.632 288.942 223.668C288.942 224.648 289.105 225.357 289.432 225.796C289.768 226.235 290.258 226.454 290.902 226.454ZM298.078 227.14C297.145 227.14 296.412 226.851 295.88 226.272C295.348 225.684 295.082 224.807 295.082 223.64C295.082 222.464 295.339 221.54 295.852 220.868C296.366 220.196 297.066 219.86 297.952 219.86C298.755 219.86 299.371 220.14 299.8 220.7C300.239 221.251 300.458 222.035 300.458 223.052C300.458 223.229 300.449 223.374 300.43 223.486C300.412 223.598 300.398 223.668 300.388 223.696H296.146C296.146 225.581 296.828 226.524 298.19 226.524C298.564 226.524 298.881 226.459 299.142 226.328C299.413 226.188 299.623 226.043 299.772 225.894C299.922 225.735 299.996 225.642 299.996 225.614L300.402 225.95C300.402 225.987 300.314 226.109 300.136 226.314C299.959 226.51 299.698 226.697 299.352 226.874C299.007 227.051 298.582 227.14 298.078 227.14ZM299.506 223.108L299.52 222.842C299.52 221.255 298.998 220.462 297.952 220.462C297.402 220.462 296.977 220.681 296.678 221.12C296.38 221.549 296.207 222.212 296.16 223.108H299.506ZM304.408 227.14C303.438 227.14 302.696 226.823 302.182 226.188C301.678 225.553 301.426 224.657 301.426 223.5C301.426 222.343 301.678 221.447 302.182 220.812C302.696 220.177 303.438 219.86 304.408 219.86C305.379 219.86 306.116 220.177 306.62 220.812C307.134 221.447 307.39 222.343 307.39 223.5C307.39 224.648 307.129 225.544 306.606 226.188C306.093 226.823 305.36 227.14 304.408 227.14ZM304.408 226.524C305.062 226.524 305.542 226.277 305.85 225.782C306.158 225.278 306.312 224.517 306.312 223.5C306.312 222.492 306.158 221.736 305.85 221.232C305.542 220.728 305.062 220.476 304.408 220.476C303.755 220.476 303.274 220.728 302.966 221.232C302.658 221.727 302.504 222.483 302.504 223.5C302.504 224.517 302.658 225.278 302.966 225.782C303.274 226.277 303.755 226.524 304.408 226.524ZM310.708 227.14C310.213 227.14 309.793 227.065 309.448 226.916C309.112 226.757 308.855 226.589 308.678 226.412C308.51 226.235 308.426 226.132 308.426 226.104L308.776 225.614C308.776 225.633 308.851 225.721 309 225.88C309.149 226.039 309.355 226.188 309.616 226.328C309.877 226.459 310.185 226.524 310.54 226.524C311.063 226.524 311.455 226.393 311.716 226.132C311.987 225.871 312.122 225.553 312.122 225.18C312.122 224.909 312.052 224.685 311.912 224.508C311.781 224.331 311.613 224.195 311.408 224.102C311.212 223.999 310.937 223.887 310.582 223.766C310.171 223.617 309.845 223.481 309.602 223.36C309.359 223.229 309.149 223.038 308.972 222.786C308.804 222.534 308.72 222.207 308.72 221.806C308.72 221.209 308.935 220.737 309.364 220.392C309.803 220.037 310.363 219.86 311.044 219.86C311.343 219.86 311.627 219.902 311.898 219.986C312.178 220.061 312.402 220.145 312.57 220.238C312.738 220.322 312.845 220.378 312.892 220.406L312.724 221.008C312.687 220.98 312.593 220.924 312.444 220.84C312.295 220.747 312.099 220.658 311.856 220.574C311.623 220.49 311.38 220.448 311.128 220.448C310.699 220.448 310.349 220.555 310.078 220.77C309.817 220.985 309.686 221.255 309.686 221.582C309.686 221.853 309.756 222.081 309.896 222.268C310.036 222.445 310.209 222.585 310.414 222.688C310.629 222.791 310.913 222.907 311.268 223.038C311.679 223.178 312.01 223.318 312.262 223.458C312.523 223.589 312.743 223.78 312.92 224.032C313.097 224.284 313.186 224.611 313.186 225.012C313.186 225.619 312.976 226.127 312.556 226.538C312.136 226.939 311.52 227.14 310.708 227.14Z" fill="#EEEEEE"/>
<path d="M42.5006 151.006C42.5006 165.034 45.2636 178.925 50.6319 191.885C56.0002 204.845 63.8687 216.621 73.788 226.541C83.7074 236.46 95.4834 244.329 108.444 249.697C121.404 255.065 135.295 257.828 149.323 257.828C163.351 257.828 177.241 255.065 190.202 249.697C203.162 244.329 214.938 236.46 224.857 226.541C234.777 216.621 242.645 204.845 248.013 191.885C253.382 178.925 256.145 165.034 256.145 151.006C256.145 136.978 253.382 123.087 248.013 110.127C242.645 97.1668 234.777 85.3908 224.857 75.4715C214.938 65.5521 203.162 57.6836 190.202 52.3153C177.241 46.947 163.351 44.184 149.323 44.184C135.295 44.184 121.404 46.947 108.444 52.3153C95.4834 57.6836 83.7074 65.5521 73.788 75.4715C63.8687 85.3908 56.0002 97.1668 50.6319 110.127C45.2636 123.087 42.5006 136.978 42.5006 151.006Z" fill="white" fill-opacity="0.6" stroke="white" stroke-width="2"/>
<path d="M67.57 129.187C66.6973 129.187 66.04 128.955 65.598 128.49C65.1673 128.014 64.952 127.277 64.952 126.28V120.5H67.213V125.804C67.213 126.552 67.3037 127.068 67.485 127.351C67.6663 127.634 67.961 127.776 68.369 127.776C68.641 127.776 68.8847 127.731 69.1 127.64C69.3153 127.538 69.4853 127.436 69.61 127.334C69.7347 127.232 69.814 127.164 69.848 127.13V120.5H72.109V129H70.29L69.967 128.252H69.933C69.933 128.275 69.8423 128.371 69.661 128.541C69.4797 128.7 69.2133 128.847 68.862 128.983C68.5107 129.119 68.08 129.187 67.57 129.187ZM76.5475 129.187C75.8901 129.187 75.3405 129.096 74.8985 128.915C74.4565 128.722 74.1221 128.518 73.8955 128.303C73.6688 128.088 73.5555 127.957 73.5555 127.912L74.1845 127.028C74.1845 127.051 74.2751 127.153 74.4565 127.334C74.6378 127.515 74.8645 127.685 75.1365 127.844C75.4198 127.991 75.7315 128.065 76.0715 128.065C76.4908 128.065 76.8138 127.957 77.0405 127.742C77.2671 127.527 77.3805 127.243 77.3805 126.892C77.3805 126.552 77.2615 126.286 77.0235 126.093C76.7855 125.889 76.4285 125.679 75.9525 125.464C75.5105 125.249 75.1535 125.056 74.8815 124.886C74.6208 124.705 74.3941 124.461 74.2015 124.155C74.0088 123.838 73.9125 123.435 73.9125 122.948C73.9125 122.109 74.2015 121.463 74.7795 121.01C75.3575 120.545 76.0715 120.313 76.9215 120.313C77.2841 120.313 77.6468 120.358 78.0095 120.449C78.3721 120.54 78.6725 120.63 78.9105 120.721C79.1485 120.812 79.3015 120.874 79.3695 120.908L79.0635 122.047C79.0068 122.013 78.8765 121.945 78.6725 121.843C78.4685 121.741 78.2191 121.645 77.9245 121.554C77.6411 121.463 77.3805 121.418 77.1425 121.418C76.7911 121.418 76.5191 121.503 76.3265 121.673C76.1338 121.843 76.0375 122.07 76.0375 122.353C76.0375 122.693 76.1621 122.971 76.4115 123.186C76.6721 123.39 77.0631 123.611 77.5845 123.849C78.0491 124.076 78.4231 124.285 78.7065 124.478C78.9898 124.659 79.2335 124.909 79.4375 125.226C79.6415 125.543 79.7435 125.94 79.7435 126.416C79.7435 127.243 79.4658 127.912 78.9105 128.422C78.3665 128.932 77.5788 129.187 76.5475 129.187ZM84.7073 129.187C83.4493 129.187 82.469 128.841 81.7663 128.15C81.075 127.447 80.7293 126.365 80.7293 124.903C80.7293 123.43 81.0693 122.302 81.7493 121.52C82.4293 120.727 83.3473 120.33 84.5033 120.33C85.5573 120.33 86.3733 120.664 86.9513 121.333C87.5407 121.99 87.8353 122.937 87.8353 124.172C87.8353 124.455 87.8127 124.693 87.7673 124.886C87.7333 125.079 87.7107 125.198 87.6993 125.243H83.1263C83.1377 126.263 83.285 126.988 83.5683 127.419C83.863 127.838 84.3333 128.048 84.9793 128.048C85.3647 128.048 85.7047 127.969 85.9993 127.81C86.294 127.64 86.5263 127.459 86.6963 127.266C86.8663 127.062 86.9513 126.949 86.9513 126.926L87.7163 127.521C87.7163 127.566 87.5973 127.731 87.3593 128.014C87.1327 128.297 86.7927 128.564 86.3393 128.813C85.8973 129.062 85.3533 129.187 84.7073 129.187ZM85.7273 124.138V123.747C85.7273 122.886 85.6367 122.285 85.4553 121.945C85.274 121.594 84.9567 121.418 84.5033 121.418C84.186 121.418 83.931 121.497 83.7383 121.656C83.557 121.815 83.4153 122.092 83.3133 122.489C83.2113 122.874 83.149 123.424 83.1263 124.138H85.7273ZM96.0211 129.187C95.3638 129.187 94.8141 129.096 94.3721 128.915C93.9301 128.722 93.5958 128.518 93.3691 128.303C93.1424 128.088 93.0291 127.957 93.0291 127.912L93.6581 127.028C93.6581 127.051 93.7488 127.153 93.9301 127.334C94.1114 127.515 94.3381 127.685 94.6101 127.844C94.8934 127.991 95.2051 128.065 95.5451 128.065C95.9644 128.065 96.2874 127.957 96.5141 127.742C96.7408 127.527 96.8541 127.243 96.8541 126.892C96.8541 126.552 96.7351 126.286 96.4971 126.093C96.2591 125.889 95.9021 125.679 95.4261 125.464C94.9841 125.249 94.6271 125.056 94.3551 124.886C94.0944 124.705 93.8678 124.461 93.6751 124.155C93.4824 123.838 93.3861 123.435 93.3861 122.948C93.3861 122.109 93.6751 121.463 94.2531 121.01C94.8311 120.545 95.5451 120.313 96.3951 120.313C96.7578 120.313 97.1204 120.358 97.4831 120.449C97.8458 120.54 98.1461 120.63 98.3841 120.721C98.6221 120.812 98.7751 120.874 98.8431 120.908L98.5371 122.047C98.4804 122.013 98.3501 121.945 98.1461 121.843C97.9421 121.741 97.6928 121.645 97.3981 121.554C97.1148 121.463 96.8541 121.418 96.6161 121.418C96.2648 121.418 95.9928 121.503 95.8001 121.673C95.6074 121.843 95.5111 122.07 95.5111 122.353C95.5111 122.693 95.6358 122.971 95.8851 123.186C96.1458 123.39 96.5368 123.611 97.0581 123.849C97.5228 124.076 97.8968 124.285 98.1801 124.478C98.4634 124.659 98.7071 124.909 98.9111 125.226C99.1151 125.543 99.2171 125.94 99.2171 126.416C99.2171 127.243 98.9394 127.912 98.3841 128.422C97.8401 128.932 97.0524 129.187 96.0211 129.187ZM104.181 129.187C102.923 129.187 101.943 128.841 101.24 128.15C100.549 127.447 100.203 126.365 100.203 124.903C100.203 123.43 100.543 122.302 101.223 121.52C101.903 120.727 102.821 120.33 103.977 120.33C105.031 120.33 105.847 120.664 106.425 121.333C107.014 121.99 107.309 122.937 107.309 124.172C107.309 124.455 107.286 124.693 107.241 124.886C107.207 125.079 107.184 125.198 107.173 125.243H102.6C102.611 126.263 102.759 126.988 103.042 127.419C103.337 127.838 103.807 128.048 104.453 128.048C104.838 128.048 105.178 127.969 105.473 127.81C105.768 127.64 106 127.459 106.17 127.266C106.34 127.062 106.425 126.949 106.425 126.926L107.19 127.521C107.19 127.566 107.071 127.731 106.833 128.014C106.606 128.297 106.266 128.564 105.813 128.813C105.371 129.062 104.827 129.187 104.181 129.187ZM105.201 124.138V123.747C105.201 122.886 105.11 122.285 104.929 121.945C104.748 121.594 104.43 121.418 103.977 121.418C103.66 121.418 103.405 121.497 103.212 121.656C103.031 121.815 102.889 122.092 102.787 122.489C102.685 122.874 102.623 123.424 102.6 124.138H105.201ZM107.915 129L110.533 124.886L108.051 120.5H110.754L112.165 123.509L113.763 120.5H115.31L112.947 124.359L115.65 129H112.947L111.349 125.821L109.496 129H107.915ZM66.618 145V136.712L64.938 137.65L64.7 137.104L66.786 135.9H67.626V145H66.618ZM71.786 145V136.712L70.106 137.65L69.868 137.104L71.954 135.9H72.794V145H71.786ZM80.1795 145L77.7855 138H78.9895L80.8095 143.894L82.7415 138H83.5115L81.1035 145H80.1795ZM85.2415 136.586C85.0735 136.586 84.9382 136.535 84.8355 136.432C84.7142 136.311 84.6535 136.161 84.6535 135.984C84.6535 135.807 84.7142 135.657 84.8355 135.536C84.9382 135.433 85.0735 135.382 85.2415 135.382C85.4188 135.382 85.5588 135.429 85.6615 135.522C85.7735 135.643 85.8295 135.797 85.8295 135.984C85.8295 136.152 85.7735 136.301 85.6615 136.432C85.5308 136.535 85.3908 136.586 85.2415 136.586ZM84.7235 145V138H85.7455V145H84.7235ZM90.123 145.14C89.2737 145.14 88.5923 144.837 88.079 144.23C87.5657 143.623 87.309 142.779 87.309 141.696C87.309 140.529 87.5563 139.601 88.051 138.91C88.555 138.21 89.2597 137.86 90.165 137.86C90.5477 137.86 90.8697 137.911 91.131 138.014C91.3923 138.107 91.593 138.215 91.733 138.336C91.873 138.448 91.943 138.513 91.943 138.532H91.957V134.528L92.965 134.472V145H92.097L91.985 144.174C91.8823 144.379 91.6817 144.594 91.383 144.818C91.0843 145.033 90.6643 145.14 90.123 145.14ZM90.347 144.454C90.683 144.454 90.9723 144.384 91.215 144.244C91.4577 144.095 91.6397 143.936 91.761 143.768C91.8917 143.6 91.957 143.502 91.957 143.474V139.176C91.957 139.157 91.8917 139.092 91.761 138.98C91.6397 138.868 91.467 138.765 91.243 138.672C91.0283 138.579 90.7717 138.532 90.473 138.532C89.7543 138.532 89.227 138.798 88.891 139.33C88.555 139.853 88.387 140.632 88.387 141.668C88.387 142.648 88.5503 143.357 88.877 143.796C89.213 144.235 89.703 144.454 90.347 144.454ZM97.5238 145.14C96.5904 145.14 95.8578 144.851 95.3258 144.272C94.7938 143.684 94.5278 142.807 94.5278 141.64C94.5278 140.464 94.7844 139.54 95.2978 138.868C95.8111 138.196 96.5111 137.86 97.3978 137.86C98.2004 137.86 98.8164 138.14 99.2458 138.7C99.6844 139.251 99.9038 140.035 99.9038 141.052C99.9038 141.229 99.8944 141.374 99.8758 141.486C99.8571 141.598 99.8431 141.668 99.8338 141.696H95.5918C95.5918 143.581 96.2731 144.524 97.6358 144.524C98.0091 144.524 98.3264 144.459 98.5878 144.328C98.8584 144.188 99.0684 144.043 99.2178 143.894C99.3671 143.735 99.4418 143.642 99.4418 143.614L99.8478 143.95C99.8478 143.987 99.7591 144.109 99.5818 144.314C99.4044 144.51 99.1431 144.697 98.7978 144.874C98.4524 145.051 98.0278 145.14 97.5238 145.14ZM98.9518 141.108L98.9658 140.842C98.9658 139.255 98.4431 138.462 97.3978 138.462C96.8471 138.462 96.4224 138.681 96.1238 139.12C95.8251 139.549 95.6524 140.212 95.6058 141.108H98.9518ZM103.854 145.14C102.883 145.14 102.141 144.823 101.628 144.188C101.124 143.553 100.872 142.657 100.872 141.5C100.872 140.343 101.124 139.447 101.628 138.812C102.141 138.177 102.883 137.86 103.854 137.86C104.824 137.86 105.562 138.177 106.066 138.812C106.579 139.447 106.836 140.343 106.836 141.5C106.836 142.648 106.574 143.544 106.052 144.188C105.538 144.823 104.806 145.14 103.854 145.14ZM103.854 144.524C104.507 144.524 104.988 144.277 105.296 143.782C105.604 143.278 105.758 142.517 105.758 141.5C105.758 140.492 105.604 139.736 105.296 139.232C104.988 138.728 104.507 138.476 103.854 138.476C103.2 138.476 102.72 138.728 102.412 139.232C102.104 139.727 101.95 140.483 101.95 141.5C101.95 142.517 102.104 143.278 102.412 143.782C102.72 144.277 103.2 144.524 103.854 144.524ZM110.153 145.14C109.659 145.14 109.239 145.065 108.893 144.916C108.557 144.757 108.301 144.589 108.123 144.412C107.955 144.235 107.871 144.132 107.871 144.104L108.221 143.614C108.221 143.633 108.296 143.721 108.445 143.88C108.595 144.039 108.8 144.188 109.061 144.328C109.323 144.459 109.631 144.524 109.985 144.524C110.508 144.524 110.9 144.393 111.161 144.132C111.432 143.871 111.567 143.553 111.567 143.18C111.567 142.909 111.497 142.685 111.357 142.508C111.227 142.331 111.059 142.195 110.853 142.102C110.657 141.999 110.382 141.887 110.027 141.766C109.617 141.617 109.29 141.481 109.047 141.36C108.805 141.229 108.595 141.038 108.417 140.786C108.249 140.534 108.165 140.207 108.165 139.806C108.165 139.209 108.38 138.737 108.809 138.392C109.248 138.037 109.808 137.86 110.489 137.86C110.788 137.86 111.073 137.902 111.343 137.986C111.623 138.061 111.847 138.145 112.015 138.238C112.183 138.322 112.291 138.378 112.337 138.406L112.169 139.008C112.132 138.98 112.039 138.924 111.889 138.84C111.74 138.747 111.544 138.658 111.301 138.574C111.068 138.49 110.825 138.448 110.573 138.448C110.144 138.448 109.794 138.555 109.523 138.77C109.262 138.985 109.131 139.255 109.131 139.582C109.131 139.853 109.201 140.081 109.341 140.268C109.481 140.445 109.654 140.585 109.859 140.688C110.074 140.791 110.359 140.907 110.713 141.038C111.124 141.178 111.455 141.318 111.707 141.458C111.969 141.589 112.188 141.78 112.365 142.032C112.543 142.284 112.631 142.611 112.631 143.012C112.631 143.619 112.421 144.127 112.001 144.538C111.581 144.939 110.965 145.14 110.153 145.14Z" fill="#222222"/>
<path d="M166.566 79.0001C166.566 93.7955 172.444 107.985 182.906 118.447C193.368 128.909 207.557 134.786 222.352 134.786C237.148 134.786 251.337 128.909 261.799 118.447C272.261 107.985 278.138 93.7955 278.138 79.0001C278.138 64.2047 272.261 50.0153 261.799 39.5534C251.337 29.0915 237.148 23.2141 222.352 23.2141C207.557 23.2141 193.368 29.0915 182.906 39.5534C172.444 50.0153 166.566 64.2047 166.566 79.0001" fill="#FFB612" fill-opacity="0.6"/>
<path d="M166.566 79.0001C166.566 93.7955 172.444 107.985 182.906 118.447C193.368 128.909 207.557 134.786 222.352 134.786C237.148 134.786 251.337 128.909 261.799 118.447C272.261 107.985 278.138 93.7955 278.138 79.0001C278.138 64.2047 272.261 50.0153 261.799 39.5534C251.337 29.0915 237.148 23.2141 222.352 23.2141C207.557 23.2141 193.368 29.0915 182.906 39.5534C172.444 50.0153 166.566 64.2047 166.566 79.0001" stroke="white" stroke-width="2"/>
<path d="M199.896 50.176C199.149 50.176 198.552 49.9893 198.104 49.616C197.656 49.2427 197.432 48.7307 197.432 48.08C197.432 47.1413 197.869 46.464 198.744 46.048C199.629 45.6213 200.659 45.36 201.832 45.264V44.8C201.832 44.0747 201.731 43.5787 201.528 43.312C201.325 43.0347 200.984 42.896 200.504 42.896C200.28 42.896 200.024 42.9387 199.736 43.024C199.459 43.1093 199.213 43.2 199 43.296C198.797 43.392 198.664 43.456 198.6 43.488L198.392 42.464C198.456 42.432 198.605 42.368 198.84 42.272C199.085 42.1653 199.389 42.064 199.752 41.968C200.125 41.872 200.499 41.824 200.872 41.824C201.875 41.824 202.637 42.0373 203.16 42.464C203.693 42.88 203.96 43.6 203.96 44.624V48.256C203.96 48.8213 204.072 49.104 204.296 49.104C204.381 49.104 204.483 49.088 204.6 49.056C204.717 49.024 204.797 49.0027 204.84 48.992L204.904 49.824C204.851 49.8453 204.723 49.8827 204.52 49.936C204.317 49.9893 204.083 50.0427 203.816 50.096C203.56 50.1493 203.331 50.176 203.128 50.176C202.819 50.176 202.579 50.1013 202.408 49.952C202.237 49.792 202.125 49.536 202.072 49.184H201.992C201.992 49.216 201.917 49.3173 201.768 49.488C201.629 49.648 201.405 49.8027 201.096 49.952C200.787 50.1013 200.387 50.176 199.896 50.176ZM200.6 49.104C200.856 49.104 201.075 49.04 201.256 48.912C201.448 48.784 201.592 48.6453 201.688 48.496C201.784 48.336 201.832 48.2453 201.832 48.224V46.112C201.117 46.1867 200.573 46.3573 200.2 46.624C199.837 46.88 199.656 47.2747 199.656 47.808C199.656 48.2347 199.741 48.56 199.912 48.784C200.083 48.9973 200.312 49.104 200.6 49.104ZM206.163 42H207.875L208.147 42.656H208.211C208.211 42.6347 208.296 42.5547 208.467 42.416C208.648 42.2773 208.904 42.1493 209.235 42.032C209.566 41.904 209.976 41.84 210.467 41.84C211.288 41.84 211.902 42.064 212.307 42.512C212.723 42.9493 212.931 43.6373 212.931 44.576V50H210.803V45.008C210.803 44.2933 210.723 43.808 210.563 43.552C210.414 43.296 210.136 43.168 209.731 43.168C209.454 43.168 209.208 43.2107 208.995 43.296C208.782 43.3813 208.611 43.4773 208.483 43.584C208.355 43.68 208.291 43.7333 208.291 43.744V50H206.163V42ZM215.845 40.8C215.525 40.8 215.242 40.6933 214.997 40.48C214.751 40.2347 214.629 39.9307 214.629 39.568C214.629 39.216 214.751 38.9173 214.997 38.672C215.221 38.4587 215.503 38.352 215.845 38.352C216.175 38.352 216.447 38.4533 216.661 38.656C216.895 38.9013 217.013 39.2053 217.013 39.568C217.013 39.9413 216.895 40.2507 216.661 40.496C216.426 40.6987 216.154 40.8 215.845 40.8ZM214.773 50V42H216.901V50H214.773ZM218.819 42H220.531L220.803 42.72H220.851C220.851 42.6987 220.947 42.6133 221.139 42.464C221.331 42.304 221.582 42.16 221.891 42.032C222.211 41.904 222.569 41.84 222.963 41.84C223.401 41.84 223.763 41.9093 224.051 42.048C224.339 42.1867 224.563 42.4 224.723 42.688C224.905 42.5387 225.059 42.4213 225.187 42.336C225.326 42.24 225.555 42.1333 225.875 42.016C226.206 41.8987 226.579 41.84 226.995 41.84C227.753 41.84 228.297 42.0427 228.627 42.448C228.958 42.8427 229.123 43.4987 229.123 44.416V50H226.995V44.576C226.995 44 226.926 43.6213 226.787 43.44C226.659 43.248 226.446 43.152 226.147 43.152C225.881 43.152 225.651 43.2213 225.459 43.36C225.267 43.488 225.118 43.6213 225.011 43.76C225.033 44.016 225.043 44.224 225.043 44.384V50H222.915V44.576C222.915 44.0107 222.846 43.632 222.707 43.44C222.579 43.248 222.371 43.152 222.083 43.152C221.806 43.152 221.566 43.2213 221.363 43.36C221.161 43.4987 221.022 43.6213 220.947 43.728V50H218.819V42ZM232.912 50.176C232.165 50.176 231.568 49.9893 231.12 49.616C230.672 49.2427 230.448 48.7307 230.448 48.08C230.448 47.1413 230.885 46.464 231.76 46.048C232.645 45.6213 233.674 45.36 234.848 45.264V44.8C234.848 44.0747 234.746 43.5787 234.544 43.312C234.341 43.0347 234 42.896 233.52 42.896C233.296 42.896 233.04 42.9387 232.752 43.024C232.474 43.1093 232.229 43.2 232.016 43.296C231.813 43.392 231.68 43.456 231.616 43.488L231.408 42.464C231.472 42.432 231.621 42.368 231.856 42.272C232.101 42.1653 232.405 42.064 232.768 41.968C233.141 41.872 233.514 41.824 233.888 41.824C234.89 41.824 235.653 42.0373 236.176 42.464C236.709 42.88 236.976 43.6 236.976 44.624V48.256C236.976 48.8213 237.088 49.104 237.312 49.104C237.397 49.104 237.498 49.088 237.616 49.056C237.733 49.024 237.813 49.0027 237.856 48.992L237.92 49.824C237.866 49.8453 237.738 49.8827 237.536 49.936C237.333 49.9893 237.098 50.0427 236.832 50.096C236.576 50.1493 236.346 50.176 236.144 50.176C235.834 50.176 235.594 50.1013 235.424 49.952C235.253 49.792 235.141 49.536 235.088 49.184H235.008C235.008 49.216 234.933 49.3173 234.784 49.488C234.645 49.648 234.421 49.8027 234.112 49.952C233.802 50.1013 233.402 50.176 232.912 50.176ZM233.616 49.104C233.872 49.104 234.09 49.04 234.272 48.912C234.464 48.784 234.608 48.6453 234.704 48.496C234.8 48.336 234.848 48.2453 234.848 48.224V46.112C234.133 46.1867 233.589 46.3573 233.216 46.624C232.853 46.88 232.672 47.2747 232.672 47.808C232.672 48.2347 232.757 48.56 232.928 48.784C233.098 48.9973 233.328 49.104 233.616 49.104ZM239.179 50V38.064L241.307 37.936V50H239.179ZM245.481 50.176C244.863 50.176 244.345 50.0907 243.929 49.92C243.513 49.7387 243.199 49.5467 242.985 49.344C242.772 49.1413 242.665 49.0187 242.665 48.976L243.257 48.144C243.257 48.1653 243.343 48.2613 243.513 48.432C243.684 48.6027 243.897 48.7627 244.153 48.912C244.42 49.0507 244.713 49.12 245.033 49.12C245.428 49.12 245.732 49.0187 245.945 48.816C246.159 48.6133 246.265 48.3467 246.265 48.016C246.265 47.696 246.153 47.4453 245.929 47.264C245.705 47.072 245.369 46.8747 244.921 46.672C244.505 46.4693 244.169 46.288 243.913 46.128C243.668 45.9573 243.455 45.728 243.273 45.44C243.092 45.1413 243.001 44.7627 243.001 44.304C243.001 43.5147 243.273 42.9067 243.817 42.48C244.361 42.0427 245.033 41.824 245.833 41.824C246.175 41.824 246.516 41.8667 246.857 41.952C247.199 42.0373 247.481 42.1227 247.705 42.208C247.929 42.2933 248.073 42.352 248.137 42.384L247.849 43.456C247.796 43.424 247.673 43.36 247.481 43.264C247.289 43.168 247.055 43.0773 246.777 42.992C246.511 42.9067 246.265 42.864 246.041 42.864C245.711 42.864 245.455 42.944 245.273 43.104C245.092 43.264 245.001 43.4773 245.001 43.744C245.001 44.064 245.119 44.3253 245.353 44.528C245.599 44.72 245.967 44.928 246.457 45.152C246.895 45.3653 247.247 45.5627 247.513 45.744C247.78 45.9147 248.009 46.1493 248.201 46.448C248.393 46.7467 248.489 47.12 248.489 47.568C248.489 48.3467 248.228 48.976 247.705 49.456C247.193 49.936 246.452 50.176 245.481 50.176ZM199.996 68.14C199.492 68.14 199.058 68.0653 198.694 67.916C198.33 67.7667 198.045 67.608 197.84 67.44C197.644 67.272 197.546 67.174 197.546 67.146L197.882 66.6C197.882 66.6187 197.971 66.7027 198.148 66.852C198.335 67.0013 198.577 67.1413 198.876 67.272C199.175 67.4027 199.511 67.468 199.884 67.468C200.547 67.468 201.046 67.286 201.382 66.922C201.727 66.558 201.9 66.0307 201.9 65.34C201.9 64.724 201.755 64.248 201.466 63.912C201.186 63.576 200.771 63.408 200.22 63.408C200.08 63.408 199.949 63.4313 199.828 63.478C199.707 63.5247 199.609 63.5713 199.534 63.618C199.469 63.6647 199.427 63.6973 199.408 63.716L199.044 63.296L201.62 59.866H197.966L198.022 58.9H202.6V59.558L200.08 62.848C200.192 62.82 200.318 62.806 200.458 62.806C201.205 62.806 201.807 63.0393 202.264 63.506C202.731 63.9633 202.964 64.5747 202.964 65.34C202.964 65.9187 202.833 66.418 202.572 66.838C202.32 67.258 201.97 67.58 201.522 67.804C201.074 68.028 200.565 68.14 199.996 68.14ZM209.488 68L207.094 61H208.298L210.118 66.894L212.05 61H212.82L210.412 68H209.488ZM214.55 59.586C214.382 59.586 214.247 59.5347 214.144 59.432C214.023 59.3107 213.962 59.1613 213.962 58.984C213.962 58.8067 214.023 58.6573 214.144 58.536C214.247 58.4333 214.382 58.382 214.55 58.382C214.727 58.382 214.867 58.4287 214.97 58.522C215.082 58.6433 215.138 58.7973 215.138 58.984C215.138 59.152 215.082 59.3013 214.97 59.432C214.839 59.5347 214.699 59.586 214.55 59.586ZM214.032 68V61H215.054V68H214.032ZM219.432 68.14C218.582 68.14 217.901 67.8367 217.388 67.23C216.874 66.6233 216.618 65.7787 216.618 64.696C216.618 63.5293 216.865 62.6007 217.36 61.91C217.864 61.21 218.568 60.86 219.474 60.86C219.856 60.86 220.178 60.9113 220.44 61.014C220.701 61.1073 220.902 61.2147 221.042 61.336C221.182 61.448 221.252 61.5133 221.252 61.532H221.266V57.528L222.274 57.472V68H221.406L221.294 67.174C221.191 67.3793 220.99 67.594 220.692 67.818C220.393 68.0327 219.973 68.14 219.432 68.14ZM219.656 67.454C219.992 67.454 220.281 67.384 220.524 67.244C220.766 67.0947 220.948 66.936 221.07 66.768C221.2 66.6 221.266 66.502 221.266 66.474V62.176C221.266 62.1573 221.2 62.092 221.07 61.98C220.948 61.868 220.776 61.7653 220.552 61.672C220.337 61.5787 220.08 61.532 219.782 61.532C219.063 61.532 218.536 61.798 218.2 62.33C217.864 62.8527 217.696 63.632 217.696 64.668C217.696 65.648 217.859 66.3573 218.186 66.796C218.522 67.2347 219.012 67.454 219.656 67.454ZM226.832 68.14C225.899 68.14 225.166 67.8507 224.634 67.272C224.102 66.684 223.836 65.8067 223.836 64.64C223.836 63.464 224.093 62.54 224.606 61.868C225.12 61.196 225.82 60.86 226.706 60.86C227.509 60.86 228.125 61.14 228.554 61.7C228.993 62.2507 229.212 63.0347 229.212 64.052C229.212 64.2293 229.203 64.374 229.184 64.486C229.166 64.598 229.152 64.668 229.142 64.696H224.9C224.9 66.5813 225.582 67.524 226.944 67.524C227.318 67.524 227.635 67.4587 227.896 67.328C228.167 67.188 228.377 67.0433 228.526 66.894C228.676 66.7353 228.75 66.642 228.75 66.614L229.156 66.95C229.156 66.9873 229.068 67.1087 228.89 67.314C228.713 67.51 228.452 67.6967 228.106 67.874C227.761 68.0513 227.336 68.14 226.832 68.14ZM228.26 64.108L228.274 63.842C228.274 62.2553 227.752 61.462 226.706 61.462C226.156 61.462 225.731 61.6813 225.432 62.12C225.134 62.5493 224.961 63.212 224.914 64.108H228.26ZM233.162 68.14C232.191 68.14 231.449 67.8227 230.936 67.188C230.432 66.5533 230.18 65.6573 230.18 64.5C230.18 63.3427 230.432 62.4467 230.936 61.812C231.449 61.1773 232.191 60.86 233.162 60.86C234.133 60.86 234.87 61.1773 235.374 61.812C235.887 62.4467 236.144 63.3427 236.144 64.5C236.144 65.648 235.883 66.544 235.36 67.188C234.847 67.8227 234.114 68.14 233.162 68.14ZM233.162 67.524C233.815 67.524 234.296 67.2767 234.604 66.782C234.912 66.278 235.066 65.5173 235.066 64.5C235.066 63.492 234.912 62.736 234.604 62.232C234.296 61.728 233.815 61.476 233.162 61.476C232.509 61.476 232.028 61.728 231.72 62.232C231.412 62.7267 231.258 63.4827 231.258 64.5C231.258 65.5173 231.412 66.278 231.72 66.782C232.028 67.2767 232.509 67.524 233.162 67.524ZM239.462 68.14C238.967 68.14 238.547 68.0653 238.202 67.916C237.866 67.7573 237.609 67.5893 237.432 67.412C237.264 67.2347 237.18 67.132 237.18 67.104L237.53 66.614C237.53 66.6327 237.604 66.7213 237.754 66.88C237.903 67.0387 238.108 67.188 238.37 67.328C238.631 67.4587 238.939 67.524 239.294 67.524C239.816 67.524 240.208 67.3933 240.47 67.132C240.74 66.8707 240.876 66.5533 240.876 66.18C240.876 65.9093 240.806 65.6853 240.666 65.508C240.535 65.3307 240.367 65.1953 240.162 65.102C239.966 64.9993 239.69 64.8873 239.336 64.766C238.925 64.6167 238.598 64.4813 238.356 64.36C238.113 64.2293 237.903 64.038 237.726 63.786C237.558 63.534 237.474 63.2073 237.474 62.806C237.474 62.2087 237.688 61.7373 238.118 61.392C238.556 61.0373 239.116 60.86 239.798 60.86C240.096 60.86 240.381 60.902 240.652 60.986C240.932 61.0607 241.156 61.1447 241.324 61.238C241.492 61.322 241.599 61.378 241.646 61.406L241.478 62.008C241.44 61.98 241.347 61.924 241.198 61.84C241.048 61.7467 240.852 61.658 240.61 61.574C240.376 61.49 240.134 61.448 239.882 61.448C239.452 61.448 239.102 61.5553 238.832 61.77C238.57 61.9847 238.44 62.2553 238.44 62.582C238.44 62.8527 238.51 63.0813 238.65 63.268C238.79 63.4453 238.962 63.5853 239.168 63.688C239.382 63.7907 239.667 63.9073 240.022 64.038C240.432 64.178 240.764 64.318 241.016 64.458C241.277 64.5887 241.496 64.78 241.674 65.032C241.851 65.284 241.94 65.6107 241.94 66.012C241.94 66.6187 241.73 67.1273 241.31 67.538C240.89 67.9393 240.274 68.14 239.462 68.14Z" fill="#222222"/>
</svg>
