<svg width="380" height="360" viewBox="0 0 380 360" fill="none" xmlns="http://www.w3.org/2000/svg">
<path d="M67.4483 108.008C67.4483 118.794 69.5727 129.474 73.7002 139.438C77.8277 149.403 83.8775 158.457 91.5042 166.084C99.1309 173.711 108.185 179.76 118.15 183.888C128.114 188.015 138.795 190.14 149.58 190.14C160.366 190.14 171.046 188.015 181.011 183.888C190.976 179.76 200.03 173.711 207.656 166.084C215.283 158.457 221.333 149.403 225.46 139.438C229.588 129.474 231.712 118.794 231.712 108.008C231.712 86.225 223.059 65.3344 207.656 49.9317C192.254 34.529 171.363 25.8758 149.58 25.8758C127.798 25.8758 106.907 34.529 91.5042 49.9317C76.1015 65.3344 67.4483 86.225 67.4483 108.008" fill="#D3BC8D" fill-opacity="0.6"/>
<path d="M67.4483 108.008C67.4483 118.794 69.5727 129.474 73.7002 139.438C77.8277 149.403 83.8775 158.457 91.5042 166.084C99.1309 173.711 108.185 179.76 118.15 183.888C128.114 188.015 138.795 190.14 149.58 190.14C160.366 190.14 171.046 188.015 181.011 183.888C190.976 179.76 200.03 173.711 207.656 166.084C215.283 158.457 221.333 149.403 225.46 139.438C229.588 129.474 231.712 118.794 231.712 108.008C231.712 86.225 223.059 65.3344 207.656 49.9317C192.254 34.529 171.363 25.8758 149.58 25.8758C127.798 25.8758 106.907 34.529 91.5042 49.9317C76.1015 65.3344 67.4483 86.225 67.4483 108.008" stroke="white" stroke-width="2"/>
<path d="M43.272 45.176C42.0453 45.176 41.1013 44.824 40.44 44.12C39.7893 43.416 39.464 42.392 39.464 41.048C39.464 39.7467 39.8053 38.7173 40.488 37.96C41.1707 37.2027 42.1147 36.824 43.32 36.824C43.6507 36.824 43.9867 36.872 44.328 36.968C44.68 37.0533 44.9733 37.1493 45.208 37.256C45.4427 37.352 45.592 37.416 45.656 37.448L45.448 38.472C45.3947 38.44 45.2613 38.3813 45.048 38.296C44.8347 38.2 44.5893 38.1093 44.312 38.024C44.0347 37.9387 43.784 37.896 43.56 37.896C43.1547 37.896 42.824 37.9813 42.568 38.152C42.312 38.3227 42.1147 38.6373 41.976 39.096C41.8373 39.544 41.768 40.184 41.768 41.016C41.768 42.2 41.9173 43.0107 42.216 43.448C42.5147 43.8853 42.9413 44.104 43.496 44.104C43.8693 44.104 44.1893 44.024 44.456 43.864C44.7333 43.6933 44.9467 43.5173 45.096 43.336C45.2453 43.144 45.32 43.032 45.32 43L46.072 43.48C46.072 43.544 45.976 43.72 45.784 44.008C45.592 44.2853 45.288 44.552 44.872 44.808C44.456 45.0533 43.9227 45.176 43.272 45.176ZM50.3486 45.176C49.1646 45.176 48.242 44.8507 47.5806 44.2C46.93 43.5387 46.6046 42.52 46.6046 41.144C46.6046 39.7573 46.9246 38.696 47.5646 37.96C48.2046 37.2133 49.0686 36.84 50.1566 36.84C51.1486 36.84 51.9166 37.1547 52.4606 37.784C53.0153 38.4027 53.2926 39.2933 53.2926 40.456C53.2926 40.7227 53.2713 40.9467 53.2286 41.128C53.1966 41.3093 53.1753 41.4213 53.1646 41.464H48.8606C48.8713 42.424 49.01 43.1067 49.2766 43.512C49.554 43.9067 49.9966 44.104 50.6046 44.104C50.9673 44.104 51.2873 44.0293 51.5646 43.88C51.842 43.72 52.0606 43.5493 52.2206 43.368C52.3806 43.176 52.4606 43.0693 52.4606 43.048L53.1806 43.608C53.1806 43.6507 53.0686 43.8053 52.8446 44.072C52.6313 44.3387 52.3113 44.5893 51.8846 44.824C51.4686 45.0587 50.9566 45.176 50.3486 45.176ZM51.3086 40.424V40.056C51.3086 39.2453 51.2233 38.68 51.0526 38.36C50.882 38.0293 50.5833 37.864 50.1566 37.864C49.858 37.864 49.618 37.9387 49.4366 38.088C49.266 38.2373 49.1326 38.4987 49.0366 38.872C48.9406 39.2347 48.882 39.752 48.8606 40.424H51.3086ZM54.6788 45V33.064L56.8068 32.936V45H54.6788ZM61.9893 45.176C60.8053 45.176 59.8826 44.8507 59.2213 44.2C58.5706 43.5387 58.2453 42.52 58.2453 41.144C58.2453 39.7573 58.5653 38.696 59.2053 37.96C59.8453 37.2133 60.7093 36.84 61.7973 36.84C62.7893 36.84 63.5573 37.1547 64.1013 37.784C64.6559 38.4027 64.9333 39.2933 64.9333 40.456C64.9333 40.7227 64.9119 40.9467 64.8693 41.128C64.8373 41.3093 64.8159 41.4213 64.8053 41.464H60.5013C60.5119 42.424 60.6506 43.1067 60.9173 43.512C61.1946 43.9067 61.6373 44.104 62.2453 44.104C62.6079 44.104 62.9279 44.0293 63.2053 43.88C63.4826 43.72 63.7013 43.5493 63.8613 43.368C64.0213 43.176 64.1013 43.0693 64.1013 43.048L64.8213 43.608C64.8213 43.6507 64.7093 43.8053 64.4853 44.072C64.2719 44.3387 63.9519 44.5893 63.5253 44.824C63.1093 45.0587 62.5973 45.176 61.9893 45.176ZM62.9493 40.424V40.056C62.9493 39.2453 62.8639 38.68 62.6933 38.36C62.5226 38.0293 62.2239 37.864 61.7973 37.864C61.4986 37.864 61.2586 37.9387 61.0773 38.088C60.9066 38.2373 60.7733 38.4987 60.6773 38.872C60.5813 39.2347 60.5226 39.752 60.5013 40.424H62.9493ZM70.2714 45.24C69.8447 45.24 69.4714 45.1813 69.1514 45.064C68.842 44.9467 68.5967 44.824 68.4154 44.696C68.2447 44.5573 68.1594 44.4773 68.1594 44.456H68.1274L67.7754 45H66.3194V33.064L68.4474 32.936V37.528H68.5114C68.5114 37.5067 68.5807 37.432 68.7194 37.304C68.858 37.1653 69.0714 37.0427 69.3594 36.936C69.6474 36.8187 70.0047 36.76 70.4314 36.76C71.0607 36.76 71.6154 36.9307 72.0954 37.272C72.5754 37.6133 72.9487 38.0933 73.2154 38.712C73.482 39.3307 73.6154 40.04 73.6154 40.84C73.6154 42.1627 73.3167 43.2293 72.7194 44.04C72.1327 44.84 71.3167 45.24 70.2714 45.24ZM69.7114 44.024C70.298 44.024 70.714 43.7893 70.9594 43.32C71.2047 42.84 71.3274 42.0293 71.3274 40.888C71.3274 40.152 71.274 39.576 71.1674 39.16C71.0714 38.744 70.9114 38.4507 70.6874 38.28C70.4634 38.0987 70.1647 38.008 69.7914 38.008C69.514 38.008 69.274 38.072 69.0714 38.2C68.8687 38.3173 68.714 38.4507 68.6074 38.6C68.5007 38.7387 68.4474 38.8187 68.4474 38.84V43.432C68.4474 43.4533 68.4954 43.5173 68.5914 43.624C68.6874 43.72 68.826 43.8107 69.0074 43.896C69.1994 43.9813 69.434 44.024 69.7114 44.024ZM75.0381 37H76.5421L76.8941 38.344H76.9581C76.9581 38.28 77.0008 38.1253 77.0861 37.88C77.1715 37.624 77.3261 37.384 77.5501 37.16C77.7848 36.936 78.0941 36.824 78.4781 36.824C78.6915 36.824 78.9315 36.856 79.1981 36.92C79.4755 36.984 79.6568 37.0267 79.7421 37.048L79.5501 38.536C79.4648 38.5147 79.2728 38.472 78.9741 38.408C78.6861 38.344 78.4355 38.312 78.2221 38.312C77.9768 38.312 77.7741 38.3867 77.6141 38.536C77.4648 38.6747 77.3528 38.824 77.2781 38.984C77.2035 39.144 77.1661 39.24 77.1661 39.272V45H75.0381V37ZM81.7976 35.8C81.4776 35.8 81.195 35.6933 80.9496 35.48C80.7043 35.2347 80.5816 34.9307 80.5816 34.568C80.5816 34.216 80.7043 33.9173 80.9496 33.672C81.1736 33.4587 81.4563 33.352 81.7976 33.352C82.1283 33.352 82.4003 33.4533 82.6136 33.656C82.8483 33.9013 82.9656 34.2053 82.9656 34.568C82.9656 34.9413 82.8483 35.2507 82.6136 35.496C82.379 35.6987 82.107 35.8 81.7976 35.8ZM80.7256 45V37H82.8536V45H80.7256ZM87.2845 45.176C86.5272 45.176 85.9672 44.9893 85.6045 44.616C85.2418 44.2427 85.0605 43.6133 85.0605 42.728V38.232H84.2925V37.272L85.0765 37.048L86.1005 34.344H87.1885V37H88.9485V38.232H87.1885V42.184C87.1885 42.6853 87.2098 43.0693 87.2525 43.336C87.3058 43.592 87.3858 43.7733 87.4925 43.88C87.5992 43.976 87.7485 44.024 87.9405 44.024C88.1538 44.024 88.3458 44.0027 88.5165 43.96C88.6872 43.9173 88.7725 43.8907 88.7725 43.88L88.9005 44.792C88.9005 44.8027 88.8418 44.84 88.7245 44.904C88.6072 44.968 88.4258 45.0267 88.1805 45.08C87.9458 45.144 87.6472 45.176 87.2845 45.176ZM91.0531 49.176C90.8078 49.176 90.5891 49.1547 90.3971 49.112C90.2158 49.08 90.0771 49.0427 89.9811 49C89.8851 48.968 89.8265 48.9467 89.8051 48.936L89.9811 47.688C90.0238 47.7093 90.1305 47.7413 90.3011 47.784C90.4718 47.8373 90.6425 47.864 90.8131 47.864C91.2931 47.864 91.6825 47.672 91.9811 47.288C92.2798 46.9147 92.6105 46.2587 92.9731 45.32L89.5651 37H92.1411L94.0931 42.696L95.7411 37H97.0691L94.3011 45.176C93.9705 46.0827 93.6558 46.8187 93.3571 47.384C93.0691 47.9493 92.7385 48.3867 92.3651 48.696C91.9918 49.016 91.5545 49.176 91.0531 49.176ZM39.559 60.22C39.7583 60.142 40.17 59.804 40.794 59.206C41.4267 58.608 42.003 57.919 42.523 57.139C43.043 56.3503 43.303 55.592 43.303 54.864C43.303 54.2487 43.1773 53.798 42.926 53.512C42.6833 53.2173 42.263 53.07 41.665 53.07C41.379 53.07 41.0973 53.122 40.82 53.226C40.5513 53.33 40.3173 53.447 40.118 53.577C39.9187 53.707 39.819 53.7763 39.819 53.785L39.715 53.2C39.715 53.1827 39.819 53.109 40.027 52.979C40.2437 52.8403 40.508 52.7147 40.82 52.602C41.132 52.4893 41.4613 52.433 41.808 52.433C42.6747 52.433 43.3117 52.6453 43.719 53.07C44.135 53.486 44.343 54.058 44.343 54.786C44.343 55.722 43.953 56.6623 43.173 57.607C42.393 58.543 41.5307 59.3793 40.586 60.116H44.577V61H39.559V60.22ZM50.5961 61L48.3731 54.5H49.4911L51.1811 59.973L52.9751 54.5H53.6901L51.4541 61H50.5961ZM55.2965 53.187C55.1405 53.187 55.0148 53.1393 54.9195 53.044C54.8068 52.9313 54.7505 52.7927 54.7505 52.628C54.7505 52.4633 54.8068 52.3247 54.9195 52.212C55.0148 52.1167 55.1405 52.069 55.2965 52.069C55.4612 52.069 55.5912 52.1123 55.6865 52.199C55.7905 52.3117 55.8425 52.4547 55.8425 52.628C55.8425 52.784 55.7905 52.9227 55.6865 53.044C55.5652 53.1393 55.4352 53.187 55.2965 53.187ZM54.8155 61V54.5H55.7645V61H54.8155ZM59.8294 61.13C59.0407 61.13 58.408 60.8483 57.9314 60.285C57.4547 59.7217 57.2164 58.9373 57.2164 57.932C57.2164 56.8487 57.446 55.9863 57.9054 55.345C58.3734 54.695 59.0277 54.37 59.8684 54.37C60.2237 54.37 60.5227 54.4177 60.7654 54.513C61.008 54.5997 61.1944 54.6993 61.3244 54.812C61.4544 54.916 61.5194 54.9767 61.5194 54.994H61.5324V51.276L62.4684 51.224V61H61.6624L61.5584 60.233C61.463 60.4237 61.2767 60.623 60.9994 60.831C60.722 61.0303 60.332 61.13 59.8294 61.13ZM60.0374 60.493C60.3494 60.493 60.618 60.428 60.8434 60.298C61.0687 60.1593 61.2377 60.012 61.3504 59.856C61.4717 59.7 61.5324 59.609 61.5324 59.583V55.592C61.5324 55.5747 61.4717 55.514 61.3504 55.41C61.2377 55.306 61.0774 55.2107 60.8694 55.124C60.67 55.0373 60.4317 54.994 60.1544 54.994C59.487 54.994 58.9974 55.241 58.6854 55.735C58.3734 56.2203 58.2174 56.944 58.2174 57.906C58.2174 58.816 58.369 59.4747 58.6724 59.882C58.9844 60.2893 59.4394 60.493 60.0374 60.493ZM66.7015 61.13C65.8348 61.13 65.1545 60.8613 64.6605 60.324C64.1665 59.778 63.9195 58.9633 63.9195 57.88C63.9195 56.788 64.1578 55.93 64.6345 55.306C65.1111 54.682 65.7611 54.37 66.5845 54.37C67.3298 54.37 67.9018 54.63 68.3005 55.15C68.7078 55.6613 68.9115 56.3893 68.9115 57.334C68.9115 57.4987 68.9028 57.633 68.8855 57.737C68.8681 57.841 68.8551 57.906 68.8465 57.932H64.9075C64.9075 59.6827 65.5401 60.558 66.8055 60.558C67.1521 60.558 67.4468 60.4973 67.6895 60.376C67.9408 60.246 68.1358 60.1117 68.2745 59.973C68.4131 59.8257 68.4825 59.739 68.4825 59.713L68.8595 60.025C68.8595 60.0597 68.7771 60.1723 68.6125 60.363C68.4478 60.545 68.2051 60.7183 67.8845 60.883C67.5638 61.0477 67.1695 61.13 66.7015 61.13ZM68.0275 57.386L68.0405 57.139C68.0405 55.6657 67.5551 54.929 66.5845 54.929C66.0731 54.929 65.6788 55.1327 65.4015 55.54C65.1241 55.9387 64.9638 56.554 64.9205 57.386H68.0275ZM72.5791 61.13C71.6778 61.13 70.9888 60.8353 70.5121 60.246C70.0441 59.6567 69.8101 58.8247 69.8101 57.75C69.8101 56.6753 70.0441 55.8433 70.5121 55.254C70.9888 54.6647 71.6778 54.37 72.5791 54.37C73.4804 54.37 74.1651 54.6647 74.6331 55.254C75.1098 55.8433 75.3481 56.6753 75.3481 57.75C75.3481 58.816 75.1054 59.648 74.6201 60.246C74.1434 60.8353 73.4631 61.13 72.5791 61.13ZM72.5791 60.558C73.1858 60.558 73.6321 60.3283 73.9181 59.869C74.2041 59.401 74.3471 58.6947 74.3471 57.75C74.3471 56.814 74.2041 56.112 73.9181 55.644C73.6321 55.176 73.1858 54.942 72.5791 54.942C71.9724 54.942 71.5261 55.176 71.2401 55.644C70.9541 56.1033 70.8111 56.8053 70.8111 57.75C70.8111 58.6947 70.9541 59.401 71.2401 59.869C71.5261 60.3283 71.9724 60.558 72.5791 60.558ZM78.4288 61.13C77.9695 61.13 77.5795 61.0607 77.2588 60.922C76.9468 60.7747 76.7085 60.6187 76.5438 60.454C76.3878 60.2893 76.3098 60.194 76.3098 60.168L76.6348 59.713C76.6348 59.7303 76.7041 59.8127 76.8428 59.96C76.9815 60.1073 77.1721 60.246 77.4148 60.376C77.6575 60.4973 77.9435 60.558 78.2728 60.558C78.7581 60.558 79.1221 60.4367 79.3648 60.194C79.6161 59.9513 79.7418 59.6567 79.7418 59.31C79.7418 59.0587 79.6768 58.8507 79.5468 58.686C79.4255 58.5213 79.2695 58.3957 79.0788 58.309C78.8968 58.2137 78.6411 58.1097 78.3118 57.997C77.9305 57.8583 77.6271 57.7327 77.4018 57.62C77.1765 57.4987 76.9815 57.321 76.8168 57.087C76.6608 56.853 76.5828 56.5497 76.5828 56.177C76.5828 55.6223 76.7821 55.1847 77.1808 54.864C77.5881 54.5347 78.1081 54.37 78.7408 54.37C79.0181 54.37 79.2825 54.409 79.5338 54.487C79.7938 54.5563 80.0018 54.6343 80.1578 54.721C80.3138 54.799 80.4135 54.851 80.4568 54.877L80.3008 55.436C80.2661 55.41 80.1795 55.358 80.0408 55.28C79.9021 55.1933 79.7201 55.111 79.4948 55.033C79.2781 54.955 79.0528 54.916 78.8188 54.916C78.4201 54.916 78.0951 55.0157 77.8438 55.215C77.6011 55.4143 77.4798 55.6657 77.4798 55.969C77.4798 56.2203 77.5448 56.4327 77.6748 56.606C77.8048 56.7707 77.9651 56.9007 78.1558 56.996C78.3551 57.0913 78.6195 57.1997 78.9488 57.321C79.3301 57.451 79.6378 57.581 79.8718 57.711C80.1145 57.8323 80.3181 58.01 80.4828 58.244C80.6475 58.478 80.7298 58.7813 80.7298 59.154C80.7298 59.7173 80.5348 60.1897 80.1448 60.571C79.7548 60.9437 79.1828 61.13 78.4288 61.13Z" fill="#222222"/>
<path d="M60.196 157.257C60.196 194.986 75.1837 231.169 101.862 257.848C128.54 284.526 164.724 299.514 202.453 299.514C240.182 299.514 276.365 284.526 303.044 257.848C329.722 231.169 344.71 194.986 344.71 157.257C344.71 119.528 329.722 83.3444 303.044 56.6661C276.365 29.9877 240.182 15 202.453 15C164.724 15 128.54 29.9877 101.862 56.6661C75.1837 83.3444 60.196 119.528 60.196 157.257" fill="#013369" fill-opacity="0.6"/>
<path d="M60.196 157.257C60.196 194.986 75.1837 231.169 101.862 257.848C128.54 284.526 164.724 299.514 202.453 299.514C240.182 299.514 276.365 284.526 303.044 257.848C329.722 231.169 344.71 194.986 344.71 157.257C344.71 119.528 329.722 83.3444 303.044 56.6661C276.365 29.9877 240.182 15 202.453 15C164.724 15 128.54 29.9877 101.862 56.6661C75.1837 83.3444 60.196 119.528 60.196 157.257" stroke="white" stroke-width="2"/>
<path d="M211.344 287.232H210.56V286.272L211.344 286.048V284.864C211.344 283.904 211.541 283.163 211.936 282.64C212.331 282.107 212.976 281.84 213.872 281.84C214.139 281.84 214.405 281.883 214.672 281.968C214.939 282.043 215.157 282.123 215.328 282.208C215.509 282.293 215.621 282.352 215.664 282.384L215.392 283.296C215.36 283.275 215.28 283.237 215.152 283.184C215.024 283.12 214.875 283.061 214.704 283.008C214.533 282.944 214.384 282.912 214.256 282.912C214.053 282.912 213.899 282.965 213.792 283.072C213.685 283.179 213.605 283.392 213.552 283.712C213.499 284.021 213.472 284.485 213.472 285.104V286H215.472V287.232H213.472V294H211.344V287.232ZM218.891 294.176C218.07 294.176 217.451 293.957 217.035 293.52C216.63 293.072 216.427 292.379 216.427 291.44V286H218.555V290.992C218.555 291.696 218.641 292.181 218.811 292.448C218.982 292.715 219.259 292.848 219.643 292.848C219.899 292.848 220.129 292.805 220.331 292.72C220.534 292.624 220.694 292.528 220.811 292.432C220.929 292.336 221.003 292.272 221.035 292.24V286H223.163V294H221.451L221.147 293.296H221.115C221.115 293.317 221.03 293.408 220.859 293.568C220.689 293.717 220.438 293.856 220.107 293.984C219.777 294.112 219.371 294.176 218.891 294.176ZM225.101 286H226.813L227.085 286.656H227.149C227.149 286.635 227.234 286.555 227.405 286.416C227.586 286.277 227.842 286.149 228.173 286.032C228.503 285.904 228.914 285.84 229.405 285.84C230.226 285.84 230.839 286.064 231.245 286.512C231.661 286.949 231.869 287.637 231.869 288.576V294H229.741V289.008C229.741 288.293 229.661 287.808 229.501 287.552C229.351 287.296 229.074 287.168 228.669 287.168C228.391 287.168 228.146 287.211 227.933 287.296C227.719 287.381 227.549 287.477 227.421 287.584C227.293 287.68 227.229 287.733 227.229 287.744V294H225.101V286ZM233.71 286H235.422L235.694 286.656H235.758C235.758 286.635 235.843 286.555 236.014 286.416C236.195 286.277 236.451 286.149 236.782 286.032C237.113 285.904 237.523 285.84 238.014 285.84C238.835 285.84 239.449 286.064 239.854 286.512C240.27 286.949 240.478 287.637 240.478 288.576V294H238.35V289.008C238.35 288.293 238.27 287.808 238.11 287.552C237.961 287.296 237.683 287.168 237.278 287.168C237.001 287.168 236.755 287.211 236.542 287.296C236.329 287.381 236.158 287.477 236.03 287.584C235.902 287.68 235.838 287.733 235.838 287.744V294H233.71V286ZM242.959 298.176C242.714 298.176 242.495 298.155 242.303 298.112C242.122 298.08 241.983 298.043 241.887 298C241.791 297.968 241.733 297.947 241.711 297.936L241.887 296.688C241.93 296.709 242.037 296.741 242.207 296.784C242.378 296.837 242.549 296.864 242.719 296.864C243.199 296.864 243.589 296.672 243.887 296.288C244.186 295.915 244.517 295.259 244.879 294.32L241.471 286H244.047L245.999 291.696L247.647 286H248.975L246.207 294.176C245.877 295.083 245.562 295.819 245.263 296.384C244.975 296.949 244.645 297.387 244.271 297.696C243.898 298.016 243.461 298.176 242.959 298.176ZM213.484 312.13C212.6 312.13 211.92 311.84 211.443 311.259C210.966 310.678 210.728 309.842 210.728 308.75C210.728 308.403 210.741 308.087 210.767 307.801C210.854 306.336 211.144 305.244 211.638 304.525C212.132 303.797 212.786 303.433 213.601 303.433C213.87 303.433 214.125 303.468 214.368 303.537C214.619 303.598 214.819 303.663 214.966 303.732C215.122 303.801 215.222 303.849 215.265 303.875L215.135 304.447C215.1 304.421 215.014 304.378 214.875 304.317C214.736 304.248 214.559 304.183 214.342 304.122C214.125 304.061 213.904 304.031 213.679 304.031C212.414 304.031 211.742 305.179 211.664 307.476C212.184 306.939 212.812 306.67 213.549 306.67C214.338 306.67 214.957 306.908 215.408 307.385C215.867 307.862 216.097 308.499 216.097 309.296C216.097 309.825 215.997 310.306 215.798 310.739C215.607 311.164 215.313 311.502 214.914 311.753C214.524 312.004 214.047 312.13 213.484 312.13ZM213.484 311.558C214.047 311.558 214.459 311.35 214.719 310.934C214.979 310.509 215.109 309.959 215.109 309.283C215.109 308.659 214.97 308.156 214.693 307.775C214.416 307.394 213.995 307.203 213.432 307.203C213.025 307.203 212.687 307.303 212.418 307.502C212.149 307.693 211.933 307.909 211.768 308.152L211.781 308.165C211.764 308.26 211.746 308.39 211.729 308.555C211.72 308.72 211.716 308.884 211.716 309.049C211.716 310.722 212.305 311.558 213.484 311.558ZM222.142 312L219.919 305.5H221.037L222.727 310.973L224.521 305.5H225.236L223 312H222.142ZM226.842 304.187C226.686 304.187 226.561 304.139 226.465 304.044C226.353 303.931 226.296 303.793 226.296 303.628C226.296 303.463 226.353 303.325 226.465 303.212C226.561 303.117 226.686 303.069 226.842 303.069C227.007 303.069 227.137 303.112 227.232 303.199C227.336 303.312 227.388 303.455 227.388 303.628C227.388 303.784 227.336 303.923 227.232 304.044C227.111 304.139 226.981 304.187 226.842 304.187ZM226.361 312V305.5H227.31V312H226.361ZM231.375 312.13C230.587 312.13 229.954 311.848 229.477 311.285C229.001 310.722 228.762 309.937 228.762 308.932C228.762 307.849 228.992 306.986 229.451 306.345C229.919 305.695 230.574 305.37 231.414 305.37C231.77 305.37 232.069 305.418 232.311 305.513C232.554 305.6 232.74 305.699 232.87 305.812C233 305.916 233.065 305.977 233.065 305.994H233.078V302.276L234.014 302.224V312H233.208L233.104 311.233C233.009 311.424 232.823 311.623 232.545 311.831C232.268 312.03 231.878 312.13 231.375 312.13ZM231.583 311.493C231.895 311.493 232.164 311.428 232.389 311.298C232.615 311.159 232.784 311.012 232.896 310.856C233.018 310.7 233.078 310.609 233.078 310.583V306.592C233.078 306.575 233.018 306.514 232.896 306.41C232.784 306.306 232.623 306.211 232.415 306.124C232.216 306.037 231.978 305.994 231.7 305.994C231.033 305.994 230.543 306.241 230.231 306.735C229.919 307.22 229.763 307.944 229.763 308.906C229.763 309.816 229.915 310.475 230.218 310.882C230.53 311.289 230.985 311.493 231.583 311.493ZM238.247 312.13C237.381 312.13 236.7 311.861 236.206 311.324C235.712 310.778 235.465 309.963 235.465 308.88C235.465 307.788 235.704 306.93 236.18 306.306C236.657 305.682 237.307 305.37 238.13 305.37C238.876 305.37 239.448 305.63 239.846 306.15C240.254 306.661 240.457 307.389 240.457 308.334C240.457 308.499 240.449 308.633 240.431 308.737C240.414 308.841 240.401 308.906 240.392 308.932H236.453C236.453 310.683 237.086 311.558 238.351 311.558C238.698 311.558 238.993 311.497 239.235 311.376C239.487 311.246 239.682 311.112 239.82 310.973C239.959 310.826 240.028 310.739 240.028 310.713L240.405 311.025C240.405 311.06 240.323 311.172 240.158 311.363C239.994 311.545 239.751 311.718 239.43 311.883C239.11 312.048 238.715 312.13 238.247 312.13ZM239.573 308.386L239.586 308.139C239.586 306.666 239.101 305.929 238.13 305.929C237.619 305.929 237.225 306.133 236.947 306.54C236.67 306.939 236.51 307.554 236.466 308.386H239.573ZM244.125 312.13C243.224 312.13 242.535 311.835 242.058 311.246C241.59 310.657 241.356 309.825 241.356 308.75C241.356 307.675 241.59 306.843 242.058 306.254C242.535 305.665 243.224 305.37 244.125 305.37C245.026 305.37 245.711 305.665 246.179 306.254C246.656 306.843 246.894 307.675 246.894 308.75C246.894 309.816 246.651 310.648 246.166 311.246C245.689 311.835 245.009 312.13 244.125 312.13ZM244.125 311.558C244.732 311.558 245.178 311.328 245.464 310.869C245.75 310.401 245.893 309.695 245.893 308.75C245.893 307.814 245.75 307.112 245.464 306.644C245.178 306.176 244.732 305.942 244.125 305.942C243.518 305.942 243.072 306.176 242.786 306.644C242.5 307.103 242.357 307.805 242.357 308.75C242.357 309.695 242.5 310.401 242.786 310.869C243.072 311.328 243.518 311.558 244.125 311.558ZM249.975 312.13C249.515 312.13 249.125 312.061 248.805 311.922C248.493 311.775 248.254 311.619 248.09 311.454C247.934 311.289 247.856 311.194 247.856 311.168L248.181 310.713C248.181 310.73 248.25 310.813 248.389 310.96C248.527 311.107 248.718 311.246 248.961 311.376C249.203 311.497 249.489 311.558 249.819 311.558C250.304 311.558 250.668 311.437 250.911 311.194C251.162 310.951 251.288 310.657 251.288 310.31C251.288 310.059 251.223 309.851 251.093 309.686C250.971 309.521 250.815 309.396 250.625 309.309C250.443 309.214 250.187 309.11 249.858 308.997C249.476 308.858 249.173 308.733 248.948 308.62C248.722 308.499 248.527 308.321 248.363 308.087C248.207 307.853 248.129 307.55 248.129 307.177C248.129 306.622 248.328 306.185 248.727 305.864C249.134 305.535 249.654 305.37 250.287 305.37C250.564 305.37 250.828 305.409 251.08 305.487C251.34 305.556 251.548 305.634 251.704 305.721C251.86 305.799 251.959 305.851 252.003 305.877L251.847 306.436C251.812 306.41 251.725 306.358 251.587 306.28C251.448 306.193 251.266 306.111 251.041 306.033C250.824 305.955 250.599 305.916 250.365 305.916C249.966 305.916 249.641 306.016 249.39 306.215C249.147 306.414 249.026 306.666 249.026 306.969C249.026 307.22 249.091 307.433 249.221 307.606C249.351 307.771 249.511 307.901 249.702 307.996C249.901 308.091 250.165 308.2 250.495 308.321C250.876 308.451 251.184 308.581 251.418 308.711C251.66 308.832 251.864 309.01 252.029 309.244C252.193 309.478 252.276 309.781 252.276 310.154C252.276 310.717 252.081 311.19 251.691 311.571C251.301 311.944 250.729 312.13 249.975 312.13Z" fill="#222222"/>
<path d="M22.5827 262.868C22.5827 273.654 24.7071 284.334 28.8346 294.299C32.9621 304.263 39.0119 313.317 46.6386 320.944C54.2652 328.571 63.3194 334.621 73.2841 338.748C83.2488 342.876 93.9289 345 104.715 345C115.5 345 126.181 342.876 136.145 338.748C146.11 334.621 155.164 328.571 162.791 320.944C170.417 313.317 176.467 304.263 180.595 294.299C184.722 284.334 186.847 273.654 186.847 262.868C186.847 241.085 178.194 220.195 162.791 204.792C147.388 189.389 126.497 180.736 104.715 180.736C82.9319 180.736 62.0413 189.389 46.6386 204.792C31.2358 220.195 22.5827 241.085 22.5827 262.868" fill="#198143" fill-opacity="0.6"/>
<path d="M22.5827 262.868C22.5827 273.654 24.7071 284.334 28.8346 294.299C32.9621 304.263 39.0119 313.317 46.6386 320.944C54.2652 328.571 63.3194 334.621 73.2841 338.748C83.2488 342.876 93.9289 345 104.715 345C115.5 345 126.181 342.876 136.145 338.748C146.11 334.621 155.164 328.571 162.791 320.944C170.417 313.317 176.467 304.263 180.595 294.299C184.722 284.334 186.847 273.654 186.847 262.868C186.847 241.085 178.194 220.195 162.791 204.792C147.388 189.389 126.497 180.736 104.715 180.736C82.9319 180.736 62.0413 189.389 46.6386 204.792C31.2358 220.195 22.5827 241.085 22.5827 262.868" stroke="white" stroke-width="2"/>
<path d="M59.96 278H61.672L61.96 278.72H62.008C62.008 278.699 62.0987 278.613 62.28 278.464C62.4613 278.304 62.712 278.16 63.032 278.032C63.352 277.893 63.736 277.824 64.184 277.824C65.1333 277.824 65.88 278.187 66.424 278.912C66.968 279.637 67.24 280.613 67.24 281.84C67.24 282.704 67.112 283.467 66.856 284.128C66.6 284.779 66.232 285.285 65.752 285.648C65.2827 286 64.7227 286.176 64.072 286.176C63.656 286.176 63.304 286.128 63.016 286.032C62.728 285.947 62.5093 285.856 62.36 285.76C62.2107 285.653 62.136 285.589 62.136 285.568H62.088V290L59.96 290.064V278ZM63.272 284.96C63.6773 284.96 63.9973 284.864 64.232 284.672C64.4773 284.48 64.6587 284.165 64.776 283.728C64.8933 283.28 64.952 282.667 64.952 281.888C64.952 281.152 64.8933 280.581 64.776 280.176C64.6693 279.76 64.504 279.472 64.28 279.312C64.0667 279.152 63.784 279.072 63.432 279.072C63.176 279.072 62.9467 279.12 62.744 279.216C62.552 279.312 62.3973 279.413 62.28 279.52C62.1733 279.627 62.1093 279.707 62.088 279.76V284.432C62.1093 284.464 62.1627 284.523 62.248 284.608C62.3333 284.683 62.4613 284.763 62.632 284.848C62.8133 284.923 63.0267 284.96 63.272 284.96ZM70.6148 286.176C69.8681 286.176 69.2708 285.989 68.8228 285.616C68.3748 285.243 68.1508 284.731 68.1508 284.08C68.1508 283.141 68.5881 282.464 69.4628 282.048C70.3481 281.621 71.3774 281.36 72.5508 281.264V280.8C72.5508 280.075 72.4494 279.579 72.2468 279.312C72.0441 279.035 71.7028 278.896 71.2228 278.896C70.9988 278.896 70.7428 278.939 70.4548 279.024C70.1774 279.109 69.9321 279.2 69.7188 279.296C69.5161 279.392 69.3828 279.456 69.3188 279.488L69.1108 278.464C69.1748 278.432 69.3241 278.368 69.5588 278.272C69.8041 278.165 70.1081 278.064 70.4708 277.968C70.8441 277.872 71.2174 277.824 71.5908 277.824C72.5934 277.824 73.3561 278.037 73.8788 278.464C74.4121 278.88 74.6788 279.6 74.6788 280.624V284.256C74.6788 284.821 74.7908 285.104 75.0148 285.104C75.1001 285.104 75.2014 285.088 75.3188 285.056C75.4361 285.024 75.5161 285.003 75.5588 284.992L75.6228 285.824C75.5694 285.845 75.4414 285.883 75.2388 285.936C75.0361 285.989 74.8014 286.043 74.5348 286.096C74.2788 286.149 74.0494 286.176 73.8468 286.176C73.5374 286.176 73.2974 286.101 73.1268 285.952C72.9561 285.792 72.8441 285.536 72.7908 285.184H72.7108C72.7108 285.216 72.6361 285.317 72.4868 285.488C72.3481 285.648 72.1241 285.803 71.8148 285.952C71.5054 286.101 71.1054 286.176 70.6148 286.176ZM71.3188 285.104C71.5748 285.104 71.7934 285.04 71.9748 284.912C72.1668 284.784 72.3108 284.645 72.4068 284.496C72.5028 284.336 72.5508 284.245 72.5508 284.224V282.112C71.8361 282.187 71.2921 282.357 70.9188 282.624C70.5561 282.88 70.3748 283.275 70.3748 283.808C70.3748 284.235 70.4601 284.56 70.6308 284.784C70.8014 284.997 71.0308 285.104 71.3188 285.104ZM79.3939 286.176C78.6365 286.176 78.0765 285.989 77.7139 285.616C77.3512 285.243 77.1699 284.613 77.1699 283.728V279.232H76.4019V278.272L77.1859 278.048L78.2099 275.344H79.2979V278H81.0579V279.232H79.2979V283.184C79.2979 283.685 79.3192 284.069 79.3619 284.336C79.4152 284.592 79.4952 284.773 79.6019 284.88C79.7085 284.976 79.8579 285.024 80.0499 285.024C80.2632 285.024 80.4552 285.003 80.6259 284.96C80.7965 284.917 80.8819 284.891 80.8819 284.88L81.0099 285.792C81.0099 285.803 80.9512 285.84 80.8339 285.904C80.7165 285.968 80.5352 286.027 80.2899 286.08C80.0552 286.144 79.7565 286.176 79.3939 286.176ZM82.5225 278H84.0265L84.3785 279.344H84.4425C84.4425 279.28 84.4852 279.125 84.5705 278.88C84.6558 278.624 84.8105 278.384 85.0345 278.16C85.2692 277.936 85.5785 277.824 85.9625 277.824C86.1758 277.824 86.4158 277.856 86.6825 277.92C86.9598 277.984 87.1412 278.027 87.2265 278.048L87.0345 279.536C86.9492 279.515 86.7572 279.472 86.4585 279.408C86.1705 279.344 85.9198 279.312 85.7065 279.312C85.4612 279.312 85.2585 279.387 85.0985 279.536C84.9492 279.675 84.8372 279.824 84.7625 279.984C84.6878 280.144 84.6505 280.24 84.6505 280.272V286H82.5225V278ZM89.282 276.8C88.962 276.8 88.6793 276.693 88.434 276.48C88.1887 276.235 88.066 275.931 88.066 275.568C88.066 275.216 88.1887 274.917 88.434 274.672C88.658 274.459 88.9407 274.352 89.282 274.352C89.6127 274.352 89.8847 274.453 90.098 274.656C90.3327 274.901 90.45 275.205 90.45 275.568C90.45 275.941 90.3327 276.251 90.098 276.496C89.8633 276.699 89.5913 276.8 89.282 276.8ZM88.21 286V278H90.338V286H88.21ZM95.4889 286.176C94.2942 286.176 93.3715 285.813 92.7209 285.088C92.0809 284.363 91.7609 283.333 91.7609 282C91.7609 280.667 92.0809 279.637 92.7209 278.912C93.3715 278.187 94.2942 277.824 95.4889 277.824C96.6942 277.824 97.6169 278.187 98.2569 278.912C98.9075 279.637 99.2329 280.667 99.2329 282C99.2329 283.323 98.8969 284.352 98.2249 285.088C97.5635 285.813 96.6515 286.176 95.4889 286.176ZM95.4889 285.12C95.8409 285.12 96.1182 285.019 96.3209 284.816C96.5342 284.613 96.6889 284.288 96.7849 283.84C96.8809 283.392 96.9289 282.779 96.9289 282C96.9289 281.221 96.8809 280.608 96.7849 280.16C96.6889 279.712 96.5395 279.392 96.3369 279.2C96.1342 278.997 95.8515 278.896 95.4889 278.896C95.1262 278.896 94.8435 278.997 94.6409 279.2C94.4382 279.392 94.2889 279.712 94.1929 280.16C94.0969 280.608 94.0489 281.216 94.0489 281.984C94.0489 282.763 94.0969 283.381 94.1929 283.84C94.2889 284.288 94.4382 284.613 94.6409 284.816C94.8542 285.019 95.1369 285.12 95.4889 285.12ZM103.175 286.176C102.418 286.176 101.858 285.989 101.495 285.616C101.132 285.243 100.951 284.613 100.951 283.728V279.232H100.183V278.272L100.967 278.048L101.991 275.344H103.079V278H104.839V279.232H103.079V283.184C103.079 283.685 103.1 284.069 103.143 284.336C103.196 284.592 103.276 284.773 103.383 284.88C103.49 284.976 103.639 285.024 103.831 285.024C104.044 285.024 104.236 285.003 104.407 284.96C104.578 284.917 104.663 284.891 104.663 284.88L104.791 285.792C104.791 285.803 104.732 285.84 104.615 285.904C104.498 285.968 104.316 286.027 104.071 286.08C103.836 286.144 103.538 286.176 103.175 286.176ZM107.376 276.8C107.056 276.8 106.773 276.693 106.528 276.48C106.282 276.235 106.16 275.931 106.16 275.568C106.16 275.216 106.282 274.917 106.528 274.672C106.752 274.459 107.034 274.352 107.376 274.352C107.706 274.352 107.978 274.453 108.192 274.656C108.426 274.901 108.544 275.205 108.544 275.568C108.544 275.941 108.426 276.251 108.192 276.496C107.957 276.699 107.685 276.8 107.376 276.8ZM106.304 286V278H108.432V286H106.304ZM113.663 286.176C112.436 286.176 111.492 285.824 110.831 285.12C110.18 284.416 109.855 283.392 109.855 282.048C109.855 280.747 110.196 279.717 110.879 278.96C111.561 278.203 112.505 277.824 113.711 277.824C114.041 277.824 114.377 277.872 114.719 277.968C115.071 278.053 115.364 278.149 115.599 278.256C115.833 278.352 115.983 278.416 116.047 278.448L115.839 279.472C115.785 279.44 115.652 279.381 115.439 279.296C115.225 279.2 114.98 279.109 114.703 279.024C114.425 278.939 114.175 278.896 113.951 278.896C113.545 278.896 113.215 278.981 112.959 279.152C112.703 279.323 112.505 279.637 112.367 280.096C112.228 280.544 112.159 281.184 112.159 282.016C112.159 283.2 112.308 284.011 112.607 284.448C112.905 284.885 113.332 285.104 113.887 285.104C114.26 285.104 114.58 285.024 114.847 284.864C115.124 284.693 115.337 284.517 115.487 284.336C115.636 284.144 115.711 284.032 115.711 284L116.463 284.48C116.463 284.544 116.367 284.72 116.175 285.008C115.983 285.285 115.679 285.552 115.263 285.808C114.847 286.053 114.313 286.176 113.663 286.176ZM61.431 304V296.304L59.871 297.175L59.65 296.668L61.587 295.55H62.367V304H61.431ZM66.2298 304V296.304L64.6698 297.175L64.4488 296.668L66.3858 295.55H67.1658V304H66.2298ZM74.0238 304L71.8008 297.5H72.9188L74.6088 302.973L76.4028 297.5H77.1178L74.8818 304H74.0238ZM78.7243 296.187C78.5683 296.187 78.4426 296.139 78.3473 296.044C78.2346 295.931 78.1783 295.793 78.1783 295.628C78.1783 295.463 78.2346 295.325 78.3473 295.212C78.4426 295.117 78.5683 295.069 78.7243 295.069C78.8889 295.069 79.0189 295.112 79.1143 295.199C79.2183 295.312 79.2703 295.455 79.2703 295.628C79.2703 295.784 79.2183 295.923 79.1143 296.044C78.9929 296.139 78.8629 296.187 78.7243 296.187ZM78.2433 304V297.5H79.1922V304H78.2433ZM83.2571 304.13C82.4684 304.13 81.8358 303.848 81.3591 303.285C80.8824 302.722 80.6441 301.937 80.6441 300.932C80.6441 299.849 80.8738 298.986 81.3331 298.345C81.8011 297.695 82.4554 297.37 83.2961 297.37C83.6514 297.37 83.9504 297.418 84.1931 297.513C84.4358 297.6 84.6221 297.699 84.7521 297.812C84.8821 297.916 84.9471 297.977 84.9471 297.994H84.9601V294.276L85.8961 294.224V304H85.0901L84.9861 303.233C84.8908 303.424 84.7044 303.623 84.4271 303.831C84.1498 304.03 83.7598 304.13 83.2571 304.13ZM83.4651 303.493C83.7771 303.493 84.0458 303.428 84.2711 303.298C84.4964 303.159 84.6654 303.012 84.7781 302.856C84.8994 302.7 84.9601 302.609 84.9601 302.583V298.592C84.9601 298.575 84.8994 298.514 84.7781 298.41C84.6654 298.306 84.5051 298.211 84.2971 298.124C84.0978 298.037 83.8594 297.994 83.5821 297.994C82.9148 297.994 82.4251 298.241 82.1131 298.735C81.8011 299.22 81.6451 299.944 81.6451 300.906C81.6451 301.816 81.7968 302.475 82.1001 302.882C82.4121 303.289 82.8671 303.493 83.4651 303.493ZM90.1292 304.13C89.2625 304.13 88.5822 303.861 88.0882 303.324C87.5942 302.778 87.3472 301.963 87.3472 300.88C87.3472 299.788 87.5855 298.93 88.0622 298.306C88.5389 297.682 89.1889 297.37 90.0122 297.37C90.7575 297.37 91.3295 297.63 91.7282 298.15C92.1355 298.661 92.3392 299.389 92.3392 300.334C92.3392 300.499 92.3305 300.633 92.3132 300.737C92.2959 300.841 92.2829 300.906 92.2742 300.932H88.3352C88.3352 302.683 88.9679 303.558 90.2332 303.558C90.5799 303.558 90.8745 303.497 91.1172 303.376C91.3685 303.246 91.5635 303.112 91.7022 302.973C91.8409 302.826 91.9102 302.739 91.9102 302.713L92.2872 303.025C92.2872 303.06 92.2049 303.172 92.0402 303.363C91.8755 303.545 91.6329 303.718 91.3122 303.883C90.9915 304.048 90.5972 304.13 90.1292 304.13ZM91.4552 300.386L91.4682 300.139C91.4682 298.666 90.9829 297.929 90.0122 297.929C89.5009 297.929 89.1065 298.133 88.8292 298.54C88.5519 298.939 88.3915 299.554 88.3482 300.386H91.4552ZM96.0068 304.13C95.1055 304.13 94.4165 303.835 93.9398 303.246C93.4718 302.657 93.2378 301.825 93.2378 300.75C93.2378 299.675 93.4718 298.843 93.9398 298.254C94.4165 297.665 95.1055 297.37 96.0068 297.37C96.9082 297.37 97.5928 297.665 98.0608 298.254C98.5375 298.843 98.7758 299.675 98.7758 300.75C98.7758 301.816 98.5332 302.648 98.0478 303.246C97.5712 303.835 96.8908 304.13 96.0068 304.13ZM96.0068 303.558C96.6135 303.558 97.0598 303.328 97.3458 302.869C97.6318 302.401 97.7748 301.695 97.7748 300.75C97.7748 299.814 97.6318 299.112 97.3458 298.644C97.0598 298.176 96.6135 297.942 96.0068 297.942C95.4002 297.942 94.9538 298.176 94.6678 298.644C94.3818 299.103 94.2388 299.805 94.2388 300.75C94.2388 301.695 94.3818 302.401 94.6678 302.869C94.9538 303.328 95.4002 303.558 96.0068 303.558ZM101.857 304.13C101.397 304.13 101.007 304.061 100.687 303.922C100.375 303.775 100.136 303.619 99.9715 303.454C99.8155 303.289 99.7375 303.194 99.7375 303.168L100.063 302.713C100.063 302.73 100.132 302.813 100.271 302.96C100.409 303.107 100.6 303.246 100.843 303.376C101.085 303.497 101.371 303.558 101.701 303.558C102.186 303.558 102.55 303.437 102.793 303.194C103.044 302.951 103.17 302.657 103.17 302.31C103.17 302.059 103.105 301.851 102.975 301.686C102.853 301.521 102.697 301.396 102.507 301.309C102.325 301.214 102.069 301.11 101.74 300.997C101.358 300.858 101.055 300.733 100.83 300.62C100.604 300.499 100.409 300.321 100.245 300.087C100.089 299.853 100.011 299.55 100.011 299.177C100.011 298.622 100.21 298.185 100.609 297.864C101.016 297.535 101.536 297.37 102.169 297.37C102.446 297.37 102.71 297.409 102.962 297.487C103.222 297.556 103.43 297.634 103.586 297.721C103.742 297.799 103.841 297.851 103.885 297.877L103.729 298.436C103.694 298.41 103.607 298.358 103.469 298.28C103.33 298.193 103.148 298.111 102.923 298.033C102.706 297.955 102.481 297.916 102.247 297.916C101.848 297.916 101.523 298.016 101.272 298.215C101.029 298.414 100.908 298.666 100.908 298.969C100.908 299.22 100.973 299.433 101.103 299.606C101.233 299.771 101.393 299.901 101.584 299.996C101.783 300.091 102.047 300.2 102.377 300.321C102.758 300.451 103.066 300.581 103.3 300.711C103.542 300.832 103.746 301.01 103.911 301.244C104.075 301.478 104.158 301.781 104.158 302.154C104.158 302.717 103.963 303.19 103.573 303.571C103.183 303.944 102.611 304.13 101.857 304.13Z" fill="#222222"/>
<path d="M125.113 157.257C125.113 188.062 137.35 217.606 159.133 239.389C180.916 261.172 210.46 273.409 241.265 273.409C272.071 273.409 301.614 261.172 323.397 239.389C345.18 217.606 357.417 188.062 357.417 157.257C357.417 126.451 345.18 96.9076 323.397 75.1248C301.614 53.342 272.071 41.1046 241.265 41.1046C210.46 41.1046 180.916 53.342 159.133 75.1248C137.35 96.9076 125.113 126.451 125.113 157.257" fill="#A8001C" fill-opacity="0.6"/>
<path d="M125.113 157.257C125.113 188.062 137.35 217.606 159.133 239.389C180.916 261.172 210.46 273.409 241.265 273.409C272.071 273.409 301.614 261.172 323.397 239.389C345.18 217.606 357.417 188.062 357.417 157.257C357.417 126.451 345.18 96.9076 323.397 75.1248C301.614 53.342 272.071 41.1046 241.265 41.1046C210.46 41.1046 180.916 53.342 159.133 75.1248C137.35 96.9076 125.113 126.451 125.113 157.257" stroke="white" stroke-width="2"/>
<path d="M276.808 206.176C276.147 206.176 275.56 206.011 275.048 205.68C274.547 205.349 274.157 204.885 273.88 204.288C273.603 203.68 273.464 202.976 273.464 202.176C273.464 201.312 273.597 200.555 273.864 199.904C274.131 199.243 274.509 198.736 275 198.384C275.491 198.021 276.061 197.84 276.712 197.84C277.128 197.84 277.475 197.888 277.752 197.984C278.029 198.069 278.237 198.165 278.376 198.272C278.515 198.368 278.584 198.427 278.584 198.448H278.632V194.064L280.76 193.936V206H278.984L278.744 205.28H278.728C278.728 205.312 278.664 205.403 278.536 205.552C278.408 205.701 278.2 205.845 277.912 205.984C277.635 206.112 277.267 206.176 276.808 206.176ZM277.288 204.928C277.555 204.928 277.784 204.875 277.976 204.768C278.179 204.661 278.339 204.544 278.456 204.416C278.573 204.288 278.632 204.213 278.632 204.192V199.584C278.611 199.552 278.547 199.499 278.44 199.424C278.344 199.339 278.2 199.259 278.008 199.184C277.827 199.099 277.613 199.056 277.368 199.056C276.792 199.056 276.376 199.285 276.12 199.744C275.875 200.203 275.752 200.992 275.752 202.112C275.752 202.859 275.805 203.435 275.912 203.84C276.029 204.245 276.195 204.528 276.408 204.688C276.632 204.848 276.925 204.928 277.288 204.928ZM284.615 206.176C283.868 206.176 283.271 205.989 282.823 205.616C282.375 205.243 282.151 204.731 282.151 204.08C282.151 203.141 282.588 202.464 283.463 202.048C284.348 201.621 285.377 201.36 286.551 201.264V200.8C286.551 200.075 286.449 199.579 286.247 199.312C286.044 199.035 285.703 198.896 285.223 198.896C284.999 198.896 284.743 198.939 284.455 199.024C284.177 199.109 283.932 199.2 283.719 199.296C283.516 199.392 283.383 199.456 283.319 199.488L283.111 198.464C283.175 198.432 283.324 198.368 283.559 198.272C283.804 198.165 284.108 198.064 284.471 197.968C284.844 197.872 285.217 197.824 285.591 197.824C286.593 197.824 287.356 198.037 287.879 198.464C288.412 198.88 288.679 199.6 288.679 200.624V204.256C288.679 204.821 288.791 205.104 289.015 205.104C289.1 205.104 289.201 205.088 289.319 205.056C289.436 205.024 289.516 205.003 289.559 204.992L289.623 205.824C289.569 205.845 289.441 205.883 289.239 205.936C289.036 205.989 288.801 206.043 288.535 206.096C288.279 206.149 288.049 206.176 287.847 206.176C287.537 206.176 287.297 206.101 287.127 205.952C286.956 205.792 286.844 205.536 286.791 205.184H286.711C286.711 205.216 286.636 205.317 286.487 205.488C286.348 205.648 286.124 205.803 285.815 205.952C285.505 206.101 285.105 206.176 284.615 206.176ZM285.319 205.104C285.575 205.104 285.793 205.04 285.975 204.912C286.167 204.784 286.311 204.645 286.407 204.496C286.503 204.336 286.551 204.245 286.551 204.224V202.112C285.836 202.187 285.292 202.357 284.919 202.624C284.556 202.88 284.375 203.275 284.375 203.808C284.375 204.235 284.46 204.56 284.631 204.784C284.801 204.997 285.031 205.104 285.319 205.104ZM290.882 198H292.594L292.866 198.656H292.93C292.93 198.635 293.015 198.555 293.186 198.416C293.367 198.277 293.623 198.149 293.954 198.032C294.285 197.904 294.695 197.84 295.186 197.84C296.007 197.84 296.621 198.064 297.026 198.512C297.442 198.949 297.65 199.637 297.65 200.576V206H295.522V201.008C295.522 200.293 295.442 199.808 295.282 199.552C295.133 199.296 294.855 199.168 294.45 199.168C294.173 199.168 293.927 199.211 293.714 199.296C293.501 199.381 293.33 199.477 293.202 199.584C293.074 199.68 293.01 199.733 293.01 199.744V206H290.882V198ZM302.275 210.192C301.07 210.192 300.169 209.952 299.571 209.472C298.985 208.992 298.691 208.341 298.691 207.52C298.691 206.624 299.027 205.968 299.699 205.552C299.582 205.296 299.523 205.008 299.523 204.688C299.523 204.048 299.758 203.525 300.227 203.12C299.843 202.875 299.539 202.549 299.315 202.144C299.102 201.739 298.995 201.264 298.995 200.72C298.995 199.76 299.305 199.04 299.923 198.56C300.542 198.08 301.331 197.84 302.291 197.84C302.718 197.84 303.123 197.899 303.507 198.016L305.667 198.032V198.976L304.899 199.024C305.198 199.472 305.347 200.037 305.347 200.72C305.347 201.669 305.065 202.395 304.499 202.896C303.945 203.397 303.193 203.648 302.243 203.648C301.881 203.648 301.513 203.605 301.139 203.52C300.937 203.68 300.835 203.877 300.835 204.112C300.835 204.325 300.958 204.491 301.203 204.608C301.449 204.715 301.87 204.768 302.467 204.768C303.641 204.768 304.51 204.981 305.075 205.408C305.641 205.835 305.923 206.464 305.923 207.296C305.923 208.235 305.614 208.949 304.995 209.44C304.387 209.941 303.481 210.192 302.275 210.192ZM302.195 202.672C302.558 202.672 302.83 202.517 303.011 202.208C303.193 201.899 303.283 201.392 303.283 200.688C303.283 199.984 303.193 199.504 303.011 199.248C302.83 198.992 302.553 198.864 302.179 198.864C301.806 198.864 301.523 198.997 301.331 199.264C301.139 199.52 301.043 200.005 301.043 200.72C301.043 201.413 301.139 201.915 301.331 202.224C301.534 202.523 301.822 202.672 302.195 202.672ZM302.275 209.104C302.905 209.104 303.374 208.992 303.683 208.768C303.993 208.544 304.147 208.219 304.147 207.792C304.147 207.365 303.977 207.056 303.635 206.864C303.305 206.672 302.803 206.576 302.131 206.576C301.502 206.576 300.985 206.491 300.579 206.32C300.313 206.608 300.179 206.992 300.179 207.472C300.179 207.995 300.35 208.395 300.691 208.672C301.043 208.96 301.571 209.104 302.275 209.104ZM310.114 206.176C308.93 206.176 308.008 205.851 307.346 205.2C306.696 204.539 306.37 203.52 306.37 202.144C306.37 200.757 306.69 199.696 307.33 198.96C307.97 198.213 308.834 197.84 309.922 197.84C310.914 197.84 311.682 198.155 312.226 198.784C312.781 199.403 313.058 200.293 313.058 201.456C313.058 201.723 313.037 201.947 312.994 202.128C312.962 202.309 312.941 202.421 312.93 202.464H308.626C308.637 203.424 308.776 204.107 309.042 204.512C309.32 204.907 309.762 205.104 310.37 205.104C310.733 205.104 311.053 205.029 311.33 204.88C311.608 204.72 311.826 204.549 311.986 204.368C312.146 204.176 312.226 204.069 312.226 204.048L312.946 204.608C312.946 204.651 312.834 204.805 312.61 205.072C312.397 205.339 312.077 205.589 311.65 205.824C311.234 206.059 310.722 206.176 310.114 206.176ZM311.074 201.424V201.056C311.074 200.245 310.989 199.68 310.818 199.36C310.648 199.029 310.349 198.864 309.922 198.864C309.624 198.864 309.384 198.939 309.202 199.088C309.032 199.237 308.898 199.499 308.802 199.872C308.706 200.235 308.648 200.752 308.626 201.424H311.074ZM314.444 198H315.948L316.3 199.344H316.364C316.364 199.28 316.407 199.125 316.492 198.88C316.578 198.624 316.732 198.384 316.956 198.16C317.191 197.936 317.5 197.824 317.884 197.824C318.098 197.824 318.338 197.856 318.604 197.92C318.882 197.984 319.063 198.027 319.148 198.048L318.956 199.536C318.871 199.515 318.679 199.472 318.38 199.408C318.092 199.344 317.842 199.312 317.628 199.312C317.383 199.312 317.18 199.387 317.02 199.536C316.871 199.675 316.759 199.824 316.684 199.984C316.61 200.144 316.572 200.24 316.572 200.272V206H314.444V198ZM277.095 221.868H273.455L273.39 221.374C273.745 220.672 274.118 219.775 274.508 218.683C274.907 217.582 275.24 216.499 275.509 215.433L276.406 215.55C276.146 216.547 275.808 217.543 275.392 218.54C274.985 219.537 274.56 220.451 274.118 221.283H277.095L277.316 216.785H278.057V221.283H278.98V221.803L278.057 221.868V224H277.095V221.868ZM284.825 224L282.602 217.5H283.72L285.41 222.973L287.204 217.5H287.919L285.683 224H284.825ZM289.525 216.187C289.369 216.187 289.243 216.139 289.148 216.044C289.035 215.931 288.979 215.793 288.979 215.628C288.979 215.463 289.035 215.325 289.148 215.212C289.243 215.117 289.369 215.069 289.525 215.069C289.69 215.069 289.82 215.112 289.915 215.199C290.019 215.312 290.071 215.455 290.071 215.628C290.071 215.784 290.019 215.923 289.915 216.044C289.794 216.139 289.664 216.187 289.525 216.187ZM289.044 224V217.5H289.993V224H289.044ZM294.058 224.13C293.269 224.13 292.637 223.848 292.16 223.285C291.683 222.722 291.445 221.937 291.445 220.932C291.445 219.849 291.675 218.986 292.134 218.345C292.602 217.695 293.256 217.37 294.097 217.37C294.452 217.37 294.751 217.418 294.994 217.513C295.237 217.6 295.423 217.699 295.553 217.812C295.683 217.916 295.748 217.977 295.748 217.994H295.761V214.276L296.697 214.224V224H295.891L295.787 223.233C295.692 223.424 295.505 223.623 295.228 223.831C294.951 224.03 294.561 224.13 294.058 224.13ZM294.266 223.493C294.578 223.493 294.847 223.428 295.072 223.298C295.297 223.159 295.466 223.012 295.579 222.856C295.7 222.7 295.761 222.609 295.761 222.583V218.592C295.761 218.575 295.7 218.514 295.579 218.41C295.466 218.306 295.306 218.211 295.098 218.124C294.899 218.037 294.66 217.994 294.383 217.994C293.716 217.994 293.226 218.241 292.914 218.735C292.602 219.22 292.446 219.944 292.446 220.906C292.446 221.816 292.598 222.475 292.901 222.882C293.213 223.289 293.668 223.493 294.266 223.493ZM300.93 224.13C300.063 224.13 299.383 223.861 298.889 223.324C298.395 222.778 298.148 221.963 298.148 220.88C298.148 219.788 298.386 218.93 298.863 218.306C299.34 217.682 299.99 217.37 300.813 217.37C301.558 217.37 302.13 217.63 302.529 218.15C302.936 218.661 303.14 219.389 303.14 220.334C303.14 220.499 303.131 220.633 303.114 220.737C303.097 220.841 303.084 220.906 303.075 220.932H299.136C299.136 222.683 299.769 223.558 301.034 223.558C301.381 223.558 301.675 223.497 301.918 223.376C302.169 223.246 302.364 223.112 302.503 222.973C302.642 222.826 302.711 222.739 302.711 222.713L303.088 223.025C303.088 223.06 303.006 223.172 302.841 223.363C302.676 223.545 302.434 223.718 302.113 223.883C301.792 224.048 301.398 224.13 300.93 224.13ZM302.256 220.386L302.269 220.139C302.269 218.666 301.784 217.929 300.813 217.929C300.302 217.929 299.907 218.133 299.63 218.54C299.353 218.939 299.192 219.554 299.149 220.386H302.256ZM306.808 224.13C305.906 224.13 305.217 223.835 304.741 223.246C304.273 222.657 304.039 221.825 304.039 220.75C304.039 219.675 304.273 218.843 304.741 218.254C305.217 217.665 305.906 217.37 306.808 217.37C307.709 217.37 308.394 217.665 308.862 218.254C309.338 218.843 309.577 219.675 309.577 220.75C309.577 221.816 309.334 222.648 308.849 223.246C308.372 223.835 307.692 224.13 306.808 224.13ZM306.808 223.558C307.414 223.558 307.861 223.328 308.147 222.869C308.433 222.401 308.576 221.695 308.576 220.75C308.576 219.814 308.433 219.112 308.147 218.644C307.861 218.176 307.414 217.942 306.808 217.942C306.201 217.942 305.755 218.176 305.469 218.644C305.183 219.103 305.04 219.805 305.04 220.75C305.04 221.695 305.183 222.401 305.469 222.869C305.755 223.328 306.201 223.558 306.808 223.558ZM312.657 224.13C312.198 224.13 311.808 224.061 311.487 223.922C311.175 223.775 310.937 223.619 310.772 223.454C310.616 223.289 310.538 223.194 310.538 223.168L310.863 222.713C310.863 222.73 310.933 222.813 311.071 222.96C311.21 223.107 311.401 223.246 311.643 223.376C311.886 223.497 312.172 223.558 312.501 223.558C312.987 223.558 313.351 223.437 313.593 223.194C313.845 222.951 313.97 222.657 313.97 222.31C313.97 222.059 313.905 221.851 313.775 221.686C313.654 221.521 313.498 221.396 313.307 221.309C313.125 221.214 312.87 221.11 312.54 220.997C312.159 220.858 311.856 220.733 311.63 220.62C311.405 220.499 311.21 220.321 311.045 220.087C310.889 219.853 310.811 219.55 310.811 219.177C310.811 218.622 311.011 218.185 311.409 217.864C311.817 217.535 312.337 217.37 312.969 217.37C313.247 217.37 313.511 217.409 313.762 217.487C314.022 217.556 314.23 217.634 314.386 217.721C314.542 217.799 314.642 217.851 314.685 217.877L314.529 218.436C314.495 218.41 314.408 218.358 314.269 218.28C314.131 218.193 313.949 218.111 313.723 218.033C313.507 217.955 313.281 217.916 313.047 217.916C312.649 217.916 312.324 218.016 312.072 218.215C311.83 218.414 311.708 218.666 311.708 218.969C311.708 219.22 311.773 219.433 311.903 219.606C312.033 219.771 312.194 219.901 312.384 219.996C312.584 220.091 312.848 220.2 313.177 220.321C313.559 220.451 313.866 220.581 314.1 220.711C314.343 220.832 314.547 221.01 314.711 221.244C314.876 221.478 314.958 221.781 314.958 222.154C314.958 222.717 314.763 223.19 314.373 223.571C313.983 223.944 313.411 224.13 312.657 224.13Z" fill="#EEEEEE"/>
<path d="M79.3315 118.452C79.3315 131.662 81.9334 144.742 86.9886 156.946C92.0437 169.151 99.4532 180.24 108.794 189.58C118.135 198.921 129.224 206.331 141.428 211.386C153.632 216.441 166.713 219.043 179.922 219.043C193.132 219.043 206.212 216.441 218.417 211.386C230.621 206.331 241.71 198.921 251.051 189.58C260.391 180.24 267.801 169.151 272.856 156.946C277.911 144.742 280.513 131.662 280.513 118.452C280.513 105.242 277.911 92.1617 272.856 79.9575C267.801 67.7533 260.391 56.6642 251.051 47.3235C241.71 37.9828 230.621 30.5733 218.417 25.5182C206.212 20.463 193.132 17.8611 179.922 17.8611C166.713 17.8611 153.632 20.463 141.428 25.5182C129.224 30.5733 118.135 37.9828 108.794 47.3235C99.4532 56.6642 92.0437 67.7533 86.9886 79.9575C81.9334 92.1617 79.3315 105.242 79.3315 118.452" fill="#FFB612" fill-opacity="0.6"/>
<path d="M79.3315 118.452C79.3315 131.662 81.9334 144.742 86.9886 156.946C92.0437 169.151 99.4532 180.24 108.794 189.58C118.135 198.921 129.224 206.331 141.428 211.386C153.632 216.441 166.713 219.043 179.922 219.043C193.132 219.043 206.212 216.441 218.417 211.386C230.621 206.331 241.71 198.921 251.051 189.58C260.391 180.24 267.801 169.151 272.856 156.946C277.911 144.742 280.513 131.662 280.513 118.452C280.513 105.242 277.911 92.1617 272.856 79.9575C267.801 67.7533 260.391 56.6642 251.051 47.3235C241.71 37.9828 230.621 30.5733 218.417 25.5182C206.212 20.463 193.132 17.8611 179.922 17.8611C166.713 17.8611 153.632 20.463 141.428 25.5182C129.224 30.5733 118.135 37.9828 108.794 47.3235C99.4532 56.6642 92.0437 67.7533 86.9886 79.9575C81.9334 92.1617 79.3315 105.242 79.3315 118.452" stroke="white" stroke-width="2"/>
<path d="M107.896 66.176C107.149 66.176 106.552 65.9893 106.104 65.616C105.656 65.2427 105.432 64.7307 105.432 64.08C105.432 63.1413 105.869 62.464 106.744 62.048C107.629 61.6213 108.659 61.36 109.832 61.264V60.8C109.832 60.0747 109.731 59.5787 109.528 59.312C109.325 59.0347 108.984 58.896 108.504 58.896C108.28 58.896 108.024 58.9387 107.736 59.024C107.459 59.1093 107.213 59.2 107 59.296C106.797 59.392 106.664 59.456 106.6 59.488L106.392 58.464C106.456 58.432 106.605 58.368 106.84 58.272C107.085 58.1653 107.389 58.064 107.752 57.968C108.125 57.872 108.499 57.824 108.872 57.824C109.875 57.824 110.637 58.0373 111.16 58.464C111.693 58.88 111.96 59.6 111.96 60.624V64.256C111.96 64.8213 112.072 65.104 112.296 65.104C112.381 65.104 112.483 65.088 112.6 65.056C112.717 65.024 112.797 65.0027 112.84 64.992L112.904 65.824C112.851 65.8453 112.723 65.8827 112.52 65.936C112.317 65.9893 112.083 66.0427 111.816 66.096C111.56 66.1493 111.331 66.176 111.128 66.176C110.819 66.176 110.579 66.1013 110.408 65.952C110.237 65.792 110.125 65.536 110.072 65.184H109.992C109.992 65.216 109.917 65.3173 109.768 65.488C109.629 65.648 109.405 65.8027 109.096 65.952C108.787 66.1013 108.387 66.176 107.896 66.176ZM108.6 65.104C108.856 65.104 109.075 65.04 109.256 64.912C109.448 64.784 109.592 64.6453 109.688 64.496C109.784 64.336 109.832 64.2453 109.832 64.224V62.112C109.117 62.1867 108.573 62.3573 108.2 62.624C107.837 62.88 107.656 63.2747 107.656 63.808C107.656 64.2347 107.741 64.56 107.912 64.784C108.083 64.9973 108.312 65.104 108.6 65.104ZM114.163 58H115.875L116.147 58.656H116.211C116.211 58.6347 116.296 58.5547 116.467 58.416C116.648 58.2773 116.904 58.1493 117.235 58.032C117.566 57.904 117.976 57.84 118.467 57.84C119.288 57.84 119.902 58.064 120.307 58.512C120.723 58.9493 120.931 59.6373 120.931 60.576V66H118.803V61.008C118.803 60.2933 118.723 59.808 118.563 59.552C118.414 59.296 118.136 59.168 117.731 59.168C117.454 59.168 117.208 59.2107 116.995 59.296C116.782 59.3813 116.611 59.4773 116.483 59.584C116.355 59.68 116.291 59.7333 116.291 59.744V66H114.163V58ZM123.845 56.8C123.525 56.8 123.242 56.6933 122.997 56.48C122.751 56.2347 122.629 55.9307 122.629 55.568C122.629 55.216 122.751 54.9173 122.997 54.672C123.221 54.4587 123.503 54.352 123.845 54.352C124.175 54.352 124.447 54.4533 124.661 54.656C124.895 54.9013 125.013 55.2053 125.013 55.568C125.013 55.9413 124.895 56.2507 124.661 56.496C124.426 56.6987 124.154 56.8 123.845 56.8ZM122.773 66V58H124.901V66H122.773ZM126.819 58H128.531L128.803 58.72H128.851C128.851 58.6987 128.947 58.6133 129.139 58.464C129.331 58.304 129.582 58.16 129.891 58.032C130.211 57.904 130.569 57.84 130.963 57.84C131.401 57.84 131.763 57.9093 132.051 58.048C132.339 58.1867 132.563 58.4 132.723 58.688C132.905 58.5387 133.059 58.4213 133.187 58.336C133.326 58.24 133.555 58.1333 133.875 58.016C134.206 57.8987 134.579 57.84 134.995 57.84C135.753 57.84 136.297 58.0427 136.627 58.448C136.958 58.8427 137.123 59.4987 137.123 60.416V66H134.995V60.576C134.995 60 134.926 59.6213 134.787 59.44C134.659 59.248 134.446 59.152 134.147 59.152C133.881 59.152 133.651 59.2213 133.459 59.36C133.267 59.488 133.118 59.6213 133.011 59.76C133.033 60.016 133.043 60.224 133.043 60.384V66H130.915V60.576C130.915 60.0107 130.846 59.632 130.707 59.44C130.579 59.248 130.371 59.152 130.083 59.152C129.806 59.152 129.566 59.2213 129.363 59.36C129.161 59.4987 129.022 59.6213 128.947 59.728V66H126.819V58ZM140.912 66.176C140.165 66.176 139.568 65.9893 139.12 65.616C138.672 65.2427 138.448 64.7307 138.448 64.08C138.448 63.1413 138.885 62.464 139.76 62.048C140.645 61.6213 141.674 61.36 142.848 61.264V60.8C142.848 60.0747 142.746 59.5787 142.544 59.312C142.341 59.0347 142 58.896 141.52 58.896C141.296 58.896 141.04 58.9387 140.752 59.024C140.474 59.1093 140.229 59.2 140.016 59.296C139.813 59.392 139.68 59.456 139.616 59.488L139.408 58.464C139.472 58.432 139.621 58.368 139.856 58.272C140.101 58.1653 140.405 58.064 140.768 57.968C141.141 57.872 141.514 57.824 141.888 57.824C142.89 57.824 143.653 58.0373 144.176 58.464C144.709 58.88 144.976 59.6 144.976 60.624V64.256C144.976 64.8213 145.088 65.104 145.312 65.104C145.397 65.104 145.498 65.088 145.616 65.056C145.733 65.024 145.813 65.0027 145.856 64.992L145.92 65.824C145.866 65.8453 145.738 65.8827 145.536 65.936C145.333 65.9893 145.098 66.0427 144.832 66.096C144.576 66.1493 144.346 66.176 144.144 66.176C143.834 66.176 143.594 66.1013 143.424 65.952C143.253 65.792 143.141 65.536 143.088 65.184H143.008C143.008 65.216 142.933 65.3173 142.784 65.488C142.645 65.648 142.421 65.8027 142.112 65.952C141.802 66.1013 141.402 66.176 140.912 66.176ZM141.616 65.104C141.872 65.104 142.09 65.04 142.272 64.912C142.464 64.784 142.608 64.6453 142.704 64.496C142.8 64.336 142.848 64.2453 142.848 64.224V62.112C142.133 62.1867 141.589 62.3573 141.216 62.624C140.853 62.88 140.672 63.2747 140.672 63.808C140.672 64.2347 140.757 64.56 140.928 64.784C141.098 64.9973 141.328 65.104 141.616 65.104ZM147.179 66V54.064L149.307 53.936V66H147.179ZM153.481 66.176C152.863 66.176 152.345 66.0907 151.929 65.92C151.513 65.7387 151.199 65.5467 150.985 65.344C150.772 65.1413 150.665 65.0187 150.665 64.976L151.257 64.144C151.257 64.1653 151.343 64.2613 151.513 64.432C151.684 64.6027 151.897 64.7627 152.153 64.912C152.42 65.0507 152.713 65.12 153.033 65.12C153.428 65.12 153.732 65.0187 153.945 64.816C154.159 64.6133 154.265 64.3467 154.265 64.016C154.265 63.696 154.153 63.4453 153.929 63.264C153.705 63.072 153.369 62.8747 152.921 62.672C152.505 62.4693 152.169 62.288 151.913 62.128C151.668 61.9573 151.455 61.728 151.273 61.44C151.092 61.1413 151.001 60.7627 151.001 60.304C151.001 59.5147 151.273 58.9067 151.817 58.48C152.361 58.0427 153.033 57.824 153.833 57.824C154.175 57.824 154.516 57.8667 154.857 57.952C155.199 58.0373 155.481 58.1227 155.705 58.208C155.929 58.2933 156.073 58.352 156.137 58.384L155.849 59.456C155.796 59.424 155.673 59.36 155.481 59.264C155.289 59.168 155.055 59.0773 154.777 58.992C154.511 58.9067 154.265 58.864 154.041 58.864C153.711 58.864 153.455 58.944 153.273 59.104C153.092 59.264 153.001 59.4773 153.001 59.744C153.001 60.064 153.119 60.3253 153.353 60.528C153.599 60.72 153.967 60.928 154.457 61.152C154.895 61.3653 155.247 61.5627 155.513 61.744C155.78 61.9147 156.009 62.1493 156.201 62.448C156.393 62.7467 156.489 63.12 156.489 63.568C156.489 64.3467 156.228 64.976 155.705 65.456C155.193 65.936 154.452 66.176 153.481 66.176ZM107.782 82.13C107.314 82.13 106.911 82.0607 106.573 81.922C106.235 81.7833 105.971 81.636 105.78 81.48C105.598 81.324 105.507 81.233 105.507 81.207L105.819 80.7C105.819 80.7173 105.901 80.7953 106.066 80.934C106.239 81.0727 106.465 81.2027 106.742 81.324C107.019 81.4453 107.331 81.506 107.678 81.506C108.293 81.506 108.757 81.337 109.069 80.999C109.39 80.661 109.55 80.1713 109.55 79.53C109.55 78.958 109.416 78.516 109.147 78.204C108.887 77.892 108.501 77.736 107.99 77.736C107.86 77.736 107.739 77.7577 107.626 77.801C107.513 77.8443 107.422 77.8877 107.353 77.931C107.292 77.9743 107.253 78.0047 107.236 78.022L106.898 77.632L109.29 74.447H105.897L105.949 73.55H110.2V74.161L107.86 77.216C107.964 77.19 108.081 77.177 108.211 77.177C108.904 77.177 109.463 77.3937 109.888 77.827C110.321 78.2517 110.538 78.8193 110.538 79.53C110.538 80.0673 110.417 80.531 110.174 80.921C109.94 81.311 109.615 81.61 109.199 81.818C108.783 82.026 108.311 82.13 107.782 82.13ZM116.596 82L114.373 75.5H115.491L117.181 80.973L118.975 75.5H119.69L117.454 82H116.596ZM121.297 74.187C121.141 74.187 121.015 74.1393 120.92 74.044C120.807 73.9313 120.751 73.7927 120.751 73.628C120.751 73.4633 120.807 73.3247 120.92 73.212C121.015 73.1167 121.141 73.069 121.297 73.069C121.461 73.069 121.591 73.1123 121.687 73.199C121.791 73.3117 121.843 73.4547 121.843 73.628C121.843 73.784 121.791 73.9227 121.687 74.044C121.565 74.1393 121.435 74.187 121.297 74.187ZM120.816 82V75.5H121.765V82H120.816ZM125.829 82.13C125.041 82.13 124.408 81.8483 123.931 81.285C123.455 80.7217 123.216 79.9373 123.216 78.932C123.216 77.8487 123.446 76.9863 123.905 76.345C124.373 75.695 125.028 75.37 125.868 75.37C126.224 75.37 126.523 75.4177 126.765 75.513C127.008 75.5997 127.194 75.6993 127.324 75.812C127.454 75.916 127.519 75.9767 127.519 75.994H127.532V72.276L128.468 72.224V82H127.662L127.558 81.233C127.463 81.4237 127.277 81.623 126.999 81.831C126.722 82.0303 126.332 82.13 125.829 82.13ZM126.037 81.493C126.349 81.493 126.618 81.428 126.843 81.298C127.069 81.1593 127.238 81.012 127.35 80.856C127.472 80.7 127.532 80.609 127.532 80.583V76.592C127.532 76.5747 127.472 76.514 127.35 76.41C127.238 76.306 127.077 76.2107 126.869 76.124C126.67 76.0373 126.432 75.994 126.154 75.994C125.487 75.994 124.997 76.241 124.685 76.735C124.373 77.2203 124.217 77.944 124.217 78.906C124.217 79.816 124.369 80.4747 124.672 80.882C124.984 81.2893 125.439 81.493 126.037 81.493ZM132.701 82.13C131.835 82.13 131.154 81.8613 130.66 81.324C130.166 80.778 129.919 79.9633 129.919 78.88C129.919 77.788 130.158 76.93 130.634 76.306C131.111 75.682 131.761 75.37 132.584 75.37C133.33 75.37 133.902 75.63 134.3 76.15C134.708 76.6613 134.911 77.3893 134.911 78.334C134.911 78.4987 134.903 78.633 134.885 78.737C134.868 78.841 134.855 78.906 134.846 78.932H130.907C130.907 80.6827 131.54 81.558 132.805 81.558C133.152 81.558 133.447 81.4973 133.689 81.376C133.941 81.246 134.136 81.1117 134.274 80.973C134.413 80.8257 134.482 80.739 134.482 80.713L134.859 81.025C134.859 81.0597 134.777 81.1723 134.612 81.363C134.448 81.545 134.205 81.7183 133.884 81.883C133.564 82.0477 133.169 82.13 132.701 82.13ZM134.027 78.386L134.04 78.139C134.04 76.6657 133.555 75.929 132.584 75.929C132.073 75.929 131.679 76.1327 131.401 76.54C131.124 76.9387 130.964 77.554 130.92 78.386H134.027ZM138.579 82.13C137.678 82.13 136.989 81.8353 136.512 81.246C136.044 80.6567 135.81 79.8247 135.81 78.75C135.81 77.6753 136.044 76.8433 136.512 76.254C136.989 75.6647 137.678 75.37 138.579 75.37C139.48 75.37 140.165 75.6647 140.633 76.254C141.11 76.8433 141.348 77.6753 141.348 78.75C141.348 79.816 141.105 80.648 140.62 81.246C140.143 81.8353 139.463 82.13 138.579 82.13ZM138.579 81.558C139.186 81.558 139.632 81.3283 139.918 80.869C140.204 80.401 140.347 79.6947 140.347 78.75C140.347 77.814 140.204 77.112 139.918 76.644C139.632 76.176 139.186 75.942 138.579 75.942C137.972 75.942 137.526 76.176 137.24 76.644C136.954 77.1033 136.811 77.8053 136.811 78.75C136.811 79.6947 136.954 80.401 137.24 80.869C137.526 81.3283 137.972 81.558 138.579 81.558ZM144.429 82.13C143.969 82.13 143.579 82.0607 143.259 81.922C142.947 81.7747 142.708 81.6187 142.544 81.454C142.388 81.2893 142.31 81.194 142.31 81.168L142.635 80.713C142.635 80.7303 142.704 80.8127 142.843 80.96C142.981 81.1073 143.172 81.246 143.415 81.376C143.657 81.4973 143.943 81.558 144.273 81.558C144.758 81.558 145.122 81.4367 145.365 81.194C145.616 80.9513 145.742 80.6567 145.742 80.31C145.742 80.0587 145.677 79.8507 145.547 79.686C145.425 79.5213 145.269 79.3957 145.079 79.309C144.897 79.2137 144.641 79.1097 144.312 78.997C143.93 78.8583 143.627 78.7327 143.402 78.62C143.176 78.4987 142.981 78.321 142.817 78.087C142.661 77.853 142.583 77.5497 142.583 77.177C142.583 76.6223 142.782 76.1847 143.181 75.864C143.588 75.5347 144.108 75.37 144.741 75.37C145.018 75.37 145.282 75.409 145.534 75.487C145.794 75.5563 146.002 75.6343 146.158 75.721C146.314 75.799 146.413 75.851 146.457 75.877L146.301 76.436C146.266 76.41 146.179 76.358 146.041 76.28C145.902 76.1933 145.72 76.111 145.495 76.033C145.278 75.955 145.053 75.916 144.819 75.916C144.42 75.916 144.095 76.0157 143.844 76.215C143.601 76.4143 143.48 76.6657 143.48 76.969C143.48 77.2203 143.545 77.4327 143.675 77.606C143.805 77.7707 143.965 77.9007 144.156 77.996C144.355 78.0913 144.619 78.1997 144.949 78.321C145.33 78.451 145.638 78.581 145.872 78.711C146.114 78.8323 146.318 79.01 146.483 79.244C146.647 79.478 146.73 79.7813 146.73 80.154C146.73 80.7173 146.535 81.1897 146.145 81.571C145.755 81.9437 145.183 82.13 144.429 82.13Z" fill="#EEEEEE"/>
<path d="M174.163 139.659C174.163 147.285 175.665 154.837 178.584 161.883C181.502 168.929 185.78 175.332 191.173 180.725C196.566 186.117 202.968 190.395 210.014 193.314C217.06 196.233 224.612 197.735 232.239 197.735C239.866 197.735 247.418 196.233 254.464 193.314C261.51 190.395 267.912 186.117 273.305 180.725C278.698 175.332 282.976 168.929 285.894 161.883C288.813 154.837 290.315 147.285 290.315 139.659C290.315 124.256 284.196 109.484 273.305 98.5926C262.414 87.7012 247.642 81.5825 232.239 81.5825C216.836 81.5825 202.064 87.7012 191.173 98.5926C180.282 109.484 174.163 124.256 174.163 139.659" fill="white" fill-opacity="0.6"/>
<path d="M174.163 139.659C174.163 147.285 175.665 154.837 178.584 161.883C181.502 168.929 185.78 175.332 191.173 180.725C196.566 186.117 202.968 190.395 210.014 193.314C217.06 196.233 224.612 197.735 232.239 197.735C239.866 197.735 247.418 196.233 254.464 193.314C261.51 190.395 267.912 186.117 273.305 180.725C278.698 175.332 282.976 168.929 285.894 161.883C288.813 154.837 290.315 147.285 290.315 139.659C290.315 124.256 284.196 109.484 273.305 98.5926C262.414 87.7012 247.642 81.5825 232.239 81.5825C216.836 81.5825 202.064 87.7012 191.173 98.5926C180.282 109.484 174.163 124.256 174.163 139.659" stroke="white" stroke-width="2"/>
<path d="M210.36 140.176C209.539 140.176 208.92 139.957 208.504 139.52C208.099 139.072 207.896 138.379 207.896 137.44V132H210.024V136.992C210.024 137.696 210.109 138.181 210.28 138.448C210.451 138.715 210.728 138.848 211.112 138.848C211.368 138.848 211.597 138.805 211.8 138.72C212.003 138.624 212.163 138.528 212.28 138.432C212.397 138.336 212.472 138.272 212.504 138.24V132H214.632V140H212.92L212.616 139.296H212.584C212.584 139.317 212.499 139.408 212.328 139.568C212.157 139.717 211.907 139.856 211.576 139.984C211.245 140.112 210.84 140.176 210.36 140.176ZM218.809 140.176C218.191 140.176 217.673 140.091 217.257 139.92C216.841 139.739 216.527 139.547 216.313 139.344C216.1 139.141 215.993 139.019 215.993 138.976L216.585 138.144C216.585 138.165 216.671 138.261 216.841 138.432C217.012 138.603 217.225 138.763 217.481 138.912C217.748 139.051 218.041 139.12 218.361 139.12C218.756 139.12 219.06 139.019 219.273 138.816C219.487 138.613 219.593 138.347 219.593 138.016C219.593 137.696 219.481 137.445 219.257 137.264C219.033 137.072 218.697 136.875 218.249 136.672C217.833 136.469 217.497 136.288 217.241 136.128C216.996 135.957 216.783 135.728 216.601 135.44C216.42 135.141 216.329 134.763 216.329 134.304C216.329 133.515 216.601 132.907 217.145 132.48C217.689 132.043 218.361 131.824 219.161 131.824C219.503 131.824 219.844 131.867 220.185 131.952C220.527 132.037 220.809 132.123 221.033 132.208C221.257 132.293 221.401 132.352 221.465 132.384L221.177 133.456C221.124 133.424 221.001 133.36 220.809 133.264C220.617 133.168 220.383 133.077 220.105 132.992C219.839 132.907 219.593 132.864 219.369 132.864C219.039 132.864 218.783 132.944 218.601 133.104C218.42 133.264 218.329 133.477 218.329 133.744C218.329 134.064 218.447 134.325 218.681 134.528C218.927 134.72 219.295 134.928 219.785 135.152C220.223 135.365 220.575 135.563 220.841 135.744C221.108 135.915 221.337 136.149 221.529 136.448C221.721 136.747 221.817 137.12 221.817 137.568C221.817 138.347 221.556 138.976 221.033 139.456C220.521 139.936 219.78 140.176 218.809 140.176ZM226.489 140.176C225.305 140.176 224.383 139.851 223.721 139.2C223.071 138.539 222.745 137.52 222.745 136.144C222.745 134.757 223.065 133.696 223.705 132.96C224.345 132.213 225.209 131.84 226.297 131.84C227.289 131.84 228.057 132.155 228.601 132.784C229.156 133.403 229.433 134.293 229.433 135.456C229.433 135.723 229.412 135.947 229.369 136.128C229.337 136.309 229.316 136.421 229.305 136.464H225.001C225.012 137.424 225.151 138.107 225.417 138.512C225.695 138.907 226.137 139.104 226.745 139.104C227.108 139.104 227.428 139.029 227.705 138.88C227.983 138.72 228.201 138.549 228.361 138.368C228.521 138.176 228.601 138.069 228.601 138.048L229.321 138.608C229.321 138.651 229.209 138.805 228.985 139.072C228.772 139.339 228.452 139.589 228.025 139.824C227.609 140.059 227.097 140.176 226.489 140.176ZM227.449 135.424V135.056C227.449 134.245 227.364 133.68 227.193 133.36C227.023 133.029 226.724 132.864 226.297 132.864C225.999 132.864 225.759 132.939 225.577 133.088C225.407 133.237 225.273 133.499 225.177 133.872C225.081 134.235 225.023 134.752 225.001 135.424H227.449ZM237.138 140.176C236.519 140.176 236.002 140.091 235.586 139.92C235.17 139.739 234.855 139.547 234.642 139.344C234.428 139.141 234.322 139.019 234.322 138.976L234.914 138.144C234.914 138.165 234.999 138.261 235.17 138.432C235.34 138.603 235.554 138.763 235.81 138.912C236.076 139.051 236.37 139.12 236.69 139.12C237.084 139.12 237.388 139.019 237.602 138.816C237.815 138.613 237.922 138.347 237.922 138.016C237.922 137.696 237.81 137.445 237.586 137.264C237.362 137.072 237.026 136.875 236.578 136.672C236.162 136.469 235.826 136.288 235.57 136.128C235.324 135.957 235.111 135.728 234.93 135.44C234.748 135.141 234.658 134.763 234.658 134.304C234.658 133.515 234.93 132.907 235.474 132.48C236.018 132.043 236.69 131.824 237.49 131.824C237.831 131.824 238.172 131.867 238.514 131.952C238.855 132.037 239.138 132.123 239.362 132.208C239.586 132.293 239.73 132.352 239.794 132.384L239.506 133.456C239.452 133.424 239.33 133.36 239.138 133.264C238.946 133.168 238.711 133.077 238.434 132.992C238.167 132.907 237.922 132.864 237.698 132.864C237.367 132.864 237.111 132.944 236.93 133.104C236.748 133.264 236.658 133.477 236.658 133.744C236.658 134.064 236.775 134.325 237.01 134.528C237.255 134.72 237.623 134.928 238.114 135.152C238.551 135.365 238.903 135.563 239.17 135.744C239.436 135.915 239.666 136.149 239.858 136.448C240.05 136.747 240.146 137.12 240.146 137.568C240.146 138.347 239.884 138.976 239.362 139.456C238.85 139.936 238.108 140.176 237.138 140.176ZM244.817 140.176C243.633 140.176 242.711 139.851 242.049 139.2C241.399 138.539 241.073 137.52 241.073 136.144C241.073 134.757 241.393 133.696 242.033 132.96C242.673 132.213 243.537 131.84 244.625 131.84C245.617 131.84 246.385 132.155 246.929 132.784C247.484 133.403 247.761 134.293 247.761 135.456C247.761 135.723 247.74 135.947 247.697 136.128C247.665 136.309 247.644 136.421 247.633 136.464H243.329C243.34 137.424 243.479 138.107 243.745 138.512C244.023 138.907 244.465 139.104 245.073 139.104C245.436 139.104 245.756 139.029 246.033 138.88C246.311 138.72 246.529 138.549 246.689 138.368C246.849 138.176 246.929 138.069 246.929 138.048L247.649 138.608C247.649 138.651 247.537 138.805 247.313 139.072C247.1 139.339 246.78 139.589 246.353 139.824C245.937 140.059 245.425 140.176 244.817 140.176ZM245.777 135.424V135.056C245.777 134.245 245.692 133.68 245.521 133.36C245.351 133.029 245.052 132.864 244.625 132.864C244.327 132.864 244.087 132.939 243.905 133.088C243.735 133.237 243.601 133.499 243.505 133.872C243.409 134.235 243.351 134.752 243.329 135.424H245.777ZM248.332 140L250.796 136.128L248.46 132H251.004L252.332 134.832L253.836 132H255.292L253.068 135.632L255.612 140H253.068L251.564 137.008L249.82 140H248.332ZM209.618 158V149.712L207.938 150.65L207.7 150.104L209.786 148.9H210.626V158H209.618ZM217.828 158L215.605 151.5H216.723L218.413 156.973L220.207 151.5H220.922L218.686 158H217.828ZM222.528 150.187C222.372 150.187 222.246 150.139 222.151 150.044C222.038 149.931 221.982 149.793 221.982 149.628C221.982 149.463 222.038 149.325 222.151 149.212C222.246 149.117 222.372 149.069 222.528 149.069C222.693 149.069 222.823 149.112 222.918 149.199C223.022 149.312 223.074 149.455 223.074 149.628C223.074 149.784 223.022 149.923 222.918 150.044C222.797 150.139 222.667 150.187 222.528 150.187ZM222.047 158V151.5H222.996V158H222.047ZM227.061 158.13C226.272 158.13 225.639 157.848 225.163 157.285C224.686 156.722 224.448 155.937 224.448 154.932C224.448 153.849 224.677 152.986 225.137 152.345C225.605 151.695 226.259 151.37 227.1 151.37C227.455 151.37 227.754 151.418 227.997 151.513C228.239 151.6 228.426 151.699 228.556 151.812C228.686 151.916 228.751 151.977 228.751 151.994H228.764V148.276L229.7 148.224V158H228.894L228.79 157.233C228.694 157.424 228.508 157.623 228.231 157.831C227.953 158.03 227.563 158.13 227.061 158.13ZM227.269 157.493C227.581 157.493 227.849 157.428 228.075 157.298C228.3 157.159 228.469 157.012 228.582 156.856C228.703 156.7 228.764 156.609 228.764 156.583V152.592C228.764 152.575 228.703 152.514 228.582 152.41C228.469 152.306 228.309 152.211 228.101 152.124C227.901 152.037 227.663 151.994 227.386 151.994C226.718 151.994 226.229 152.241 225.917 152.735C225.605 153.22 225.449 153.944 225.449 154.906C225.449 155.816 225.6 156.475 225.904 156.882C226.216 157.289 226.671 157.493 227.269 157.493ZM233.933 158.13C233.066 158.13 232.386 157.861 231.892 157.324C231.398 156.778 231.151 155.963 231.151 154.88C231.151 153.788 231.389 152.93 231.866 152.306C232.343 151.682 232.993 151.37 233.816 151.37C234.561 151.37 235.133 151.63 235.532 152.15C235.939 152.661 236.143 153.389 236.143 154.334C236.143 154.499 236.134 154.633 236.117 154.737C236.1 154.841 236.087 154.906 236.078 154.932H232.139C232.139 156.683 232.772 157.558 234.037 157.558C234.384 157.558 234.678 157.497 234.921 157.376C235.172 157.246 235.367 157.112 235.506 156.973C235.645 156.826 235.714 156.739 235.714 156.713L236.091 157.025C236.091 157.06 236.009 157.172 235.844 157.363C235.679 157.545 235.437 157.718 235.116 157.883C234.795 158.048 234.401 158.13 233.933 158.13ZM235.259 154.386L235.272 154.139C235.272 152.666 234.787 151.929 233.816 151.929C233.305 151.929 232.91 152.133 232.633 152.54C232.356 152.939 232.195 153.554 232.152 154.386H235.259ZM239.811 158.13C238.909 158.13 238.22 157.835 237.744 157.246C237.276 156.657 237.042 155.825 237.042 154.75C237.042 153.675 237.276 152.843 237.744 152.254C238.22 151.665 238.909 151.37 239.811 151.37C240.712 151.37 241.397 151.665 241.865 152.254C242.341 152.843 242.58 153.675 242.58 154.75C242.58 155.816 242.337 156.648 241.852 157.246C241.375 157.835 240.695 158.13 239.811 158.13ZM239.811 157.558C240.417 157.558 240.864 157.328 241.15 156.869C241.436 156.401 241.579 155.695 241.579 154.75C241.579 153.814 241.436 153.112 241.15 152.644C240.864 152.176 240.417 151.942 239.811 151.942C239.204 151.942 238.758 152.176 238.472 152.644C238.186 153.103 238.043 153.805 238.043 154.75C238.043 155.695 238.186 156.401 238.472 156.869C238.758 157.328 239.204 157.558 239.811 157.558Z" fill="#222222"/>
</svg>
